<svg style="position: absolute; width: 0; height: 0; overflow: hidden;" version="1.1" xmlns="http://www.w3.org/2000/svg" xmlns:xlink="http://www.w3.org/1999/xlink">
  <defs>
    <symbol id="icon-LiftedLogic" viewBox="0 0 221 32">
      <title>Lifted Logic Web Design in Kansas City</title>
      <path d="M186.049 3.818h-9.095l-11.116 20.884h20.547v-6.625h-8.982z"></path>
      <path d="M192.561 3.818h9.095l11.116 20.884h-20.547v-6.625h8.926z"></path>
      <path d="M7.691 4.323h4.098v16.112h9.825v3.537h-13.923v-19.649z"></path>
      <path d="M27.958 7.691h-3.818v-3.481h3.874l-0.056 3.481zM24.14 9.432h3.874v14.54h-3.874v-14.54z"></path>
      <path d="M37.67 4.154l0.786 0.056v3.088c-0.225 0-0.561-0.056-1.067-0.056-0.393-0.056-0.786 0.056-1.011 0.337-0.168 0.225-0.281 0.505-0.281 0.786v1.235h2.47v2.695h-2.526v11.733h-3.761v-11.789h-2.133v-2.695h2.077v-0.954c0-1.572 0.281-2.639 0.786-3.2 0.561-0.898 1.909-1.291 3.986-1.291 0.281 0 0.505 0 0.674 0.056z"></path>
      <path d="M40.365 12.295v-2.751h2.021v-4.042h3.761v4.042h2.358v2.695h-2.358v7.691c-0.056 0.393 0 0.786 0.225 1.123 0.449 0.225 0.898 0.281 1.404 0.225h0.786v2.807l-1.797 0.056c-1.797 0.056-3.032-0.225-3.705-0.954-0.449-0.561-0.674-1.291-0.618-2.021v-8.982h-2.077z"></path>
      <path d="M60.463 9.712c1.011 0.449 1.909 1.235 2.526 2.133s1.011 1.909 1.179 3.032c0.112 0.954 0.168 1.909 0.112 2.863h-10.611c0.056 1.46 0.561 2.47 1.516 3.088 0.618 0.393 1.347 0.561 2.077 0.561 1.235 0.112 2.358-0.561 2.919-1.684h3.874c-0.168 1.011-0.674 1.909-1.404 2.639-1.291 1.404-3.144 2.133-5.502 2.133-1.853 0-3.705-0.618-5.109-1.797-1.516-1.179-2.246-3.144-2.246-5.839 0-2.526 0.674-4.435 2.021-5.782 1.404-1.347 3.256-2.077 5.221-2.021 1.123 0 2.302 0.225 3.425 0.674zM54.737 13.025c-0.561 0.618-0.898 1.403-1.011 2.246h6.568c0-0.898-0.393-1.684-1.011-2.302-0.618-0.505-1.404-0.786-2.246-0.786-0.842-0.056-1.684 0.225-2.302 0.842z"></path>
      <path d="M73.881 9.656c0.674 0.393 1.291 0.954 1.684 1.628v-6.961h3.874v19.649h-3.705v-2.021c-0.449 0.786-1.067 1.404-1.853 1.853-0.786 0.393-1.684 0.618-2.582 0.561-1.684 0-3.256-0.73-4.267-2.077-1.179-1.516-1.796-3.368-1.74-5.277 0-2.47 0.561-4.435 1.74-5.839 1.123-1.403 2.807-2.189 4.603-2.133 0.73 0.056 1.516 0.225 2.246 0.618zM74.835 20.042c0.618-0.898 0.898-2.021 0.842-3.088 0-1.796-0.449-3.032-1.347-3.818-0.561-0.449-1.235-0.73-1.909-0.674-1.011-0.056-1.909 0.449-2.47 1.235-0.561 0.954-0.842 2.021-0.786 3.144-0.056 1.123 0.225 2.246 0.786 3.2 0.505 0.786 1.46 1.291 2.414 1.235 0.954 0 1.909-0.449 2.47-1.235v0z"></path>
      <path d="M90.218 4.323h4.098v16.112h9.825v3.537h-13.923v-19.649z"></path>
      <path d="M118.175 22.175c-1.235 1.516-3.088 2.246-5.614 2.246s-4.379-0.73-5.614-2.246c-1.235-1.572-1.909-3.481-1.853-5.502-0.056-1.965 0.618-3.93 1.853-5.446s3.088-2.302 5.614-2.302c2.526 0 4.379 0.786 5.614 2.302 1.235 1.572 1.909 3.481 1.853 5.446 0.056 2.021-0.618 3.986-1.853 5.502zM115.144 20.098c0.674-1.011 0.954-2.189 0.898-3.368 0.056-1.179-0.225-2.358-0.898-3.368-1.179-1.403-3.312-1.572-4.772-0.393-0.112 0.112-0.281 0.225-0.393 0.393-0.674 1.011-0.954 2.189-0.898 3.368-0.056 1.179 0.225 2.358 0.898 3.368 1.179 1.404 3.312 1.572 4.772 0.393 0.168-0.112 0.281-0.225 0.393-0.393z"></path>
      <path d="M129.965 9.432c0.954 0.449 1.74 1.179 2.246 2.133v-2.077h3.705v13.811c0 1.853-0.337 3.312-0.954 4.267-1.067 1.628-3.144 2.47-6.232 2.47-1.572 0.056-3.144-0.337-4.547-1.123-1.179-0.674-1.909-1.909-1.965-3.256h4.098c0.056 0.393 0.225 0.73 0.505 0.954 0.618 0.393 1.347 0.561 2.077 0.505 1.347 0 2.302-0.449 2.751-1.404 0.393-0.954 0.505-1.965 0.449-2.975v-0.954c-0.281 0.561-0.674 1.011-1.179 1.404-0.842 0.618-1.909 0.898-2.919 0.842-1.74 0.056-3.368-0.674-4.491-1.965s-1.684-3.088-1.684-5.333c-0.056-1.965 0.505-3.874 1.628-5.446 1.067-1.46 2.751-2.302 4.547-2.189 0.674 0 1.347 0.112 1.965 0.337zM131.256 19.874c0.618-0.674 0.898-1.74 0.898-3.2 0.056-1.123-0.225-2.246-0.898-3.2-0.561-0.73-1.404-1.123-2.302-1.067-1.235-0.056-2.358 0.73-2.751 1.909-0.281 0.786-0.449 1.628-0.393 2.47 0 0.786 0.112 1.516 0.449 2.246 0.393 1.179 1.516 1.909 2.751 1.853 0.842-0.056 1.684-0.393 2.246-1.011z"></path>
      <path d="M142.26 7.691h-3.874v-3.481h3.874v3.481zM138.386 9.432h3.874v14.54h-3.874v-14.54z"></path>
      <path d="M154.105 14.653c-0.056-0.505-0.281-1.011-0.561-1.46-0.449-0.618-1.179-0.954-1.965-0.898-1.235-0.056-2.302 0.73-2.639 1.909-0.281 0.842-0.393 1.796-0.393 2.695-0.056 0.898 0.112 1.74 0.393 2.582 0.337 1.123 1.404 1.853 2.582 1.797 0.73 0.056 1.404-0.168 1.909-0.73 0.393-0.561 0.618-1.179 0.674-1.853h3.874c-0.112 1.179-0.561 2.302-1.235 3.256-1.179 1.684-2.975 2.47-5.333 2.47s-4.042-0.674-5.165-2.077c-1.179-1.572-1.74-3.481-1.684-5.389 0-2.47 0.618-4.435 1.853-5.839 1.291-1.403 3.144-2.189 5.053-2.077 1.572-0.056 3.144 0.337 4.491 1.235 1.179 0.842 1.853 2.246 2.077 4.323l-3.93 0.056z"></path>
    </symbol>
    <symbol id="icon-clock" viewBox="0 0 32 32">
      <title>clock</title>
      <path class="path1" d="M16 0c-8.837 0-16 7.163-16 16s7.163 16 16 16 16-7.163 16-16-7.163-16-16-16zM17.055 17.057l-11.747-0.020 0.004-2.11 9.633 0.016v-9.633h2.11v11.747z"></path>
    </symbol>
    <symbol id="icon-location" viewBox="0 0 32 32">
      <title>location</title>
      <path class="path1" d="M26.501 7.964c-0.114-0.427-0.345-0.882-0.516-1.28-2.048-4.921-6.522-6.684-10.134-6.684-4.836 0-10.162 3.243-10.873 9.927v1.366c0 0.057 0.020 0.569 0.048 0.825 0.399 3.185 2.912 6.571 4.789 9.756 2.020 3.413 4.115 6.77 6.192 10.126 1.28-2.19 2.556-4.409 3.807-6.542 0.341-0.626 0.737-1.252 1.078-1.849 0.227-0.398 0.662-0.796 0.861-1.166 2.020-3.698 5.27-7.424 5.27-11.093v-1.507c0-0.398-0.493-1.792-0.521-1.877zM15.94 14.82c-1.422 0-2.978-0.711-3.746-2.674-0.114-0.312-0.105-0.939-0.105-0.996v-0.882c0-2.502 2.125-3.64 3.973-3.64 2.276 0 4.036 1.821 4.036 4.096s-1.883 4.096-4.158 4.096z"></path>
    </symbol>
    <symbol id="icon-phone" viewBox="0 0 32 32">
      <title>phone</title>
      <path class="path1" d="M31.985 25.248c0.068 0.52-0.090 0.971-0.474 1.355l-4.506 4.471c-0.203 0.226-0.469 0.418-0.796 0.576s-0.649 0.26-0.965 0.305c-0.023 0-0.090 0.006-0.203 0.017s-0.26 0.017-0.44 0.017c-0.429 0-1.124-0.073-2.084-0.22s-2.134-0.508-3.523-1.084c-1.389-0.576-2.964-1.44-4.726-2.592s-3.636-2.733-5.623-4.743c-1.581-1.558-2.891-3.049-3.93-4.472s-1.874-2.738-2.507-3.947c-0.632-1.208-1.107-2.304-1.423-3.286s-0.531-1.829-0.644-2.541-0.158-1.27-0.136-1.677c0.023-0.407 0.034-0.632 0.034-0.678 0.045-0.316 0.147-0.638 0.305-0.965s0.35-0.593 0.576-0.796l4.506-4.506c0.316-0.316 0.678-0.474 1.084-0.474 0.294 0 0.553 0.085 0.779 0.254s0.418 0.378 0.576 0.627l3.625 6.877c0.203 0.361 0.26 0.757 0.169 1.186s-0.282 0.79-0.576 1.084l-1.66 1.66c-0.045 0.045-0.085 0.119-0.119 0.22s-0.051 0.186-0.051 0.254c0.090 0.474 0.294 1.016 0.61 1.626 0.271 0.542 0.689 1.203 1.253 1.982s1.366 1.677 2.405 2.693c1.016 1.039 1.92 1.846 2.71 2.422s1.451 0.999 1.982 1.27 0.937 0.435 1.22 0.491l0.423 0.085c0.045 0 0.119-0.017 0.22-0.051s0.175-0.073 0.22-0.119l1.931-1.965c0.407-0.361 0.881-0.542 1.423-0.542 0.384 0 0.689 0.068 0.915 0.203h0.034l6.538 3.862c0.474 0.294 0.757 0.666 0.847 1.118z"></path>
    </symbol>
    <symbol id="icon-play" viewBox="0 0 32 32">
      <title>play</title>
      <path d="M6 4l20 12-20 12z"></path>
    </symbol>
    <symbol id="icon-facebook" viewBox="0 0 19 32">
      <title>facebook</title>
      <path class="path1" d="M17.125 0.214v4.714h-2.804q-1.536 0-2.071 0.643t-0.536 1.929v3.375h5.232l-0.696 5.286h-4.536v13.554h-5.464v-13.554h-4.554v-5.286h4.554v-3.893q0-3.321 1.857-5.152t4.946-1.83q2.625 0 4.071 0.214z"></path>
    </symbol>
    <symbol id="icon-facebook" viewBox="0 0 19 32">
      <title>facebook</title>
      <path class="path1" d="M17.125 0.214v4.714h-2.804q-1.536 0-2.071 0.643t-0.536 1.929v3.375h5.232l-0.696 5.286h-4.536v13.554h-5.464v-13.554h-4.554v-5.286h4.554v-3.893q0-3.321 1.857-5.152t4.946-1.83q2.625 0 4.071 0.214z"></path>
    </symbol>
    <symbol id="icon-blog" viewBox="0 0 32 32">
      <title>blog</title>
      <path d="M12 0v3c2.296 0 4.522 0.449 6.616 1.335 2.024 0.856 3.842 2.082 5.405 3.644s2.788 3.381 3.645 5.405c0.886 2.094 1.335 4.32 1.335 6.616h3c0-11.046-8.954-20-20-20z"></path>
      <path d="M12 6v3c2.938 0 5.701 1.144 7.778 3.222s3.222 4.84 3.222 7.778h3c0-7.732-6.268-14-14-14z"></path>
      <path d="M15 12l-2 2-7 2-6 13 0.793 0.793 7.275-7.275c-0.044-0.165-0.068-0.339-0.068-0.518 0-1.105 0.895-2 2-2s2 0.895 2 2-0.895 2-2 2c-0.179 0-0.353-0.024-0.518-0.068l-7.275 7.275 0.793 0.793 13-6 2-7 2-2-5-5z"></path>
    </symbol>
    <symbol id="icon-checkbox" viewBox="0 0 32 32">
      <title>checkbox</title>
      <path d="M28 0h-24c-2.2 0-4 1.8-4 4v24c0 2.2 1.8 4 4 4h24c2.2 0 4-1.8 4-4v-24c0-2.2-1.8-4-4-4zM28 28h-24v-24h24v24z"></path>
    </symbol>
    <symbol id="icon-checkbox-checked" viewBox="0 0 32 32">
      <title>checkbox-checked</title>
      <path d="M28 0h-24c-2.2 0-4 1.8-4 4v24c0 2.2 1.8 4 4 4h24c2.2 0 4-1.8 4-4v-24c0-2.2-1.8-4-4-4zM14 24.828l-7.414-7.414 2.828-2.828 4.586 4.586 9.586-9.586 2.828 2.828-12.414 12.414z"></path>
    </symbol>
    <symbol id="icon-radio" viewBox="0 0 32 32">
      <title>radio</title>
      <path d="M16 0c-8.837 0-16 7.163-16 16s7.163 16 16 16 16-7.163 16-16-7.163-16-16-16zM16 28c-6.627 0-12-5.373-12-12s5.373-12 12-12c6.627 0 12 5.373 12 12s-5.373 12-12 12z"></path>
    </symbol>
    <symbol id="icon-radio-selected" viewBox="0 0 32 32">
      <title>radio-selected</title>
      <path d="M16 0c-8.822 0-16 7.177-16 16s7.178 16 16 16 16-7.177 16-16-7.178-16-16-16zM24.92 10.664l-9.846 11.077c-0.242 0.273-0.58 0.413-0.921 0.413-0.27 0-0.542-0.089-0.769-0.27l-6.154-4.923c-0.53-0.424-0.617-1.199-0.192-1.73s1.199-0.617 1.73-0.193l5.241 4.193 9.070-10.204c0.45-0.508 1.23-0.554 1.737-0.102s0.554 1.23 0.103 1.738z"></path>
    </symbol>
    <symbol id="icon-instagram" viewBox="0 0 27 32">
      <title>instagram</title>
      <path class="path1" d="M18.286 16q0-1.893-1.339-3.232t-3.232-1.339-3.232 1.339-1.339 3.232 1.339 3.232 3.232 1.339 3.232-1.339 1.339-3.232zM20.75 16q0 2.929-2.054 4.982t-4.982 2.054-4.982-2.054-2.054-4.982 2.054-4.982 4.982-2.054 4.982 2.054 2.054 4.982zM22.679 8.679q0 0.679-0.482 1.161t-1.161 0.482-1.161-0.482-0.482-1.161 0.482-1.161 1.161-0.482 1.161 0.482 0.482 1.161zM13.714 4.75q-0.125 0-1.366-0.009t-1.884 0-1.723 0.054-1.839 0.179-1.277 0.33q-0.893 0.357-1.571 1.036t-1.036 1.571q-0.196 0.518-0.33 1.277t-0.179 1.839-0.054 1.723 0 1.884 0.009 1.366-0.009 1.366 0 1.884 0.054 1.723 0.179 1.839 0.33 1.277q0.357 0.893 1.036 1.571t1.571 1.036q0.518 0.196 1.277 0.33t1.839 0.179 1.723 0.054 1.884 0 1.366-0.009 1.366 0.009 1.884 0 1.723-0.054 1.839-0.179 1.277-0.33q0.893-0.357 1.571-1.036t1.036-1.571q0.196-0.518 0.33-1.277t0.179-1.839 0.054-1.723 0-1.884-0.009-1.366 0.009-1.366 0-1.884-0.054-1.723-0.179-1.839-0.33-1.277q-0.357-0.893-1.036-1.571t-1.571-1.036q-0.518-0.196-1.277-0.33t-1.839-0.179-1.723-0.054-1.884 0-1.366 0.009zM27.429 16q0 4.089-0.089 5.661-0.179 3.714-2.214 5.75t-5.75 2.214q-1.571 0.089-5.661 0.089t-5.661-0.089q-3.714-0.179-5.75-2.214t-2.214-5.75q-0.089-1.571-0.089-5.661t0.089-5.661q0.179-3.714 2.214-5.75t5.75-2.214q1.571-0.089 5.661-0.089t5.661 0.089q3.714 0.179 5.75 2.214t2.214 5.75q0.089 1.571 0.089 5.661z"></path>
    </symbol>
    <symbol id="icon-google_plus" viewBox="0 0 36 28">
      <title>google plus</title>
      <path d="M22.453 14.266c0 6.547-4.391 11.188-11 11.188-6.328 0-11.453-5.125-11.453-11.453s5.125-11.453 11.453-11.453c3.094 0 5.672 1.125 7.672 3l-3.109 2.984c-0.844-0.812-2.328-1.766-4.562-1.766-3.906 0-7.094 3.234-7.094 7.234s3.187 7.234 7.094 7.234c4.531 0 6.234-3.266 6.5-4.937h-6.5v-3.938h10.813c0.109 0.578 0.187 1.156 0.187 1.906zM36 12.359v3.281h-3.266v3.266h-3.281v-3.266h-3.266v-3.281h3.266v-3.266h3.281v3.266h3.266z"></path>
    </symbol>
    <symbol id="icon-pinterest" viewBox="0 0 23 32">
      <title>pinterest</title>
      <path class="path1" d="M0 10.661q0-1.929 0.67-3.634t1.848-2.973 2.714-2.196 3.304-1.393 3.607-0.464q2.821 0 5.25 1.188t3.946 3.455 1.518 5.125q0 1.714-0.339 3.357t-1.071 3.161-1.786 2.67-2.589 1.839-3.375 0.688q-1.214 0-2.411-0.571t-1.714-1.571q-0.179 0.696-0.5 2.009t-0.42 1.696-0.366 1.268-0.464 1.268-0.571 1.116-0.821 1.384-1.107 1.545l-0.25 0.089-0.161-0.179q-0.268-2.804-0.268-3.357 0-1.643 0.384-3.688t1.188-5.134 0.929-3.625q-0.571-1.161-0.571-3.018 0-1.482 0.929-2.786t2.357-1.304q1.089 0 1.696 0.723t0.607 1.83q0 1.179-0.786 3.411t-0.786 3.339q0 1.125 0.804 1.866t1.946 0.741q0.982 0 1.821-0.446t1.402-1.214 1-1.696 0.679-1.973 0.357-1.982 0.116-1.777q0-3.089-1.955-4.813t-5.098-1.723q-3.571 0-5.964 2.313t-2.393 5.866q0 0.786 0.223 1.518t0.482 1.161 0.482 0.813 0.223 0.545q0 0.5-0.268 1.304t-0.661 0.804q-0.036 0-0.304-0.054-0.911-0.268-1.616-1t-1.089-1.688-0.58-1.929-0.196-1.902z"></path>
    </symbol>
    <symbol id="icon-twitter" viewBox="0 0 30 32">
      <title>twitter</title>
      <path class="path1" d="M28.929 7.286q-1.196 1.75-2.893 2.982 0.018 0.25 0.018 0.75 0 2.321-0.679 4.634t-2.063 4.437-3.295 3.759-4.607 2.607-5.768 0.973q-4.839 0-8.857-2.589 0.625 0.071 1.393 0.071 4.018 0 7.161-2.464-1.875-0.036-3.357-1.152t-2.036-2.848q0.589 0.089 1.089 0.089 0.768 0 1.518-0.196-2-0.411-3.313-1.991t-1.313-3.67v-0.071q1.214 0.679 2.607 0.732-1.179-0.786-1.875-2.054t-0.696-2.75q0-1.571 0.786-2.911 2.161 2.661 5.259 4.259t6.634 1.777q-0.143-0.679-0.143-1.321 0-2.393 1.688-4.080t4.080-1.688q2.5 0 4.214 1.821 1.946-0.375 3.661-1.393-0.661 2.054-2.536 3.179 1.661-0.179 3.321-0.893z"></path>
    </symbol>
    <symbol id="icon-youtube" viewBox="0 0 24 28">
      <title>youtube</title>
      <path d="M15.172 19.437v3.297c0 0.703-0.203 1.047-0.609 1.047-0.234 0-0.469-0.109-0.703-0.344v-4.703c0.234-0.234 0.469-0.344 0.703-0.344 0.406 0 0.609 0.359 0.609 1.047zM20.453 19.453v0.719h-1.406v-0.719c0-0.703 0.234-1.062 0.703-1.062s0.703 0.359 0.703 1.062zM5.359 16.047h1.672v-1.469h-4.875v1.469h1.641v8.891h1.563v-8.891zM9.859 24.938h1.391v-7.719h-1.391v5.906c-0.313 0.438-0.609 0.656-0.891 0.656-0.187 0-0.297-0.109-0.328-0.328-0.016-0.047-0.016-0.219-0.016-0.547v-5.688h-1.391v6.109c0 0.547 0.047 0.906 0.125 1.141 0.125 0.391 0.453 0.578 0.906 0.578 0.5 0 1.031-0.313 1.594-0.953v0.844zM16.562 22.625v-3.078c0-0.719-0.031-1.234-0.141-1.547-0.172-0.578-0.562-0.875-1.109-0.875-0.516 0-1 0.281-1.453 0.844v-3.391h-1.391v10.359h1.391v-0.75c0.469 0.578 0.953 0.859 1.453 0.859 0.547 0 0.938-0.297 1.109-0.859 0.109-0.328 0.141-0.844 0.141-1.563zM21.844 22.469v-0.203h-1.422c0 0.562-0.016 0.875-0.031 0.953-0.078 0.375-0.281 0.562-0.625 0.562-0.484 0-0.719-0.359-0.719-1.078v-1.359h2.797v-1.609c0-0.828-0.141-1.422-0.422-1.813-0.406-0.531-0.953-0.797-1.656-0.797-0.719 0-1.266 0.266-1.672 0.797-0.297 0.391-0.438 0.984-0.438 1.813v2.703c0 0.828 0.156 1.437 0.453 1.813 0.406 0.531 0.953 0.797 1.687 0.797s1.313-0.281 1.687-0.828c0.172-0.25 0.297-0.531 0.328-0.844 0.031-0.141 0.031-0.453 0.031-0.906zM12.344 8.203v-3.281c0-0.719-0.203-1.078-0.672-1.078-0.453 0-0.672 0.359-0.672 1.078v3.281c0 0.719 0.219 1.094 0.672 1.094 0.469 0 0.672-0.375 0.672-1.094zM23.578 19.938c0 1.797-0.016 3.719-0.406 5.469-0.297 1.234-1.297 2.141-2.5 2.266-2.875 0.328-5.781 0.328-8.672 0.328s-5.797 0-8.672-0.328c-1.203-0.125-2.219-1.031-2.5-2.266-0.406-1.75-0.406-3.672-0.406-5.469v0c0-1.813 0.016-3.719 0.406-5.469 0.297-1.234 1.297-2.141 2.516-2.281 2.859-0.313 5.766-0.313 8.656-0.313s5.797 0 8.672 0.313c1.203 0.141 2.219 1.047 2.5 2.281 0.406 1.75 0.406 3.656 0.406 5.469zM7.984 0h1.594l-1.891 6.234v4.234h-1.563v-4.234c-0.141-0.766-0.453-1.859-0.953-3.313-0.344-0.969-0.688-1.953-1.016-2.922h1.656l1.109 4.109zM13.766 5.203v2.734c0 0.828-0.141 1.453-0.438 1.844-0.391 0.531-0.938 0.797-1.656 0.797-0.703 0-1.25-0.266-1.641-0.797-0.297-0.406-0.438-1.016-0.438-1.844v-2.734c0-0.828 0.141-1.437 0.438-1.828 0.391-0.531 0.938-0.797 1.641-0.797 0.719 0 1.266 0.266 1.656 0.797 0.297 0.391 0.438 1 0.438 1.828zM19 2.672v7.797h-1.422v-0.859c-0.562 0.656-1.094 0.969-1.609 0.969-0.453 0-0.781-0.187-0.922-0.578-0.078-0.234-0.125-0.609-0.125-1.172v-6.156h1.422v5.734c0 0.328 0 0.516 0.016 0.547 0.031 0.219 0.141 0.344 0.328 0.344 0.281 0 0.578-0.219 0.891-0.672v-5.953h1.422z"></path>
    </symbol>
    <symbol id="icon-send" viewBox="0 0 24 24">
      <title>send</title>
      <path d="M2.016 21v-6.984l15-2.016-15-2.016v-6.984l21 9z"></path>
    </symbol>
    <symbol id="icon-linkedin" viewBox="0 0 32 32">
      <title>linkedin</title>
      <path d="M12 12h5.535v2.837h0.079c0.77-1.381 2.655-2.837 5.464-2.837 5.842 0 6.922 3.637 6.922 8.367v9.633h-5.769v-8.54c0-2.037-0.042-4.657-3.001-4.657-3.005 0-3.463 2.218-3.463 4.509v8.688h-5.767v-18z"></path>
      <path d="M2 12h6v18h-6v-18z"></path>
      <path d="M8 7c0 1.657-1.343 3-3 3s-3-1.343-3-3c0-1.657 1.343-3 3-3s3 1.343 3 3z"></path>
    </symbol>
    <symbol id="icon-check" viewBox="0 0 32 32">
      <title>check</title>
      <path d="M11.142 25.889c-0.274 0-0.536-0.108-0.729-0.301l-7.111-7.111c-0.402-0.402-0.402-1.054 0-1.456s1.054-0.402 1.456 0l6.384 6.383 16.1-16.102c0.402-0.402 1.054-0.402 1.456 0s0.402 1.054 0 1.456l-16.829 16.829c-0.193 0.195-0.454 0.302-0.727 0.302z"></path>
    </symbol>
    <symbol id="icon-chevron-down" viewBox="0 0 32 32">
      <title>chevron-down</title>
      <path d="M27.68 9.319c-0.426-0.426-1.117-0.426-1.543 0l-10.137 10.138-10.138-10.138c-0.426-0.426-1.117-0.426-1.543 0s-0.426 1.117 0 1.543l10.909 10.909c0.205 0.205 0.482 0.32 0.771 0.32s0.567-0.115 0.771-0.32l10.909-10.909c0.426-0.426 0.426-1.117 0-1.543z"></path>
    </symbol>
    <symbol id="icon-chevron-left" viewBox="0 0 32 32">
      <title>chevron-left</title>
      <path d="M11.634 16l10.138-10.138c0.426-0.426 0.426-1.117 0-1.543s-1.117-0.426-1.543 0l-10.909 10.909c-0.205 0.204-0.32 0.482-0.32 0.771s0.115 0.567 0.32 0.771l10.909 10.909c0.213 0.213 0.492 0.32 0.771 0.32s0.558-0.107 0.771-0.32c0.426-0.426 0.426-1.117 0-1.543l-10.138-10.137z"></path>
    </symbol>
    <symbol id="icon-chevron-right" viewBox="0 0 32 32">
      <title>chevron-right</title>
      <path d="M21.771 15.228l-10.909-10.909c-0.426-0.426-1.117-0.426-1.543 0s-0.426 1.117 0 1.543l10.138 10.137-10.138 10.138c-0.426 0.426-0.426 1.117 0 1.543 0.213 0.213 0.492 0.32 0.771 0.32s0.558-0.107 0.771-0.32l10.909-10.909c0.205-0.205 0.32-0.482 0.32-0.771s-0.115-0.567-0.32-0.771z"></path>
    </symbol>
    <symbol id="icon-chevron-up" viewBox="0 0 32 32">
      <title>chevron-up</title>
      <path d="M27.68 20.229l-10.909-10.909c-0.204-0.205-0.482-0.319-0.771-0.319s-0.567 0.115-0.771 0.32l-10.909 10.909c-0.426 0.426-0.426 1.117 0 1.543s1.117 0.426 1.543 0l10.137-10.138 10.138 10.138c0.213 0.213 0.492 0.32 0.771 0.32s0.558-0.107 0.771-0.32c0.426-0.426 0.426-1.117 0-1.543z"></path>
    </symbol>
    <symbol id="icon-close" viewBox="0 0 32 32">
      <title>close</title>
      <path d="M5.172 28c-0.232 0-0.458-0.069-0.651-0.197s-0.343-0.312-0.432-0.526c-0.089-0.214-0.112-0.45-0.067-0.677s0.157-0.436 0.321-0.6l21.656-21.656c0.22-0.22 0.518-0.343 0.829-0.343s0.609 0.123 0.829 0.343 0.343 0.518 0.343 0.829c0 0.311-0.123 0.609-0.343 0.829l-21.656 21.656c-0.109 0.109-0.238 0.195-0.38 0.254s-0.295 0.089-0.449 0.089z"></path>
      <path d="M26.828 28c-0.154 0-0.306-0.030-0.449-0.089s-0.271-0.145-0.38-0.254l-21.656-21.656c-0.22-0.22-0.343-0.518-0.343-0.829s0.123-0.609 0.343-0.829c0.22-0.22 0.518-0.343 0.829-0.343s0.609 0.123 0.829 0.343l21.656 21.656c0.164 0.164 0.276 0.373 0.321 0.6s0.022 0.463-0.067 0.677c-0.089 0.214-0.239 0.397-0.432 0.526s-0.419 0.198-0.651 0.197v0z"></path>
    </symbol>
    <symbol id="icon-grid-view" viewBox="0 0 32 32">
      <title>grid-view</title>
      <path d="M7.333 6.667h2.587c0.368 0 0.667 0.298 0.667 0.667v2.588c0 0.368-0.298 0.667-0.667 0.667h-2.587c-0.368 0-0.667-0.298-0.667-0.667v-2.588c0-0.368 0.298-0.667 0.667-0.667z"></path>
      <path d="M7.333 14.039h2.587c0.368 0 0.667 0.298 0.667 0.667v2.588c0 0.368-0.298 0.667-0.667 0.667h-2.587c-0.368 0-0.667-0.298-0.667-0.667v-2.588c0-0.368 0.298-0.667 0.667-0.667z"></path>
      <path d="M7.333 21.411h2.587c0.368 0 0.667 0.298 0.667 0.667v2.588c0 0.368-0.298 0.667-0.667 0.667h-2.587c-0.368 0-0.667-0.298-0.667-0.667v-2.588c0-0.368 0.298-0.667 0.667-0.667z"></path>
      <path d="M14.638 6.667h2.587c0.368 0 0.667 0.298 0.667 0.667v2.588c0 0.368-0.298 0.667-0.667 0.667h-2.587c-0.368 0-0.667-0.298-0.667-0.667v-2.588c0-0.368 0.298-0.667 0.667-0.667z"></path>
      <path d="M14.638 14.039h2.587c0.368 0 0.667 0.298 0.667 0.667v2.588c0 0.368-0.298 0.667-0.667 0.667h-2.587c-0.368 0-0.667-0.298-0.667-0.667v-2.588c0-0.368 0.298-0.667 0.667-0.667z"></path>
      <path d="M14.638 21.411h2.587c0.368 0 0.667 0.298 0.667 0.667v2.588c0 0.368-0.298 0.667-0.667 0.667h-2.587c-0.368 0-0.667-0.298-0.667-0.667v-2.588c0-0.368 0.298-0.667 0.667-0.667z"></path>
      <path d="M22 6.667h2.587c0.368 0 0.667 0.298 0.667 0.667v2.588c0 0.368-0.298 0.667-0.667 0.667h-2.587c-0.368 0-0.667-0.298-0.667-0.667v-2.588c0-0.368 0.298-0.667 0.667-0.667z"></path>
      <path d="M21.943 14.039h2.587c0.368 0 0.667 0.298 0.667 0.667v2.588c0 0.368-0.298 0.667-0.667 0.667h-2.587c-0.368 0-0.667-0.298-0.667-0.667v-2.588c0-0.368 0.298-0.667 0.667-0.667z"></path>
      <path d="M21.943 21.411h2.587c0.368 0 0.667 0.298 0.667 0.667v2.588c0 0.368-0.298 0.667-0.667 0.667h-2.587c-0.368 0-0.667-0.298-0.667-0.667v-2.588c0-0.368 0.298-0.667 0.667-0.667z"></path>
    </symbol>
    <symbol id="icon-left-arrow" viewBox="0 0 32 32">
      <title>left-arrow</title>
      <path d="M11.481 7.275c0.367-0.367 0.944-0.367 1.31 0 0.354 0.354 0.354 0.944 0 1.297l-6.643 6.643h21.921c0.511 0 0.93 0.406 0.93 0.917s-0.419 0.93-0.93 0.93h-21.921l6.643 6.631c0.354 0.367 0.354 0.957 0 1.31-0.367 0.366-0.944 0.366-1.31 0l-8.216-8.216c-0.354-0.354-0.354-0.944 0-1.297l8.216-8.216z"></path>
    </symbol>
    <symbol id="icon-list-view" viewBox="0 0 32 32">
      <title>list-view</title>
      <path d="M7.333 8h17.333c0.368 0 0.667 0.298 0.667 0.667v1.333c0 0.368-0.298 0.667-0.667 0.667h-17.333c-0.368 0-0.667-0.298-0.667-0.667v-1.333c0-0.368 0.298-0.667 0.667-0.667z"></path>
      <path d="M7.333 14.667h17.333c0.368 0 0.667 0.298 0.667 0.667v1.333c0 0.368-0.298 0.667-0.667 0.667h-17.333c-0.368 0-0.667-0.298-0.667-0.667v-1.333c0-0.368 0.298-0.667 0.667-0.667z"></path>
      <path d="M7.333 21.333h17.333c0.368 0 0.667 0.298 0.667 0.667v1.333c0 0.368-0.298 0.667-0.667 0.667h-17.333c-0.368 0-0.667-0.298-0.667-0.667v-1.333c0-0.368 0.298-0.667 0.667-0.667z"></path>
    </symbol>
    <symbol id="icon-plus" viewBox="0 0 32 32">
      <title>plus</title>
      <path d="M27.904 17.024h-23.808c-0.565 0-1.024-0.459-1.024-1.024s0.459-1.024 1.024-1.024h23.808c0.565 0 1.024 0.459 1.024 1.024s-0.459 1.024-1.024 1.024z"></path>
      <path d="M16.001 28.928c-0.565 0-1.024-0.459-1.024-1.024v-23.808c0-0.565 0.459-1.024 1.024-1.024s1.024 0.459 1.024 1.024v23.808c0 0.565-0.459 1.024-1.024 1.024z"></path>
    </symbol>
    <symbol id="icon-restart" viewBox="0 0 32 32">
      <title>restart</title>
      <path d="M16 29.865c-6.607 0-12-5.393-12-12 0-0.494 0.404-0.899 0.899-0.899s0.899 0.404 0.899 0.899c0 5.618 4.584 10.202 10.202 10.202s10.202-4.584 10.202-10.202c0-5.618-4.584-10.202-10.202-10.202-0.494 0-0.899-0.404-0.899-0.899s0.405-0.899 0.899-0.899c6.607 0 12 5.393 12 12s-5.393 12-12 12z"></path>
      <path d="M17.797 11.708c-0.225 0-0.449-0.090-0.629-0.27l-3.955-3.955c-0.36-0.36-0.36-0.899 0-1.258l3.955-3.955c0.36-0.36 0.899-0.36 1.258 0s0.36 0.899 0 1.258l-3.326 3.326 3.326 3.326c0.36 0.36 0.36 0.899 0 1.258-0.135 0.18-0.36 0.27-0.629 0.27v0z"></path>
    </symbol>
    <symbol id="icon-right-arrow" viewBox="0 0 32 32">
      <title>right-arrow</title>
      <path d="M20.508 7.275c-0.354-0.367-0.944-0.367-1.31 0-0.354 0.354-0.354 0.944 0 1.297l6.644 6.644h-21.925c-0.511 0.001-0.917 0.407-0.917 0.918s0.406 0.93 0.917 0.93h21.925l-6.644 6.632c-0.354 0.367-0.354 0.957 0 1.31 0.367 0.367 0.957 0.367 1.31 0l8.217-8.217c0.366-0.354 0.366-0.944 0-1.297l-8.217-8.218z"></path>
    </symbol>
    <symbol id="icon-angle-double-right" viewBox="0 0 16 28">
      <path d="M9.297 15c0 0.125-0.063 0.266-0.156 0.359l-7.281 7.281c-0.094 0.094-0.234 0.156-0.359 0.156s-0.266-0.063-0.359-0.156l-0.781-0.781c-0.094-0.094-0.156-0.234-0.156-0.359s0.063-0.266 0.156-0.359l6.141-6.141-6.141-6.141c-0.094-0.094-0.156-0.234-0.156-0.359s0.063-0.266 0.156-0.359l0.781-0.781c0.094-0.094 0.234-0.156 0.359-0.156s0.266 0.063 0.359 0.156l7.281 7.281c0.094 0.094 0.156 0.234 0.156 0.359zM15.297 15c0 0.125-0.063 0.266-0.156 0.359l-7.281 7.281c-0.094 0.094-0.234 0.156-0.359 0.156s-0.266-0.063-0.359-0.156l-0.781-0.781c-0.094-0.094-0.156-0.234-0.156-0.359s0.063-0.266 0.156-0.359l6.141-6.141-6.141-6.141c-0.094-0.094-0.156-0.234-0.156-0.359s0.063-0.266 0.156-0.359l0.781-0.781c0.094-0.094 0.234-0.156 0.359-0.156s0.266 0.063 0.359 0.156l7.281 7.281c0.094 0.094 0.156 0.234 0.156 0.359z"></path>
    </symbol>
    <symbol id="icon-angle-double-left" viewBox="0 0 16 28">
      <path d="M9.797 21.5c0 0.125-0.063 0.266-0.156 0.359l-0.781 0.781c-0.094 0.094-0.234 0.156-0.359 0.156s-0.266-0.063-0.359-0.156l-7.281-7.281c-0.094-0.094-0.156-0.234-0.156-0.359s0.063-0.266 0.156-0.359l7.281-7.281c0.094-0.094 0.234-0.156 0.359-0.156s0.266 0.063 0.359 0.156l0.781 0.781c0.094 0.094 0.156 0.234 0.156 0.359s-0.063 0.266-0.156 0.359l-6.141 6.141 6.141 6.141c0.094 0.094 0.156 0.234 0.156 0.359zM15.797 21.5c0 0.125-0.063 0.266-0.156 0.359l-0.781 0.781c-0.094 0.094-0.234 0.156-0.359 0.156s-0.266-0.063-0.359-0.156l-7.281-7.281c-0.094-0.094-0.156-0.234-0.156-0.359s0.063-0.266 0.156-0.359l7.281-7.281c0.094-0.094 0.234-0.156 0.359-0.156s0.266 0.063 0.359 0.156l0.781 0.781c0.094 0.094 0.156 0.234 0.156 0.359s-0.063 0.266-0.156 0.359l-6.141 6.141 6.141 6.141c0.094 0.094 0.156 0.234 0.156 0.359z"></path>
    </symbol>
    <symbol id="icon-loading" viewBox="0 0 32 32">
      <path d="M12 4c0-2.209 1.791-4 4-4s4 1.791 4 4c0 2.209-1.791 4-4 4s-4-1.791-4-4zM20.485 7.515c0-2.209 1.791-4 4-4s4 1.791 4 4c0 2.209-1.791 4-4 4s-4-1.791-4-4zM26 16c0-1.105 0.895-2 2-2s2 0.895 2 2c0 1.105-0.895 2-2 2s-2-0.895-2-2zM22.485 24.485c0-1.105 0.895-2 2-2s2 0.895 2 2c0 1.105-0.895 2-2 2s-2-0.895-2-2zM14 28c0 0 0 0 0 0 0-1.105 0.895-2 2-2s2 0.895 2 2c0 0 0 0 0 0 0 1.105-0.895 2-2 2s-2-0.895-2-2zM5.515 24.485c0 0 0 0 0 0 0-1.105 0.895-2 2-2s2 0.895 2 2c0 0 0 0 0 0 0 1.105-0.895 2-2 2s-2-0.895-2-2zM4.515 7.515c0 0 0 0 0 0 0-1.657 1.343-3 3-3s3 1.343 3 3c0 0 0 0 0 0 0 1.657-1.343 3-3 3s-3-1.343-3-3zM1.75 16c0-1.243 1.007-2.25 2.25-2.25s2.25 1.007 2.25 2.25c0 1.243-1.007 2.25-2.25 2.25s-2.25-1.007-2.25-2.25z"></path>
    </symbol>
  </defs>
</svg>
