<svg style="position: absolute; width: 0; height: 0; overflow: hidden;" version="1.1" xmlns="http://www.w3.org/2000/svg" xmlns:xlink="http://www.w3.org/1999/xlink">
  <defs>
    <symbol id="icon-24-hours" viewBox="0 0 32 32">
      <title>24-hours</title>
      <path d="M12.18 6.8c-0.204-0.368-0.668-0.501-1.036-0.297-1.717 0.952-3.191 2.327-4.263 3.975-0.229 0.353-0.13 0.824 0.223 1.054s0.824 0.13 1.054-0.223c0.937-1.44 2.225-2.641 3.726-3.473 0.368-0.204 0.501-0.668 0.297-1.036z"></path>
      <path d="M25.477 8.525c-2.272-2.273-5.293-3.525-8.507-3.525-0.421 0-0.762 0.341-0.762 0.762s0.341 0.762 0.762 0.762c5.793 0 10.507 4.716 10.507 10.512s-4.713 10.512-10.507 10.512c-4.617 0-8.547-2.995-9.954-7.144l1.259-0.126c0.639-0.064 0.916-0.844 0.462-1.297l-2.488-2.484c-0.363-0.362-1.002-0.274-1.235 0.211l-1.886 2.833c-0.356 0.534 0.071 1.244 0.71 1.18l1.623-0.162c1.468 4.821 5.98 8.512 11.509 8.512 6.649 0 12.030-5.383 12.030-12.035 0-3.215-1.251-6.237-3.523-8.51z"></path>
      <path d="M16.97 10.18c-3.78 0-6.855 3.075-6.855 6.855s3.075 6.855 6.855 6.855c3.78 0 6.855-3.075 6.855-6.855s-3.075-6.855-6.855-6.855zM16.406 19.685h-2.998c-0.236 0-0.573-0.16-0.573-0.405v-0.818h-0c0-1.324 2.653-2.083 2.653-3.154 0-0.27-0.168-0.599-0.64-0.599-0.337 0-0.632 0.169-0.632 0.633 0 0.245-0.261 0.481-0.691 0.481-0.337 0-0.59-0.152-0.59-0.683 0-1.029 0.943-1.619 1.903-1.619 0.977 0 1.963 0.616 1.963 1.746 0 1.83-2.602 2.429-2.602 3.196v0.076h2.207c0.211 0 0.396 0.262 0.396 0.565s-0.185 0.582-0.396 0.582zM20.895 18.387h-0.362v0.894c0 0.27-0.328 0.405-0.657 0.405s-0.657-0.135-0.657-0.405v-0.894h-1.971c-0.399-0-0.534-0.408-0.371-0.709l1.946-3.82c0.126-0.245 0.337-0.337 0.547-0.337 0.227 0 0.657 0.194 0.657 0.498 0 0.051-0.017 0.101-0.042 0.16l-1.491 2.994h0.724v-0.59c0-0.278 0.329-0.396 0.657-0.396s0.657 0.118 0.657 0.396v0.59h0.362c0.27 0 0.404 0.304 0.404 0.607s-0.202 0.607-0.404 0.607z"></path>
    </symbol>
    <symbol id="icon-two" viewBox="0 0 32 32">
      <title>two</title>
      <path d="M28.444 0h-24.889c-1.964 0-3.556 1.591-3.556 3.556v24.889c0 1.964 1.591 3.555 3.556 3.555h24.889c1.964 0 3.555-1.591 3.555-3.556v-24.889c0-1.964-1.591-3.556-3.556-3.556zM21.333 14.222c0 1.964-1.591 3.556-3.556 3.556h-3.556v3.555h7.111v3.556h-10.667v-7.111c0-1.964 1.591-3.556 3.556-3.556h3.556v-3.556h-7.111v-3.556h7.111c1.965 0 3.556 1.591 3.556 3.556v3.556z"></path>
    </symbol>
    <symbol id="icon-one" viewBox="0 0 32 32">
      <title>one</title>
      <path d="M28.444 0h-24.889c-1.964 0-3.556 1.591-3.556 3.556v24.889c0 1.964 1.591 3.555 3.556 3.555h24.889c1.964 0 3.555-1.591 3.555-3.556v-24.889c0-1.964-1.591-3.556-3.556-3.556zM19.556 24.889h-3.556v-14.222h-3.556v-3.556h7.111v17.778z"></path>
    </symbol>
    <symbol id="icon-six" viewBox="0 0 32 32">
      <title>six</title>
      <path d="M14.222 17.778h3.556v3.556h-3.556v-3.556z"></path>
      <path d="M28.444 0h-24.889c-1.964 0-3.556 1.591-3.556 3.556v24.889c0 1.964 1.591 3.555 3.556 3.555h24.889c1.964 0 3.555-1.591 3.555-3.556v-24.889c0-1.964-1.591-3.556-3.556-3.556zM21.333 10.667h-7.111v3.556h3.556c1.964 0 3.556 1.591 3.556 3.556v3.555c0 1.964-1.591 3.556-3.556 3.556h-3.556c-1.964 0-3.556-1.591-3.556-3.556v-10.667c0-1.964 1.591-3.556 3.556-3.556h7.111v3.556z"></path>
    </symbol>
    <symbol id="icon-five" viewBox="0 0 32 32">
      <title>five</title>
      <path d="M28.444 0h-24.889c-1.964 0-3.556 1.591-3.556 3.556v24.889c0 1.964 1.591 3.555 3.556 3.555h24.889c1.964 0 3.555-1.591 3.555-3.556v-24.889c0-1.964-1.591-3.556-3.556-3.556zM21.333 10.667h-7.111v3.556h3.556c1.964 0 3.556 1.591 3.556 3.556v3.555c0 1.964-1.591 3.556-3.556 3.556h-7.111v-3.556h7.111v-3.556h-7.111v-10.667h10.667v3.556z"></path>
    </symbol>
    <symbol id="icon-four" viewBox="0 0 32 32">
      <title>four</title>
      <path d="M28.444 0h-24.889c-1.964 0-3.556 1.591-3.556 3.556v24.889c0 1.964 1.591 3.555 3.556 3.555h24.889c1.964 0 3.555-1.591 3.555-3.556v-24.889c0-1.964-1.591-3.556-3.556-3.556zM21.333 24.889h-3.556v-7.111h-7.111v-10.667h3.556v7.111h3.556v-7.111h3.555v17.778z"></path>
    </symbol>
    <symbol id="icon-three" viewBox="0 0 32 32">
      <title>three</title>
      <path d="M28.444 0h-24.889c-1.964 0-3.556 1.591-3.556 3.556v24.889c0 1.964 1.591 3.555 3.556 3.555h24.889c1.964 0 3.555-1.591 3.555-3.556v-24.889c0-1.964-1.591-3.556-3.556-3.556zM21.333 13.333c0 1.476-1.191 2.667-2.667 2.667 1.476 0 2.667 1.191 2.667 2.667v2.667c0 1.964-1.591 3.556-3.556 3.556h-7.111v-3.556h7.111v-3.556h-3.556v-3.556h3.556v-3.556h-7.111v-3.556h7.111c1.965 0 3.556 1.591 3.556 3.556v2.667z"></path>
    </symbol>
    <symbol id="icon-badge" viewBox="0 0 32 32">
      <title>badge</title>
      <path d="M16.002 2c-4.632 0-8.4 3.768-8.4 8.4s3.768 8.4 8.4 8.4 8.4-3.768 8.4-8.4c0-4.632-3.768-8.4-8.4-8.4zM20.546 10.108l-1.633 1.674 0.388 2.374c0.055 0.34-0.088 0.682-0.371 0.881-0.154 0.108-0.336 0.163-0.517 0.163-0.15 0-0.3-0.037-0.436-0.113l-1.975-1.091-1.975 1.092c-0.301 0.167-0.673 0.148-0.954-0.052-0.282-0.199-0.425-0.541-0.371-0.881l0.388-2.374-1.632-1.674c-0.235-0.241-0.317-0.595-0.209-0.914 0.107-0.32 0.383-0.552 0.718-0.604l2.221-0.34 1.001-2.132c0.295-0.632 1.333-0.632 1.628 0l1.001 2.132 2.221 0.34c0.334 0.050 0.611 0.283 0.718 0.604 0.107 0.319 0.025 0.673-0.21 0.914z"></path>
      <path d="M8.753 17.576l-4.644 8.34c-0.156 0.288-0.144 0.648 0.036 0.924s0.492 0.444 0.828 0.408l3.696-0.276 1.632 3.324c0.156 0.3 0.456 0.492 0.78 0.504h0.024c0.324 0 0.636-0.18 0.792-0.456l3.024-5.376-2.94-5.196c-1.212-0.516-2.304-1.272-3.228-2.196z"></path>
      <path d="M27.881 25.917l-4.68-8.292c-1.524 1.524-3.528 2.556-5.76 2.868-0.468 0.072-0.948 0.108-1.44 0.108-0.528 0-1.044-0.036-1.548-0.12l1.5 2.652 4.068 7.212c0.156 0.276 0.456 0.456 0.78 0.456h0.024c0.336-0.012 0.636-0.204 0.792-0.504l1.644-3.324 3.768 0.288c0.336 0.024 0.648-0.132 0.828-0.42 0.18-0.276 0.192-0.636 0.024-0.924z"></path>
    </symbol>
    <symbol id="icon-breakdown" viewBox="0 0 32 32">
      <title>breakdown</title>
      <path d="M15.144 8.571c-1.181 0-2.143 0.961-2.143 2.143 0 0.709-0.577 1.286-1.286 1.286-1.181 0-2.143 0.961-2.143 2.143s0.961 2.143 2.143 2.143h1.714v-0.857h-1.714c-0.709 0-1.286-0.577-1.286-1.286s0.577-1.286 1.286-1.286c1.181 0 2.143-0.961 2.143-2.143 0-0.709 0.577-1.286 1.286-1.286h1.286v-0.857h-1.286z"></path>
      <path d="M28 6.214c0-1.772-1.442-3.214-3.214-3.214h-1.5v0.857h1.5c1.3 0 2.357 1.057 2.357 2.357s-1.057 2.357-2.357 2.357h-1.5c-0.237 0-0.429 0.192-0.429 0.429s0.192 0.429 0.429 0.429h1.071c0.827 0 1.5 0.673 1.5 1.5s-0.673 1.5-1.5 1.5h-1.071c-2.363 0-4.286 1.922-4.286 4.286h0.857c0-1.89 1.538-3.428 3.429-3.428h1.071c1.3 0 2.357-1.057 2.357-2.357 0-0.68-0.289-1.293-0.751-1.723 1.191-0.471 2.036-1.634 2.036-2.991z"></path>
      <path d="M21.144 5.143c-1.181 0-2.143 0.961-2.143 2.143v2.143c0 0.709-0.577 1.286-1.286 1.286-1.181 0-2.143 0.961-2.143 2.143v3.857h0.857v-3.857c0-0.709 0.577-1.286 1.286-1.286 1.181 0 2.143-0.961 2.143-2.143v-2.143c0-0.709 0.577-1.286 1.286-1.286h2.571v-0.857h-2.571z"></path>
      <path d="M26.285 16.5c0-0.827-0.673-1.5-1.5-1.5h-1.071c-0.151 0-0.29 0.079-0.367 0.208l-1.286 2.143c-0.079 0.133-0.082 0.297-0.005 0.432 0.002 0.003 0.005 0.006 0.007 0.009l-0.001 0.001 0.896 1.494h-15.629l0.896-1.494-0.001-0.001c0.002-0.003 0.005-0.006 0.007-0.009 0.050-0.088 0.063-0.189 0.046-0.285l0.003-0.001-0.9-5.101c-0.183-1.038 0.433-2.072 1.433-2.405l3.038-1.013-0.271-0.813-3.038 1.013c-1.4 0.467-2.262 1.915-2.006 3.367l0.497 2.819-0.093-0.156c-0.077-0.129-0.217-0.208-0.367-0.208h-1.071c-0.827 0-1.5 0.673-1.5 1.5s0.673 1.5 1.5 1.5h1.6l-0.896 1.494 0.002 0.002c-0.029 0.049-0.052 0.103-0.060 0.162l-0.203 1.523h-0l-0.145 1.088-0.509 3.817c-0.003 0.019 0.005 0.038 0.005 0.057h-0.008v1.714c0 0.473 0.384 0.857 0.857 0.857h1.714c0.473 0 0.857-0.384 0.857-0.857v-1.286h12.857v1.286c0 0.473 0.384 0.857 0.857 0.857h1.714c0.473 0 0.857-0.384 0.857-0.857v-1.714h-0.008c0-0.019 0.007-0.037 0.005-0.057l-0.857-6.428c-0.008-0.060-0.030-0.113-0.060-0.162l0.003-0.001-0.896-1.494h1.6c0.827 0 1.5-0.673 1.5-1.5z"></path>
      <path d="M11.285 18h-2.143v0.857h2.143v-0.857z"></path>
      <path d="M21.571 18h-8.571v0.857h8.571v-0.857z"></path>
    </symbol>
    <symbol id="icon-build-road" viewBox="0 0 32 32">
      <title>build-road</title>
      <path d="M4 17.895l5.474 3.284v-1.541l-5.474-3.284v1.541z"></path>
      <path d="M21.738 4l-17.373 11.591 5.528 3.305 17.314-11.684-5.47-3.213zM10.26 15.436c-1.52 1.027-1.457 1.015-1.629 1.015-0.185 0-0.349-0.12-0.404-0.298s0.014-0.369 0.168-0.473l1.394-0.943c0.125-0.084 0.285-0.095 0.421-0.030s0.225 0.199 0.236 0.35c0.011 0.15-0.060 0.295-0.185 0.379zM13.751 13.074c-1.55 1.048-1.461 1.019-1.634 1.019-0.185 0-0.349-0.12-0.404-0.298s0.014-0.369 0.168-0.473l1.381-0.943c0.191-0.109 0.434-0.053 0.558 0.129s0.086 0.429-0.086 0.566h0.017zM17.237 10.716c-1.545 1.044-1.457 1.015-1.63 1.015-0.184-0-0.346-0.12-0.401-0.295s0.010-0.366 0.161-0.471l1.394-0.947c0.093-0.063 0.206-0.086 0.316-0.065s0.207 0.085 0.269 0.178c0.131 0.192 0.082 0.454-0.109 0.585zM20.723 8.358c-1.52 1.027-1.457 1.015-1.63 1.015-0.185 0-0.349-0.121-0.404-0.298s0.014-0.369 0.168-0.473l1.394-0.943c0.125-0.084 0.285-0.095 0.421-0.029s0.225 0.199 0.236 0.349c0.011 0.15-0.060 0.295-0.185 0.379zM22.828 6.943c-0.193 0.13-0.455 0.079-0.585-0.114s-0.079-0.455 0.114-0.585l0.366-0.248c0.193-0.13 0.455-0.079 0.585 0.114s0.079 0.455-0.114 0.585l-0.366 0.248z"></path>
      <path d="M27.579 7.979l-17.263 11.642v1.512l17.263-11.642v-1.512z"></path>
      <path d="M22.526 16.977c-3.023 0-5.474 2.451-5.474 5.474s2.451 5.474 5.474 5.474c3.023 0 5.474-2.451 5.474-5.474s-2.451-5.474-5.474-5.474zM25.053 23.292h-1.684v1.684c0 0.465-0.377 0.842-0.842 0.842s-0.842-0.377-0.842-0.842v-1.684h-1.684c-0.465 0-0.842-0.377-0.842-0.842s0.377-0.842 0.842-0.842h1.684v-1.684c0-0.465 0.377-0.842 0.842-0.842s0.842 0.377 0.842 0.842v1.684h1.684c0.465 0 0.842 0.377 0.842 0.842s-0.377 0.842-0.842 0.842z"></path>
    </symbol>
    <symbol id="icon-cart" viewBox="0 0 32 32">
      <title>cart</title>
      <path d="M10.781 19.063h12.703c0.315 0 0.59-0.208 0.676-0.51l2.813-9.844c0.061-0.212 0.019-0.44-0.114-0.617s-0.341-0.28-0.562-0.28h-17.139l-0.503-2.262c-0.071-0.322-0.357-0.551-0.687-0.551h-4.266c-0.389 0-0.703 0.315-0.703 0.703s0.315 0.703 0.703 0.703h3.701l2.539 11.426c-0.747 0.325-1.272 1.068-1.272 1.934 0 1.163 0.946 2.109 2.109 2.109h12.703c0.389 0 0.703-0.314 0.703-0.703s-0.314-0.703-0.703-0.703h-12.703c-0.387 0-0.703-0.315-0.703-0.703s0.316-0.703 0.703-0.703z"></path>
      <path d="M10.078 23.984c0 1.163 0.946 2.109 2.11 2.109s2.109-0.946 2.109-2.109c0-1.163-0.946-2.109-2.109-2.109s-2.11 0.946-2.11 2.109z"></path>
      <path d="M19.969 23.984c0 1.163 0.946 2.109 2.109 2.109s2.109-0.946 2.109-2.109c0-1.163-0.946-2.109-2.109-2.109s-2.109 0.946-2.109 2.109z"></path>
    </symbol>
    <symbol id="icon-claim" viewBox="0 0 33 32">
      <title>claim</title>
      <path d="M10.062 3.003l-3.060 3.059c-0.196 0.196-0.057 0.531 0.22 0.531h3.060c0.172-0 0.311-0.139 0.311-0.311v-3.059c0-0.277-0.335-0.416-0.531-0.22z"></path>
      <path d="M23.697 19.222c-2.924 0-5.303 2.379-5.303 5.302s2.379 5.303 5.303 5.303c2.924 0 5.303-2.379 5.303-5.303s-2.379-5.303-5.303-5.303zM22.88 22.456c0-0.451 0.366-0.817 0.817-0.817s0.817 0.366 0.817 0.817v2.069c0 0.451-0.366 0.817-0.817 0.817s-0.817-0.366-0.817-0.817v-2.069zM24.51 26.767c-0.003 0.027-0.006 0.053-0.012 0.079s-0.012 0.052-0.020 0.077c-0.008 0.026-0.017 0.051-0.027 0.075s-0.022 0.049-0.034 0.073-0.026 0.047-0.041 0.069c-0.015 0.022-0.031 0.044-0.048 0.065s-0.035 0.041-0.054 0.059c-0.019 0.019-0.039 0.037-0.059 0.055-0.021 0.016-0.043 0.033-0.065 0.047s-0.045 0.028-0.069 0.041c-0.023 0.013-0.048 0.024-0.072 0.034s-0.050 0.019-0.075 0.027c-0.026 0.008-0.051 0.015-0.077 0.020s-0.053 0.010-0.079 0.012c-0.027 0.003-0.053 0.004-0.080 0.004s-0.054-0.002-0.081-0.004c-0.026-0.002-0.053-0.006-0.079-0.012s-0.052-0.011-0.078-0.020c-0.026-0.008-0.051-0.016-0.075-0.027s-0.049-0.022-0.073-0.034c-0.023-0.012-0.046-0.026-0.069-0.041s-0.044-0.031-0.064-0.047c-0.021-0.017-0.041-0.035-0.060-0.055s-0.037-0.039-0.054-0.059c-0.017-0.021-0.033-0.043-0.047-0.065s-0.029-0.045-0.041-0.069c-0.012-0.023-0.024-0.048-0.034-0.073s-0.020-0.049-0.027-0.075c-0.008-0.025-0.014-0.051-0.020-0.077s-0.009-0.053-0.012-0.079c-0.003-0.027-0.004-0.053-0.004-0.080s0.001-0.054 0.004-0.081c0.003-0.026 0.006-0.053 0.012-0.079s0.012-0.052 0.020-0.078c0.008-0.025 0.017-0.051 0.027-0.075s0.021-0.049 0.034-0.072 0.026-0.046 0.041-0.069c0.015-0.022 0.030-0.044 0.047-0.064s0.035-0.041 0.054-0.060c0.019-0.019 0.039-0.037 0.060-0.054 0.020-0.017 0.042-0.033 0.064-0.047s0.045-0.029 0.069-0.041c0.023-0.012 0.048-0.024 0.073-0.034s0.049-0.020 0.075-0.027c0.026-0.008 0.052-0.014 0.078-0.020s0.053-0.009 0.079-0.012c0.053-0.005 0.107-0.005 0.161 0 0.027 0.003 0.053 0.006 0.079 0.012s0.052 0.012 0.077 0.020c0.026 0.008 0.051 0.017 0.075 0.027s0.049 0.021 0.073 0.034c0.023 0.013 0.047 0.027 0.069 0.041s0.044 0.030 0.065 0.047 0.041 0.035 0.059 0.054c0.019 0.019 0.037 0.039 0.054 0.060s0.033 0.042 0.048 0.064c0.015 0.022 0.028 0.045 0.041 0.069s0.024 0.048 0.034 0.072c0.010 0.024 0.019 0.050 0.027 0.075s0.015 0.052 0.020 0.078c0.006 0.026 0.009 0.053 0.012 0.079s0.004 0.054 0.004 0.081c0 0.027-0.002 0.053-0.004 0.080z"></path>
      <path d="M22.21 2h-9.67c-0.172 0-0.311 0.139-0.311 0.311v5.061c0 0.006-0.001 0.013-0.001 0.019s0.001 0.013 0.001 0.019c0 0.451-0.366 0.817-0.817 0.817h-5.101c-0.172 0-0.311 0.139-0.311 0.311v15.24c0 1.272 1.031 2.303 2.304 2.303h8.586c0.357 0 0.625-0.325 0.557-0.675-0.077-0.395-0.117-0.802-0.117-1.22 0-3.516 2.85-6.094 6.367-6.094 0.077 0 0.154 0.001 0.231 0.004 0.321 0.012 0.586-0.247 0.586-0.567v-13.227c0-1.272-1.031-2.304-2.303-2.304zM14.245 21.389h-4.157c-0.451 0-0.817-0.366-0.817-0.817s0.366-0.817 0.817-0.817h4.157c0.451 0 0.817 0.366 0.817 0.817s-0.366 0.817-0.817 0.817zM20.426 18.136h-10.339c-0.451 0-0.817-0.366-0.817-0.817s0.366-0.817 0.817-0.817h10.339c0.451 0 0.817 0.366 0.817 0.817s-0.366 0.817-0.817 0.817zM20.426 14.858h-10.339c-0.451 0-0.817-0.366-0.817-0.817s0.366-0.817 0.817-0.817h10.339c0.451 0 0.817 0.366 0.817 0.817s-0.366 0.817-0.817 0.817zM20.426 11.706h-10.339c-0.451 0-0.817-0.366-0.817-0.817s0.366-0.817 0.817-0.817h10.339c0.451 0 0.817 0.366 0.817 0.817s-0.366 0.817-0.817 0.817z"></path>
    </symbol>
    <symbol id="icon-cursor" viewBox="0 0 32 32">
      <title>cursor</title>
      <path d="M27.954 22.084l-15.96-14.31v21.41l4.439-4.755 2.47 5.572 4.998-2.215-2.494-5.626 6.547-0.075z"></path>
      <path d="M8.938 2.776l1.5-0.663 1.704 3.857-1.5 0.663-1.704-3.857z"></path>
      <path d="M13.766 5.935l1.518-3.935 1.53 0.59-1.518 3.935-1.53-0.59z"></path>
      <path d="M16.479 7.649l3.853-1.713 0.666 1.499-3.853 1.713-0.666-1.499z"></path>
      <path d="M5 7.811l0.594-1.529 3.931 1.527-0.594 1.529-3.931-1.527z"></path>
      <path d="M5.105 12.665l3.861-1.696 0.659 1.502-3.861 1.696-0.659-1.502z"></path>
    </symbol>
    <symbol id="icon-dump-truck" viewBox="0 0 32 32">
      <title>dump-truck</title>
      <path d="M6.813 19.656c-1.553 0-2.813 1.259-2.813 2.813s1.259 2.813 2.813 2.813 2.813-1.259 2.813-2.813c0-1.553-1.259-2.813-2.813-2.813zM7.516 23.172h-1.406v-1.406h1.406v1.406z"></path>
      <path d="M20.969 8.406v-1.406h-4.065l-0.703 2.813h-10.526l-1.675 3.709 5.73 4.728h5.811l2.462-9.844h2.966z"></path>
      <path d="M22.375 19.656c-1.553 0-2.813 1.259-2.813 2.813s1.259 2.813 2.813 2.813 2.813-1.259 2.813-2.813c0-1.553-1.259-2.813-2.813-2.813zM23.078 23.172h-1.406v-1.406h1.406v1.406z"></path>
      <path d="M11.031 22.469h3.455l0.703-2.813h-5.256c0.675 0.748 1.097 1.728 1.097 2.813z"></path>
      <path d="M15.935 22.469h2.22c0-2.326 1.892-4.219 4.219-4.219s4.219 1.892 4.219 4.219h1.406v-7.031h-10.306l-1.758 7.031z"></path>
      <path d="M18.045 14.031h5.736v-4.219h-4.682l-1.055 4.219z"></path>
    </symbol>
    <symbol id="icon-estimate" viewBox="0 0 32 32">
      <title>estimate</title>
      <path d="M25.428 6.572c-2.518-2.518-5.867-3.905-9.428-3.905s-6.91 1.387-9.428 3.905c-2.518 2.518-3.905 5.867-3.905 9.428s1.387 6.91 3.905 9.428c2.518 2.518 5.867 3.905 9.428 3.905s6.91-1.387 9.428-3.905c2.518-2.518 3.905-5.867 3.905-9.428s-1.387-6.91-3.905-9.428zM16 15.167c2.068 0 3.75 1.682 3.75 3.75 0 1.712-1.154 3.159-2.725 3.606-0.113 0.032-0.192 0.134-0.192 0.251v0.702c0 0.449-0.345 0.835-0.793 0.856-0.479 0.023-0.874-0.359-0.874-0.832v-0.726c0-0.117-0.078-0.219-0.191-0.251-1.564-0.445-2.715-1.881-2.726-3.583-0.003-0.455 0.355-0.843 0.809-0.856 0.471-0.014 0.858 0.365 0.858 0.833 0 1.198 1.017 2.163 2.232 2.078 1.026-0.072 1.857-0.903 1.929-1.929 0.085-1.216-0.88-2.232-2.078-2.232-2.068 0-3.75-1.682-3.75-3.75 0-1.712 1.154-3.159 2.725-3.606 0.113-0.032 0.192-0.134 0.192-0.251v-0.702c0-0.449 0.345-0.835 0.793-0.856 0.479-0.022 0.874 0.359 0.874 0.832v0.726c0 0.117 0.078 0.219 0.191 0.251 1.564 0.445 2.715 1.881 2.726 3.583 0.003 0.454-0.355 0.843-0.809 0.856-0.471 0.014-0.858-0.365-0.858-0.833 0-1.198-1.017-2.163-2.232-2.078-1.026 0.072-1.857 0.903-1.929 1.929-0.085 1.216 0.88 2.232 2.078 2.232z"></path>
    </symbol>
    <symbol id="icon-finance" viewBox="0 0 32 32">
      <title>finance</title>
      <path d="M16 2.667c-7.369 0-13.333 5.963-13.333 13.333s5.963 13.333 13.333 13.333c7.369 0 13.333-5.963 13.333-13.333s-5.963-13.333-13.333-13.333zM10.891 10.891c0.63-0.63 1.651-0.63 2.28 0s0.63 1.651 0 2.28c-0.63 0.63-1.651 0.63-2.28 0s-0.63-1.651 0-2.28zM12.405 20.911c-0.363 0.363-0.952 0.363-1.316 0s-0.363-0.952 0-1.316l8.506-8.506c0.363-0.363 0.952-0.363 1.316 0s0.363 0.952 0 1.316l-8.506 8.506zM21.109 21.109c-0.63 0.63-1.651 0.63-2.28 0s-0.63-1.651 0-2.28c0.63-0.63 1.651-0.63 2.28 0s0.63 1.651 0 2.28z"></path>
    </symbol>
    <symbol id="icon-fleet-buy" viewBox="0 0 32 32">
      <title>fleet-buy</title>
      <path d="M8.552 22.517c0.343 0 0.621-0.278 0.621-0.621s-0.278-0.621-0.621-0.621c-0.343 0-0.621 0.278-0.621 0.621s0.278 0.621 0.621 0.621z"></path>
      <path d="M22.621 22.517c0.343 0 0.621-0.278 0.621-0.621s-0.278-0.621-0.621-0.621c-0.343 0-0.621 0.278-0.621 0.621s0.278 0.621 0.621 0.621z"></path>
      <path d="M25.931 15.69h-0.091l-1.15-4.651c-0.023-0.092-0.076-0.173-0.151-0.23s-0.168-0.087-0.262-0.084h-5.379c-0.11 0-0.215 0.044-0.293 0.121s-0.121 0.183-0.121 0.293v10.759c0 0.11 0.044 0.215 0.121 0.293s0.183 0.121 0.293 0.121h1.279c0.101 0.575 0.401 1.097 0.849 1.473s1.013 0.582 1.597 0.582c0.584 0 1.15-0.206 1.597-0.582s0.748-0.897 0.849-1.473h0.865c0.272 0 0.541-0.053 0.792-0.157s0.479-0.256 0.671-0.448 0.345-0.42 0.448-0.671c0.104-0.251 0.157-0.52 0.157-0.792v-2.483c0-0.549-0.218-1.075-0.606-1.463s-0.914-0.606-1.463-0.606zM20.138 16.517c-0.11 0-0.215-0.044-0.293-0.121s-0.121-0.183-0.121-0.293v-3.31c0-0.11 0.044-0.215 0.121-0.293s0.183-0.121 0.293-0.121h2.847c0.095-0.003 0.187 0.027 0.262 0.084s0.129 0.139 0.151 0.23l0.828 3.31c0.014 0.061 0.014 0.125 0.001 0.186s-0.039 0.119-0.076 0.17c-0.039 0.049-0.089 0.089-0.145 0.116s-0.119 0.041-0.182 0.041h-3.687zM22.62 23.552c-0.327 0-0.647-0.097-0.92-0.279s-0.484-0.44-0.61-0.743c-0.125-0.302-0.158-0.635-0.094-0.956s0.221-0.616 0.453-0.848c0.231-0.232 0.526-0.389 0.847-0.453s0.654-0.031 0.956 0.094c0.302 0.125 0.561 0.337 0.743 0.61s0.279 0.592 0.279 0.92c0 0.439-0.174 0.86-0.485 1.17s-0.731 0.485-1.17 0.485z"></path>
      <path d="M17.655 7.414c0-0.11-0.044-0.215-0.121-0.293s-0.183-0.121-0.293-0.121h-12.828c-0.11 0-0.215 0.044-0.293 0.121s-0.121 0.183-0.121 0.293v10.345h13.655v-10.345z"></path>
      <path d="M6.069 22.311h0.037c0.101 0.575 0.401 1.097 0.849 1.473s1.013 0.582 1.597 0.582 1.15-0.206 1.597-0.582c0.447-0.376 0.748-0.897 0.848-1.473h6.244c0.11 0 0.215-0.044 0.293-0.121s0.121-0.183 0.121-0.293v-3.31h-13.655v1.655c0 0.272 0.054 0.541 0.157 0.792s0.256 0.479 0.449 0.671 0.42 0.345 0.671 0.448c0.251 0.104 0.52 0.157 0.792 0.157zM8.552 20.242c0.327 0 0.647 0.097 0.92 0.279s0.484 0.44 0.61 0.743c0.125 0.302 0.158 0.635 0.094 0.956s-0.222 0.616-0.453 0.848c-0.231 0.231-0.526 0.389-0.847 0.453s-0.654 0.031-0.956-0.094c-0.302-0.125-0.561-0.337-0.743-0.61s-0.279-0.592-0.279-0.919c0-0.439 0.174-0.86 0.485-1.17s0.731-0.485 1.17-0.485z"></path>
    </symbol>
    <symbol id="icon-gap" viewBox="0 0 32 32">
      <title>gap</title>
      <path d="M21.237 12c-0.218-0.218-0.546-0.283-0.83-0.165s-0.47 0.396-0.47 0.704v2.7h-7.872v-2.7c0-0.308-0.185-0.586-0.47-0.704s-0.612-0.053-0.83 0.165l-3.461 3.461c-0.298 0.297-0.298 0.78 0 1.077l3.461 3.462c0.146 0.146 0.341 0.223 0.539 0.223 0.098 0 0.197-0.019 0.291-0.058 0.285-0.118 0.47-0.395 0.47-0.704v-2.7h7.871l-0 2.7c0 0.308 0.186 0.586 0.47 0.704 0.094 0.039 0.193 0.058 0.291 0.058 0.198 0 0.393-0.077 0.539-0.223l3.462-3.462c0.143-0.143 0.223-0.336 0.223-0.538s-0.080-0.396-0.223-0.539l-3.462-3.461z"></path>
      <path d="M3.762 3c-0.421 0-0.762 0.341-0.762 0.762v24.477c0 0.421 0.341 0.762 0.762 0.762s0.762-0.341 0.762-0.762v-24.477c0-0.421-0.341-0.762-0.762-0.762z"></path>
      <path d="M28.238 3c-0.421 0-0.762 0.341-0.762 0.762v24.477c0 0.421 0.341 0.762 0.762 0.762s0.762-0.341 0.762-0.762v-24.477c0-0.421-0.341-0.762-0.762-0.762z"></path>
    </symbol>
    <symbol id="icon-guarantee" viewBox="0 0 32 32">
      <title>guarantee</title>
      <path d="M25.781 13.781c0-5.393-4.388-9.781-9.781-9.781s-9.781 4.388-9.781 9.781c0 5.393 4.388 9.781 9.781 9.781s9.781-4.388 9.781-9.781zM14.256 17.953l-3.339-3.339 1.012-1.012 2.327 2.327 5.815-5.814 1.012 1.012-6.827 6.827z"></path>
      <path d="M6.961 20.406l-2.961 4.319 4.378-0.816 0.816 4.378 2.773-4.044c-2.013-0.779-3.746-2.122-5.006-3.836z"></path>
      <path d="M25.039 20.406c-1.259 1.714-2.993 3.057-5.006 3.836l2.773 4.044 0.816-4.378 4.378 0.816-2.961-4.319z"></path>
    </symbol>
    <symbol id="icon-heart" viewBox="0 0 32 32">
      <title>heart</title>
      <path d="M25.022 8.317c-1.053-1.057-2.481-1.65-3.97-1.65s-2.917 0.594-3.97 1.65l-1.082 1.085-1.082-1.085c-2.193-2.2-5.747-2.2-7.94 0s-2.193 5.766 0 7.966l9.022 9.051 9.022-9.051c1.053-1.056 1.645-2.489 1.645-3.983s-0.592-2.927-1.645-3.983z"></path>
    </symbol>
    <symbol id="icon-hot-buy" viewBox="0 0 32 32">
      <title>hot-buy</title>
      <path d="M16.001 18.022c0.435 0 0.788-0.353 0.788-0.788v-1.576c0-0.435-0.353-0.788-0.788-0.788s-0.788 0.353-0.788 0.788v1.576c0 0.435 0.353 0.788 0.788 0.788z"></path>
      <path d="M7.015 22.975l0.951 4.529 4.602-0.496 3.432 2.885 3.432-2.885 4.602 0.496 0.951-4.529 4.015-2.304-1.894-4.224 1.894-4.224-4.015-2.304-0.951-4.529-4.602 0.496-3.432-2.885-3.432 2.885-4.602-0.496-0.951 4.529-4.015 2.304 1.894 4.224-1.894 4.224 4.015 2.304zM19.151 13.295h4.727v1.576h-1.576v4.727h-1.576v-4.727h-1.576v-1.576zM13.636 15.659c0-1.303 1.060-2.364 2.364-2.364s2.364 1.060 2.364 2.364v1.576c0 1.303-1.060 2.364-2.364 2.364s-2.364-1.060-2.364-2.364v-1.576zM8.121 13.295h1.576v2.364h1.576v-2.364h1.576v6.303h-1.576v-2.364h-1.576v2.364h-1.576v-6.303z"></path>
    </symbol>
    <symbol id="icon-inspection" viewBox="0 0 32 32">
      <title>inspection</title>
      <path d="M18.859 8.219c-2.714 0-4.922 2.208-4.922 4.922s2.208 4.922 4.922 4.922 4.922-2.208 4.922-4.922c0-2.714-2.208-4.922-4.922-4.922zM22.169 12.232l-3.516 3.516c-0.273 0.273-0.719 0.276-0.995 0l-2.109-2.109c-0.274-0.275-0.274-0.72 0-0.995s0.72-0.274 0.995 0l1.612 1.613 3.018-3.019c0.275-0.274 0.72-0.274 0.995 0s0.274 0.72 0 0.995z"></path>
      <path d="M18.859 4c-5.040 0-9.141 4.101-9.141 9.141 0 2.267 0.83 4.345 2.202 5.944 0 0 0 0 0 0l-1.158 1.158-0.497-0.497c-0.274-0.275-0.72-0.274-0.994 0l-5.066 5.066c-0.274 0.275-0.274 0.72 0 0.994l1.989 1.989c0.275 0.275 0.72 0.274 0.994 0l5.066-5.066c0.275-0.275 0.275-0.72 0-0.994l-0.497-0.497 1.158-1.158c0 0 0 0 0 0 1.599 1.372 3.676 2.202 5.944 2.202 5.040 0 9.141-4.101 9.141-9.141s-4.101-9.141-9.141-9.141v0zM18.859 19.469c-3.489 0-6.328-2.839-6.328-6.328s2.839-6.328 6.328-6.328c3.489 0 6.328 2.839 6.328 6.328s-2.839 6.328-6.328 6.328z"></path>
    </symbol>
    <symbol id="icon-insurance" viewBox="0 0 32 32">
      <title>insurance</title>
      <path d="M16.762 4.557v-1.557h-1.523v1.557c-6.997 0.349-12.238 5.5-12.238 12.204l0.001 1.227 1.101-0.545c0.013-0.008 1.44-0.682 2.758-0.682 0.983 0 2.145 0.939 2.509 1.301l0.539 0.533 0.537-0.533c0.365-0.361 1.527-1.301 2.509-1.301 0.833 0 1.789 0.672 2.285 1.098v8.855c0 1.26 1.025 2.285 2.285 2.285s2.285-1.025 2.285-2.285v-1.523h-1.523v1.523c0 0.42-0.341 0.762-0.762 0.762s-0.762-0.341-0.762-0.762v-8.855c0.496-0.426 1.452-1.098 2.285-1.098 0.983 0 2.145 0.939 2.509 1.301l0.539 0.533 0.537-0.533c0.365-0.361 1.577-1.301 2.56-1.301 1.318 0 2.694 0.675 2.707 0.682l1.102 0.546v-1.228c0-6.705-5.241-11.855-12.238-12.204z"></path>
    </symbol>
    <symbol id="icon-limited-time" viewBox="0 0 32 32">
      <title>limited-time</title>
      <path d="M19.921 13.506c1.591-1.451 3.743-3.413 3.939-8.1h1.421v-1.406h-18.281v1.406h1.421c0.196 4.687 2.348 6.649 3.939 8.1 1.067 0.973 1.671 1.569 1.671 2.494s-0.604 1.52-1.671 2.494c-1.591 1.451-3.743 3.413-3.939 8.1h-1.421v1.406h18.281v-1.406h-1.421c-0.196-4.687-2.348-6.649-3.939-8.1-1.067-0.973-1.671-1.569-1.671-2.494s0.604-1.52 1.671-2.494zM15.438 21.27c-0.217 0.045-0.432 0.11-0.641 0.197l-4.307 1.782c0.703-1.788 1.836-2.822 2.818-3.716 1.095-0.999 2.13-1.942 2.13-3.533v5.271zM18.974 19.533c0.982 0.895 2.114 1.928 2.818 3.716l-4.307-1.782c-0.209-0.087-0.424-0.152-0.641-0.197v-5.27c0 1.591 1.035 2.534 2.13 3.533zM10.465 8.688c-0.34-0.886-0.575-1.956-0.636-3.281h12.624c-0.061 1.326-0.296 2.395-0.636 3.281h-11.351z"></path>
    </symbol>
    <symbol id="icon-magnifying-glass" viewBox="0 0 32 32">
      <title>magnifying-glass</title>
      <path d="M16.583 9.45c-1.645 1.645-1.645 4.321 0 5.966s4.321 1.645 5.966 0c1.645-1.645 1.645-4.321 0-5.966s-4.321-1.645-5.966 0z"></path>
      <path d="M13.6 6.467c-3.12 3.12-3.244 8.073-0.447 11.385l-1.141 1.141c-0.779-0.382-1.735-0.3-2.42 0.298l-4.657 4.047c-1.177 0.997-1.256 2.793-0.162 3.888 1.101 1.101 2.899 1.006 3.881-0.154l4.053-4.665c0.598-0.685 0.68-1.641 0.298-2.42l1.141-1.141c3.312 2.797 8.265 2.673 11.385-0.447 3.29-3.29 3.29-8.643 0-11.932s-8.642-3.29-11.932-0zM23.544 16.411c-2.193 2.193-5.762 2.193-7.955 0s-2.193-5.762 0-7.955c2.193-2.193 5.762-2.193 7.955 0s2.193 5.762 0 7.955z"></path>
    </symbol>
    <symbol id="icon-mail" viewBox="0 0 32 32">
      <title>mail</title>
      <path d="M20.344 15.97l8.99 5.683v-11.607l-8.99 5.923z"></path>
      <path d="M2.667 10.047v11.607l8.99-5.683-8.99-5.923z"></path>
      <path d="M27.666 6.667h-23.333c-0.832 0-1.492 0.62-1.617 1.418l13.283 8.752 13.283-8.752c-0.125-0.798-0.785-1.418-1.617-1.418z"></path>
      <path d="M18.815 16.976l-2.358 1.553c-0.14 0.092-0.298 0.137-0.458 0.137s-0.318-0.045-0.458-0.137l-2.358-1.555-10.463 6.618c0.128 0.792 0.785 1.407 1.613 1.407h23.333c0.828 0 1.485-0.615 1.613-1.407l-10.463-6.617z"></path>
    </symbol>
    <symbol id="icon-balance" viewBox="0 0 32 32">
      <title>balance</title>
      <path d="M4 15.578c0 1.939 1.577 3.516 3.516 3.516s3.516-1.577 3.516-3.516c0-0.102-0.022-0.202-0.065-0.295l-2.358-5.109c1.105-0.064 2.198-0.354 3.188-0.848l0.079-0.039c0.857-0.429 1.772-0.719 2.719-0.865v11.845h2.812v-11.845c0.948 0.146 1.862 0.437 2.719 0.865l0.078 0.039c0.989 0.495 2.083 0.785 3.188 0.848l-2.358 5.109c-0.043 0.092-0.065 0.193-0.065 0.295 0 1.939 1.577 3.516 3.516 3.516s3.516-1.577 3.516-3.516c0-0.102-0.022-0.202-0.065-0.295l-2.463-5.336c0.85-0.26 1.628-0.726 2.275-1.372 0.274-0.275 0.274-0.72 0-0.994s-0.72-0.275-0.994 0c-0.774 0.774-1.803 1.2-2.898 1.2-1.044 0-2.089-0.247-3.022-0.713l-0.078-0.039c-1.023-0.511-2.116-0.853-3.249-1.015-0.033-0.005-0.066-0.007-0.1-0.007v-1.601c0-0.777-0.63-1.406-1.406-1.406s-1.406 0.63-1.406 1.406v1.601c-0.033 0-0.067 0.002-0.1 0.007-1.133 0.162-2.226 0.504-3.248 1.015l-0.079 0.039c-0.933 0.467-1.978 0.713-3.022 0.713-1.095 0-2.124-0.426-2.898-1.2-0.275-0.275-0.72-0.275-0.994 0s-0.275 0.72 0 0.994c0.646 0.646 1.425 1.112 2.275 1.372l-2.463 5.336c-0.043 0.092-0.065 0.193-0.065 0.295v0zM22.771 14.875l1.714-3.713 1.713 3.713h-3.427zM7.516 11.162l1.714 3.713h-3.427l1.714-3.713z"></path>
      <path d="M27.297 26.594h-4.148c0-0.777-0.63-1.406-1.406-1.406h-11.484c-0.777 0-1.406 0.63-1.406 1.406h-4.148c-0.388 0-0.703 0.315-0.703 0.703s0.315 0.703 0.703 0.703h22.594c0.388 0 0.703-0.315 0.703-0.703s-0.315-0.703-0.703-0.703z"></path>
      <path d="M18.93 21.672h-5.859c-0.777 0-1.406 0.63-1.406 1.406v0.703h8.672v-0.703c0-0.777-0.63-1.406-1.406-1.406z"></path>
    </symbol>
    <symbol id="icon-medal" viewBox="0 0 32 32">
      <title>medal</title>
      <path d="M8.18 4l2.442 4.238h10.68l2.443-4.238h-15.565z"></path>
      <path d="M14.468 17.738l-7.917-13.738-0.422 0c-0.257 0.006-0.491 0.151-0.61 0.38l-1.471 2.825c-0.111 0.212-0.106 0.466 0.011 0.674l6.935 12.283c0.813-1.186 2.041-2.065 3.473-2.425v0z"></path>
      <path d="M27.888 7.202l-1.488-2.825c-0.12-0.227-0.353-0.372-0.61-0.377l-0.417-0-7.93 13.756c1.429 0.378 2.649 1.274 3.448 2.475l6.986-12.35c0.119-0.209 0.122-0.465 0.010-0.678v0z"></path>
      <path d="M19.14 26.77c1.781-1.784 1.781-4.677 0-6.461s-4.668-1.784-6.449-0c-1.781 1.784-1.781 4.677 0 6.461s4.668 1.784 6.449 0z"></path>
    </symbol>
    <symbol id="icon-megaphone" viewBox="0 0 32 32">
      <title>megaphone</title>
      <path d="M27.213 13.294l-10.609-10.611c-0.626-0.624-1.638-0.617-2.255-0.001-0.621 0.623-0.621 1.634 0 2.255l10.611 10.61c0.622 0.622 1.632 0.622 2.254 0 0.623-0.623 0.623-1.631 0-2.254z"></path>
      <path d="M13.561 6.405l-0.080 0.4c-0.563 2.814-1.929 5.487-3.778 7.653l5.772 5.772c2.166-1.849 4.802-3.252 7.616-3.815l0.401-0.080-9.931-9.93z"></path>
      <path d="M8.646 15.653l-3.945 3.944c-0.932 0.932-0.936 2.445 0 3.381l2.254 2.254c0.932 0.932 2.445 0.936 3.381 0l3.945-3.945-5.635-5.635zM9.209 21.852c-0.311 0.311-0.816 0.311-1.127 0s-0.311-0.816 0-1.127l1.127-1.127c0.311-0.311 0.816-0.311 1.127 0s0.311 0.816 0 1.127l-1.127 1.127z"></path>
      <path d="M17.608 25.657l1.084-1.084c0.936-0.936 0.933-2.449 0-3.381l-0.805-0.806c-0.445 0.299-0.87 0.624-1.283 0.97l0.962 0.963c0.311 0.309 0.313 0.812 0 1.126l-1.102 1.102-1.62-1.569-2.254 2.254 3.616 3.504c0.617 0.619 1.63 0.622 2.253-0.001 0.622-0.622 0.622-1.633 0-2.255l-0.851-0.824z"></path>
      <path d="M20.828 2c-0.441 0-0.797 0.356-0.797 0.797v1.594c0 0.441 0.357 0.797 0.797 0.797s0.797-0.356 0.797-0.797v-1.594c0-0.441-0.356-0.797-0.797-0.797z"></path>
      <path d="M27.203 8.376h-1.594c-0.441 0-0.797 0.356-0.797 0.797s0.356 0.797 0.797 0.797h1.594c0.441 0 0.797-0.356 0.797-0.797s-0.357-0.797-0.797-0.797z"></path>
      <path d="M26.173 3.827c-0.311-0.311-0.816-0.311-1.127 0l-1.594 1.594c-0.311 0.311-0.311 0.816 0 1.127s0.816 0.311 1.127 0l1.594-1.594c0.311-0.311 0.311-0.816 0-1.127z"></path>
    </symbol>
    <symbol id="icon-minus" viewBox="0 0 32 32">
      <title>minus</title>
      <path d="M27.904 17.024h-23.808c-0.565 0-1.024-0.459-1.024-1.024s0.459-1.024 1.024-1.024h23.808c0.565 0 1.024 0.459 1.024 1.024s-0.459 1.024-1.024 1.024z"></path>
    </symbol>
    <symbol id="icon-percentage" viewBox="0 0 32 32">
      <title>percentage</title>
      <path d="M26.843 15.83c-0.101-0.206-0.101-0.442 0-0.648l0.933-1.908c0.519-1.063 0.108-2.329-0.937-2.883l-1.876-0.996c-0.203-0.107-0.341-0.298-0.381-0.524l-0.367-2.092c-0.204-1.165-1.282-1.948-2.453-1.782l-2.103 0.298c-0.227 0.032-0.451-0.041-0.616-0.2l-1.527-1.477c-0.85-0.822-2.182-0.822-3.032 0l-1.527 1.477c-0.165 0.159-0.389 0.232-0.616 0.2l-2.103-0.298c-1.171-0.166-2.248 0.617-2.453 1.782l-0.367 2.092c-0.040 0.226-0.178 0.417-0.381 0.524l-1.876 0.996c-1.045 0.554-1.456 1.821-0.937 2.883l0.933 1.908c0.101 0.206 0.101 0.442 0 0.648l-0.933 1.908c-0.519 1.063-0.108 2.329 0.937 2.883l1.876 0.996c0.202 0.107 0.341 0.299 0.381 0.524l0.367 2.092c0.186 1.061 1.095 1.804 2.14 1.804 0.103 0 0.207-0.007 0.312-0.022l2.103-0.297c0.227-0.032 0.451 0.041 0.616 0.2l1.527 1.477c0.425 0.411 0.97 0.617 1.516 0.617s1.091-0.206 1.516-0.617l1.527-1.477c0.165-0.159 0.389-0.232 0.616-0.2l2.103 0.297c1.171 0.166 2.248-0.617 2.453-1.782l0.367-2.092c0.040-0.226 0.178-0.417 0.381-0.524l1.876-0.996c1.045-0.554 1.456-1.821 0.937-2.883l-0.933-1.908zM13.115 9.014c1.458 0 2.645 1.186 2.645 2.645s-1.187 2.645-2.645 2.645c-1.458 0-2.645-1.187-2.645-2.645s1.187-2.645 2.645-2.645zM11.75 20.776c-0.141 0.141-0.325 0.211-0.51 0.211s-0.369-0.070-0.51-0.211c-0.282-0.282-0.282-0.738 0-1.020l9.521-9.521c0.282-0.282 0.738-0.282 1.020 0s0.282 0.738 0 1.020l-9.521 9.521zM18.885 21.998c-1.458 0-2.645-1.186-2.645-2.645s1.186-2.645 2.645-2.645c1.458 0 2.645 1.186 2.645 2.645s-1.186 2.645-2.645 2.645z"></path>
      <path d="M18.886 18.151c-0.663 0-1.202 0.539-1.202 1.202s0.539 1.202 1.202 1.202c0.663 0 1.202-0.539 1.202-1.202s-0.539-1.202-1.202-1.202z"></path>
      <path d="M13.116 10.457c-0.663 0-1.202 0.539-1.202 1.202s0.539 1.202 1.202 1.202 1.202-0.539 1.202-1.202c-0-0.663-0.539-1.202-1.202-1.202z"></path>
    </symbol>
    <symbol id="icon-phone" viewBox="0 0 32 32">
      <title>phone</title>
      <path d="M28.476 21.867c-0.073-0.058-5.365-3.872-6.817-3.598-0.693 0.123-1.090 0.596-1.885 1.542-0.128 0.153-0.436 0.519-0.675 0.78-0.503-0.164-0.993-0.364-1.468-0.597-2.448-1.192-4.427-3.17-5.619-5.619-0.234-0.474-0.434-0.965-0.597-1.468 0.261-0.24 0.628-0.548 0.784-0.679 0.942-0.791 1.416-1.188 1.539-1.883 0.252-1.44-3.56-6.768-3.6-6.816-0.173-0.247-0.399-0.453-0.661-0.602s-0.554-0.238-0.855-0.261c-1.545 0-5.956 5.722-5.956 6.685 0 0.056 0.081 5.748 7.1 12.889 7.133 7.011 12.825 7.092 12.881 7.092 0.964 0 6.685-4.411 6.685-5.956-0.022-0.3-0.111-0.591-0.259-0.852s-0.353-0.486-0.599-0.659z"></path>
    </symbol>
    <symbol id="icon-phone-alt" viewBox="0 0 32 32">
      <title>phone-alt</title>
      <path d="M6.521 21.271c3.156 3.773 6.956 6.743 11.292 8.845 1.651 0.782 3.859 1.711 6.319 1.87 0.152 0.007 0.298 0.013 0.451 0.013 1.651 0 2.977-0.57 4.058-1.744 0.007-0.007 0.020-0.020 0.027-0.033 0.385-0.464 0.822-0.882 1.28-1.326 0.312-0.298 0.63-0.61 0.935-0.928 1.412-1.472 1.412-3.342-0.013-4.767l-3.985-3.985c-0.676-0.703-1.485-1.074-2.334-1.074s-1.664 0.371-2.361 1.068l-2.374 2.374c-0.219-0.126-0.444-0.239-0.656-0.345-0.265-0.133-0.511-0.259-0.729-0.398-2.162-1.373-4.124-3.163-6.001-5.464-0.948-1.2-1.585-2.208-2.029-3.236 0.623-0.564 1.207-1.154 1.77-1.731 0.199-0.206 0.404-0.411 0.61-0.617 0.716-0.716 1.101-1.545 1.101-2.387s-0.378-1.671-1.101-2.387l-1.976-1.976c-0.232-0.232-0.451-0.458-0.676-0.69-0.438-0.451-0.895-0.915-1.346-1.333-0.683-0.67-1.485-1.021-2.334-1.021-0.842 0-1.651 0.351-2.361 1.028l-2.48 2.48c-0.902 0.902-1.412 1.996-1.518 3.262-0.126 1.585 0.166 3.269 0.922 5.305 1.16 3.15 2.911 6.074 5.51 9.197zM1.707 6.909c0.080-0.882 0.418-1.618 1.054-2.254l2.467-2.467c0.385-0.371 0.809-0.564 1.22-0.564 0.404 0 0.816 0.192 1.194 0.577 0.444 0.411 0.862 0.842 1.313 1.3 0.225 0.232 0.458 0.464 0.69 0.703l1.976 1.976c0.411 0.411 0.623 0.829 0.623 1.24s-0.212 0.829-0.623 1.24c-0.206 0.206-0.411 0.418-0.617 0.623-0.617 0.623-1.194 1.213-1.83 1.777-0.013 0.013-0.020 0.020-0.033 0.033-0.55 0.55-0.464 1.074-0.332 1.472 0.007 0.020 0.013 0.033 0.020 0.053 0.511 1.227 1.22 2.394 2.327 3.786 1.989 2.453 4.085 4.356 6.392 5.822 0.285 0.186 0.59 0.332 0.875 0.477 0.265 0.133 0.511 0.259 0.729 0.398 0.027 0.013 0.046 0.027 0.073 0.040 0.219 0.113 0.431 0.166 0.643 0.166 0.53 0 0.875-0.338 0.988-0.451l2.48-2.48c0.385-0.385 0.802-0.59 1.213-0.59 0.504 0 0.915 0.312 1.174 0.59l3.998 3.992c0.796 0.796 0.789 1.658-0.020 2.5-0.279 0.298-0.57 0.584-0.882 0.882-0.464 0.451-0.948 0.915-1.386 1.439-0.763 0.822-1.671 1.207-2.845 1.207-0.113 0-0.232-0.007-0.345-0.013-2.175-0.139-4.197-0.988-5.716-1.711-4.124-1.996-7.745-4.827-10.748-8.421-2.473-2.977-4.138-5.749-5.238-8.719-0.683-1.823-0.942-3.289-0.835-4.622z"></path>
    </symbol>
    <symbol id="icon-piggy-bank" viewBox="0 0 32 32">
      <title>piggy-bank</title>
      <path d="M30.375 9.75c-0.284 0-0.557-0.029-0.814-0.081 0.119-0.538 0.189-1.136 0.189-1.794 0-1.034-0.841-1.875-1.875-1.875s-1.875 0.841-1.875 1.875c0 1.027 0.822 1.996 2.001 2.576-0.18 0.419-0.395 0.771-0.617 1.073-1.964-3.252-6.322-5.524-11.384-5.524-2.919 0-5.727 0.763-7.965 2.157-0.762-0.588-1.69-0.907-2.66-0.907-0.345 0-0.625 0.28-0.625 0.625 0 0.862 0.264 1.707 0.752 2.427-0.838 0.978-1.43 2.068-1.738 3.198h-0.264c-1.379 0-2.5 1.121-2.5 2.5 0 1.391 0.705 2.661 1.885 3.397l4.365 2.719v3.259c0 0.345 0.28 0.625 0.625 0.625h2.5c0.237 0 0.453-0.134 0.559-0.346l0.74-1.48c2.766 0.763 5.886 0.763 8.652 0l0.74 1.48c0.106 0.212 0.322 0.346 0.559 0.346h2.5c0.346 0 0.625-0.28 0.625-0.625v-3.309c2.388-1.757 3.75-4.179 3.75-6.691 0-0.911-0.183-1.789-0.507-2.622 0.424-0.472 0.859-1.087 1.191-1.887 0.383 0.087 0.784 0.134 1.191 0.134 0.346 0 0.625-0.28 0.625-0.625s-0.28-0.625-0.625-0.625zM7.25 14.75c-0.689 0-1.25-0.561-1.25-1.25s0.561-1.25 1.25-1.25 1.25 0.561 1.25 1.25c0 0.689-0.561 1.25-1.25 1.25zM20.969 9.945c-0.087 0.264-0.331 0.43-0.594 0.43-0.065 0-0.13-0.010-0.195-0.031-2.368-0.778-5.992-0.778-8.361 0-0.327 0.11-0.681-0.070-0.789-0.399-0.107-0.328 0.071-0.681 0.399-0.789 2.616-0.858 6.523-0.858 9.139 0 0.328 0.107 0.506 0.461 0.399 0.789zM28.374 9.232c-0.695-0.395-1.124-0.94-1.124-1.357 0-0.345 0.28-0.625 0.625-0.625s0.625 0.28 0.625 0.625c-0 0.494-0.046 0.945-0.126 1.357z"></path>
    </symbol>
    <symbol id="icon-pin" viewBox="0 0 32 32">
      <title>pin</title>
      <path d="M25.471 8.406c-0.794-1.565-1.968-2.906-3.416-3.898s-3.121-1.605-4.867-1.782c-0.79-0.079-1.586-0.079-2.375 0-1.746 0.177-3.42 0.79-4.867 1.782s-2.622 2.333-3.416 3.898c-0.999 1.997-1.385 4.245-1.109 6.46s1.201 4.3 2.66 5.991l7.112 8.646c0.098 0.119 0.222 0.216 0.361 0.282s0.293 0.1 0.447 0.1 0.307-0.034 0.447-0.1c0.14-0.066 0.263-0.162 0.362-0.282l7.111-8.646c1.458-1.691 2.384-3.775 2.66-5.991s-0.11-4.463-1.109-6.46zM16 17.323c-0.828 0-1.638-0.246-2.327-0.706s-1.225-1.114-1.542-1.879-0.4-1.607-0.238-2.42c0.162-0.812 0.56-1.558 1.146-2.144s1.332-0.984 2.144-1.146c0.812-0.162 1.654-0.079 2.419 0.238s1.419 0.854 1.879 1.542c0.46 0.689 0.706 1.498 0.706 2.327-0.001 1.11-0.443 2.175-1.228 2.96s-1.849 1.227-2.96 1.228z"></path>
    </symbol>
    <symbol id="icon-price-reduction" viewBox="0 0 32 32">
      <title>price-reduction</title>
      <path d="M27.933 16.262c-0.128-0.293-0.417-0.483-0.737-0.483h-3.502v-11.253c0-1.393-1.133-2.527-2.526-2.527h-10.335c-1.393 0-2.526 1.133-2.526 2.527v11.253h-3.502c-0.32 0-0.609 0.19-0.737 0.483s-0.070 0.634 0.148 0.869l11.196 12.057c0.152 0.164 0.366 0.257 0.589 0.257s0.437-0.093 0.589-0.257l11.196-12.057c0.218-0.234 0.276-0.575 0.148-0.869zM16.861 16.526h-0.057v0.918c0 0.444-0.36 0.804-0.804 0.804s-0.804-0.36-0.804-0.804v-0.918h-0.918c-0.444 0-0.804-0.36-0.804-0.804s0.36-0.804 0.804-0.804h2.584c0.515 0 0.918-0.42 0.918-0.918 0-0.497-0.401-0.918-0.918-0.918h-1.722c-1.415 0-2.527-1.152-2.527-2.527 0-1.398 1.131-2.526 2.527-2.526h0.057v-0.918c0-0.444 0.36-0.804 0.804-0.804s0.804 0.36 0.804 0.804v0.918h0.919c0.444 0 0.804 0.36 0.804 0.804s-0.36 0.804-0.804 0.804h-2.584c-0.508 0-0.918 0.411-0.918 0.918 0 0.5 0.405 0.918 0.918 0.918h1.722c1.398 0 2.527 1.131 2.527 2.527-0 1.372-1.109 2.527-2.527 2.527z"></path>
    </symbol>
    <symbol id="icon-pricetag" viewBox="0 0 32 32">
      <title>pricetag</title>
      <path d="M27.794 7.769l-3.563-3.563c-0.132-0.132-0.311-0.206-0.497-0.206h-5.485c-0.187 0-0.366 0.074-0.498 0.206l-13.135 13.162c-0.822 0.822-0.822 2.161 0 2.983l7.032 7.032c0.822 0.822 2.161 0.822 2.984-0l13.162-13.182c0.132-0.132 0.206-0.31 0.206-0.497v-5.438c0-0.186-0.074-0.365-0.206-0.497zM18.502 17.476c-0.274 0.275-0.72 0.275-0.994 0s-0.275-0.72 0-0.994c0.274-0.274 0.274-0.72 0-0.995l-0.994-0.994c-0.274-0.274-0.72-0.274-0.994 0l-0.278 0.278c-0.214 0.214-0.267 0.54-0.132 0.812l1.082 2.164c0.407 0.813 0.248 1.792-0.395 2.435l-0.278 0.278c-0.824 0.824-2.159 0.825-2.983 0l-0.638 0.638c-0.274 0.275-0.72 0.275-0.994 0s-0.275-0.72 0-0.994l0.638-0.638c-0.826-0.826-0.823-2.16 0-2.983 0.275-0.275 0.72-0.275 0.994 0s0.275 0.72 0 0.994c-0.275 0.275-0.275 0.72 0 0.994l0.995 0.994c0.275 0.275 0.72 0.275 0.994 0l0.278-0.278c0.214-0.214 0.267-0.541 0.132-0.812l-1.082-2.164c-0.407-0.813-0.248-1.792 0.395-2.435l0.278-0.278c0.821-0.821 2.149-0.825 2.975-0.008l0.587-0.617c0.268-0.281 0.713-0.292 0.994-0.025s0.292 0.713 0.025 0.994l-0.611 0.642c0.86 0.86 0.809 2.191 0.008 2.991zM22.328 11.782c-1.163 0-2.109-0.946-2.109-2.109s0.946-2.109 2.109-2.109c1.163 0 2.11 0.946 2.11 2.109s-0.946 2.109-2.11 2.109z"></path>
      <path d="M22.328 10.376c0.388 0 0.703-0.315 0.703-0.703s-0.315-0.703-0.703-0.703c-0.388 0-0.703 0.315-0.703 0.703s0.315 0.703 0.703 0.703z"></path>
    </symbol>
    <symbol id="icon-sale-tag" viewBox="0 0 32 32">
      <title>sale-tag</title>
      <path d="M14.988 18.139l0.927-0.927-2.098-1.172 1.172 2.099z"></path>
      <path d="M25.414 4h-5.553c-1.219 0-2.849 0.675-3.711 1.537l-11.394 11.394c-0.487 0.487-0.755 1.136-0.755 1.828s0.268 1.342 0.755 1.828l6.657 6.657c0.487 0.487 1.136 0.755 1.829 0.755s1.342-0.268 1.829-0.755l11.394-11.394c0.862-0.862 1.537-2.492 1.537-3.711v-5.554c-0-1.426-1.16-2.586-2.586-2.586zM13.938 22.063c-0.698 0.698-1.582 0.879-1.89 0.57-0.149-0.149-0.234-0.511-0.069-0.677 0.218-0.218 0.772 0.048 1.316-0.495 0.319-0.32 0.453-0.74 0.133-1.060-0.799-0.799-2.263 1.156-3.526-0.107-0.793-0.794-0.383-1.747 0.229-2.359 0.314-0.314 1.086-0.937 1.438-0.586 0.123 0.122 0.282 0.453 0.091 0.644-0.165 0.165-0.49 0.085-0.938 0.532-0.383 0.384-0.447 0.756-0.191 1.012 0.66 0.661 2.141-1.278 3.52 0.101 0.761 0.762 0.623 1.688-0.112 2.423zM17.89 18.016c-0.117 0.117-0.245 0.17-0.373 0.096l-0.911-0.506-1.22 1.22 0.506 0.911c0.075 0.128 0.021 0.256-0.096 0.373-0.186 0.186-0.554 0.32-0.724 0.149-0.011-0.011-0.027-0.037-0.043-0.064l-2.322-4.378c-0.112-0.208 0.011-0.479 0.208-0.676 0.202-0.202 0.474-0.325 0.681-0.213l4.378 2.322c0.026 0.016 0.048 0.027 0.064 0.043 0.165 0.165 0.038 0.538-0.149 0.724zM20.686 15.22l-1.688 1.688c-0.154 0.154-0.378 0.229-0.522 0.085l-3.462-3.462c-0.149-0.149-0.043-0.384 0.133-0.559 0.171-0.17 0.41-0.282 0.559-0.133l3.073 3.073 1.3-1.3c0.139-0.139 0.357-0.059 0.511 0.096 0.149 0.149 0.234 0.373 0.096 0.511zM23.471 12.435l-1.896 1.896c-0.154 0.155-0.378 0.229-0.522 0.085l-3.456-3.456c-0.144-0.144-0.069-0.367 0.085-0.522l1.896-1.896c0.149-0.149 0.373-0.064 0.517 0.080 0.165 0.165 0.229 0.389 0.090 0.527l-1.507 1.507 1.065 1.065 0.809-0.809c0.138-0.139 0.352-0.085 0.495 0.058 0.122 0.123 0.197 0.336 0.048 0.485l-0.81 0.809 1.070 1.070 1.507-1.507c0.139-0.139 0.362-0.075 0.527 0.091 0.144 0.144 0.229 0.367 0.080 0.517zM24.066 8.969c-0.131 0.131-0.312 0.206-0.497 0.206s-0.366-0.075-0.497-0.206c-0.131-0.131-0.206-0.312-0.206-0.497s0.075-0.366 0.206-0.497c0.131-0.131 0.312-0.206 0.497-0.206s0.366 0.075 0.497 0.206c0.131 0.131 0.206 0.312 0.206 0.497s-0.075 0.367-0.206 0.497z"></path>
    </symbol>
    <symbol id="icon-search" viewBox="0 0 32 32">
      <title>search</title>
      <path stroke-linejoin="miter" stroke-linecap="butt" stroke-miterlimit="4" stroke-width="0.6667" d="M29.243 27.201l-7.374-7.374c1.403-1.833 2.242-4.121 2.242-6.605 0-6.004-4.885-10.889-10.889-10.889s-10.889 4.885-10.889 10.889c0 6.004 4.885 10.889 10.889 10.889 2.483 0 4.771-0.838 6.605-2.242l7.374 7.374c0.282 0.281 0.652 0.423 1.021 0.423s0.74-0.142 1.021-0.423c0.565-0.565 0.565-1.478 0-2.043 0 0 0 0 0 0zM13.222 21.222c-4.411 0-8-3.589-8-8s3.588-8 8-8c4.411 0 8 3.588 8 8s-3.589 8-8 8z"></path>
    </symbol>
    <symbol id="icon-semi-truck" viewBox="0 0 32 32">
      <title>semi-truck</title>
      <path d="M25.95 24.151v-3.991c0-0.857-0.695-1.552-1.552-1.552h-0.406v-14.568c0-0.13-0.065-0.252-0.174-0.324l-0.985-0.651c-0.258-0.171-0.602 0.014-0.602 0.324v4.679l-0.294-0.792c-0.395-1.065-1.411-1.772-2.547-1.772h-6.785c-1.143 0-2.164 0.715-2.554 1.79l-0.281 0.775v-4.679c0-0.309-0.344-0.494-0.602-0.324l-0.985 0.651c-0.109 0.072-0.174 0.193-0.174 0.324v14.568h-0.406c-0.857 0-1.552 0.695-1.552 1.552v3.991h-0.661c-0.214 0-0.388 0.174-0.388 0.388v2.146c0 0.214 0.174 0.388 0.388 0.388h1.674v1.028c0 0.429 0.348 0.776 0.776 0.776h2.057c0.429 0 0.776-0.348 0.776-0.776v-1.028h10.656v1.028c0 0.429 0.348 0.776 0.776 0.776h2.057c0.429 0 0.776-0.348 0.776-0.776v-1.028h1.674c0.214 0 0.388-0.174 0.388-0.388v-2.145c0-0.214-0.174-0.388-0.388-0.388h-0.662zM10.284 10.229h11.432v3.824h-11.432v-3.824zM10.018 23.065h-1.326c-0.405 0-0.734-0.329-0.734-0.734v-0.018c0-0.405 0.328-0.734 0.734-0.734h1.326c0.405 0 0.734 0.328 0.734 0.734v0.018c0 0.405-0.328 0.734-0.733 0.734zM18.638 23.282h-5.277c-0.429 0-0.776-0.348-0.776-0.776v-4.918c0-0.429 0.348-0.776 0.776-0.776h5.277c0.429 0 0.776 0.348 0.776 0.776v4.918c0 0.429-0.348 0.776-0.776 0.776zM23.308 23.065h-1.326c-0.405 0-0.733-0.329-0.733-0.734v-0.018c0-0.405 0.328-0.734 0.733-0.734h1.326c0.405 0 0.734 0.328 0.734 0.734v0.018c0 0.405-0.328 0.734-0.734 0.734zM18.52 19.652h-5.053c-0.212 0-0.384-0.172-0.384-0.384v-0.008c0-0.212 0.172-0.384 0.384-0.384h5.053c0.212 0 0.384 0.172 0.384 0.384v0.008c0 0.212-0.172 0.384-0.384 0.384zM18.52 18.099h-5.053c-0.212 0-0.384-0.172-0.384-0.384v-0.008c0-0.212 0.172-0.384 0.384-0.384h5.053c0.212 0 0.384 0.172 0.384 0.384v0.008c0 0.212-0.172 0.384-0.384 0.384zM18.52 22.757h-5.053c-0.212 0-0.384-0.172-0.384-0.384v-0.008c0-0.212 0.172-0.384 0.384-0.384h5.053c0.212 0 0.384 0.172 0.384 0.384v0.008c0 0.212-0.172 0.384-0.384 0.384zM18.52 21.204h-5.053c-0.212 0-0.384-0.172-0.384-0.384v-0.008c0-0.212 0.172-0.384 0.384-0.384h5.053c0.212 0 0.384 0.172 0.384 0.384v0.008c0 0.212-0.172 0.384-0.384 0.384z"></path>
    </symbol>
    <symbol id="icon-semi-truck-alt" viewBox="0 0 32 32">
      <title>semi-truck-alt</title>
      <path d="M7.871 21.167c-1.493 0-2.707 1.219-2.707 2.712s1.214 2.706 2.707 2.706c1.493 0 2.707-1.219 2.707-2.712s-1.214-2.706-2.707-2.706zM7.871 25.498c-0.894 0-1.625-0.731-1.625-1.625s0.731-1.625 1.625-1.625c0.894 0 1.625 0.731 1.625 1.625s-0.731 1.625-1.625 1.625z"></path>
      <path d="M24.121 21.167c-1.493 0-2.707 1.219-2.707 2.712s1.214 2.706 2.706 2.706c1.493 0 2.706-1.219 2.706-2.712s-1.214-2.706-2.706-2.706zM24.121 25.498c-0.894 0-1.625-0.731-1.625-1.625s0.731-1.625 1.625-1.625c0.894 0 1.625 0.731 1.625 1.625s-0.731 1.625-1.625 1.625z"></path>
      <path d="M12.577 23.483c-0.203-0.198-0.548-0.198-0.757 0.010-0.107 0.102-0.162 0.239-0.162 0.381s0.056 0.284 0.152 0.381c0.112 0.107 0.249 0.162 0.391 0.162s0.284-0.056 0.376-0.162c0.107-0.102 0.162-0.239 0.162-0.381s-0.051-0.284-0.162-0.391z"></path>
      <path d="M28.7 16.359l-0.782-0.391v-3.661l0.777-0.406c0.183-0.091 0.3-0.279 0.3-0.482v-1.534c0-0.142-0.056-0.279-0.157-0.386-0.457-0.457-1.051-0.731-1.691-0.782l-2.046-1.95c-0.401-0.559-1.808-0.767-2.062-0.767h-6.5c-0.3 0-0.543 0.244-0.543 0.543v12.456h-7.043c0.3 0 0.543-0.244 0.543-0.543s-0.244-0.538-0.543-0.538h-2.163c-0.3 0-0.543 0.244-0.543 0.543s0.244 0.543 0.543 0.543h-2.168c-0.249 0-0.467 0.168-0.523 0.411l-1.082 4.331c-0.041 0.163-0.005 0.335 0.096 0.467s0.259 0.208 0.427 0.208h2.163c0.025 0 0.046-0.010 0.071-0.015-0.046-0.168-0.071-0.345-0.071-0.528 0-1.198 0.97-2.168 2.168-2.168s2.168 0.97 2.168 2.168c0 0.183-0.030 0.355-0.071 0.528 0.025 0.005 0.046 0.015 0.071 0.015h11.918c0.025 0 0.046-0.010 0.071-0.015-0.046-0.168-0.071-0.345-0.071-0.528 0-1.198 0.97-2.168 2.168-2.168s2.168 0.97 2.168 2.168c0 0.183-0.030 0.355-0.071 0.528 0.025 0.005 0.046 0.015 0.071 0.015 1.493 0 2.706-1.214 2.706-2.707v-4.875c0-0.203-0.117-0.391-0.3-0.482zM18.164 9.793c0-0.3 0.244-0.543 0.543-0.543h5.413c0.299 0 0.543 0.244 0.543 0.543s-0.244 0.543-0.543 0.543h-5.418c-0.3 0-0.538-0.244-0.538-0.543zM21.952 18.999h-1.082c-0.3 0-0.543-0.244-0.543-0.543s0.244-0.538 0.543-0.538h1.082c0.3 0 0.543 0.244 0.543 0.543s-0.244 0.538-0.543 0.538zM25.202 16.836h-4.331c-0.3 0-0.543-0.244-0.543-0.543v-4.332c0-0.3 0.244-0.543 0.543-0.543s0.543 0.244 0.543 0.543v3.793h3.793c0.3 0 0.543 0.244 0.543 0.543s-0.249 0.538-0.549 0.538z"></path>
    </symbol>
    <symbol id="icon-shield-alt" viewBox="0 0 32 32">
      <title>shield-alt</title>
      <path d="M26.138 6.577l-9.695-3.498c-0.145-0.052-0.294-0.078-0.445-0.078s-0.303 0.026-0.449 0.079l-9.66 3.498c-0.522 0.189-0.888 0.685-0.888 1.241v8.289c0 1.851 0.596 3.701 1.735 5.501 0.873 1.379 2.087 2.732 3.591 4.020 2.514 2.154 5.009 3.397 5.114 3.449 0.184 0.091 0.387 0.137 0.588 0.137 0.198 0 0.396-0.044 0.579-0.133 0.105-0.051 2.598-1.274 5.115-3.42 1.505-1.283 2.701-2.636 3.575-4.020 1.138-1.803 1.705-3.665 1.705-5.534v-8.289c0-0.556-0.339-1.053-0.862-1.242zM7.112 16.101v-7.296c0-0.278 0.17-0.526 0.431-0.62l8.211-2.987c0.073-0.027 0.157-0.046 0.245-0.046v10.956h8.951c0.001 0 0.001 0.012 0.001 0.020-0.002 2.387-1.204 4.753-3.573 7.057-1.85 1.799-3.952 3.083-5.034 3.689-0.1 0.056-0.257 0.083-0.345 0.083 0-0.205 0-10.735 0-10.852l-8.888-0.003z"></path>
    </symbol>
    <symbol id="icon-shield" viewBox="0 0 32 32">
      <title>shield</title>
      <path d="M16.001 10.996c-2.714 0-4.923 2.208-4.923 4.922s2.208 4.923 4.923 4.923c2.714 0 4.922-2.208 4.922-4.923s-2.208-4.922-4.922-4.922zM18.923 14.991l-3.527 3.526c-0.148 0.148-0.342 0.222-0.536 0.222s-0.388-0.074-0.536-0.222l-1.348-1.348c-0.296-0.296-0.296-0.776 0-1.072s0.776-0.296 1.072 0l0.812 0.812 2.991-2.991c0.296-0.296 0.776-0.296 1.072 0s0.296 0.776 0 1.072z"></path>
      <path d="M26.974 10.010l-0.001-0.020c-0.011-0.248-0.019-0.511-0.023-0.803-0.021-1.425-1.153-2.603-2.578-2.682-2.97-0.166-5.268-1.134-7.232-3.048l-0.017-0.016c-0.64-0.587-1.606-0.587-2.247 0l-0.017 0.016c-1.963 1.914-4.261 2.882-7.232 3.048-1.425 0.079-2.557 1.258-2.578 2.682-0.004 0.29-0.012 0.553-0.023 0.803l-0.001 0.047c-0.058 3.029-0.13 6.799 1.132 10.22 0.693 1.882 1.744 3.517 3.121 4.862 1.569 1.531 3.624 2.747 6.108 3.613 0.081 0.028 0.165 0.051 0.25 0.068 0.121 0.024 0.242 0.036 0.364 0.036s0.243-0.012 0.363-0.036c0.086-0.017 0.17-0.040 0.251-0.069 2.481-0.868 4.534-2.084 6.101-3.615 1.377-1.345 2.427-2.981 3.121-4.863 1.266-3.432 1.194-7.209 1.137-10.243zM16 22.357c-3.55 0-6.438-2.888-6.438-6.439s2.888-6.438 6.438-6.438c3.55 0 6.438 2.888 6.438 6.438s-2.888 6.439-6.439 6.439z"></path>
    </symbol>
    <symbol id="icon-speedometer" viewBox="0 0 32 32">
      <title>speedometer</title>
      <path d="M6.422 10.412l5 5c1.135-0.908 2.513-1.498 4.031-1.669v-7.076c-3.457 0.203-6.596 1.579-9.031 3.745z"></path>
      <path d="M5.181 11.654c-2.349 2.64-3.848 6.106-3.848 9.91 0 0.486 0.393 0.879 0.879 0.879h5.332c0.486 0 0.879-0.393 0.879-0.879 0-1.864 0.675-3.557 1.758-4.91l-5-5z"></path>
      <path d="M23.125 14.691c-0.296-0.258-0.725-0.292-1.052-0.080l-7.628 4.866c-1.019 0.651-1.627 1.759-1.627 2.966 0 1.939 1.577 3.516 3.516 3.516 1.363 0 2.615-0.798 3.188-2.033l3.821-8.202c0.165-0.354 0.076-0.774-0.217-1.032z"></path>
      <path d="M27.486 11.654l-2.583 2.583c0.325 0.694 0.368 1.507 0.032 2.228l-1.156 2.481c0.298 0.817 0.465 1.696 0.465 2.617 0 0.486 0.393 0.879 0.879 0.879h5.332c0.486 0 0.879-0.393 0.879-0.879 0-3.804-1.499-7.269-3.848-9.91z"></path>
      <path d="M17.214 6.667v7.076c0.74 0.083 1.445 0.27 2.107 0.54l1.808-1.154c0.724-0.469 1.61-0.57 2.532-0.133l2.584-2.584c-2.435-2.166-5.574-3.542-9.031-3.745z"></path>
    </symbol>
    <symbol id="icon-text" viewBox="0 0 32 32">
      <title>text</title>
      <path d="M16 4c-7.352 0-13.333 5.233-13.333 11.667 0 2.637 1.007 5.167 2.855 7.2l-2.653 3.090c-0.213 0.247-0.262 0.595-0.125 0.89 0.135 0.297 0.432 0.487 0.757 0.487h12.5c7.352 0 13.333-5.233 13.333-11.667s-5.982-11.667-13.333-11.667zM9.333 17.333c-0.92 0-1.667-0.747-1.667-1.667s0.747-1.667 1.667-1.667c0.92 0 1.667 0.747 1.667 1.667s-0.747 1.667-1.667 1.667zM16 17.333c-0.92 0-1.667-0.747-1.667-1.667s0.747-1.667 1.667-1.667c0.92 0 1.667 0.747 1.667 1.667s-0.747 1.667-1.667 1.667zM22.667 17.333c-0.92 0-1.667-0.747-1.667-1.667s0.747-1.667 1.667-1.667c0.92 0 1.667 0.747 1.667 1.667s-0.747 1.667-1.667 1.667z"></path>
    </symbol>
    <symbol id="icon-tractor" viewBox="0 0 32 32">
      <title>tractor</title>
      <path d="M9.943 19.964c-0.592 0-1.074 0.482-1.074 1.074s0.482 1.074 1.074 1.074c0.592 0 1.074-0.482 1.074-1.074s-0.482-1.074-1.074-1.074z"></path>
      <path d="M9.943 16.097c-2.725 0-4.941 2.217-4.941 4.941s2.217 4.941 4.941 4.941c2.725 0 4.941-2.217 4.941-4.941s-2.216-4.941-4.941-4.941zM9.943 23.401c-1.303 0-2.363-1.060-2.363-2.363s1.060-2.363 2.363-2.363 2.363 1.060 2.363 2.363c0 1.303-1.060 2.363-2.363 2.363z"></path>
      <path d="M23.006 19.964c-1.661 0-3.008 1.346-3.008 3.008s1.347 3.008 3.008 3.008c1.661 0 3.008-1.346 3.008-3.008s-1.346-3.008-3.008-3.008zM23.006 23.616c-0.356 0-0.645-0.289-0.645-0.645s0.289-0.645 0.645-0.645 0.645 0.288 0.645 0.645c0 0.356-0.289 0.645-0.645 0.645z"></path>
      <path d="M26.355 14.464h-2.019v-2.401c0-0.118 0.096-0.215 0.215-0.215h0.558c0.356 0 0.645-0.289 0.645-0.645s-0.288-0.645-0.645-0.645h-0.558c-0.829 0-1.504 0.675-1.504 1.504v2.401h-3.394l-1.821-7.175h0.46c0.356 0 0.645-0.289 0.645-0.644s-0.289-0.644-0.645-0.644h-9.782c-0.356 0-0.644 0.289-0.644 0.644s0.289 0.644 0.644 0.644h0.137l-0.745 6.514c-0.965 0.273-1.873 0.738-2.662 1.371-0.277 0.223-0.322 0.629-0.099 0.906s0.628 0.322 0.906 0.099c1.117-0.897 2.463-1.371 3.894-1.371 3.435 0 6.23 2.795 6.23 6.23 0 0.318-0.024 0.637-0.072 0.949-0.054 0.352 0.188 0.681 0.539 0.735 0.033 0.005 0.066 0.008 0.099 0.008 0.313 0 0.587-0.228 0.636-0.547 0.025-0.165 0.045-0.332 0.059-0.5h1.471c0.549-1.741 2.179-3.008 4.099-3.008 1.768 0 3.29 1.074 3.949 2.604 0.030-0.074 0.047-0.155 0.047-0.241v-5.929c0-0.356-0.288-0.645-0.645-0.645zM9.943 13.519c-0.239 0-0.477 0.012-0.714 0.035l0.716-6.265h4.252v7.175h-0.607c-1.081-0.602-2.324-0.945-3.646-0.945zM15.485 14.464v-7.175h1.017l1.821 7.175h-2.838z"></path>
    </symbol>
    <symbol id="icon-usa-heart" viewBox="0 0 32 32">
      <title>usa-heart</title>
      <path d="M15.999 26.396l0 0 2.557-2.557h-5.115l2.557 2.557z"></path>
      <path d="M16.703 13.331h11.080c0.139-0.533 0.211-1.080 0.216-1.627h-11.297v1.627z"></path>
      <path d="M12.035 22.432h7.928l1.627-1.627h-11.182l1.627 1.627z"></path>
      <path d="M16.703 8.669v1.627h11.16c-0.115-0.56-0.302-1.107-0.562-1.627h-10.598z"></path>
      <path d="M4.762 14.737c0.303 0.576 0.696 1.117 1.18 1.601l0.027 0.027h20.063l0.027-0.027c0.484-0.484 0.877-1.024 1.18-1.601h-22.477z"></path>
      <path d="M26.355 7.262c-0.095-0.108-0.193-0.214-0.296-0.317-1.254-1.254-2.922-1.945-4.696-1.945-1.757 0-3.409 0.678-4.659 1.909v0.353h9.652z"></path>
      <path d="M15.297 6.909c-1.25-1.231-2.902-1.909-4.659-1.909-1.774 0-3.442 0.691-4.696 1.945-1.727 1.727-2.302 4.177-1.725 6.385h11.080v-6.421zM7.091 11.856l-0.995-0.995 0.995-0.995 0.995 0.995-0.995 0.995zM7.503 8.048l0.995-0.995 0.995 0.995-0.995 0.995-0.995-0.995zM9.904 11.856l-0.995-0.995 0.995-0.995 0.995 0.995-0.995 0.995zM10.316 8.048l0.995-0.995 0.995 0.995-0.995 0.995-0.995-0.995zM12.718 11.856l-0.995-0.995 0.995-0.995 0.995 0.995-0.995 0.995z"></path>
      <path d="M9.002 19.398h13.996l1.627-1.627h-17.25l1.627 1.627z"></path>
    </symbol>
    <symbol id="icon-user" viewBox="0 0 32 32">
      <title>user</title>
      <path d="M25.428 6.572c-2.518-2.518-5.867-3.905-9.428-3.905s-6.91 1.387-9.428 3.905c-2.518 2.518-3.905 5.867-3.905 9.428s1.387 6.91 3.905 9.428c2.518 2.518 5.867 3.905 9.428 3.905s6.91-1.387 9.428-3.905c2.518-2.518 3.905-5.867 3.905-9.428s-1.387-6.91-3.905-9.428zM16 27.771c-3.483 0-6.617-1.521-8.774-3.933 1.337-3.545 4.76-6.067 8.774-6.067-2.589 0-4.688-2.099-4.688-4.687s2.099-4.688 4.688-4.688 4.687 2.099 4.687 4.688c0 2.589-2.099 4.687-4.687 4.687 4.013 0 7.436 2.522 8.774 6.067-2.157 2.412-5.291 3.933-8.774 3.933z"></path>
    </symbol>
    <symbol id="icon-waiver" viewBox="0 0 32 32">
      <title>waiver</title>
      <path d="M15.984 18.874c0.767 0.767 4.869-2.962 6.457-4.482l-1.976-1.976c-1.523 1.587-5.257 5.677-4.481 6.457z"></path>
      <path d="M25.466 7.986c-1.176 0.839-2.581 2.053-4.005 3.438l1.973 1.973c1.385-1.423 2.599-2.829 3.439-4.005 0.939-1.315 1.31-2.185 1.043-2.452-0.402-0.402-1.986 0.715-2.449 1.046z"></path>
      <path d="M8.266 8.265v-3.854l-3.854 3.854h3.854z"></path>
      <path d="M15.608 20.245l-1.321 1.321-0.994-0.994 1.276-1.276c-0.412-0.925-0.059-2.924 5.393-8.376 0.812-0.813 1.628-1.576 2.413-2.26v-4.661h-12.703v5.672h-5.672v18.328h18.375v-11.599c-1.664 1.537-4.851 4.505-6.767 3.844zM6.859 11.078h7.078v1.406h-7.078v-1.406zM6.859 13.891h4.219v1.406h-4.219v-1.406zM6.859 16.703h4.219v1.406h-4.219v-1.406zM12.593 24.726c-0.195-0.43-0.509-0.834-0.693-0.956-0.043 0.081-0.093 0.196-0.127 0.275-0.299 0.693-0.739 1.213-1.511 1.087-0.849-0.138-0.976-1.058-1.078-1.798-0.044-0.317-0.125-0.904-0.249-1.026-0.184 0.021-0.595 1.007-0.671 2.175l-1.404-0.090c0.037-0.579 0.311-3.471 2.108-3.471 1.302 0 1.494 1.389 1.609 2.219 0.001 0.010 0.003 0.020 0.004 0.030 0.203-0.391 0.592-0.843 1.246-0.843 1.173 0 1.912 1.517 2.048 1.822l-1.283 0.575z"></path>
    </symbol>
    <symbol id="icon-warranty" viewBox="0 0 32 32">
      <title>warranty</title>
      <path d="M20.453 6.007h-9.006c-0.162 1.973-1.667 3.618-3.747 4.093-0.073 7.163 2.967 11.016 5.605 13.006h4.958c2.76-2.183 5.952-6.185 5.934-13.007-2.079-0.475-3.583-2.12-3.745-4.092zM15.949 20.289c-2.748 0-4.983-2.227-4.983-4.964s2.235-4.964 4.983-4.964c2.747 0 4.983 2.227 4.983 4.964s-2.235 4.964-4.983 4.964z"></path>
      <path d="M15.948 11.246c-2.259 0-4.097 1.83-4.097 4.080s1.838 4.080 4.097 4.080c2.259 0 4.097-1.83 4.097-4.080s-1.838-4.080-4.097-4.080zM18.503 13.784l-3.067 3.222c-0.181 0.19-0.489 0.183-0.66-0.020l-1.164-1.381c-0.158-0.187-0.133-0.466 0.054-0.623s0.467-0.133 0.624 0.054l0.845 1.002 2.726-2.864c0.169-0.177 0.449-0.184 0.626-0.016s0.185 0.448 0.016 0.625z"></path>
      <path d="M8.781 28h14.35v-4.009h-14.35v4.009z"></path>
      <path d="M24.016 26.559h3.518l-1.634-2.024c-0.131-0.162-0.131-0.393 0-0.555l1.634-2.024h-3.519l0.001 4.604z"></path>
      <path d="M4.361 26.559h3.532l-0.012-4.604h-3.52l1.634 2.024c0.131 0.162 0.131 0.393 0 0.555l-1.634 2.025z"></path>
      <path d="M25.937 5.442c-0.228 0-0.412-0.184-0.412-0.411v-0.62c0-0.227 0.184-0.411 0.412-0.411s0.412 0.184 0.412 0.411v0.62c0 0.227-0.184 0.411-0.412 0.411z"></path>
      <path d="M25.937 8.119c-0.228 0-0.412-0.184-0.412-0.411v-0.62c0-0.227 0.184-0.411 0.412-0.411s0.412 0.184 0.412 0.411v0.62c0 0.227-0.184 0.411-0.412 0.411z"></path>
      <path d="M27.587 6.47h-0.62c-0.228 0-0.412-0.184-0.412-0.411s0.184-0.411 0.412-0.411h0.62c0.228 0 0.412 0.184 0.412 0.411s-0.184 0.411-0.412 0.411z"></path>
      <path d="M24.909 6.47h-0.62c-0.227 0-0.412-0.184-0.412-0.411s0.184-0.411 0.412-0.411h0.62c0.227 0 0.412 0.184 0.412 0.411s-0.184 0.411-0.412 0.411z"></path>
      <path d="M6.060 5.442c-0.228 0-0.412-0.184-0.412-0.411v-0.62c0-0.227 0.082-0.411 0.309-0.411s0.515 0.184 0.515 0.411v0.62c-0 0.227-0.184 0.411-0.412 0.411z"></path>
      <path d="M6.060 8.119c-0.228 0-0.412-0.184-0.412-0.411v-0.62c0-0.227 0.184-0.411 0.412-0.411s0.412 0.184 0.412 0.411v0.62c-0 0.227-0.184 0.411-0.412 0.411z"></path>
      <path d="M7.71 6.47h-0.62c-0.228 0-0.412-0.184-0.412-0.411s0.184-0.411 0.412-0.411h0.62c0.228 0 0.412 0.184 0.412 0.411s-0.184 0.411-0.412 0.411z"></path>
      <path d="M5.032 6.47h-0.62c-0.228 0-0.412-0.184-0.412-0.411s0.184-0.411 0.412-0.411h0.62c0.228 0 0.412 0.184 0.412 0.411s-0.184 0.411-0.412 0.411z"></path>
    </symbol>
    <symbol id="icon-wrench" viewBox="0 0 32 32">
      <title>wrench</title>
      <path d="M9.582 17.252l-3.835 2.875c-2.123 1.594-2.341 4.699-0.466 6.574 1.901 1.901 4.96 1.684 6.574-0.467l2.875-3.834-5.148-5.148zM11.247 21.73l-2.983 2.983c-0.275 0.275-0.72 0.275-0.994 0s-0.275-0.72 0-0.994l2.983-2.983c0.275-0.275 0.72-0.275 0.994 0s0.275 0.72 0 0.994z"></path>
      <path d="M17.128 18.832l-3.978-3.978c-0.531-0.529-1.451-0.534-1.989 0.003-0.545 0.547-0.551 1.434 0.001 1.987l3.979 3.979c0.542 0.54 1.428 0.556 1.988-0.003 0.547-0.548 0.55-1.435-0.001-1.988z"></path>
      <path d="M26.777 20.811c-1.159-1.158-2.731-1.564-4.806-0.829l-3.080-2.912-0.768 0.768c0.834 0.835 1.029 2.045 0.614 3.056l1.245 1.077c-0.548 1.538-0.524 3.088 0.443 4.363 1.061 1.398 2.804 1.948 4.421 1.528 0.359-0.093 0.483-0.545 0.22-0.808l-1.065-1.065c-0.132-0.132-0.172-0.311-0.172-0.497v-1.164c0-0.294 0.205-0.546 0.5-0.546h1.164c0.186 0 0.365 0.087 0.497 0.219l1.092 1.092c0.25 0.25 0.68 0.136 0.773-0.206 0.389-1.439-0.005-3.003-1.076-4.075z"></path>
      <path d="M27.794 5.478l-1.272-1.272c-0.214-0.214-0.541-0.267-0.812-0.132l-3.136 1.568c-0.238 0.119-0.379 0.363-0.379 0.629v1.263c0 0.186-0.074 0.365-0.206 0.497l-6.849 6.824 1.988 1.988 6.84-6.833c0.132-0.132 0.311-0.206 0.497-0.206h1.263c0.266 0 0.51-0.141 0.629-0.379l1.568-3.136c0.135-0.271 0.082-0.598-0.132-0.812z"></path>
      <path d="M11.974 10.013c0.546-1.535 0.528-3.085-0.442-4.363-0.956-1.26-2.524-1.942-4.333-1.531-0.394 0.090-0.537 0.582-0.25 0.868l1.007 1.007c0.132 0.132 0.216 0.311 0.216 0.497v1.167c0 0.293-0.247 0.56-0.541 0.56h-1.167c-0.186 0-0.365-0.103-0.497-0.235l-1.066-1.067c-0.262-0.262-0.714-0.133-0.797 0.23-0.335 1.466 0.172 3.121 1.075 4.025 1.171 1.17 2.744 1.56 4.807 0.829l1.11 1.251c1.059-0.423 2.27-0.17 3.047 0.605l0.003 0.003 0.768-0.768-2.939-3.079z"></path>
    </symbol>
    <symbol id="icon-America" viewBox="0 0 32 32">
      <title>America</title>
      <path fill="#bd3d44" style="fill: var(--color1, #bd3d44)" d="M0 0h60.8v2.462h-60.8v-2.462zM0 4.923h60.8v2.462h-60.8v-2.462zM0 9.846h60.8v2.462h-60.8v-2.462zM0 14.769h60.8v2.462h-60.8v-2.462zM0 19.692h60.8v2.462h-60.8v-2.462zM0 24.616h60.8v2.462h-60.8v-2.462zM0 29.539h60.8v2.462h-60.8v-2.462z"></path>
      <path fill="#fff" style="fill: var(--color2, #fff)" d="M0 2.462h60.8v2.462h-60.8v-2.462zM0 7.385h60.8v2.462h-60.8v-2.462zM0 12.308h60.8v2.462h-60.8v-2.462zM0 17.231h60.8v2.462h-60.8v-2.462zM0 22.154h60.8v2.462h-60.8v-2.462zM0 27.077h60.8v2.462h-60.8v-2.462z"></path>
      <path fill="#192f5d" style="fill: var(--color3, #192f5d)" d="M0 0h24.32v17.231h-24.32v-17.231z"></path>
      <path fill="#fff" style="fill: var(--color2, #fff)" d="M2.018 0.739l0.246 0.689h0.689l-0.566 0.418 0.222 0.665-0.591-0.418-0.542 0.418 0.222-0.665-0.591-0.418h0.738l0.172-0.689zM6.080 0.739l0.221 0.689h0.714l-0.591 0.418 0.246 0.665-0.591-0.418-0.591 0.418 0.246-0.665-0.591-0.418h0.714l0.222-0.689zM10.141 0.739l0.222 0.689h0.714l-0.591 0.418 0.246 0.665-0.591-0.418-0.591 0.418 0.246-0.665-0.591-0.418h0.714l0.222-0.689zM14.178 0.739l0.246 0.689h0.689l-0.566 0.418 0.222 0.665-0.591-0.418-0.566 0.418 0.222-0.665-0.591-0.418h0.738l0.197-0.689zM18.24 0.739l0.222 0.689h0.714l-0.591 0.418 0.246 0.665-0.615-0.418-0.566 0.418 0.221-0.665-0.591-0.418h0.714l0.246-0.689zM22.302 0.739l0.221 0.689h0.714l-0.591 0.418 0.246 0.665-0.591-0.418-0.591 0.418 0.246-0.665-0.591-0.418h0.714l0.222-0.689zM4.061 2.462l0.222 0.689h0.714l-0.591 0.418 0.246 0.665-0.591-0.418-0.591 0.418 0.246-0.665-0.591-0.418h0.714l0.222-0.689zM8.098 2.462l0.246 0.689h0.689l-0.566 0.418 0.222 0.665-0.591-0.418-0.566 0.418 0.222-0.665-0.591-0.418h0.739l0.197-0.689zM12.16 2.462l0.222 0.689h0.714l-0.591 0.418 0.246 0.665-0.591-0.418-0.591 0.418 0.246-0.665-0.591-0.418h0.714l0.222-0.689zM16.221 2.462l0.222 0.689h0.714l-0.591 0.418 0.246 0.665-0.591-0.418-0.591 0.418 0.246-0.665-0.591-0.418h0.714l0.221-0.689zM20.258 2.462l0.246 0.689h0.665l-0.566 0.418 0.222 0.665-0.591-0.418-0.566 0.418 0.222-0.665-0.591-0.418h0.738l0.222-0.689zM2.043 4.185l0.197 0.689h0.738l-0.591 0.418 0.222 0.665-0.591-0.418-0.542 0.418 0.222-0.665-0.591-0.418h0.738l0.197-0.689zM6.080 4.185l0.221 0.689h0.714l-0.566 0.418 0.222 0.665-0.591-0.418-0.566 0.418 0.222-0.665-0.591-0.418h0.714l0.222-0.689zM10.141 4.185l0.222 0.689h0.714l-0.591 0.418 0.246 0.665-0.591-0.418-0.591 0.418 0.246-0.665-0.591-0.418h0.714l0.222-0.689zM14.178 4.185l0.246 0.689h0.689l-0.566 0.418 0.222 0.665-0.591-0.418-0.566 0.418 0.222-0.665-0.591-0.418h0.738l0.197-0.689zM18.24 4.185l0.222 0.689h0.714l-0.566 0.418 0.222 0.665-0.591-0.418-0.566 0.418 0.222-0.665-0.591-0.418h0.714l0.222-0.689zM22.302 4.185l0.221 0.689h0.714l-0.591 0.418 0.246 0.665-0.591-0.418-0.591 0.418 0.246-0.665-0.591-0.418h0.714l0.222-0.689zM4.061 5.908l0.222 0.689h0.714l-0.591 0.418 0.246 0.665-0.591-0.418-0.591 0.418 0.246-0.665-0.591-0.418h0.714l0.222-0.689zM8.098 5.908l0.246 0.689h0.689l-0.566 0.418 0.222 0.665-0.591-0.418-0.566 0.418 0.222-0.665-0.591-0.418h0.739l0.197-0.689zM12.16 5.908l0.222 0.689h0.714l-0.566 0.418 0.222 0.665-0.591-0.418-0.566 0.418 0.222-0.665-0.591-0.418h0.714l0.222-0.689zM16.221 5.908l0.222 0.689h0.714l-0.591 0.418 0.246 0.665-0.591-0.418-0.591 0.418 0.246-0.665-0.591-0.418h0.714l0.221-0.689zM20.258 5.908l0.246 0.689h0.665l-0.566 0.418 0.222 0.665-0.591-0.418-0.566 0.418 0.222-0.665-0.591-0.418h0.738l0.222-0.689zM2.043 7.631l0.197 0.689h0.738l-0.591 0.418 0.222 0.665-0.591-0.418-0.542 0.418 0.222-0.665-0.591-0.418h0.738l0.197-0.689zM6.080 7.631l0.221 0.689h0.714l-0.566 0.418 0.222 0.665-0.591-0.418-0.566 0.418 0.222-0.665-0.591-0.418h0.714l0.222-0.689zM10.141 7.631l0.222 0.689h0.714l-0.591 0.418 0.246 0.665-0.591-0.418-0.591 0.418 0.246-0.665-0.591-0.418h0.714l0.222-0.689zM14.178 7.631l0.246 0.689h0.689l-0.566 0.418 0.222 0.665-0.591-0.418-0.566 0.418 0.222-0.665-0.591-0.418h0.738l0.197-0.689zM18.24 7.631l0.222 0.689h0.714l-0.566 0.418 0.222 0.665-0.591-0.418-0.566 0.418 0.222-0.665-0.591-0.418h0.714l0.222-0.689zM22.302 7.631l0.221 0.689h0.714l-0.591 0.418 0.246 0.665-0.591-0.418-0.591 0.418 0.246-0.665-0.591-0.418h0.714l0.222-0.689zM4.061 9.354l0.222 0.689h0.714l-0.591 0.418 0.246 0.665-0.591-0.418-0.591 0.418 0.246-0.665-0.591-0.418h0.714l0.222-0.689zM8.098 9.354l0.246 0.689h0.689l-0.566 0.418 0.222 0.665-0.591-0.418-0.566 0.418 0.222-0.665-0.591-0.418h0.739l0.197-0.689zM12.16 9.354l0.222 0.689h0.714l-0.566 0.418 0.222 0.665-0.591-0.418-0.566 0.418 0.222-0.665-0.591-0.418h0.714l0.222-0.689zM16.221 9.354l0.222 0.689h0.714l-0.591 0.418 0.246 0.665-0.591-0.418-0.591 0.418 0.246-0.665-0.591-0.418h0.714l0.221-0.689zM20.258 9.354l0.246 0.689h0.665l-0.566 0.418 0.222 0.665-0.591-0.418-0.566 0.418 0.222-0.665-0.591-0.418h0.738l0.222-0.689zM2.043 11.077l0.197 0.689h0.738l-0.591 0.418 0.222 0.665-0.591-0.418-0.542 0.418 0.222-0.665-0.591-0.418h0.738l0.197-0.689zM6.080 11.077l0.221 0.689h0.714l-0.566 0.418 0.222 0.665-0.591-0.418-0.566 0.418 0.222-0.665-0.591-0.418h0.714l0.222-0.689zM10.141 11.077l0.222 0.689h0.714l-0.591 0.418 0.246 0.665-0.591-0.418-0.591 0.418 0.246-0.665-0.591-0.418h0.714l0.222-0.689zM14.178 11.077l0.246 0.689h0.689l-0.566 0.418 0.222 0.665-0.591-0.418-0.566 0.418 0.222-0.665-0.591-0.418h0.738l0.197-0.689zM18.24 11.077l0.222 0.689h0.714l-0.566 0.418 0.222 0.665-0.591-0.418-0.566 0.418 0.222-0.665-0.591-0.418h0.714l0.222-0.689zM22.302 11.077l0.221 0.689h0.714l-0.591 0.418 0.246 0.665-0.591-0.418-0.591 0.418 0.246-0.665-0.591-0.418h0.714l0.222-0.689zM4.061 12.8l0.222 0.689h0.714l-0.591 0.418 0.246 0.665-0.591-0.418-0.591 0.418 0.246-0.665-0.591-0.418h0.714l0.222-0.689zM8.098 12.8l0.246 0.689h0.689l-0.566 0.418 0.222 0.665-0.591-0.418-0.566 0.418 0.222-0.665-0.591-0.418h0.739l0.197-0.689zM12.16 12.8l0.222 0.689h0.714l-0.566 0.418 0.222 0.665-0.591-0.418-0.566 0.418 0.222-0.665-0.591-0.418h0.714l0.222-0.689zM16.221 12.8l0.222 0.689h0.714l-0.591 0.418 0.246 0.665-0.591-0.418-0.591 0.418 0.246-0.665-0.591-0.418h0.714l0.221-0.689zM20.258 12.8l0.246 0.689h0.665l-0.566 0.418 0.222 0.665-0.591-0.418-0.566 0.418 0.222-0.665-0.591-0.418h0.738l0.222-0.689zM2.043 14.523l0.197 0.689h0.738l-0.591 0.418 0.222 0.665-0.591-0.418-0.542 0.418 0.222-0.665-0.591-0.418h0.738l0.197-0.689zM6.080 14.523l0.221 0.689h0.714l-0.566 0.418 0.222 0.665-0.591-0.418-0.566 0.418 0.222-0.665-0.591-0.418h0.714l0.222-0.689zM10.141 14.523l0.222 0.689h0.714l-0.591 0.418 0.246 0.665-0.591-0.418-0.591 0.418 0.246-0.665-0.591-0.418h0.714l0.222-0.689zM14.178 14.523l0.246 0.689h0.689l-0.566 0.418 0.222 0.665-0.591-0.418-0.566 0.418 0.222-0.665-0.591-0.418h0.738l0.197-0.689zM18.24 14.523l0.222 0.689h0.714l-0.566 0.418 0.222 0.665-0.591-0.418-0.566 0.418 0.222-0.665-0.591-0.418h0.714l0.222-0.689zM22.302 14.523l0.221 0.689h0.714l-0.591 0.418 0.246 0.665-0.591-0.418-0.591 0.418 0.246-0.665-0.591-0.418h0.714l0.222-0.689z"></path>
    </symbol>


    <symbol id="icon-Canada" viewBox="0 0 32 32">
      <title>Canada</title>
      <path fill="#f00" style="fill: var(--color1, #f00)" d="M0 0h16l0.66 0.66h30.68l0.66-0.66h16v32h-16l-0.66-0.66h-30.68l-0.66 0.66h-16z"></path>
      <path fill="#fff" style="fill: var(--color2, #fff)" d="M16 0h32v32h-32zM32.6 29.533l-0.3-5.753c-0-0.009-0.001-0.019-0.001-0.029 0-0.35 0.284-0.633 0.633-0.633 0.038 0 0.075 0.003 0.111 0.010l-0.004-0.001 5.727 1.007-0.773-2.133c-0.017-0.045-0.027-0.096-0.027-0.15 0-0.135 0.062-0.256 0.159-0.336l0.001-0.001 6.273-5.080-1.413-0.66c-0.148-0.071-0.248-0.22-0.248-0.392 0-0.048 0.008-0.095 0.022-0.138l-0.001 0.003 1.24-3.813-3.613 0.767c-0.027 0.006-0.057 0.009-0.088 0.009-0.178 0-0.33-0.107-0.397-0.26l-0.001-0.003-0.7-1.647-2.82 3.027c-0.079 0.083-0.191 0.135-0.314 0.135-0.239 0-0.433-0.194-0.433-0.433 0-0.029 0.003-0.057 0.008-0.085l-0 0.003 1.36-7.013-2.18 1.26c-0.063 0.037-0.138 0.059-0.219 0.059-0.169 0-0.315-0.096-0.386-0.237l-0.001-0.002-2.213-4.347-2.213 4.347c-0.073 0.143-0.219 0.239-0.388 0.239-0.081 0-0.156-0.022-0.221-0.061l0.002 0.001-2.18-1.26 1.36 7.013c0.005 0.025 0.008 0.053 0.008 0.082 0 0.239-0.194 0.433-0.433 0.433-0.124 0-0.235-0.052-0.314-0.135l-0-0-2.82-3.027-0.7 1.647c-0.068 0.156-0.221 0.262-0.398 0.262-0.031 0-0.062-0.003-0.091-0.010l0.003 0.001-3.613-0.767 1.24 3.813c0.014 0.040 0.022 0.087 0.022 0.135 0 0.172-0.1 0.321-0.246 0.391l-0.003 0.001-1.413 0.66 6.273 5.080c0.098 0.080 0.16 0.201 0.16 0.336 0 0.054-0.010 0.106-0.028 0.153l0.001-0.003-0.773 2.133 5.727-1.007c0.032-0.006 0.069-0.009 0.107-0.009 0.35 0 0.633 0.284 0.633 0.633 0 0.010-0 0.020-0.001 0.031l0-0.001-0.3 5.753z"></path>
    </symbol>
    <symbol id="icon-checkmark-filled" viewBox="0 0 32 32">
      <title>checkmark-filled</title>
      <path d="M16 0c-8.822 0-16 7.177-16 16s7.178 16 16 16 16-7.177 16-16-7.178-16-16-16zM24.92 10.664l-9.846 11.077c-0.242 0.273-0.58 0.413-0.921 0.413-0.27 0-0.542-0.089-0.769-0.27l-6.154-4.923c-0.53-0.424-0.617-1.199-0.192-1.73s1.199-0.617 1.73-0.193l5.241 4.193 9.070-10.204c0.45-0.508 1.23-0.554 1.737-0.102s0.554 1.23 0.103 1.738z"></path>
    </symbol>
    <symbol id="icon-grid" viewBox="0 0 32 32">
      <title>grid</title>
      <path d="M7.333 6.667h2.587c0.368 0 0.667 0.298 0.667 0.667v2.588c0 0.368-0.298 0.667-0.667 0.667h-2.587c-0.368 0-0.667-0.298-0.667-0.667v-2.588c0-0.368 0.298-0.667 0.667-0.667z"></path>
      <path d="M7.333 14.039h2.587c0.368 0 0.667 0.298 0.667 0.667v2.588c0 0.368-0.298 0.667-0.667 0.667h-2.587c-0.368 0-0.667-0.298-0.667-0.667v-2.588c0-0.368 0.298-0.667 0.667-0.667z"></path>
      <path d="M7.333 21.411h2.587c0.368 0 0.667 0.298 0.667 0.667v2.588c0 0.368-0.298 0.667-0.667 0.667h-2.587c-0.368 0-0.667-0.298-0.667-0.667v-2.588c0-0.368 0.298-0.667 0.667-0.667z"></path>
      <path d="M14.638 6.667h2.587c0.368 0 0.667 0.298 0.667 0.667v2.588c0 0.368-0.298 0.667-0.667 0.667h-2.587c-0.368 0-0.667-0.298-0.667-0.667v-2.588c0-0.368 0.298-0.667 0.667-0.667z"></path>
      <path d="M14.638 14.039h2.587c0.368 0 0.667 0.298 0.667 0.667v2.588c0 0.368-0.298 0.667-0.667 0.667h-2.587c-0.368 0-0.667-0.298-0.667-0.667v-2.588c0-0.368 0.298-0.667 0.667-0.667z"></path>
      <path d="M14.638 21.411h2.587c0.368 0 0.667 0.298 0.667 0.667v2.588c0 0.368-0.298 0.667-0.667 0.667h-2.587c-0.368 0-0.667-0.298-0.667-0.667v-2.588c0-0.368 0.298-0.667 0.667-0.667z"></path>
      <path d="M22 6.667h2.587c0.368 0 0.667 0.298 0.667 0.667v2.588c0 0.368-0.298 0.667-0.667 0.667h-2.587c-0.368 0-0.667-0.298-0.667-0.667v-2.588c0-0.368 0.298-0.667 0.667-0.667z"></path>
      <path d="M21.943 14.039h2.587c0.368 0 0.667 0.298 0.667 0.667v2.588c0 0.368-0.298 0.667-0.667 0.667h-2.587c-0.368 0-0.667-0.298-0.667-0.667v-2.588c0-0.368 0.298-0.667 0.667-0.667z"></path>
      <path d="M21.943 21.411h2.587c0.368 0 0.667 0.298 0.667 0.667v2.588c0 0.368-0.298 0.667-0.667 0.667h-2.587c-0.368 0-0.667-0.298-0.667-0.667v-2.588c0-0.368 0.298-0.667 0.667-0.667z"></path>
    </symbol>
    <symbol id="icon-list" viewBox="0 0 32 32">
      <title>list</title>
      <path d="M12 2h20v4h-20v-4zM12 14h20v4h-20v-4zM12 26h20v4h-20v-4zM0 4c0-2.209 1.791-4 4-4s4 1.791 4 4c0 2.209-1.791 4-4 4s-4-1.791-4-4zM0 16c0-2.209 1.791-4 4-4s4 1.791 4 4c0 2.209-1.791 4-4 4s-4-1.791-4-4zM0 28c0-2.209 1.791-4 4-4s4 1.791 4 4c0 2.209-1.791 4-4 4s-4-1.791-4-4z"></path>
    </symbol>
    <symbol id="icon-dollar" viewBox="0 0 32 32">
      <title>dollar</title>
      <path d="M21 13c0.552 0 1-0.448 1-1v0-0.826c-0.006-2.791-2.223-5.062-4.991-5.156l-0.009-0v-2.018c0-0.552-0.448-1-1-1s-1 0.448-1 1v0 2.018c-2.781 0.091-5 2.368-5 5.162 0 2.164 1.331 4.017 3.218 4.785l0.035 0.012 4.753 1.902c1.179 0.481 1.995 1.619 1.995 2.947 0 1.753-1.421 3.174-3.174 3.174h-1.652c-1.752-0.002-3.172-1.422-3.174-3.174v-0.826c0-0.552-0.448-1-1-1s-1 0.448-1 1v0 0.826c0.006 2.791 2.223 5.062 4.991 5.156l0.009 0v2.018c0 0.552 0.448 1 1 1s1-0.448 1-1v0-2.018c2.781-0.091 5-2.368 5-5.162 0-2.164-1.331-4.017-3.218-4.785l-0.035-0.012-4.753-1.902c-1.179-0.481-1.995-1.619-1.995-2.947 0-1.753 1.421-3.174 3.174-3.174h1.652c1.752 0.002 3.172 1.422 3.174 3.174v0.826c0 0.552 0.448 1 1 1v0z"></path>
    </symbol>
  </defs>
</svg>
