<svg width="64" height="64" viewBox="0 0 64 64" fill="none" xmlns="http://www.w3.org/2000/svg">
<g clip-path="url(#clip0)">
<path fill-rule="evenodd" clip-rule="evenodd" d="M-16 0H79.9853V63.9902H-16V0Z" fill="#199D00"/>
<path fill-rule="evenodd" clip-rule="evenodd" d="M8.18902 18.1389C8.08581 19.6355 7.9439 22.2673 9.22112 22.5382C10.7564 22.6802 9.90489 19.9322 10.4596 19.4419C10.5758 19.1839 10.7693 19.1839 10.7822 19.5065V21.8287C10.7693 22.6028 11.2595 22.8092 11.6466 22.9769C12.0594 22.9382 12.3174 22.9511 12.4851 23.3381L12.6658 27.3762C12.6658 27.3762 13.6075 27.6342 13.6463 25.1056C13.6979 23.622 13.3495 22.3705 13.5559 22.0867C13.5559 21.8029 13.9172 21.79 14.1752 21.919C14.5751 22.2028 14.7558 22.564 15.375 22.4092C16.3297 22.1512 16.8974 21.6868 16.9232 20.9643C16.8903 20.2527 16.7422 19.5513 16.4845 18.8872C16.5232 18.7582 16.291 18.4356 16.3426 18.3066C16.5103 18.5647 16.7684 18.5518 16.8329 18.3066C16.6651 17.7648 16.42 17.2616 16.0072 17.0423C15.6717 16.7456 15.1815 16.8101 15.0009 17.4294C14.9797 18.2426 15.2548 19.0358 15.775 19.6613C15.9372 20.0118 16.0039 20.399 15.9685 20.7837C15.6975 20.9514 15.4266 20.874 15.1944 20.6418C15.1944 20.6418 14.4332 20.0612 14.4332 19.9451C14.6396 18.655 14.4848 18.5131 14.3687 18.1518C14.2913 17.6616 14.0591 17.5068 13.8656 17.1713C13.6721 16.9649 13.4269 16.9649 13.2979 17.1713C12.9625 17.7519 13.1173 18.9904 13.3624 19.5452C13.543 20.0612 13.8011 20.3837 13.6721 20.3837C13.5688 20.6676 13.3624 20.6031 13.2076 20.2676C13.0161 19.557 12.9249 18.8232 12.9367 18.0873C12.8722 17.5068 12.8077 16.2811 12.4206 15.9715C12.1884 15.6619 11.8401 15.8167 11.724 16.1005C11.6913 16.6597 11.7043 17.2206 11.7627 17.7777C12.0207 18.6808 12.0981 19.5065 12.2271 20.4482C12.2658 21.7126 11.4917 21.003 11.5304 20.3708C11.7111 19.5581 11.6595 18.2679 11.5046 17.9454C11.3756 17.6229 11.2337 17.5455 10.937 17.5971C10.679 17.5713 10.0726 18.2421 9.90489 19.3774C9.90489 19.3774 9.75007 19.958 9.68557 20.4611C9.59526 21.0417 9.22112 21.4545 8.95019 20.3837C8.71797 19.6097 8.57606 17.6874 8.18902 18.1389Z" fill="white"/>
<path fill-rule="evenodd" clip-rule="evenodd" d="M12.3705 24.28L8.37109 26.2023C8.4098 25.2992 10.2676 23.6479 11.5319 23.6221C12.3576 23.6479 12.1512 23.9446 12.3705 24.2671V24.28Z" fill="white"/>
<path fill-rule="evenodd" clip-rule="evenodd" d="M11.6729 25.5317C9.55705 30.9632 16.6011 31.7243 17.3881 25.751C17.4655 25.5059 17.7752 25.2608 17.8139 25.6607C17.6461 31.0793 12.3695 31.4405 11.4664 29.7375C11.2471 29.3505 11.1826 28.4474 11.1568 27.9056C11.0278 26.8477 10.4601 27.2605 10.3827 28.3184C10.2924 28.899 10.3053 29.0667 10.3053 29.6343C10.5892 33.8917 17.401 32.0598 18.5105 28.5377C19.0911 26.5896 18.4073 25.1447 18.7298 25.1447C19.4007 25.8801 20.3554 25.2479 20.5618 24.9899C20.6521 24.8609 20.8715 24.7834 21.0263 24.9512C21.5423 25.3382 22.4841 25.1447 22.6776 24.4867C22.7808 23.8288 22.8711 23.1579 22.897 22.4612C22.4712 22.5902 22.1487 22.6805 22.1229 22.8483L22.0326 23.4417C21.9939 23.6223 21.6197 23.6352 21.6068 23.3901C21.4391 22.6547 20.7682 22.5515 20.3554 23.6997C20.0845 23.932 19.5813 23.9578 19.5297 23.6352C19.5942 22.8612 19.2846 22.758 18.6653 23.1192L18.059 18.6037C18.317 18.6037 18.5621 18.7844 18.7944 18.4876C18.5363 17.6749 17.9816 16.0364 17.6848 15.9074C17.53 15.7268 17.4139 15.8429 17.2204 15.8816C16.885 15.9848 16.5753 16.2686 16.6785 16.8234L17.7106 23.2998C17.7622 23.5707 17.53 23.9449 17.2333 23.9062C16.7302 23.5578 16.6011 22.8741 15.7497 22.8999C15.1175 22.8999 14.4079 23.5836 14.3305 24.2416C14.2144 24.7576 14.1757 25.3253 14.3305 25.7768C14.7563 26.2929 15.2852 26.2542 15.7497 26.1252C16.1238 25.9704 16.4334 25.5962 16.5753 25.6865C16.6656 25.8026 16.5882 27.0412 14.7821 28.0088C13.6984 28.499 12.8211 28.6022 12.3566 27.712C12.0728 27.1573 12.3824 25.0415 11.6729 25.5188V25.5317Z" fill="white"/>
<path fill-rule="evenodd" clip-rule="evenodd" d="M20.6141 19.9967C21.0398 19.8548 23.0395 17.5455 23.0395 17.5455L22.7428 17.3133C22.6267 17.2101 22.6396 17.1198 22.7428 17.0166C23.2331 16.7327 23.0782 16.0877 22.8202 15.8038C22.652 15.7198 22.4665 15.6761 22.2784 15.6761C22.0903 15.6761 21.9048 15.7198 21.7365 15.8038C21.3882 16.1522 21.3108 16.6811 21.5817 17.0166C21.8397 17.1456 22.1236 17.4036 21.9429 17.5584C21.1173 18.4357 18.8724 19.9451 19.1305 20.0096C19.1821 20.0742 20.5754 20.0742 20.6141 20.0096V19.9967ZM8.49984 28.1245C7.75157 29.3244 7.68706 31.1176 8.1128 31.6466C8.31922 31.9046 8.68046 32.0078 8.95138 31.9304C9.42873 31.724 9.63515 30.7693 9.51904 30.421C9.36423 30.1629 9.23521 30.1371 9.0804 30.3435C8.74496 31.0144 8.60305 30.55 8.57725 30.1758C8.52564 29.4663 8.59015 28.7954 8.66756 28.2793C8.75787 27.7504 8.66756 27.9052 8.49984 28.1245ZM40.6368 26.1893C39.9144 24.6283 38.9081 23.0801 38.5855 22.4867C37.6126 20.946 36.5797 19.444 35.4892 17.9842C34.7152 17.0553 36.7665 18.3712 35.2312 16.5263C34.6507 16.0103 34.612 15.9974 34.1217 15.5845C33.8766 15.4039 33.2831 15.0943 33.1799 15.6103C33.1287 15.9802 33.1461 16.3563 33.2315 16.7198C33.2831 16.9779 33.6573 17.4036 33.8508 17.6616C36.302 20.9514 38.4823 24.2929 40.5723 28.4729C40.9078 28.3181 40.8304 26.4603 40.6368 26.1893Z" fill="white"/>
<path fill-rule="evenodd" clip-rule="evenodd" d="M37.4504 31.4401C37.3085 31.6078 37.7987 32.2916 38.4438 32.2916C39.5275 32.1626 40.4693 31.5562 41.3466 29.9694C41.5788 29.5823 41.9916 28.8083 42.0045 28.1761C42.0948 24.5638 41.8239 21.7513 41.2821 19.1452C41.2563 18.8872 41.2821 18.5776 41.3208 18.5002C41.3853 18.4228 41.6175 18.5002 41.7465 18.3066C41.9271 18.1131 41.2563 16.5521 40.8821 15.9586C40.7402 15.6877 40.6886 15.5071 40.4693 15.9844C40.2242 16.3715 40.0823 17.0552 40.0823 17.6874C40.5983 21.2481 40.766 24.3702 41.1015 27.9181C41.1273 28.2664 41.0757 28.7696 40.8434 28.9631C39.8998 30.0189 38.7435 30.863 37.4504 31.4401ZM52.003 31.4272C51.2289 31.8659 51.2289 32.3819 51.8611 32.4077C52.9319 32.2787 54.2091 32.1884 55.0864 30.8596C55.3186 30.4854 55.6025 29.4791 55.6154 28.8728C55.6928 25.2604 55.5638 22.5512 55.0219 19.9451C54.9961 19.6871 54.88 19.1065 54.9187 19.0291C54.9961 18.8485 55.3444 19.042 55.4734 18.8356C55.6541 18.655 54.5704 17.2487 54.1833 16.6424C54.0414 16.3844 53.9898 16.2037 53.7705 16.6811C53.5254 17.0681 53.448 17.7648 53.5383 18.3712C54.1188 22.2415 54.5446 25.1443 54.622 28.5631C54.5833 28.8986 54.5704 29.0792 54.4155 29.4791C54.0801 29.9178 53.706 30.4596 53.3447 30.7176C52.9964 30.9757 52.2481 31.2337 52.003 31.4272Z" fill="white"/>
<path fill-rule="evenodd" clip-rule="evenodd" d="M52.584 27.9569V25.596C52.574 25.0077 52.4422 24.4279 52.1969 23.893C51.9647 23.377 52.1066 22.9771 52.0034 22.4223C51.9002 21.8805 51.926 21.0548 51.7712 20.4097C51.7196 20.1517 51.5906 19.3518 51.6422 19.2744C51.6938 19.0938 51.9389 19.2744 52.055 19.068C52.2356 18.8745 51.4358 16.8103 51.0358 16.2297C50.8939 15.9717 50.6359 16.0491 50.3005 16.4877C50.0037 16.7587 50.1198 17.4037 50.236 18.0101C51.01 22.0482 51.5777 25.7121 51.4616 29.5438C51.4229 29.8792 52.5969 28.5762 52.584 27.9569ZM46.8687 22.9513C46.3914 22.9513 45.3722 21.9966 45.0625 21.4547C45.0178 21.3241 45.0005 21.1857 45.0116 21.0481C45.0227 20.9105 45.062 20.7766 45.127 20.6548C45.3077 20.5258 45.5915 20.3968 45.7979 20.5258C45.7979 20.5258 46.0043 20.8355 45.9656 20.8742C46.2237 21.0032 46.3527 20.9258 46.3785 20.8097C46.3914 20.629 46.2882 20.5129 46.2882 20.2936C46.4172 19.7388 47.0622 19.6485 47.2945 20.0098C47.4751 20.2291 47.5396 20.6935 47.5654 21.0161C47.5654 21.1709 47.3074 20.9774 47.1525 21.0161C47.0106 21.0677 46.9719 21.2354 46.959 21.3902C46.9332 21.803 46.8816 22.461 46.8687 22.9384V22.9513ZM37.8894 28.9632C38.0185 27.7247 37.8507 25.5444 37.8378 24.8219C37.7862 23.1061 37.5024 19.7905 37.3734 19.2486C37.2186 18.2036 37.7991 19.3647 37.7217 18.7584C37.5282 17.7263 36.9477 17.0038 36.2768 16.0491C36.0575 15.7524 36.0704 15.6879 35.722 16.1265C35.3608 16.978 35.6833 17.5585 35.7736 18.2165C36.2639 20.371 36.5477 22.3449 36.6767 24.3059C36.8213 26.3455 36.8385 28.3922 36.7283 30.434C37.1025 30.4598 37.6959 29.8405 37.8894 28.9632Z" fill="white"/>
<path fill-rule="evenodd" clip-rule="evenodd" d="M54.2468 26.9895C53.3824 25.5574 52.0923 23.9964 51.7439 23.4158C50.5888 21.7942 49.3753 20.2149 48.1058 18.6811C47.035 17.5587 48.596 18.5005 47.8994 17.6361C47.3059 16.991 47.1253 16.7846 46.635 16.3976C46.377 16.2298 46.2222 15.9202 46.1448 16.4492C46.1061 16.9136 46.0803 17.4555 46.1061 17.8554C46.1061 18.0747 46.3383 18.4747 46.5318 18.7198C49.1121 21.9064 51.9504 25.1704 54.2339 29.2601C54.5564 29.0795 54.4532 27.2475 54.2339 26.9895H54.2468Z" fill="white"/>
<path fill-rule="evenodd" clip-rule="evenodd" d="M15.3241 24.3316C15.2596 24.4477 15.1177 24.5896 15.1693 24.7186C15.2725 24.8476 15.3499 24.8863 15.5047 24.8992C15.6337 24.8992 15.8401 24.925 15.8788 24.8476C15.9254 24.7908 15.9558 24.7226 15.9672 24.65C15.9785 24.5774 15.9703 24.5031 15.9434 24.4348C15.8143 24.0736 15.4015 24.2026 15.3241 24.3316Z" fill="#1BA400"/>
<path fill-rule="evenodd" clip-rule="evenodd" d="M44.2742 45.3219C45.4224 45.3606 46.1707 45.3735 47.1899 45.4896L48.3768 45.3606C49.7056 45.2316 49.7701 47.257 49.7701 47.257C49.7572 48.444 49.2928 48.4956 48.7122 48.6246C48.3768 48.6762 48.1962 48.4311 48.0284 48.173C47.8091 48.2633 47.5124 48.2762 47.1383 48.2246C46.6609 48.1988 46.1836 48.1988 45.7191 48.1601C45.2031 48.1214 44.9321 48.2246 44.429 48.173C44.3129 48.3408 44.171 48.5601 43.8742 48.4956C43.6162 48.4698 43.3066 47.7344 43.3969 47.1925C43.5775 46.7926 43.5259 46.9216 43.513 46.741C38.817 46.6249 34.0951 46.4185 29.4894 46.483C25.877 46.483 22.3292 46.6378 18.7813 46.7926C16.8848 46.7668 15.427 46.4572 14.4336 44.9864C14.5239 44.9864 19.2716 45.2703 20.652 45.1799C23.2322 45.1412 25.5674 44.9348 28.1863 44.8574C33.3468 44.9477 38.4428 44.9477 43.6033 45.309C43.1131 44.9735 43.0873 44.1736 43.8613 43.9801C43.913 43.9414 43.9517 44.3672 44.0678 44.3672C44.6612 44.3285 44.4032 45.1412 44.2742 45.3219ZM23.5806 16.9004C22.8065 19.1323 24.0192 21.5707 24.8707 21.3384C25.49 21.5965 25.877 20.4224 26.135 19.1452C26.3027 18.784 26.4318 18.7453 26.5221 18.9259C26.4963 20.6289 26.6511 21.003 27.0897 21.519C27.3421 21.7444 27.6667 21.8721 28.005 21.8792C28.3433 21.8863 28.673 21.7723 28.9346 21.5578L29.6958 20.7837C29.8635 20.616 30.0828 20.6031 30.3279 20.7579C30.5602 20.9772 30.5215 21.3384 31.0246 21.5965C31.4374 21.7642 32.3405 21.6352 32.5469 21.2739C32.8179 20.7966 32.8953 20.6289 33.0243 20.4482C33.2178 20.1902 33.5532 20.2934 33.5532 20.3837C33.5274 20.5257 33.3339 20.6805 33.4629 20.9385C33.6952 21.1191 33.7597 21.003 33.9016 20.9643C34.3918 20.7321 34.766 19.6484 34.766 19.6484C34.7789 19.2613 34.5595 19.2871 34.4176 19.3645L34.0306 19.6355C33.7726 19.6742 33.3081 19.829 33.0759 19.4677C32.8437 19.042 32.8308 18.4356 32.6502 17.997C32.6502 17.9712 32.3405 17.3132 32.6373 17.2745C32.7792 17.3003 33.1017 17.3777 33.1533 17.1197C33.3081 16.8617 32.8179 16.1263 32.4824 15.7522C32.1986 15.4426 31.7858 15.4039 31.3987 15.7264C31.1407 15.9844 31.1665 16.2424 31.1149 16.5134C31.0703 16.7016 31.0704 16.8977 31.1152 17.0859C31.16 17.2741 31.2483 17.4491 31.3729 17.5971C31.6439 18.126 32.147 18.8098 31.9793 19.7903C31.9793 19.7903 31.6826 20.2418 31.1794 20.1773C30.973 20.1257 30.6376 20.0483 30.4569 18.7066C30.3279 17.6874 30.4827 16.2682 30.057 15.6103C29.9022 15.1974 29.799 14.8104 29.4119 15.5071C29.3087 15.7651 28.8701 16.1779 29.1797 17.0294C29.4749 17.7793 29.564 18.5944 29.4377 19.3903C29.2571 19.6613 29.2184 19.7645 28.9733 20.0354C28.6508 20.3837 28.2895 20.2934 28.0186 20.1644C27.7606 19.9967 27.5542 19.9064 27.4381 19.3516C27.4639 18.4744 27.5026 17.0423 27.3477 16.7327C27.1155 16.2682 26.7285 16.436 26.5608 16.5779C25.8122 17.4081 25.3115 18.4317 25.1158 19.5323C24.8965 20.2418 24.6643 20.0483 24.4966 19.7516C24.0966 19.3645 24.0708 16.4102 23.5806 16.9004Z" fill="white"/>
<path fill-rule="evenodd" clip-rule="evenodd" d="M25.9285 21.7643C26.2897 21.5062 26.122 21.3385 26.651 21.8675C27.3318 23.0646 27.729 24.4019 27.8121 25.7766C27.7734 26.0991 28.0056 26.2926 28.1088 26.2281C28.1604 25.4798 30.0053 24.4219 31.6824 24.2671C31.9405 24.2155 31.8115 23.7253 31.8502 23.4672C31.7469 22.5383 32.3662 21.6869 33.2564 21.6224C34.4433 21.803 34.8432 22.4351 34.869 23.4027C34.74 25.2734 32.7919 25.5959 31.6953 25.7249C31.5276 25.8024 31.4631 25.8798 31.6953 25.9701L36.2753 25.983L36.5075 26.112C36.5333 26.241 36.443 26.1378 36.2495 26.4345C36.056 26.7312 35.8108 27.4279 35.7979 27.8795C34.4249 28.2802 33.0165 28.5481 31.5921 28.6793C31.1019 28.9374 30.8568 29.2728 30.9471 29.6469C31.1148 30.0727 32.2243 30.4855 32.2243 30.5113C32.4307 30.6403 32.6758 30.95 32.1598 31.5692C29.9279 31.4789 28.1991 30.5242 27.6056 29.1825C27.425 29.0535 27.2186 29.1825 27.1025 29.3631C26.3258 30.5571 25.2059 31.4881 23.8901 32.0337C22.9999 32.253 22.0968 31.9046 21.6711 31.3241C21.3872 30.9887 21.4001 30.6274 21.284 30.55C20.8067 30.7564 16.6912 32.511 17.2201 31.6982C18.2135 30.6145 19.9552 29.8275 21.4776 28.7696C21.6066 28.4213 21.8001 27.2215 22.4064 26.8345C22.4322 26.8345 22.3032 27.5311 22.3161 27.8279C22.3161 28.073 22.3032 28.1633 22.3548 28.0988C22.458 28.0343 24.3158 26.5764 24.4577 26.1249C24.6384 25.8669 24.5093 25.2218 24.5093 25.196C24.1739 24.2929 23.6837 24.2284 23.503 23.7769C23.3353 23.1834 23.4127 22.5125 23.7482 22.319C24.0449 22.0481 24.3932 22.0739 24.7287 22.3706C25.1157 22.7061 25.4382 23.364 25.5414 23.8543C25.4769 24.0478 25.0512 23.7253 24.8964 23.8285C25.1544 24.0865 25.2834 24.409 25.3737 24.7961C25.6318 25.8282 25.5414 26.2152 25.3092 26.8861C24.4835 28.6148 23.4256 29.1438 22.4967 29.7759C22.4709 29.7888 22.458 30.2275 22.8064 30.4597C22.9354 30.5887 23.4127 30.6403 23.9675 30.4597C25.1742 29.7935 26.1504 28.7768 26.7671 27.544C26.9348 26.6151 26.7026 25.6346 26.4574 24.7832C26.1762 24.104 25.918 23.4156 25.6834 22.719C25.6576 22.2029 25.6963 22.0223 25.9414 21.7643H25.9285ZM13.9561 16.9392C14.4722 17.1843 15.4656 17.0682 15.4269 16.2296L15.4011 15.8297C15.2979 15.5717 15.0011 15.6362 14.9366 15.9071C14.9108 15.9845 14.9753 16.1264 14.8979 16.1651C14.8463 16.2038 14.6786 16.178 14.6915 15.9458C14.6915 15.8684 14.6399 15.791 14.6012 15.7394C14.5625 15.7265 14.5496 15.7136 14.4851 15.7136C14.4077 15.7136 14.4206 15.7394 14.369 15.8039L14.3303 15.9974C14.3303 16.0877 14.2916 16.1135 14.227 16.1264C14.1625 16.1264 14.1754 16.1264 14.1238 16.1006C14.0851 16.0619 14.0464 16.049 14.0464 15.9845L14.0206 15.7781C13.9863 15.74 13.9414 15.7131 13.8916 15.7007C13.5949 15.7007 13.582 16.0361 13.5949 16.1651C13.5691 16.178 13.5562 16.7715 13.9561 16.9392Z" fill="white"/>
<path fill-rule="evenodd" clip-rule="evenodd" d="M29.3874 23.4674C29.9034 23.7254 31.1677 23.5706 30.8581 22.7579L30.8323 22.3708C30.7291 22.1128 30.4453 22.1773 30.3678 22.4353C30.3549 22.5127 30.4066 22.6546 30.3291 22.6933C30.2904 22.745 30.1227 22.7192 30.1227 22.4869C30.1227 22.4095 30.0711 22.3321 30.0324 22.2805C30.0066 22.2547 29.9808 22.2547 29.9163 22.2547C29.8518 22.2547 29.8518 22.2676 29.8131 22.3321L29.7744 22.5256C29.7615 22.6159 29.7228 22.6546 29.6712 22.6546C29.5938 22.6546 29.6196 22.6546 29.5551 22.6288C29.5293 22.5901 29.4777 22.5772 29.4777 22.5127C29.4777 22.4482 29.4777 22.345 29.4519 22.3063C29.4261 22.2676 29.3745 22.2547 29.3228 22.2418C29.039 22.2418 29.0132 22.5643 29.0261 22.6933C29.0132 22.7191 29.0003 23.2997 29.3874 23.4674ZM38.3924 20.7582C38.9085 21.0162 39.9019 20.9001 39.8632 20.0615L39.8374 19.6616C39.7342 19.4035 39.4374 19.468 39.3729 19.7261C39.3471 19.8164 39.4116 19.9454 39.3342 19.9841C39.2826 20.0357 39.1149 20.0099 39.1278 19.7777C39.1278 19.7003 39.0633 19.6228 39.0375 19.5712C38.9988 19.5583 38.9859 19.5454 38.9085 19.5454C38.844 19.5454 38.844 19.5712 38.8053 19.6357L38.7666 19.8293C38.7666 19.9067 38.7279 19.9454 38.6634 19.9583C38.5988 19.9583 38.6117 19.9583 38.5601 19.9196C38.5214 19.8938 38.4827 19.868 38.4827 19.8164C38.4827 19.7519 38.4698 19.6487 38.444 19.597C38.4182 19.5583 38.3795 19.5454 38.315 19.5325C38.0312 19.5325 38.0183 19.868 38.0312 19.9841C38.0054 20.0099 37.9925 20.6033 38.3924 20.7582ZM43.0369 27.5571C42.1338 28.5892 42.5337 30.2922 42.7401 30.6534C43.0498 31.2727 43.282 31.6597 43.8755 31.9564C44.4173 32.3435 44.8301 32.0984 45.0624 31.8274C45.6042 31.2727 45.6042 29.8406 45.8622 29.5568C46.0429 29.0408 46.4815 29.1311 46.7008 29.3633C46.9 29.6437 47.1661 29.8699 47.4749 30.0213C47.9781 30.4599 48.5715 30.5373 49.165 30.1503C49.5649 29.918 49.8358 29.6213 50.0681 29.0408C50.3261 28.3312 50.1971 25.0801 50.1326 23.1578C50.1197 23.003 49.6165 20.5001 49.6165 20.4743C49.6165 20.4485 49.5391 19.1971 49.4875 18.9004C49.4875 18.7843 49.4488 18.7456 49.5778 18.7714C49.7068 18.8746 49.7326 18.8875 49.81 18.9262C49.939 18.952 50.0681 18.7198 49.9906 18.5004L48.7263 16.1782C48.636 16.0879 48.507 15.9847 48.3393 16.2169C48.2417 16.302 48.1635 16.4071 48.1101 16.5251C48.0566 16.6431 48.0292 16.7712 48.0297 16.9007C48.0684 17.4554 48.1587 18.0102 48.1974 18.5649L48.7134 21.3774C48.8682 23.39 48.9069 25.0285 49.0618 27.054C49.036 27.8926 48.7779 28.6408 48.5199 28.7311C48.5199 28.7311 48.1458 28.9634 47.9006 28.7311C47.7071 28.6408 46.9718 27.4926 46.9718 27.4926C46.5847 27.1443 46.3525 27.2346 46.0687 27.4926C45.3462 28.2022 45.0108 29.5439 44.5076 30.4599C44.3786 30.6663 44.0045 30.8469 43.6045 30.447C42.5724 29.0279 43.1788 27.0411 43.0498 27.5571H43.0369ZM38.6246 15.8299C39.102 16.0234 39.4245 16.991 39.3213 17.4554C39.231 18.0231 38.973 18.6553 38.8053 18.5649C38.5988 18.5004 38.9343 17.9973 38.7408 17.4683C38.6375 17.1329 37.9925 16.5007 38.057 16.3201C37.928 15.9331 38.3408 15.7654 38.6246 15.8299Z" fill="white"/>
<path fill-rule="evenodd" clip-rule="evenodd" d="M44.5711 28.1248C44.6614 26.9637 44.4937 26.267 44.4679 25.5961C44.4421 24.9253 43.6939 19.7906 43.5648 19.2745C43.3713 18.3069 44.2744 19.1455 44.1712 18.5779C43.8616 17.8683 43.1004 16.8362 42.8553 16.2298C42.7134 15.9718 42.765 15.7267 42.4424 16.1524C42.1639 16.9197 42.0668 17.741 42.1586 18.5521C42.9327 22.5902 43.7197 25.9445 43.5906 29.789C43.9648 29.789 44.3905 28.9505 44.5711 28.1119V28.1248ZM52.6215 17.4555C53.0602 17.6748 53.3053 18.8746 53.2666 19.21C53.1763 19.8422 52.944 20.5001 52.7763 20.4227C52.6086 20.3453 52.815 19.4939 52.7247 19.2358C52.6344 18.8617 52.0539 18.1908 52.1055 17.9844C51.9894 17.5716 52.3635 17.3909 52.6215 17.4684V17.4555ZM20.6651 25.9445C21.078 26.1122 21.3102 26.9766 21.2715 27.2346C21.1941 27.699 20.9748 28.1893 20.8199 28.1377C20.6522 28.0732 20.8457 27.4539 20.7683 27.2604C20.7296 26.7831 20.162 26.5379 20.1749 26.3444C20.0717 25.9574 20.42 25.8929 20.6651 25.9574V25.9445Z" fill="white"/>
<path fill-rule="evenodd" clip-rule="evenodd" d="M30.612 27.273C31.128 27.2988 31.3989 27.7246 30.9087 27.8923C30.4184 28.06 29.9411 28.189 29.9411 28.8986C30.1217 29.892 29.6831 29.5437 29.4251 29.4146C29.1283 29.1953 28.2768 28.6793 28.1607 27.544C28.1478 27.2859 28.3542 27.0537 28.6897 27.0537C29.2057 27.1827 29.954 27.2085 30.5991 27.273H30.612Z" fill="#1B9D00"/>
<path fill-rule="evenodd" clip-rule="evenodd" d="M9.67431 15.5459C10.2807 15.7265 10.3194 16.6167 10.2678 16.8877C10.1904 17.365 9.97104 17.8682 9.81623 17.8036C9.64851 17.752 9.81623 17.107 9.73882 16.9006C9.64851 16.6167 9.13246 16.1007 9.19697 15.9459C9.06796 15.6362 9.42919 15.4943 9.67431 15.5588V15.5459ZM21.6596 19.7517C21.1951 20.0098 21.0145 20.758 21.2983 21.1967C21.5693 21.5837 21.995 21.4418 22.0595 21.4418C22.5111 21.4934 22.782 20.5774 22.782 20.5774C22.782 20.5774 22.7949 20.3194 22.2659 20.8096C22.0337 20.8483 22.0079 20.7709 21.9434 20.6419C21.8884 20.3992 21.9156 20.145 22.0208 19.9195C22.0982 19.7001 21.9176 19.5969 21.6596 19.7517ZM25.1429 15.1976C24.9236 15.3653 24.4462 15.8427 24.4333 16.3974C24.4333 16.707 24.3688 16.707 24.5624 16.9135C24.7172 17.1199 24.872 17.107 25.1687 16.9522C25.2426 16.9043 25.3058 16.8419 25.3547 16.7686C25.4035 16.6954 25.4368 16.613 25.4525 16.5264C25.53 16.1652 25.0784 16.6941 25.0268 16.2942C24.9236 15.933 25.2074 15.7781 25.4783 15.4169C25.4783 15.1718 25.4783 15.0041 25.1558 15.1976H25.1429ZM27.9683 15.7136C27.8558 16.1662 27.7867 16.6284 27.7619 17.0941C27.6845 17.4424 28.1231 17.5843 28.3295 17.1328C28.6263 16.32 28.6263 15.9717 28.6521 15.6233C28.5617 15.1073 28.2005 15.1073 27.9683 15.7007V15.7136ZM45.7075 24.7316C45.7591 24.6671 48.2104 22.9254 48.2104 22.9254C48.4555 22.848 48.4039 23.8285 48.2878 23.8285C47.5307 24.5624 46.6592 25.168 45.7075 25.6218C45.5785 25.6992 45.4624 24.9509 45.7075 24.7187V24.7316ZM47.9265 24.7187C48.3523 24.9251 48.5329 26.1895 48.4813 26.5249C48.4942 27.1958 48.0684 27.7247 47.9007 27.6344C47.7201 27.557 47.9136 26.8087 47.8362 26.5507C47.7459 26.1766 47.3718 25.4799 47.4363 25.2864C47.3073 24.8606 47.6685 24.6413 47.9265 24.7187ZM33.4255 30.1373C33.5932 29.8792 34.1093 29.5309 34.1222 29.5309C34.3673 29.4019 34.5995 29.6212 34.5866 29.6083C34.6253 29.8534 34.4318 30.0727 34.4963 30.3953C34.5479 30.5243 34.5866 30.6662 34.8318 30.6146C35.2188 30.3179 35.58 30.2921 35.9671 30.2663C36.2638 30.2921 36.2638 30.7823 36.0832 30.7952C35.3607 30.95 35.0511 31.1435 34.535 31.3371C34.2899 31.479 34.0835 31.2984 34.0835 31.2855C34.0835 31.2726 33.9545 31.1435 34.0448 30.821C34.0577 30.563 33.9545 30.434 33.7481 30.4598C33.5803 30.5372 33.4384 30.5888 33.361 30.4082C33.3223 30.2792 33.3223 30.2147 33.4255 30.1373ZM50.4939 30.8081C50.5971 30.9371 50.6745 31.0661 50.4939 31.2855L50.0294 31.6725C49.9391 31.8273 49.9004 32.0337 50.1455 32.0982C50.5971 32.2273 51.655 31.5435 51.655 31.5306C51.8227 31.4016 51.7711 31.1565 51.7453 31.1565C51.655 31.0403 51.4228 31.1048 51.2809 31.0919C51.2034 31.0919 50.9712 31.0532 51.0744 30.8468C51.1776 30.7178 51.2034 30.6404 51.268 30.4727C51.3454 30.3179 51.2809 30.2147 51.0228 30.1243C50.7648 30.0856 50.6616 30.1114 50.3778 30.1243C50.21 30.1631 50.1584 30.2276 50.1197 30.4211C50.1455 30.7049 50.3133 30.692 50.5068 30.8081H50.4939Z" fill="white"/>
<path fill-rule="evenodd" clip-rule="evenodd" d="M33.5144 23.7123C33.4499 23.8413 33.2177 23.8284 32.9984 23.7123C32.779 23.5962 32.6758 23.3898 32.7403 23.2737C32.8049 23.1576 33.0371 23.1576 33.2564 23.2737C33.4757 23.3898 33.5789 23.5962 33.5144 23.7123ZM22.3806 17.0295C22.2516 17.0682 22.0839 16.9521 22.0065 16.7715C21.9291 16.5908 21.9678 16.4489 22.0968 16.4102C22.2258 16.3715 22.3936 16.5005 22.471 16.6683C22.5484 16.836 22.5097 17.0037 22.3806 17.0295Z" fill="#259F00"/>
<path fill-rule="evenodd" clip-rule="evenodd" d="M44.4033 46.8701C45.5644 46.9217 46.6739 46.883 47.835 46.9475C48.0543 47.1152 47.8995 47.5668 47.7576 47.5281L46.7771 47.5023C46.7771 47.1281 45.8095 47.1926 45.8482 47.5152C45.3322 47.5797 44.8677 47.5023 44.3517 47.4765C44.1968 47.283 44.2226 46.9475 44.4033 46.8701Z" fill="#209000"/>
</g>
<path d="M32 60C16.536 60 4 47.464 4 32H-4C-4 51.8823 12.1177 68 32 68V60ZM60 32C60 47.464 47.464 60 32 60V68C51.8823 68 68 51.8823 68 32H60ZM32 4C47.464 4 60 16.536 60 32H68C68 12.1177 51.8823 -4 32 -4V4ZM32 -4C12.1177 -4 -4 12.1177 -4 32H4C4 16.536 16.536 4 32 4V-4Z" fill="white"/>
<defs>
<clipPath id="clip0">
<path d="M0 32C0 14.3269 14.3269 0 32 0V0C49.6731 0 64 14.3269 64 32V32C64 49.6731 49.6731 64 32 64V64C14.3269 64 0 49.6731 0 32V32Z" fill="white"/>
</clipPath>
</defs>
</svg>
