<svg width="64" height="64" viewBox="0 0 64 64" fill="none" xmlns="http://www.w3.org/2000/svg">
<g clip-path="url(#clip0)">
<path d="M64.0006 0H0V63.7228H64.0006V0Z" fill="white"/>
<path d="M64.0006 42.7637H0V64.0016H64.0006V42.7637Z" fill="#21468B"/>
<path fill-rule="evenodd" clip-rule="evenodd" d="M0 0H64.0006V21.2379H0V0Z" fill="#AE1C28"/>
</g>
<path d="M32 60C16.536 60 4 47.464 4 32H-4C-4 51.8823 12.1177 68 32 68V60ZM60 32C60 47.464 47.464 60 32 60V68C51.8823 68 68 51.8823 68 32H60ZM32 4C47.464 4 60 16.536 60 32H68C68 12.1177 51.8823 -4 32 -4V4ZM32 -4C12.1177 -4 -4 12.1177 -4 32H4C4 16.536 16.536 4 32 4V-4Z" fill="white"/>
<defs>
<clipPath id="clip0">
<path d="M0 32C0 14.3269 14.3269 0 32 0V0C49.6731 0 64 14.3269 64 32V32C64 49.6731 49.6731 64 32 64V64C14.3269 64 0 49.6731 0 32V32Z" fill="white"/>
</clipPath>
</defs>
</svg>
