<svg width="64" height="64" viewBox="0 0 64 64" fill="none" xmlns="http://www.w3.org/2000/svg">
<g clip-path="url(#clip0)">
<path fill-rule="evenodd" clip-rule="evenodd" d="M0 0H96.1537V7.1225H0V0Z" fill="#0D5EAF"/>
<path fill-rule="evenodd" clip-rule="evenodd" d="M0 7.12256H96.1537V14.2451H0V7.12256Z" fill="white"/>
<path fill-rule="evenodd" clip-rule="evenodd" d="M0 14.2451H96.1537V21.3676H0V14.2451Z" fill="#0D5EAF"/>
<path fill-rule="evenodd" clip-rule="evenodd" d="M0 21.3677H96.1537V28.4902H0V21.3677Z" fill="white"/>
<path fill-rule="evenodd" clip-rule="evenodd" d="M0 28.4902H96.1537V35.6127H0V28.4902Z" fill="#0D5EAF"/>
<path fill-rule="evenodd" clip-rule="evenodd" d="M0 35.6123H96.1537V42.7348H0V35.6123Z" fill="white"/>
<path fill-rule="evenodd" clip-rule="evenodd" d="M0 42.7349H96.1537V49.8574H0V42.7349Z" fill="#0D5EAF"/>
<path fill-rule="evenodd" clip-rule="evenodd" d="M0 49.8574H96.1537V56.9799H0V49.8574Z" fill="white"/>
<path fill-rule="evenodd" clip-rule="evenodd" d="M0 56.98H96.1537V64.1025H0V56.98ZM0 0H35.6125V35.6125H0V0Z" fill="#0D5EAF"/>
<path fill-rule="evenodd" clip-rule="evenodd" d="M14.2441 0H21.3666V35.6125H14.2441V0Z" fill="white"/>
<path fill-rule="evenodd" clip-rule="evenodd" d="M0 14.2451H35.6125V21.3676H0V14.2451Z" fill="white"/>
</g>
<path d="M32 60C16.536 60 4 47.464 4 32H-4C-4 51.8823 12.1177 68 32 68V60ZM60 32C60 47.464 47.464 60 32 60V68C51.8823 68 68 51.8823 68 32H60ZM32 4C47.464 4 60 16.536 60 32H68C68 12.1177 51.8823 -4 32 -4V4ZM32 -4C12.1177 -4 -4 12.1177 -4 32H4C4 16.536 16.536 4 32 4V-4Z" fill="white"/>
<defs>
<clipPath id="clip0">
<path d="M0 32C0 14.3269 14.3269 0 32 0V0C49.6731 0 64 14.3269 64 32V32C64 49.6731 49.6731 64 32 64V64C14.3269 64 0 49.6731 0 32V32Z" fill="white"/>
</clipPath>
</defs>
</svg>
