<svg width="64" height="64" viewBox="0 0 64 64" fill="none" xmlns="http://www.w3.org/2000/svg">
<path d="M0 0H64V64H0V0Z" fill="#D20000"/>
<path d="M0 0H10.85L32 30.8625L53.15 0H64L0 64H10.85L32 33.1375L53.15 64H64L0 0ZM64 25.6V38.4L0 25.6V38.4L64 25.6ZM25.6 0L32 27.425L38.4 0H25.6ZM25.6 64L32 36.575L38.4 64H25.6Z" fill="#FFE600"/>
<path d="M32.0004 42.2874C37.682 42.2874 42.2879 37.6815 42.2879 31.9999C42.2879 26.3183 37.682 21.7124 32.0004 21.7124C26.3188 21.7124 21.7129 26.3183 21.7129 31.9999C21.7129 37.6815 26.3188 42.2874 32.0004 42.2874Z" fill="#FFE600"/>
<path fill-rule="evenodd" clip-rule="evenodd" d="M32 30.8625C31.3718 30.8625 30.8625 31.3718 30.8625 32C30.8625 32.6282 31.3718 33.1375 32 33.1375C32.6282 33.1375 33.1375 32.6282 33.1375 32C33.1375 31.3718 32.6282 30.8625 32 30.8625ZM12.5625 32C12.5625 21.265 21.265 12.5625 32 12.5625C42.735 12.5625 51.4375 21.265 51.4375 32C51.4375 42.735 42.735 51.4375 32 51.4375C21.265 51.4375 12.5625 42.735 12.5625 32Z" fill="#D20000"/>
<path d="M32 60C16.536 60 4 47.464 4 32H-4C-4 51.8823 12.1177 68 32 68V60ZM60 32C60 47.464 47.464 60 32 60V68C51.8823 68 68 51.8823 68 32H60ZM32 4C47.464 4 60 16.536 60 32H68C68 12.1177 51.8823 -4 32 -4V4ZM32 -4C12.1177 -4 -4 12.1177 -4 32H4C4 16.536 16.536 4 32 4V-4Z" fill="white"/>
</svg>
