<svg width="64" height="64" viewBox="0 0 64 64" fill="none" xmlns="http://www.w3.org/2000/svg">
<g clip-path="url(#clip0)">
<path d="M25.6004 0H64.0004V64H25.5879L25.6004 0Z" fill="#FF0000"/>
<path d="M0.000781253 0H25.6008V64H-0.0117188L0.000781253 0Z" fill="#006600"/>
<path fill-rule="evenodd" clip-rule="evenodd" d="M36.7246 40.825C32.4246 40.7 12.7246 28.4 12.5996 26.4375L13.6746 24.625C15.6246 27.4625 35.7746 39.425 37.7496 39L36.7246 40.825Z" fill="#FFFF00"/>
<path fill-rule="evenodd" clip-rule="evenodd" d="M13.6633 24.2751C13.7827 24.2711 13.8958 24.3283 13.9635 24.4267C14.175 24.7345 14.6654 25.2035 15.408 25.8022C16.1401 26.3925 17.0871 27.0854 18.1804 27.8397C20.3664 29.348 23.1227 31.0918 25.8822 32.7351C28.6419 34.3786 31.3992 35.9184 33.5867 37.0195C34.6813 37.5705 35.6271 38.0086 36.3564 38.2948C36.7216 38.4382 37.025 38.5405 37.2615 38.6004C37.5145 38.6644 37.6391 38.6657 37.6764 38.6577C37.8109 38.6288 37.95 38.6814 38.0317 38.7921C38.1134 38.9029 38.1226 39.0513 38.0552 39.1713L37.0302 40.9963C36.9664 41.1098 36.8449 41.1785 36.7148 41.1748C36.1165 41.1574 35.2928 40.9335 34.3373 40.5795C33.3719 40.2218 32.2377 39.718 31.0051 39.1144C28.5392 37.907 25.66 36.2908 22.9148 34.6192C20.1699 32.9476 17.5519 31.2162 15.6092 29.777C14.6389 29.0582 13.8301 28.407 13.2567 27.8692C12.9707 27.6009 12.7354 27.3535 12.5668 27.1344C12.411 26.9317 12.2657 26.6957 12.2507 26.4597C12.2462 26.3894 12.2631 26.3194 12.299 26.2589L13.374 24.4464C13.4349 24.3436 13.544 24.2791 13.6633 24.2751ZM13.7229 25.2303L12.9774 26.4872C12.9782 26.4889 12.9791 26.4907 12.98 26.4924C13.0082 26.5479 13.0539 26.6194 13.1217 26.7077C13.2576 26.8844 13.4626 27.1026 13.7356 27.3587C14.2803 27.8696 15.0646 28.5024 16.0259 29.2146C17.9466 30.6375 20.5458 32.3569 23.2789 34.0213C26.0119 35.6856 28.8718 37.2904 31.3129 38.4858C32.5338 39.0836 33.6451 39.5765 34.5805 39.9231C35.3985 40.2261 36.0571 40.4076 36.5285 40.46L37.1796 39.3007C37.1497 39.2938 37.1196 39.2866 37.0897 39.279C36.8131 39.2089 36.4792 39.095 36.1006 38.9464C35.3423 38.6488 34.3746 38.1998 33.2719 37.6448C31.0649 36.5338 28.2925 34.9853 25.524 33.3366C22.7554 31.6877 19.9852 29.9354 17.7829 28.4159C16.682 27.6564 15.7195 26.9525 14.9686 26.3471C14.4576 25.9351 14.0297 25.557 13.7229 25.2303Z" fill="black"/>
<path fill-rule="evenodd" clip-rule="evenodd" d="M13.4486 24.3746C13.0611 25.4121 18.5861 28.8246 25.2361 32.8746C31.8861 36.9121 37.6111 39.4121 38.0486 39.0621L38.2361 38.6996C38.1611 38.8246 37.9611 38.8621 37.6611 38.7746C35.8611 38.2496 31.1736 36.0996 25.3736 32.5871C19.5736 29.0746 14.5236 25.8246 13.7486 24.4496C13.6848 24.3218 13.6546 24.1798 13.6611 24.0371H13.6361L13.4736 24.3246L13.4486 24.3746ZM36.8236 40.8746C36.7486 41.0121 36.6111 41.0121 36.3611 40.9996C34.7486 40.8121 29.8611 38.4371 24.1111 34.9871C17.3861 30.9621 11.8361 27.2996 12.4486 26.3496L12.6111 26.0496L12.6361 26.0621C12.0986 27.6871 23.5861 34.2496 24.2611 34.6746C30.8986 38.7996 36.5111 41.1996 37.0111 40.5746L36.8236 40.8746Z" fill="#FFFF00"/>
<path fill-rule="evenodd" clip-rule="evenodd" d="M13.3322 23.8653C13.3943 23.7554 13.5107 23.6875 13.6369 23.6875H13.6619C13.7575 23.6875 13.8489 23.7266 13.915 23.7957C13.981 23.8648 14.0159 23.9579 14.0116 24.0534C14.0079 24.1338 14.0242 24.2137 14.0589 24.2862C14.2202 24.5666 14.6311 24.9882 15.2993 25.5372C15.9609 26.0807 16.8365 26.719 17.8749 27.4282C19.951 28.8459 22.6567 30.5325 25.5557 32.2881C31.3495 35.7969 36.0052 37.9272 37.7599 38.439C37.8675 38.4704 37.9359 38.4746 37.9712 38.4721C38.0776 38.3478 38.2598 38.312 38.4074 38.3944C38.5725 38.4864 38.6346 38.6929 38.5478 38.8608L38.3603 39.2233C38.3378 39.2669 38.3063 39.3052 38.2681 39.3358C38.1418 39.4368 37.988 39.4451 37.9061 39.4451C37.8057 39.445 37.6931 39.4293 37.5766 39.4058C37.3417 39.3583 37.0385 39.2674 36.6814 39.1411C35.9641 38.8875 34.9881 38.4764 33.8243 37.931C31.4949 36.8393 28.3901 35.1989 25.0553 33.1742L25.0549 33.1739C21.7323 31.1504 18.6794 29.2794 16.5057 27.7837C15.4206 27.037 14.5409 26.3747 13.9539 25.8273C13.6619 25.555 13.4267 25.297 13.2762 25.0593C13.1358 24.8375 13.0127 24.544 13.1215 24.2525L13.3395 24.3339C13.3383 24.3288 13.3372 24.3236 13.3361 24.3184L13.1364 24.2185L13.1614 24.1685C13.164 24.1632 13.1668 24.1579 13.1697 24.1528L13.3322 23.8653ZM12.3042 25.8833C12.3941 25.7173 12.5996 25.6525 12.7685 25.737L12.7935 25.7495C12.949 25.8272 13.0238 26.0073 12.9692 26.1724C12.9694 26.1719 12.9695 26.1716 12.9695 26.1716C12.9695 26.1716 12.9615 26.2046 12.9966 26.2928C13.0342 26.387 13.1084 26.5112 13.2296 26.6654C13.4714 26.973 13.8572 27.3462 14.3568 27.766C15.3525 28.6028 16.7453 29.5797 18.1868 30.5262C20.4603 32.0189 22.801 33.4022 23.8771 34.0382C24.1694 34.2109 24.3685 34.3286 24.4474 34.3782C27.7555 36.434 30.8041 38.0574 33.0826 39.0873C34.2237 39.6031 35.1622 39.9657 35.839 40.1605C36.1796 40.2586 36.4379 40.3094 36.6154 40.3209C36.6967 40.3261 36.7476 40.3221 36.7753 40.317C36.8949 40.2071 37.0779 40.1928 37.2143 40.2895C37.3656 40.3967 37.407 40.6033 37.3087 40.7605L37.1257 41.0534C37.0322 41.2174 36.8879 41.3035 36.7302 41.3364C36.6045 41.3626 36.4618 41.3555 36.3494 41.3498L36.3444 41.3496C36.3368 41.3492 36.3291 41.3486 36.3215 41.3477C35.8706 41.2952 35.2273 41.097 34.4487 40.7926C33.662 40.485 32.7109 40.0583 31.6346 39.5316C29.4815 38.4778 26.8132 37.0164 23.9318 35.2876C20.5682 33.2744 17.4893 31.3466 15.3256 29.8004C14.2461 29.029 13.3804 28.3427 12.82 27.7817C12.542 27.5035 12.3206 27.238 12.1902 26.9937C12.0685 26.766 11.9749 26.4546 12.1469 26.1737L12.3042 25.8833ZM36.7926 40.3128C36.7926 40.3129 36.792 40.3131 36.7909 40.3134Z" fill="black"/>
<path fill-rule="evenodd" clip-rule="evenodd" d="M25.6254 27.6246C29.9129 27.5871 35.2254 27.0371 38.2754 25.8246L37.6254 24.7496C35.8129 25.7496 30.4879 26.4121 25.5879 26.4996C19.7879 26.4496 15.7004 25.9121 13.6504 24.5371L13.0254 25.6746C16.8004 27.2621 20.6504 27.6121 25.6254 27.6246Z" fill="#FFFF00"/>
<path fill-rule="evenodd" clip-rule="evenodd" d="M13.566 24.1974C13.6615 24.1742 13.7622 24.1921 13.8438 24.2468C14.8051 24.8916 16.2791 25.36 18.2653 25.6698C20.2433 25.9784 22.6945 26.1249 25.5847 26.15C28.0212 26.1063 30.5615 25.9197 32.7147 25.6205C34.8884 25.3185 36.6121 24.9085 37.4548 24.4435C37.6193 24.3528 37.8261 24.4081 37.9233 24.5689L38.5733 25.6439C38.6266 25.732 38.6384 25.839 38.6056 25.9365C38.5728 26.0341 38.4988 26.1122 38.4031 26.1502C35.2897 27.388 29.9224 27.9374 25.6269 27.975L25.6229 27.975C20.6353 27.9625 16.7286 27.6127 12.8882 25.9976C12.7967 25.9592 12.7259 25.8838 12.6933 25.7901C12.6607 25.6965 12.6693 25.5934 12.7171 25.5065L13.3421 24.369C13.3894 24.2829 13.4706 24.2207 13.566 24.1974ZM13.7777 25.0297L13.5194 25.4998C17.1149 26.9344 20.8217 27.2628 25.6227 27.275C29.7222 27.239 34.7187 26.7322 37.7566 25.646L37.4911 25.2069C36.4672 25.671 34.7707 26.0416 32.8111 26.3139C30.625 26.6176 28.0546 26.806 25.5926 26.8499L25.5833 26.8501L25.5833 26.85C22.6755 26.8249 20.1845 26.6777 18.1574 26.3614C16.3292 26.0762 14.8493 25.6495 13.7777 25.0297Z" fill="black"/>
<path fill-rule="evenodd" clip-rule="evenodd" d="M38.4613 25.8499C38.3488 26.0124 36.3613 26.6999 33.4238 27.1999C30.8337 27.5884 28.2179 27.7806 25.5988 27.7749C23.091 27.7861 20.5852 27.6274 18.0988 27.2999C15.0363 26.8124 13.4363 26.1374 12.8488 25.8999L12.9988 25.6124C14.6611 26.2676 16.3934 26.729 18.1613 26.9874C20.6271 27.31 23.112 27.4645 25.5988 27.4499C28.197 27.4516 30.7917 27.2594 33.3613 26.8749C36.3613 26.3874 38.0113 25.7624 38.2363 25.4749L38.4613 25.8499ZM37.8738 24.7499C37.5488 24.9999 35.9238 25.5874 33.0738 26.0374C30.6105 26.391 28.1249 26.5665 25.6363 26.5624C23.2367 26.5806 20.8388 26.4261 18.4613 26.0999C15.5488 25.7249 14.0113 25.0374 13.4613 24.8374L13.6238 24.5499C14.0488 24.7749 15.5488 25.3749 18.4988 25.7999C20.8654 26.1066 23.25 26.2528 25.6363 26.2374C28.1041 26.2408 30.5689 26.0653 33.0113 25.7124C35.8863 25.3124 37.4363 24.5874 37.6738 24.3999L37.8738 24.7499ZM11.4988 32.7999C14.1488 34.2249 20.0113 34.9499 25.5738 34.9999C30.6363 34.9999 37.2363 34.2124 39.6988 32.8999L39.6238 31.4749C38.8613 32.6874 31.7988 33.8499 25.5238 33.7999C19.2488 33.7499 13.4238 32.7749 11.4863 31.5249V32.7999" fill="#FFFF00"/>
<path fill-rule="evenodd" clip-rule="evenodd" d="M37.7409 24.0562C37.8409 24.0756 37.9276 24.1377 37.9781 24.2262L38.1781 24.5762L37.8742 24.7498L38.0876 25.0272C37.9653 25.1213 37.7636 25.2196 37.5182 25.318C37.2625 25.4206 36.9286 25.5351 36.5192 25.6545C35.6998 25.8937 34.5663 26.1561 33.1288 26.383L33.124 26.3838L33.124 26.3838C30.6445 26.7397 28.1426 26.9163 25.6378 26.9123C23.2223 26.9306 20.8087 26.775 18.4156 26.4468C15.7897 26.1085 14.2561 25.5173 13.5636 25.2503C13.4767 25.2168 13.403 25.1884 13.3421 25.1662C13.2454 25.1311 13.1691 25.0551 13.1334 24.9586C13.0977 24.862 13.1064 24.7547 13.157 24.6651L13.3195 24.3776C13.4128 24.2126 13.6205 24.1518 13.788 24.2405C14.165 24.4401 15.6214 25.0314 18.5467 25.453C20.8968 25.7575 23.2648 25.9026 25.6345 25.8873L25.6372 25.8873C28.0881 25.8907 30.536 25.7164 32.9617 25.3659L32.9635 25.3656C34.3811 25.1684 35.467 24.8917 36.223 24.6438C36.6011 24.5198 36.8953 24.4034 37.1062 24.3085C37.3274 24.2091 37.4344 24.1432 37.4573 24.1251C37.5373 24.062 37.6409 24.0368 37.7409 24.0562ZM25.6376 26.5873C28.1215 26.5907 30.6025 26.414 33.0609 26.0588C33.0612 26.0588 33.0615 26.0588 33.0618 26.0587M38.2583 25.1255C38.3734 25.1326 38.4775 25.1959 38.5368 25.2947L38.7619 25.6697C38.8326 25.7876 38.8277 25.936 38.7495 26.049C38.7017 26.1181 38.6382 26.161 38.611 26.1788C38.5736 26.2033 38.5317 26.2262 38.4896 26.2472C38.4047 26.2895 38.2948 26.3362 38.1656 26.3858C37.9056 26.4855 37.545 26.6053 37.0998 26.7344C36.2086 26.9929 34.9644 27.2927 33.483 27.5448L33.4761 27.546L33.4761 27.5459C30.869 27.9369 28.236 28.1305 25.5996 28.1248C23.0764 28.136 20.5552 27.9763 18.0535 27.6468L18.0442 27.6456L18.0442 27.6455C15.0445 27.168 13.424 26.5106 12.7785 26.2488C12.7573 26.2402 12.7372 26.232 12.718 26.2243C12.6265 26.1873 12.5549 26.1134 12.5208 26.0208C12.4867 25.9281 12.4933 25.8254 12.5389 25.7379L12.6889 25.4504C12.7717 25.2917 12.961 25.221 13.1276 25.2867C14.764 25.9317 16.4693 26.386 18.2097 26.6406C20.659 26.9609 23.1271 27.1143 25.5972 27.0998L25.5995 27.0998C28.1795 27.1015 30.7561 26.9107 33.3077 26.529C34.7944 26.2873 35.9398 26.0127 36.7361 25.7655C37.1351 25.6417 37.4411 25.5264 37.6564 25.428C37.7643 25.3787 37.8442 25.3359 37.8995 25.3012C37.9477 25.2709 37.964 25.2548 37.9642 25.2551C37.9643 25.2552 37.9632 25.2565 37.9611 25.2591C38.0321 25.1683 38.1433 25.1184 38.2583 25.1255ZM25.5992 27.7998C25.5991 27.7998 25.5991 27.7998 25.599 27.7998L25.599 27.7333L25.599 27.7332L25.5992 27.4498L25.5997 27.5375V27.5375L25.6013 27.7998C25.6009 27.7998 25.6005 27.7998 25.6001 27.7998C25.5999 27.7998 25.5996 27.7998 25.5993 27.7998M39.7123 31.1361C39.86 31.1745 39.9657 31.3041 39.9737 31.4564L40.0487 32.8814C40.0559 33.0171 39.9838 33.1447 39.8639 33.2087C38.5725 33.897 36.2511 34.4277 33.66 34.7886C31.0532 35.1518 28.1214 35.3498 25.5742 35.3498H25.5711V35.3498C22.7771 35.3247 19.9046 35.1301 17.3937 34.7617C14.9225 34.3992 12.7653 33.8634 11.3818 33.1338C11.2398 33.0892 11.1367 32.9566 11.1367 32.7998V31.5248C11.1367 31.3967 11.2067 31.2788 11.3193 31.2175C11.4318 31.1562 11.5688 31.1612 11.6765 31.2307C12.5782 31.8125 14.4532 32.3607 16.9354 32.7669C19.3985 33.1699 22.4054 33.4249 25.527 33.4498C28.6446 33.4747 31.959 33.1981 34.5845 32.7654C35.8981 32.5489 37.03 32.2949 37.8748 32.0234C38.2977 31.8875 38.6394 31.7502 38.8927 31.6157C39.1565 31.4757 39.2827 31.3604 39.3279 31.2885C39.4092 31.1593 39.5647 31.0977 39.7123 31.1361ZM11.8367 32.5805C13.1169 33.2201 15.1202 33.7207 17.4953 34.0691C19.9684 34.432 22.8077 34.6249 25.5758 34.6498C28.0907 34.6497 30.9895 34.454 33.5634 34.0953C36.015 33.7538 38.1258 33.2703 39.3377 32.6903L39.3111 32.1846C39.2814 32.2014 39.2513 32.2179 39.2209 32.234C38.9176 32.395 38.5334 32.5471 38.0889 32.6899C37.1989 32.9758 36.03 33.2366 34.6983 33.4561C32.0332 33.8953 28.6789 34.175 25.5214 34.1498C22.368 34.1247 19.3249 33.8672 16.8224 33.4577C14.7177 33.1133 12.9557 32.6556 11.8367 32.1171V32.5805Z" fill="black"/>
<path fill-rule="evenodd" clip-rule="evenodd" d="M39.8367 32.5996V32.9371C39.4617 33.3871 37.1367 34.0621 34.2242 34.5246C31.3393 34.9437 28.4268 35.1442 25.5117 35.1246C22.0867 35.1246 19.3617 34.8746 17.2367 34.5496C15.1978 34.3179 13.205 33.7828 11.3242 32.9621V32.5621C12.6242 33.4246 16.1117 34.0496 17.2867 34.2371C19.3867 34.5621 22.0992 34.7996 25.5117 34.7996C29.0992 34.7996 31.9742 34.5496 34.1742 34.2121C36.2742 33.9121 39.2492 33.1246 39.8367 32.5996ZM39.8367 31.3871V31.7371C39.4617 32.1746 37.1367 32.8496 34.2242 33.3121C31.3393 33.7312 28.4268 33.9317 25.5117 33.9121C22.0867 33.9121 19.3617 33.6621 17.2492 33.3496C15.2055 33.1147 13.2084 32.5754 11.3242 31.7496V31.3496C12.6242 32.2121 16.1117 32.8496 17.2867 33.0246C19.3992 33.3496 22.1117 33.5996 25.5117 33.5996C29.0992 33.5996 31.9742 33.3496 34.1742 32.9996C36.2742 32.6996 39.2492 31.9121 39.8367 31.3871ZM25.5617 40.5746C19.4867 40.5371 14.2742 38.9246 13.1742 38.6496L13.9742 39.8996C15.9117 40.7246 20.9992 41.9496 25.6242 41.8121C30.2492 41.6746 34.2867 41.3121 37.1242 39.9371L37.9492 38.6246C36.0117 39.5371 29.4117 40.5746 25.5742 40.5746" fill="#FFFF00"/>
<path fill-rule="evenodd" clip-rule="evenodd" d="M11.1591 31.0416C11.2727 30.9806 11.4107 30.9871 11.5181 31.0584C12.1105 31.4514 13.2501 31.8152 14.4359 32.1053C15.6045 32.3913 16.7592 32.5925 17.3387 32.6788L17.3403 32.6791L17.3403 32.6791C19.4347 33.0013 22.1294 33.25 25.5121 33.25C29.0838 33.25 31.9402 33.0011 34.1196 32.6543L34.1251 32.6535L34.1251 32.6535C35.1587 32.5059 36.4126 32.2373 37.4793 31.9409C38.0127 31.7927 38.4936 31.6391 38.8737 31.4923C39.2697 31.3393 39.5099 31.2105 39.6039 31.1265L39.8371 31.3875H40.1871V31.7375C40.1871 31.821 40.1572 31.9018 40.1028 31.9653C40.0183 32.0639 39.9017 32.1457 39.7839 32.2143C39.6611 32.2858 39.5131 32.3565 39.3464 32.4261C39.0126 32.5655 38.5814 32.7096 38.0779 32.8524C37.0695 33.1382 35.7462 33.4253 34.2795 33.6582L34.2749 33.6589L34.2749 33.6589C31.3729 34.0804 28.4433 34.2822 25.5109 34.2625C22.0722 34.2624 19.3322 34.0116 17.204 33.6971C15.1275 33.4579 13.0985 32.9096 11.1841 32.0706C11.0568 32.0148 10.9746 31.889 10.9746 31.75V31.35C10.9746 31.2211 11.0455 31.1026 11.1591 31.0416ZM11.1591 32.2541C11.2727 32.1931 11.4107 32.1996 11.5181 32.2709C12.1101 32.6636 13.2492 33.0243 14.4355 33.3131C15.6035 33.5973 16.7585 33.7987 17.3414 33.8917C19.4219 34.2137 22.1162 34.45 25.5121 34.45C29.0836 34.45 31.9407 34.2011 34.1215 33.8665L34.1251 33.866C35.1587 33.7184 36.4126 33.4498 37.4793 33.1534C38.0127 33.0052 38.4936 32.8516 38.8737 32.7048C39.2697 32.5518 39.5099 32.423 39.6039 32.339L39.8371 32.6H40.1871V32.9375C40.1871 33.0194 40.1584 33.0987 40.106 33.1616C40.0217 33.2628 39.9048 33.3466 39.7864 33.4169C39.6632 33.49 39.5149 33.562 39.3479 33.6327C39.0137 33.7741 38.582 33.9196 38.0784 34.0632C37.0697 34.3507 35.7461 34.6378 34.2795 34.8707L34.2749 34.8714L34.2749 34.8714C31.3729 35.2929 28.4433 35.4947 25.511 35.475C22.0728 35.4749 19.3326 35.2242 17.1909 34.897C15.1197 34.6609 13.0953 34.117 11.1846 33.2833C11.0571 33.2276 10.9746 33.1017 10.9746 32.9625V32.5625C10.9746 32.4336 11.0455 32.3151 11.1591 32.2541ZM38.2116 38.3929C38.3147 38.5093 38.3286 38.6797 38.2459 38.8113L37.4209 40.1238C37.386 40.1793 37.3362 40.2239 37.2772 40.2525C34.3631 41.6646 30.2523 42.0251 25.635 42.1623C20.9599 42.3013 15.8221 41.0671 13.8375 40.222C13.7727 40.1944 13.7178 40.148 13.6798 40.0887L12.8798 38.8387C12.8025 38.7179 12.8067 38.5622 12.8904 38.4457C12.9741 38.3293 13.1204 38.2757 13.2595 38.3104C13.3814 38.3409 13.5515 38.3871 13.7658 38.4453C15.5138 38.9199 20.1986 40.1919 25.5643 40.225C25.5656 40.225 25.567 40.225 25.5683 40.225C25.5704 40.225 25.5725 40.225 25.5746 40.225C27.4686 40.225 30.0584 39.9683 32.4202 39.5964C34.7966 39.2223 36.8832 38.7404 37.8005 38.3084C37.9411 38.2421 38.1085 38.2766 38.2116 38.3929ZM25.5684 40.9249C25.5656 40.925 25.5628 40.925 25.5599 40.925C20.4476 40.8934 15.9389 39.7556 13.9564 39.2222L14.2104 39.6192C16.1726 40.4237 21.1167 41.5964 25.6142 41.4626C30.1969 41.3264 34.1255 40.9682 36.8822 39.6655L37.1055 39.3102C35.9514 39.6662 34.2916 40.0104 32.529 40.2879C30.147 40.663 27.5181 40.925 25.5746 40.925C25.5725 40.925 25.5705 40.925 25.5684 40.9249Z" fill="black"/>
<path fill-rule="evenodd" clip-rule="evenodd" d="M37.4363 39.6374C37.3145 39.8229 37.1895 40.0063 37.0613 40.1874C35.6429 40.6579 34.1936 41.0297 32.7238 41.2999C30.3653 41.7339 27.972 41.9514 25.5738 41.9499C20.1863 41.8749 15.7738 40.8249 13.6988 39.9249L13.5238 39.6374L13.5613 39.5874L13.8363 39.6999C17.6316 40.9575 21.6007 41.6113 25.5988 41.6374C28.0988 41.6499 30.5988 41.3499 32.6113 40.9999C35.7113 40.3749 36.9613 39.9124 37.3488 39.6999L37.4363 39.6374ZM38.1488 38.4624H38.1613C38.0708 38.6214 37.9792 38.7797 37.8863 38.9374C37.1738 39.1874 35.2238 39.7624 32.3863 40.1624C30.5113 40.4124 29.3488 40.6624 25.6363 40.7374C21.3827 40.6915 17.1555 40.0606 13.0738 38.8624L12.9238 38.5499C17.0697 39.6877 21.3385 40.3173 25.6363 40.4249C29.0363 40.3499 30.4863 40.0999 32.3363 39.8374C35.6488 39.3374 37.3113 38.7874 37.8113 38.6249C37.8075 38.6164 37.8033 38.6081 37.7988 38.5999L38.1488 38.4624Z" fill="#FFFF00"/>
<path fill-rule="evenodd" clip-rule="evenodd" d="M38.034 38.1854C38.0697 38.1704 38.1089 38.1621 38.15 38.1621H38.1625C38.2694 38.1621 38.3682 38.2189 38.4219 38.3113C38.4756 38.4037 38.4761 38.5177 38.4232 38.6105C38.332 38.7708 38.2396 38.9304 38.146 39.0893C38.1101 39.1504 38.0537 39.1967 37.9868 39.2202C37.8199 39.2788 37.5886 39.3541 37.297 39.4404L37.4375 39.6371L37.6883 39.8018C37.5646 39.9902 37.4376 40.1764 37.3074 40.3604C37.2704 40.4127 37.2177 40.4517 37.157 40.4719C35.7254 40.9467 34.2627 41.3219 32.7793 41.5947C30.4027 42.0319 27.9912 42.2511 25.5748 42.2496L25.5708 42.2496V42.2496C20.1545 42.1742 15.7008 41.1194 13.5806 40.1998C13.5238 40.1752 13.476 40.1335 13.4437 40.0806L13.2687 39.7931C13.205 39.6883 13.2114 39.5552 13.285 39.4571L13.3225 39.4071C13.3661 39.349 13.4276 39.3105 13.4946 39.2949C13.3264 39.2475 13.1583 39.1992 12.9905 39.15C12.9089 39.126 12.8413 39.0686 12.8045 38.9919L12.6545 38.6794C12.6037 38.5735 12.6194 38.4476 12.6947 38.3574C12.77 38.2671 12.8911 38.2292 13.0044 38.2603C17.1246 39.391 21.3668 40.017 25.638 40.1245C28.7089 40.0565 30.1734 39.8455 31.8029 39.6107C31.9644 39.5874 32.1275 39.5639 32.294 39.5403C35.349 39.0791 36.9862 38.5762 37.5963 38.3794C37.6234 38.3543 37.6552 38.3342 37.6903 38.3204L38.034 38.1854ZM37.0547 39.5105C36.0468 39.7962 34.4629 40.1725 32.4294 40.4592L32.4272 40.4595C32.1312 40.4989 31.8526 40.5385 31.5785 40.5773C30.1182 40.7845 28.7858 40.9736 25.6436 41.037L25.6343 41.0372L25.6343 41.0371C21.6837 40.9945 17.7559 40.4505 13.9449 39.4192C13.9443 39.419 13.9437 39.4188 13.943 39.4187M37.0547 39.5105C36.5654 39.7298 35.3047 40.1506 32.5571 40.7047C30.5566 41.0525 28.0769 41.3495 25.6017 41.3371C21.6397 41.3112 17.7063 40.664 13.9449 39.4192C13.9438 39.4188 13.9427 39.4184 13.9416 39.4181" fill="black"/>
<path fill-rule="evenodd" clip-rule="evenodd" d="M38.2246 31.6746C38.2496 35.6746 36.1996 39.2746 34.5496 40.8621C32.1259 43.2194 28.8927 44.5609 25.5121 44.6121C21.4746 44.6871 17.6746 42.0496 16.6496 40.8996C14.6496 38.6371 13.0246 35.7746 12.9746 31.8996C13.2246 27.5246 14.9371 24.4871 17.4246 22.3996C19.8316 20.4197 22.858 19.349 25.9746 19.3746C29.1496 19.4621 32.8746 21.0246 35.4371 24.1246C37.1121 26.1496 37.8496 28.3496 38.2246 31.6871V31.6746ZM25.5496 17.9746C33.2996 17.9746 39.6746 24.2871 39.6746 32.0121C39.6515 35.7431 38.1531 39.3134 35.5067 41.9435C32.8602 44.5735 29.2807 46.0497 25.5496 46.0496C17.7996 46.0496 11.4746 39.7496 11.4746 32.0121C11.4746 24.2746 17.7996 17.9746 25.5496 17.9746Z" fill="#FFFF00"/>
<path fill-rule="evenodd" clip-rule="evenodd" d="M25.55 18.325C17.9923 18.325 11.825 24.4693 11.825 32.0125C11.825 39.5557 17.9923 45.7 25.55 45.7C29.1886 45.7001 32.6795 44.2605 35.2604 41.6956C37.8409 39.131 39.3021 35.6497 39.325 32.0116C39.3245 24.4827 33.1088 18.325 25.55 18.325ZM25.55 17.625C17.6077 17.625 11.125 24.0807 11.125 32.0125C11.125 39.9443 17.6077 46.4 25.55 46.4C29.3735 46.4001 33.0418 44.8873 35.7538 42.1921C38.4658 39.4969 40.0013 35.8381 40.025 32.0147L40.025 32.0125C40.025 24.0918 33.4909 17.625 25.55 17.625ZM17.6487 22.6692C15.2412 24.6901 13.5723 27.6324 13.3251 31.9077C13.377 35.6685 14.9514 38.4499 16.9118 40.6677C17.3872 41.2008 18.5533 42.1229 20.1085 42.9028C21.6599 43.6808 23.5622 44.2987 25.506 44.2626L25.5072 44.2625C28.7985 44.2127 31.9463 42.9066 34.306 40.6116L34.3073 40.6103C35.8921 39.0856 37.8886 35.5893 37.8752 31.7085C37.5039 28.4199 36.781 26.2984 35.1678 24.3481L35.1677 24.348C32.6729 21.3298 29.0459 19.8108 25.9687 19.725C22.936 19.7008 19.9912 20.7429 17.6487 22.6692ZM38.5678 31.604C38.5724 31.6262 38.5748 31.6492 38.575 31.6728C38.6007 35.7789 36.5042 39.4676 34.7933 41.1141C32.3058 43.5331 28.9876 44.9098 25.5182 44.9625C23.4248 45.0012 21.4086 44.3379 19.7947 43.5285C18.1848 42.7212 16.9387 41.7499 16.3887 41.1329L16.3878 41.1318C14.3505 38.8271 12.6764 35.8873 12.625 31.9045C12.6249 31.8964 12.6251 31.8882 12.6256 31.88C12.8808 27.4128 14.6355 24.284 17.2 22.1319L17.2027 22.1297L17.2027 22.1297C19.6731 20.0977 22.7792 18.9987 25.9779 19.025L25.9846 19.0251L25.9846 19.0251C29.2568 19.1153 33.078 20.7213 35.7072 23.9019M38.5678 31.604C38.1869 28.2524 37.4335 25.9889 35.7073 23.902Z" fill="black"/>
<path fill-rule="evenodd" clip-rule="evenodd" d="M25.5875 17.9246C33.3375 17.9246 39.6625 24.2621 39.6625 32.0121C39.6625 39.7621 33.3375 46.0996 25.5875 46.0996C21.8521 46.0897 18.2728 44.6006 15.6327 41.9581C12.9925 39.3156 11.5066 35.735 11.5 31.9996C11.5099 28.2664 12.9973 24.689 15.6371 22.0492C18.2768 19.4094 21.8543 17.922 25.5875 17.9121V17.9246ZM11.8125 32.0121C11.8125 39.5871 18.0375 45.7871 25.5875 45.7871C33.1375 45.7871 39.35 39.5871 39.35 32.0121C39.35 24.4371 33.1375 18.2496 25.5875 18.2496C21.9404 18.2628 18.4462 19.7166 15.866 22.2943C13.2859 24.8721 11.829 28.365 11.8125 32.0121Z" fill="#FFFF00"/>
<path fill-rule="evenodd" clip-rule="evenodd" d="M25.5885 18.6C22.0339 18.613 18.6284 20.03 16.1138 22.5423C13.5992 25.0546 12.1791 28.4588 12.1629 32.0133C12.1633 39.3942 18.231 45.4375 25.5879 45.4375C32.9446 45.4375 39.0004 39.3942 39.0004 32.0125C39.0004 24.6314 32.9453 18.6003 25.5885 18.6ZM25.6817 17.5753C33.5825 17.6262 40.0129 24.1009 40.0129 32.0125C40.0129 39.9554 33.5316 46.45 25.5879 46.45L25.587 46.45C21.759 46.4398 18.091 44.9138 15.3855 42.2059C12.6799 39.4979 11.1572 35.8285 11.1504 32.0006L11.1504 31.9991C11.1605 28.1734 12.6848 24.5073 15.39 21.8021C18.0952 19.0969 21.7613 17.5726 25.587 17.5625C25.6193 17.5624 25.6511 17.5668 25.6817 17.5753Z" fill="black"/>
<path fill-rule="evenodd" clip-rule="evenodd" d="M25.6 19.0996C32.6625 19.0996 38.4875 24.9121 38.4875 31.9996C38.4875 39.0996 32.6625 44.8996 25.6 44.8996C22.1806 44.8897 18.9039 43.5279 16.4848 41.1111C14.0657 38.6944 12.7007 35.419 12.6875 31.9996C12.6875 24.9121 18.5125 19.0996 25.5875 19.0996H25.6ZM13 31.9996C13 38.9246 18.6875 44.5871 25.6 44.5871C32.5 44.5871 38.1875 38.9246 38.1875 31.9996C38.1875 25.0746 32.5 19.4121 25.5875 19.4121C18.675 19.4121 13 25.0746 13 31.9996Z" fill="#FFFF00"/>
<path fill-rule="evenodd" clip-rule="evenodd" d="M12.3379 32C12.3379 24.719 18.3198 18.75 25.5879 18.75H25.6004C32.8562 18.75 38.8379 24.7192 38.8379 32C38.8379 39.2935 32.856 45.25 25.6004 45.25L25.5994 45.25C22.0876 45.2399 18.7223 43.8412 16.2378 41.3591C13.7534 38.8771 12.3514 35.5132 12.3379 32.0013L12.3379 32ZM25.5879 19.7625C18.8685 19.7625 13.3504 25.2685 13.3504 32C13.3504 38.731 18.8805 44.2375 25.6004 44.2375C32.3075 44.2375 37.8379 38.7312 37.8379 32C37.8379 25.269 32.3078 19.7625 25.5879 19.7625Z" fill="black"/>
<path fill-rule="evenodd" clip-rule="evenodd" d="M26.1617 17.875H24.9492V46.175H26.1617V17.875Z" fill="#FFFF00"/>
<path fill-rule="evenodd" clip-rule="evenodd" d="M24.5996 17.8749C24.5996 17.6816 24.7563 17.5249 24.9496 17.5249H26.1621C26.3554 17.5249 26.5121 17.6816 26.5121 17.8749V46.1749C26.5121 46.3682 26.3554 46.5249 26.1621 46.5249H24.9496C24.7563 46.5249 24.5996 46.3682 24.5996 46.1749V17.8749ZM25.2996 18.2249V45.8249H25.8121V18.2249H25.2996Z" fill="black"/>
<path fill-rule="evenodd" clip-rule="evenodd" d="M26.0379 17.7124H26.3504V46.3374H26.0379V17.7124ZM24.8379 17.7124H25.1504V46.3374H24.8379V17.7124Z" fill="#FFFF00"/>
<path fill-rule="evenodd" clip-rule="evenodd" d="M24.4863 17.7123C24.4863 17.519 24.643 17.3623 24.8363 17.3623H25.1488C25.3421 17.3623 25.4988 17.519 25.4988 17.7123V46.3373C25.4988 46.5306 25.3421 46.6873 25.1488 46.6873H24.8363C24.643 46.6873 24.4863 46.5306 24.4863 46.3373V17.7123ZM25.6863 17.7123C25.6863 17.519 25.843 17.3623 26.0363 17.3623H26.3488C26.5421 17.3623 26.6988 17.519 26.6988 17.7123V46.3373C26.6988 46.5306 26.5421 46.6873 26.3488 46.6873H26.0363C25.843 46.6873 25.6863 46.5306 25.6863 46.3373V17.7123Z" fill="black"/>
<path fill-rule="evenodd" clip-rule="evenodd" d="M39.6742 32.5624V31.4999L38.8242 30.7124L33.9867 29.4249L27.0117 28.7124L18.6367 29.1374L12.6492 30.5624L11.4492 31.4624V32.4999L14.4992 31.1249L21.7492 29.9999H28.7242L33.8492 30.5624L37.3992 31.4249L39.6742 32.5624Z" fill="#FFFF00"/>
<path fill-rule="evenodd" clip-rule="evenodd" d="M26.9944 28.3628C27.0121 28.3619 27.03 28.3623 27.0477 28.3641L34.0227 29.0766C34.0411 29.0785 34.0593 29.0818 34.0771 29.0866L38.9146 30.3741C38.9698 30.3888 39.0206 30.4167 39.0625 30.4556L39.9125 31.2431C39.984 31.3093 40.0246 31.4023 40.0246 31.4998V32.5623C40.0246 32.6836 39.9618 32.7963 39.8586 32.86C39.7554 32.9238 39.6266 32.9296 39.5181 32.8754L37.2785 31.7556L33.7889 30.9077L28.7055 30.3498H21.7766L14.6002 31.4634L11.5935 32.8189C11.4851 32.8677 11.3595 32.8583 11.2597 32.7938C11.1599 32.7293 11.0996 32.6186 11.0996 32.4998V31.4623C11.0996 31.3521 11.1515 31.2484 11.2396 31.1823L12.4396 30.2823C12.478 30.2535 12.5219 30.2329 12.5686 30.2218L18.5561 28.7968C18.5769 28.7919 18.598 28.7888 18.6194 28.7878L26.9944 28.3628ZM18.6869 29.4852L12.8014 30.886L11.7996 31.6373V31.9581L14.3558 30.8057C14.3845 30.7928 14.4148 30.7838 14.4459 30.7789L21.6959 29.6539C21.7137 29.6512 21.7316 29.6498 21.7496 29.6498H28.7246C28.7374 29.6498 28.7501 29.6505 28.7628 29.6519L33.8878 30.2144C33.9028 30.216 33.9176 30.2186 33.9322 30.2222L37.4822 31.0847C37.5078 31.0909 37.5326 31.1 37.5561 31.1118L39.3246 31.996V31.6527L38.6505 31.0282L33.9239 29.7702L27.0031 29.0632L18.6869 29.4852Z" fill="black"/>
<path fill-rule="evenodd" clip-rule="evenodd" d="M25.5867 29.8375C28.6428 29.825 31.6935 30.097 34.6992 30.65C37.3367 31.175 39.1992 31.8375 39.8242 32.575V32.95C39.0742 32.025 36.5742 31.35 34.6367 30.95C32.0992 30.4625 28.8867 30.15 25.5867 30.15C22.0867 30.15 18.8367 30.4875 16.3367 30.975C14.3367 31.375 11.6617 32.1625 11.3242 32.95V32.575C11.5117 32.025 13.4992 31.2125 16.2992 30.65C19.3635 30.0941 22.4725 29.8221 25.5867 29.8375ZM25.5867 28.625C28.647 28.6132 31.7017 28.8852 34.7117 29.4375C37.3367 29.9625 39.2117 30.625 39.8367 31.375V31.7375C39.0742 30.8125 36.5617 30.1375 34.6367 29.75C32.0992 29.25 28.8867 28.9375 25.5867 28.9375C22.4929 28.9279 19.4048 29.2041 16.3617 29.7625C14.4242 30.1375 11.6367 30.9625 11.3242 31.7375V31.3625C11.5117 30.825 13.5492 29.9875 16.2992 29.45C19.3631 28.8899 22.4721 28.6137 25.5867 28.625ZM25.5242 22.4625C30.7617 22.4375 35.3367 23.2 37.4242 24.275L38.1867 25.5875C36.3742 24.6125 31.4367 23.5875 25.5242 23.75C20.7117 23.775 15.5742 24.275 12.9867 25.65L13.8992 24.125C16.0242 23.025 21.0242 22.475 25.5242 22.4625Z" fill="#FFFF00"/>
<path fill-rule="evenodd" clip-rule="evenodd" d="M32.6018 23.302C30.5629 22.9833 28.1285 22.8 25.5263 22.8124L25.5256 22.8124C23.288 22.8186 20.9284 22.9585 18.8677 23.2328C16.8533 23.5009 15.1638 23.8926 14.1478 24.3917L13.8547 24.8816C15.1011 24.4132 16.6673 24.0786 18.3744 23.8468C20.6019 23.5444 23.1038 23.4126 25.5189 23.3999C28.4956 23.3184 31.2287 23.5354 33.4495 23.8966C35.0299 24.1537 36.3662 24.4861 37.3499 24.8431L37.1742 24.5407C36.1738 24.0475 34.5878 23.6124 32.6018 23.302ZM32.7099 22.6104C34.782 22.9342 36.4913 23.4006 37.5848 23.9637C37.6443 23.9943 37.6937 24.0413 37.7272 24.0991L38.4897 25.4116C38.5684 25.547 38.5475 25.7183 38.4386 25.8308C38.3297 25.9434 38.1592 25.9698 38.0213 25.8956C37.167 25.4361 35.5256 24.9435 33.3372 24.5876C31.159 24.2333 28.4685 24.0191 25.5342 24.0998L25.5264 24.1V24.0999C23.1302 24.1124 20.6586 24.2431 18.4686 24.5405C16.2697 24.8391 14.3888 25.3014 13.1514 25.959C13.0126 26.0327 12.8417 26.0049 12.7334 25.891C12.6252 25.7771 12.6061 25.605 12.6868 25.4702L13.5993 23.9452C13.6327 23.8894 13.681 23.844 13.7387 23.8141C14.8589 23.2342 16.6923 22.8161 18.7753 22.5389C20.8707 22.26 23.2609 22.1187 25.5233 22.1124C28.1584 22.0999 30.6302 22.2853 32.7099 22.6104ZM34.5688 30.0932C32.0563 29.5982 28.8669 29.2874 25.5871 29.2874L25.586 29.2874C22.5143 29.2779 19.4483 29.5521 16.427 30.1064C15.4714 30.2914 14.3089 30.587 13.3519 30.9295C12.8721 31.1011 12.4553 31.2806 12.145 31.4583C11.99 31.5471 11.8696 31.6309 11.7835 31.7073C11.7742 31.7155 11.7655 31.7235 11.7574 31.7312C12.0166 31.5837 12.3366 31.436 12.7044 31.2914C13.5989 30.9397 14.8166 30.5908 16.2307 30.3068L16.2371 30.3055L16.2371 30.3055C19.322 29.7459 22.452 29.472 25.5872 29.4874C28.6646 29.4749 31.7364 29.7489 34.7629 30.3057L34.7679 30.3066L34.7679 30.3066C36.0967 30.5711 37.2413 30.8723 38.1383 31.2045C38.6183 31.3822 39.0435 31.5744 39.3917 31.784C39.245 31.658 39.0501 31.529 38.8086 31.3998C38.4576 31.212 38.0305 31.0358 37.5588 30.8729C36.6159 30.5474 35.5238 30.2855 34.5688 30.0932ZM39.8244 32.0872C39.8681 32.0888 39.9125 32.0822 39.9554 32.0668C40.0944 32.0169 40.1871 31.8851 40.1871 31.7374V31.3749C40.1871 31.293 40.1584 31.2137 40.106 31.1508C39.7308 30.7006 39.0296 30.3217 38.1465 29.9937C37.2477 29.6599 36.1031 29.3587 34.7807 29.0942L34.7808 29.0942L34.7753 29.0932C31.7444 28.537 28.6685 28.2631 25.587 28.2749C22.4513 28.2636 19.3213 28.5417 16.2367 29.1056L16.2367 29.1056L16.2325 29.1064C14.8419 29.3782 13.6239 29.7272 12.7234 30.0803C12.2742 30.2565 11.8944 30.4374 11.609 30.6155C11.4664 30.7045 11.3396 30.7976 11.2378 30.8947C11.1395 30.9885 11.0434 31.1058 10.9941 31.2471C10.9812 31.2842 10.9746 31.3232 10.9746 31.3624V31.7374C10.9746 31.905 11.0934 32.0491 11.2579 32.081C11.2585 32.0811 11.2591 32.0812 11.2597 32.0813C11.2506 32.0899 11.2416 32.0984 11.2328 32.107C11.1348 32.2027 11.0414 32.3208 10.9933 32.462C10.9809 32.4983 10.9746 32.5365 10.9746 32.5749V32.9499C10.9746 33.1161 11.0915 33.2594 11.2542 33.2928C11.417 33.3262 11.5809 33.2405 11.6463 33.0878C11.6824 33.0035 11.8221 32.8549 12.1444 32.6682C12.4482 32.4922 12.8549 32.3157 13.3258 32.1465C14.2653 31.8088 15.416 31.5161 16.405 31.3183C18.8812 30.8355 22.1083 30.4999 25.5871 30.4999C28.866 30.4999 32.0553 30.8105 34.5687 31.2932C35.5303 31.4918 36.6218 31.7567 37.5611 32.0836C38.0312 32.2472 38.4559 32.4237 38.804 32.6115C39.1566 32.8017 39.4073 32.991 39.5527 33.1703C39.6461 33.2855 39.8018 33.3293 39.9415 33.2798C40.0812 33.2303 40.1746 33.0981 40.1746 32.9499V32.5749C40.1746 32.492 40.1452 32.4119 40.0916 32.3486C40.0155 32.2588 39.926 32.1717 39.8244 32.0872Z" fill="black"/>
<path fill-rule="evenodd" clip-rule="evenodd" d="M25.5879 23.55C28.5879 23.55 31.4629 23.7125 33.7629 24.125C35.9004 24.525 37.9504 25.125 38.2379 25.45L38.4629 25.85C37.7504 25.3875 35.9879 24.8625 33.7129 24.4375C31.0266 24.0096 28.3075 23.8214 25.5879 23.875C22.2129 23.875 19.5879 24.0375 17.3379 24.4375C14.9629 24.875 13.3129 25.5125 12.9004 25.8125L13.1254 25.4C13.9129 24.9875 15.1754 24.5 17.2879 24.125C19.6129 23.7 22.2504 23.575 25.5879 23.55ZM25.5879 22.35C28.2279 22.3084 30.8667 22.4924 33.4754 22.9C35.2129 23.2375 36.9254 23.7625 37.5629 24.225L37.8879 24.75C37.3254 24.125 35.2129 23.5375 33.3379 23.2125C31.1629 22.8375 28.4504 22.6875 25.5879 22.6625C22.5879 22.6625 19.8129 22.85 17.6629 23.2375C15.6129 23.6375 14.2879 24.1 13.7254 24.4625L14.0129 24.0125C14.7879 23.6125 16.0379 23.2375 17.6129 22.925C19.7754 22.5375 22.5754 22.35 25.5879 22.35ZM32.5879 37.8625C30.2767 37.464 27.9326 37.2882 25.5879 37.3375C16.8504 37.4375 14.0379 39.125 13.6879 39.6375L13.0379 38.575C15.2504 36.9625 20.0004 36.0625 25.6254 36.15C28.5379 36.2 31.0504 36.4 33.1754 36.8L32.5754 37.8625" fill="#FFFF00"/>
<path fill-rule="evenodd" clip-rule="evenodd" d="M33.2769 23.5573C34.2032 23.7179 35.1836 23.9426 35.9972 24.2021C36.2525 24.2835 36.4889 24.3676 36.7003 24.4531C35.8859 24.217 34.8651 23.9754 33.8257 23.7808L33.8231 23.7804C31.4938 23.3626 28.5954 23.1999 25.5863 23.1999C25.5852 23.1999 25.584 23.1999 25.5828 23.1999C25.5831 23.1999 25.5834 23.1999 25.5837 23.1999M25.5828 23.1999C22.2425 23.2249 19.5803 23.3499 17.2243 23.7804C16.2231 23.9582 15.4062 24.1616 14.7359 24.3721C15.4106 24.119 16.406 23.839 17.7259 23.5814C19.8472 23.1993 22.5981 23.0124 25.5848 23.0124C28.44 23.0374 31.1297 23.1871 33.2766 23.5572M38.154 24.9755C38.2497 24.8622 38.2651 24.6968 38.1839 24.5657L37.8589 24.0407C37.835 24.002 37.8037 23.9683 37.7669 23.9416C37.399 23.6747 36.7641 23.4142 36.0365 23.1821C35.2964 22.946 34.4204 22.7272 33.5406 22.5563L33.5406 22.5561L33.5279 22.5541C30.9004 22.1436 28.2426 21.9582 25.5836 21.9999C25.5845 21.9999 25.5854 21.9999 25.5863 21.9999V22.3124C25.5861 22.3124 25.5859 22.3124 25.5858 22.3124L25.5808 21.9999C25.5818 21.9999 25.5827 21.9999 25.5836 21.9999M13.5977 24.7889C13.5534 24.7718 13.5122 24.7455 13.4768 24.7104C13.3603 24.5942 13.3403 24.4126 13.4289 24.2739L13.7164 23.8239C13.7496 23.7719 13.796 23.7297 13.8508 23.7014C14.6703 23.2784 15.9591 22.8959 17.5432 22.5816L17.5496 22.5803L17.5496 22.5804C19.7393 22.188 22.5607 22 25.5836 21.9999M13.5977 24.7889C13.3586 24.8911 13.148 24.9921 12.9614 25.0898C12.9001 25.122 12.8497 25.1715 12.8166 25.2323L12.5916 25.6448C12.5132 25.7885 12.5449 25.9673 12.6679 26.0754C12.7909 26.1834 12.9723 26.1917 13.1047 26.0954C13.2624 25.9807 13.7308 25.7602 14.4915 25.5088C15.2363 25.2625 16.2267 24.9977 17.3987 24.7818C19.6196 24.3871 22.2212 24.2249 25.5863 24.2249V24.2249L25.5932 24.2248C28.2906 24.1716 30.9873 24.3582 33.6517 24.7823C34.7787 24.993 35.7741 25.2275 36.5725 25.465C37.3812 25.7056 37.9591 25.9411 38.2708 26.1435C38.4059 26.2312 38.5834 26.2153 38.7009 26.1051C38.8183 25.9948 38.8454 25.8187 38.7664 25.6783L38.5414 25.2783C38.5293 25.2567 38.5149 25.2365 38.4985 25.218C38.4214 25.1308 38.3143 25.0624 38.2179 25.0094C38.1974 24.9981 38.1761 24.9868 38.154 24.9755M25.2372 23.5255C22.0216 23.5364 19.4792 23.7014 17.2805 24.0918ZM13.5084 38.6758L13.7626 39.0913C13.909 38.9851 14.09 38.8753 14.3042 38.7648C14.7803 38.5192 15.4619 38.249 16.3995 37.9949C18.2746 37.4867 21.1925 37.0378 25.5807 36.9874C27.8611 36.9396 30.1409 37.1026 32.391 37.4744L32.6264 37.0576C30.6316 36.7196 28.3002 36.5459 25.6178 36.4998C22.8243 36.4564 20.2552 36.6584 18.1163 37.0686C16.1427 37.4471 14.5625 37.9978 13.5084 38.6758ZM32.9243 37.9536L33.4786 36.972C33.5341 36.8737 33.5388 36.7546 33.4912 36.6523C33.4436 36.5499 33.3495 36.4768 33.2386 36.4559C31.087 36.0509 28.5531 35.8501 25.6299 35.7999L25.6293 35.7999C22.7981 35.7559 20.1798 35.9601 17.9845 36.3811C15.7974 36.8006 13.9976 37.4412 12.8302 38.292C12.6828 38.3994 12.6426 38.602 12.7378 38.7575L13.3878 39.82C13.4498 39.9213 13.5589 39.9843 13.6776 39.9873C13.7963 39.9902 13.9084 39.9328 13.9754 39.8348C14.0116 39.7818 14.1869 39.613 14.6251 39.3869C15.0478 39.1688 15.6811 38.9148 16.5826 38.6705C18.3854 38.1819 21.242 37.7371 25.5903 37.6874L25.5937 37.6873C27.899 37.6388 30.2036 37.8101 32.4764 38.1986C32.5106 38.2086 32.5456 38.213 32.5803 38.2124C32.7395 38.2153 32.8825 38.1091 32.9243 37.9536Z" fill="black"/>
<path fill-rule="evenodd" clip-rule="evenodd" d="M25.5371 37.1871C27.9621 37.2246 30.3496 37.3121 32.6621 37.7496L32.4871 38.0496C30.1965 37.6541 27.8738 37.4741 25.5496 37.5121C22.3246 37.4871 19.0496 37.7871 16.2246 38.5996C15.3246 38.8496 13.8496 39.4246 13.6871 39.8996L13.5246 39.6246C13.5746 39.3496 14.4746 38.7621 16.1496 38.2996C19.3996 37.3621 22.4371 37.2121 25.5246 37.1746L25.5371 37.1871ZM25.6496 35.9621C28.2099 35.9597 30.7655 36.1814 33.2871 36.6246L33.1121 36.9371C30.6546 36.4876 28.1603 36.2699 25.6621 36.2871C22.4246 36.2871 18.9996 36.5246 15.8746 37.4246C14.8746 37.7246 13.1246 38.3496 13.0746 38.8496L12.9121 38.5621C12.9496 38.1121 14.4496 37.5121 15.8121 37.1121C19.0217 36.2726 22.3329 35.8855 25.6496 35.9621Z" fill="#FFFF00"/>
<path fill-rule="evenodd" clip-rule="evenodd" d="M25.6483 35.9873C25.6485 35.9873 25.6487 35.9873 25.6489 35.9873L25.6488 35.9623L25.6483 35.9873ZM25.6521 35.6623C22.3087 35.5854 18.9709 35.9758 15.7354 36.8221L15.7354 36.822L15.7268 36.8245C15.0379 37.0267 14.3066 37.2816 13.7378 37.5466C13.4547 37.6785 13.1997 37.8185 13.0083 37.9624C12.9126 38.0344 12.8237 38.1141 12.7548 38.2021C12.6869 38.2886 12.6237 38.4019 12.6124 38.5374C12.6074 38.5974 12.6205 38.6575 12.6502 38.7099L12.8127 38.9974C12.877 39.1113 13.0076 39.1703 13.1356 39.1434C13.2609 39.117 13.3553 39.0142 13.3714 38.8878C13.3736 38.8832 13.3803 38.8705 13.398 38.8494C13.4303 38.8105 13.4847 38.7608 13.5664 38.7024C13.7295 38.5856 13.9636 38.4607 14.2408 38.3358C14.7919 38.0876 15.4644 37.8609 15.9584 37.7126C19.0437 36.8244 22.4358 36.5873 25.6613 36.5873L25.6634 36.5873C28.1428 36.5703 30.6183 36.7862 33.0573 37.2324C33.1835 37.2555 33.3104 37.1958 33.3731 37.0839L33.5481 36.7714C33.5956 36.6866 33.599 36.584 33.5573 36.4962C33.5157 36.4084 33.434 36.3462 33.3383 36.3294C30.8006 35.8833 28.2287 35.6601 25.6521 35.6623ZM25.6613 36.2623C28.1249 36.2607 30.584 36.4679 33.0122 36.8818L33.1113 36.9373L33.1182 36.9C33.1569 36.9067 33.1957 36.9135 33.2344 36.9203L33.2863 36.6248L33.0246 36.4782L32.9541 36.6042C30.5468 36.1771 28.1054 35.9706 25.6603 35.9873M25.6134 36.8885C28.0153 36.9267 30.4005 37.0168 32.7171 37.4551C32.8129 37.4732 32.8938 37.5367 32.9343 37.6253C32.9747 37.714 32.9696 37.8168 32.9205 37.901L32.7455 38.201C32.6824 38.3092 32.5587 38.3668 32.4353 38.3454C30.1631 37.9531 27.8592 37.7746 25.5537 37.8123L25.5465 37.8124L25.5465 37.8123C22.3387 37.7874 19.0947 38.0863 16.3067 38.8881L16.3041 38.8889L16.3041 38.8889C15.867 39.0103 15.2893 39.2111 14.8055 39.4372C14.563 39.5505 14.3533 39.666 14.1987 39.7759C14.0304 39.8956 13.978 39.9739 13.9702 39.9969C13.9323 40.1077 13.8334 40.1863 13.7169 40.1983C13.6004 40.2102 13.4876 40.1532 13.428 40.0524L13.2655 39.7774C13.2289 39.7153 13.2158 39.6421 13.2287 39.5711C13.2466 39.4726 13.2956 39.3898 13.3428 39.3272C13.3923 39.2617 13.4546 39.1989 13.5241 39.1392C13.663 39.0199 13.8521 38.8947 14.0839 38.7689C14.5486 38.5168 15.2141 38.2468 16.0673 38.0111C19.3569 37.0624 22.427 36.9124 25.5202 36.8748C25.5521 36.8745 25.5835 36.8792 25.6134 36.8885Z" fill="black"/>
<path fill-rule="evenodd" clip-rule="evenodd" d="M38.0492 38.7371L36.9992 40.3621L33.9867 37.6871L26.1617 32.4371L17.3492 27.5871L12.7617 26.0246L13.7367 24.2121L14.0742 24.0371L16.9242 24.7496L26.2992 29.5871L31.7117 32.9996L36.2492 36.2496L38.0992 38.3871L38.0492 38.7371Z" fill="#FFFF00"/>
<path fill-rule="evenodd" clip-rule="evenodd" d="M13.9135 23.7268C13.9892 23.6875 14.0767 23.6773 14.1595 23.698L17.0095 24.4105C17.0357 24.417 17.0611 24.4266 17.0851 24.439L26.4601 29.2765C26.469 29.2811 26.4778 29.2861 26.4863 29.2914L31.8988 32.7039C31.9046 32.7076 31.9103 32.7114 31.9159 32.7155L36.4534 35.9655C36.4758 35.9815 36.4962 36.0001 36.5142 36.021L38.3642 38.1585C38.4306 38.2351 38.4604 38.3367 38.4461 38.437L38.3961 38.787C38.3889 38.8371 38.371 38.885 38.3436 38.9274L37.2936 40.5525C37.2382 40.6382 37.1481 40.6955 37.0469 40.7093C36.9457 40.7231 36.8436 40.692 36.7672 40.6242L33.7724 37.9649L25.9799 32.7367L17.2077 27.9089L12.6493 26.3563C12.5519 26.3231 12.474 26.2488 12.4364 26.153C12.3987 26.0573 12.4051 25.9498 12.4539 25.8592L13.4289 24.0467C13.4622 23.9847 13.5135 23.9342 13.576 23.9018L13.9135 23.7268ZM14.1182 24.4092L13.9942 24.4735L13.2661 25.8269L17.4625 27.2562C17.4818 27.2628 17.5005 27.271 17.5184 27.2809L26.3309 32.1309C26.3398 32.1358 26.3486 32.1411 26.3571 32.1469L34.1821 37.3969C34.1952 37.4056 34.2077 37.4153 34.2195 37.4258L36.927 39.83L37.714 38.612L37.7306 38.4959L36.0121 36.5104L31.5167 33.2906L26.1257 29.8916L16.8003 25.0797L14.1182 24.4092Z" fill="black"/>
<path fill-rule="evenodd" clip-rule="evenodd" d="M12.5988 26.0624C13.4113 25.5249 19.3113 28.1499 25.4738 31.8749C31.6363 35.6124 37.5238 39.8249 36.9988 40.6249L36.8238 40.8874L36.7363 40.9499C36.7613 40.9499 36.8488 40.8249 36.7363 40.5374C36.4613 39.6749 32.2988 36.3499 25.3613 32.1624C18.6113 28.1374 12.9863 25.7124 12.4238 26.4124L12.5988 26.0624ZM38.2613 38.7124C38.7613 37.7124 33.2988 33.5874 26.5113 29.5749C19.5738 25.6374 14.5613 23.3249 13.6488 24.0124L13.4488 24.3874C13.4488 24.3999 13.4488 24.3624 13.4988 24.3249C13.6613 24.1874 13.9363 24.1999 14.0613 24.1999C15.6363 24.2124 20.1363 26.2749 26.4363 29.8999C29.1988 31.4999 38.1113 37.2249 38.0738 38.8249C38.0738 38.9624 38.0863 38.9874 38.0363 39.0624L38.2613 38.7124Z" fill="#FFFF00"/>
<path fill-rule="evenodd" clip-rule="evenodd" d="M17.9622 24.7389C20.2127 25.7303 23.2121 27.2996 26.6845 29.2704L26.6899 29.2735L26.6899 29.2735C30.0916 31.2845 33.1669 33.3268 35.3332 34.996C36.4144 35.8291 37.2803 36.5777 37.8477 37.1888C38.1299 37.4927 38.3524 37.7774 38.488 38.0331C38.6133 38.2692 38.7181 38.5823 38.5748 38.8688C38.5692 38.8801 38.563 38.891 38.5562 38.9016L38.3408 39.2366C38.3365 39.2435 38.3322 39.2501 38.328 39.2565C38.2214 39.4163 38.0058 39.4604 37.8451 39.3551C37.6939 39.2562 37.6444 39.0602 37.7252 38.9027C37.7252 38.9022 37.7252 38.9017 37.7252 38.9011C37.7248 38.8819 37.7243 38.8548 37.7243 38.8248V38.8166L37.7244 38.8166C37.7249 38.7948 37.717 38.7368 37.6659 38.6327C37.6164 38.5318 37.5367 38.4086 37.423 38.2637C37.1953 37.9737 36.8562 37.6279 36.426 37.2403C35.5672 36.4668 34.3829 35.5602 33.1023 34.6473C30.5431 32.8228 27.634 30.9977 26.2618 30.203C23.1172 28.3935 20.4273 26.9773 18.3311 26.0131C17.2827 25.5308 16.3876 25.1639 15.6614 24.9174C14.9272 24.6682 14.3953 24.5528 14.0603 24.5498C14.0598 24.5498 14.0594 24.5498 14.059 24.5498M13.1574 24.1908L13.3404 23.8476C13.3644 23.8026 13.3979 23.7634 13.4387 23.7328C13.6467 23.576 13.9214 23.5368 14.1869 23.5425C14.4625 23.5485 14.7893 23.6046 15.1555 23.6987C15.8895 23.8874 16.8387 24.2439 17.9622 24.7389M13.1574 24.1908C13.1519 24.2001 13.147 24.2093 13.1425 24.2183C13.1413 24.2205 13.1403 24.2228 13.1392 24.2249C13.113 24.275 13.0993 24.3307 13.0993 24.3873L13.0993 24.3902L13.0994 24.3997L13.0994 24.3999C13.0995 24.403 13.0999 24.4161 13.1019 24.4324C13.1029 24.4402 13.1054 24.4594 13.112 24.4831C13.1121 24.4834 13.1122 24.4838 13.1123 24.4842C13.1159 24.4973 13.1359 24.5713 13.2019 24.6372C13.2439 24.6793 13.3136 24.7265 13.4097 24.7375C13.5039 24.7483 13.5792 24.7191 13.6251 24.6925C13.6936 24.6527 13.7308 24.5992 13.7415 24.5827M12.5378 25.9694C12.5243 25.9724 12.511 25.9756 12.4977 25.9792C12.4843 25.9828 12.4707 25.9868 12.457 25.9912L12.2862 25.9058L12.1112 26.2558C12.0312 26.4158 12.0847 26.6104 12.2353 26.7069C12.3765 26.7975 12.5604 26.7745 12.6752 26.6564C12.6762 26.6561 12.6773 26.6558 12.6785 26.6554C12.7074 26.6477 12.7627 26.6402 12.8534 26.6431C13.035 26.649 13.2973 26.6943 13.6428 26.7874C14.3297 26.9724 15.2778 27.3276 16.4316 27.8357C18.7352 28.8503 21.8156 30.4553 25.1816 32.4624C28.6423 34.5513 31.4067 36.4226 33.3372 37.8763C34.3031 38.6036 35.0557 39.223 35.581 39.7103C35.8439 39.9543 36.0451 40.1607 36.1864 40.3276C36.336 40.5044 36.3913 40.6061 36.4033 40.6436C36.4056 40.6508 36.4081 40.6579 36.4108 40.6649C36.4285 40.71 36.4365 40.7427 36.44 40.7642C36.3866 40.8497 36.3713 40.9564 36.4035 41.0566C36.4499 41.2015 36.5846 41.2998 36.7368 41.2998C36.8683 41.2998 36.9538 41.2293 36.9785 41.2077C36.9795 41.2069 36.9805 41.206 36.9814 41.2052L37.0277 41.1721C37.0622 41.1475 37.092 41.1167 37.1155 41.0815L37.2905 40.819L37.2919 40.8168C37.3909 40.6659 37.3949 40.4996 37.3667 40.3643C37.3393 40.2331 37.2776 40.1057 37.2054 39.9887C37.0605 39.7537 36.8258 39.4856 36.5322 39.1964C35.9404 38.6134 35.0458 37.8837 33.9536 37.0706C31.7654 35.4416 28.743 33.4479 25.6558 31.5756L25.6553 31.5753C22.5643 29.7069 19.5361 28.1124 17.174 27.0509C15.9942 26.5207 14.9722 26.1196 14.1876 25.8846C13.7964 25.7675 13.4524 25.688 13.1713 25.6571C13.0306 25.6416 12.8959 25.6371 12.7735 25.65C12.6544 25.6625 12.5217 25.6939 12.4062 25.7704L12.5378 25.9694Z" fill="black"/>
<path d="M17.1484 33.559C17.1505 34.663 17.3716 35.7556 17.7988 36.7737C18.226 37.7917 18.8509 38.7148 19.6373 39.4897C20.4141 40.2784 21.3393 40.9057 22.3596 41.3353C23.3799 41.7649 24.4752 41.9884 25.5822 41.9928C27.8227 41.9926 29.9714 41.1025 31.5556 39.5181C32.3392 38.739 32.9612 37.8127 33.3859 36.7925C33.8105 35.7723 34.0295 34.6783 34.0302 33.5732V22.3092L17.1484 22.2808V33.559Z" fill="white"/>
<path fill-rule="evenodd" clip-rule="evenodd" d="M16.75 21.8818L34.4282 21.9116V33.5732C34.4275 34.7307 34.1981 35.8769 33.7533 36.9455C33.3085 38.014 32.6572 38.984 31.8365 39.8001C30.1777 41.4589 27.9279 42.3908 25.582 42.391L25.5804 42.391C24.4208 42.3863 23.2736 42.1523 22.2049 41.7023C21.1371 41.2527 20.1687 40.5964 19.3555 39.7712C18.5326 38.9598 17.8786 37.9933 17.4314 36.9277C16.9838 35.8612 16.7522 34.7164 16.75 33.5597L16.75 21.8818ZM17.5464 33.5586C17.5485 34.6098 17.759 35.6502 18.1658 36.6195C18.5727 37.589 19.1677 38.4681 19.9166 39.206L19.9209 39.2102C20.6608 39.9615 21.5421 40.559 22.514 40.9683C23.4857 41.3774 24.5288 41.5903 25.5831 41.5945C27.7176 41.5941 29.7645 40.7459 31.2737 39.2365L31.2746 39.2357C32.021 38.4935 32.6135 37.6112 33.018 36.6394C33.4225 35.6677 33.6311 34.6256 33.6318 33.5729V22.7067L17.5464 22.6796V33.5586Z" fill="black"/>
<path d="M17.4609 33.5731C17.4639 34.6321 17.6766 35.6801 18.0867 36.6565C18.4968 37.6329 19.0962 38.5184 19.8503 39.262C21.3645 40.7841 23.4206 41.6434 25.5676 41.6513C27.7108 41.6525 29.767 40.8034 31.285 39.2904C32.0365 38.5457 32.6332 37.6596 33.0409 36.6833C33.4485 35.7069 33.6589 34.6596 33.6601 33.6015V22.6504H17.4894V33.5731H17.4609ZM30.4316 25.9357V32.8904L30.4174 33.6157C30.4222 34.2511 30.2987 34.8809 30.0543 35.4674C29.8099 36.0539 29.4497 36.5851 28.9952 37.0291C28.0907 37.9367 26.8631 38.4482 25.5818 38.4513C24.2449 38.4513 23.0645 37.8824 22.1827 37.0006C21.2752 36.0962 20.7636 34.8686 20.7605 33.5873V25.9073L30.4316 25.9357Z" fill="#FF0000"/>
<path fill-rule="evenodd" clip-rule="evenodd" d="M17.205 22.3662H33.9446V33.6018C33.9434 34.6973 33.7255 35.7821 33.3034 36.7931C32.8814 37.804 32.2636 38.7213 31.4856 39.4924C29.9143 41.0585 27.786 41.9372 25.5676 41.936C23.3457 41.9278 21.2169 41.0388 19.6497 39.4638C18.8693 38.6941 18.249 37.7775 17.8246 36.7669C17.3999 35.7558 17.1797 34.6707 17.1766 33.5742L17.1758 33.2889H17.205V22.3662ZM17.7515 33.8578C17.7883 34.7818 17.9904 35.6926 18.3491 36.5466C18.7446 37.4884 19.3227 38.3425 20.0501 39.0597L20.052 39.0616C21.513 40.5302 23.4968 41.3594 25.5683 41.3671C27.636 41.3682 29.6197 40.549 31.0842 39.0892C31.8091 38.3709 32.3853 37.5157 32.7785 36.5739C33.1716 35.6322 33.3746 34.622 33.3757 33.6015V22.9351H17.7739V33.8578H17.7515ZM20.4761 25.6223L30.7162 25.6524V32.8963L30.702 33.6178C30.7065 34.2901 30.5756 34.9565 30.317 35.5771C30.0581 36.1984 29.6767 36.761 29.1954 37.2315C28.2379 38.1916 26.9386 38.7327 25.5826 38.736C24.1613 38.736 22.9101 38.1304 21.9817 37.202C21.0209 36.2444 20.4795 34.9447 20.4761 33.5883L20.4761 25.6223ZM21.045 26.1928V33.5872C21.0481 34.793 21.5295 35.9483 22.3836 36.7994C23.2187 37.6345 24.3293 38.167 25.5816 38.1671C26.7874 38.1641 27.9427 37.6827 28.7938 36.8286L28.7965 36.8259C29.2236 36.4086 29.5622 35.9095 29.7919 35.3583C30.0215 34.8071 30.1376 34.2152 30.1331 33.6182L30.133 33.6104L30.1473 32.8879V26.2196L21.045 26.1928Z" fill="black"/>
<path d="M18.5137 25.5096C18.5279 24.7274 19.0826 24.5425 19.0826 24.5425C19.0968 24.5425 19.6941 24.7416 19.6941 25.5238H18.5137" fill="#FFFF00"/>
<path d="M18.0303 24.5567L17.9307 25.4527H18.5281C18.5281 24.7131 19.097 24.5994 19.097 24.5994C19.1112 24.5994 19.6658 24.7558 19.6801 25.4527H20.2774L20.1636 24.5425H18.0303V24.5567ZM17.8881 25.4669H20.3058C20.3485 25.4669 20.3912 25.5096 20.3912 25.5665C20.3912 25.6376 20.3485 25.6803 20.3058 25.6803H17.8881C17.8454 25.6803 17.8027 25.6376 17.8027 25.5665C17.8027 25.5096 17.8454 25.4669 17.9023 25.4669H17.8881Z" fill="#FFFF00"/>
<path fill-rule="evenodd" clip-rule="evenodd" d="M17.7451 24.2578H20.414L20.5406 25.2702C20.6263 25.3454 20.6749 25.4582 20.6749 25.5663C20.6749 25.7384 20.5556 25.9645 20.3051 25.9645H17.8874C17.6369 25.9645 17.5176 25.7384 17.5176 25.5663C17.5176 25.442 17.5749 25.3325 17.6649 25.2626L17.7451 24.5407V24.2578ZM18.2858 24.8267L18.2478 25.168H18.2688C18.2939 25.0371 18.336 24.9239 18.3888 24.8267H18.2858ZM19.0915 24.9025C19.0631 24.9165 19.0295 24.9367 18.996 24.9652C18.9477 25.0063 18.8898 25.0723 18.852 25.1823H19.3429C19.3039 25.0863 19.2491 25.0217 19.199 24.9772C19.161 24.9435 19.123 24.9192 19.0915 24.9025ZM19.9545 25.168L19.9118 24.8267H19.8009C19.857 24.9239 19.903 25.0371 19.9317 25.168H19.9545Z" fill="black"/>
<path d="M18.7696 25.4527C18.7696 24.9834 19.0967 24.8554 19.0967 24.8554C19.0967 24.8554 19.4238 24.9976 19.4238 25.4527H18.7696ZM17.9447 24.1727H20.2629C20.3056 24.1727 20.3483 24.2296 20.3483 24.2865C20.3483 24.3291 20.3056 24.3718 20.2629 24.3718H17.9447C17.902 24.3718 17.8594 24.3291 17.8594 24.2723C17.8594 24.2296 17.902 24.1869 17.9447 24.1869V24.1727ZM18.0016 24.386H20.1918C20.2345 24.386 20.2772 24.4287 20.2772 24.4856C20.2772 24.5425 20.2345 24.5851 20.1918 24.5851H17.9874C17.9305 24.5851 17.902 24.5425 17.902 24.4856C17.902 24.4287 17.9305 24.386 17.9874 24.386H18.0016ZM18.7127 22.8785H18.8834V22.9923H19.0114V22.8785H19.1963V23.0065H19.3243V22.8643H19.4949V23.1487C19.4949 23.2056 19.4665 23.234 19.4238 23.234H18.798C18.7554 23.234 18.7127 23.2056 18.7127 23.1629V22.8785ZM19.3669 23.2625L19.4096 24.1727H18.798L18.8407 23.2483H19.3669" fill="#FFFF00"/>
<path fill-rule="evenodd" clip-rule="evenodd" d="M18.5471 23.4247C18.4824 23.3676 18.4276 23.2777 18.4276 23.1627V22.5938H19.0391V22.5796H19.7787V23.1485C19.7787 23.2212 19.7605 23.3178 19.6887 23.3998C19.6792 23.4107 19.6692 23.4208 19.6588 23.43L19.6803 23.888H20.2622C20.4088 23.888 20.5045 23.9788 20.5484 24.0374C20.5977 24.1031 20.632 24.1904 20.632 24.2863C20.632 24.3733 20.6004 24.4464 20.5606 24.501C20.5528 24.6814 20.4119 24.8694 20.1911 24.8694H19.5319C19.6296 25.0071 19.7076 25.199 19.7076 25.4525V25.7369H18.4844V25.4525C18.4844 25.199 18.5589 25.0076 18.6559 24.8694H17.9867C17.8796 24.8694 17.7735 24.8253 17.7006 24.7342C17.6345 24.6516 17.6169 24.5572 17.6169 24.4854C17.6169 24.4744 17.6173 24.463 17.6182 24.4511C17.5896 24.395 17.5742 24.3327 17.5742 24.272C17.5742 24.1751 17.6134 24.0955 17.6596 24.0394V23.888H18.5257L18.5471 23.4247ZM19.1029 23.7204L19.0952 23.888H19.1108L19.1029 23.7204Z" fill="black"/>
<path d="M18.6275 23.689V24.1725H18.0586V23.689H18.6275Z" fill="#FFFF00"/>
<path fill-rule="evenodd" clip-rule="evenodd" d="M17.7734 23.4043H18.9112V24.4567H17.7734V23.4043Z" fill="black"/>
<path d="M17.959 23.3193H18.1297V23.4616H18.2577V23.3193H18.4283V23.4616H18.5563V23.3193H18.727V23.6038C18.727 23.6607 18.6985 23.6891 18.6559 23.6891H18.0443C18.0217 23.6891 18 23.6801 17.984 23.6641C17.968 23.6481 17.959 23.6264 17.959 23.6038V23.3193Z" fill="#FFFF00"/>
<path fill-rule="evenodd" clip-rule="evenodd" d="M17.9583 23.3191H17.6738V23.6036C17.6738 23.7016 17.7128 23.7957 17.7821 23.865C17.8515 23.9344 17.9455 23.9733 18.0436 23.9733H18.6552C18.7426 23.9733 18.8447 23.9418 18.9208 23.8549C18.9925 23.7729 19.0107 23.6763 19.0107 23.6036V23.0347H17.9583V23.3191Z" fill="black"/>
<path d="M19.0391 23.5469C19.0391 23.4616 19.1671 23.4616 19.1671 23.5469V23.7745H19.0391V23.5469Z" fill="black"/>
<path d="M18.2852 23.8594C18.2852 23.7741 18.3989 23.7741 18.3989 23.8594V24.0301H18.2852V23.8594Z" fill="black"/>
<path d="M24.543 32.3358C24.5404 32.636 24.6523 32.9259 24.8559 33.1465C24.9509 33.2527 25.067 33.3379 25.1968 33.3967C25.3266 33.4555 25.4672 33.4865 25.6097 33.4878C25.9083 33.4878 26.1786 33.3456 26.3635 33.1465C26.567 32.9259 26.6789 32.636 26.6763 32.3358V30.7998H24.543V32.3358Z" fill="#003399"/>
<path d="M25.0415 31.5961C25.1593 31.5961 25.2548 31.5006 25.2548 31.3828C25.2548 31.2649 25.1593 31.1694 25.0415 31.1694C24.9236 31.1694 24.8281 31.2649 24.8281 31.3828C24.8281 31.5006 24.9236 31.5961 25.0415 31.5961Z" fill="white"/>
<path d="M26.2211 31.5961C26.339 31.5961 26.4345 31.5006 26.4345 31.3828C26.4345 31.2649 26.339 31.1694 26.2211 31.1694C26.1033 31.1694 26.0078 31.2649 26.0078 31.3828C26.0078 31.5006 26.1033 31.5961 26.2211 31.5961Z" fill="white"/>
<path d="M25.6235 32.165C25.7413 32.165 25.8368 32.0694 25.8368 31.9516C25.8368 31.8338 25.7413 31.7383 25.6235 31.7383C25.5057 31.7383 25.4102 31.8338 25.4102 31.9516C25.4102 32.0694 25.5057 32.165 25.6235 32.165Z" fill="white"/>
<path d="M25.0415 32.7626C25.1593 32.7626 25.2548 32.6671 25.2548 32.5493C25.2548 32.4315 25.1593 32.3359 25.0415 32.3359C24.9236 32.3359 24.8281 32.4315 24.8281 32.5493C24.8281 32.6671 24.9236 32.7626 25.0415 32.7626Z" fill="white"/>
<path d="M26.2211 32.7626C26.339 32.7626 26.4345 32.6671 26.4345 32.5493C26.4345 32.4315 26.339 32.3359 26.2211 32.3359C26.1033 32.3359 26.0078 32.4315 26.0078 32.5493C26.0078 32.6671 26.1033 32.7626 26.2211 32.7626Z" fill="white"/>
</g>
<path d="M32 60C16.536 60 4 47.464 4 32H-4C-4 51.8823 12.1177 68 32 68V60ZM60 32C60 47.464 47.464 60 32 60V68C51.8823 68 68 51.8823 68 32H60ZM32 4C47.464 4 60 16.536 60 32H68C68 12.1177 51.8823 -4 32 -4V4ZM32 -4C12.1177 -4 -4 12.1177 -4 32H4C4 16.536 16.536 4 32 4V-4Z" fill="white"/>
<defs>
<clipPath id="clip0">
<path d="M0 32C0 14.3269 14.3269 0 32 0V0C49.6731 0 64 14.3269 64 32V32C64 49.6731 49.6731 64 32 64V64C14.3269 64 0 49.6731 0 32V32Z" fill="white"/>
</clipPath>
</defs>
</svg>
