<svg width="64" height="64" viewBox="0 0 64 64" fill="none" xmlns="http://www.w3.org/2000/svg">
<path d="M0 0H64V64H0V0Z" fill="white"/>
<path d="M0 0H64V19.2H0V0Z" fill="black"/>
<path d="M0 44.7998H64V63.9998H0V44.7998Z" fill="#006600"/>
<path d="M20.5352 51.0001L21.2552 51.4001L39.9352 19.0001C41.0152 18.7601 41.6152 17.7201 42.2152 16.6801C42.6152 15.9601 44.2152 13.2001 44.8952 9.6001C42.9975 11.2865 41.3894 13.2729 40.1352 15.4801C39.5352 16.5201 38.9352 17.5601 39.2152 18.6401L20.5352 51.0001Z" fill="black"/>
<path fill-rule="evenodd" clip-rule="evenodd" d="M47.3374 5.28906L46.467 9.89708C45.7658 13.6095 44.1607 16.4787 43.6716 17.353C43.6499 17.3917 43.6305 17.4264 43.6134 17.4571L43.6072 17.4684L43.6007 17.4797C43.5908 17.4968 43.5808 17.5141 43.5707 17.5316C43.2917 18.0156 42.9278 18.6468 42.4696 19.1814C42.1074 19.6039 41.6373 20.0266 41.0264 20.3101L21.8544 53.5635L18.3359 51.6088L37.5513 18.3215C37.5093 17.647 37.6492 17.0286 37.8403 16.5006C38.079 15.841 38.4398 15.2159 38.7203 14.73C38.7291 14.7148 38.7378 14.6998 38.7464 14.6849C40.0867 12.3273 41.8047 10.2056 43.832 8.4041L47.3374 5.28906Z" fill="black"/>
<path d="M20.5352 51.0001L21.2552 51.4001L39.9352 19.0001C41.0152 18.7601 41.6152 17.7201 42.2152 16.6801C42.6152 15.9601 44.2152 13.2001 44.8952 9.6001C42.9975 11.2865 41.3894 13.2729 40.1352 15.4801C39.5352 16.5201 38.9352 17.5601 39.2152 18.6401L20.5352 51.0001Z" fill="white"/>
<path d="M31.975 12.7998C29.575 12.7998 25.575 19.1998 24.375 22.3998H0V41.5998H24.375C25.5875 44.7998 29.5875 51.1998 31.9875 51.1998C34.3875 51.1998 38.3875 44.7998 39.5875 41.5998H64V22.3998H39.575C38.375 19.1998 34.375 12.7998 31.975 12.7998Z" fill="#BB0000"/>
<path d="M39.5742 41.5999C40.8106 38.5456 41.4881 35.2939 41.5742 31.9999C41.4881 28.7059 40.8106 25.4542 39.5742 22.3999C38.3378 25.4542 37.6604 28.7059 37.5742 31.9999C37.6604 35.2939 38.3378 38.5456 39.5742 41.5999Z" fill="black"/>
<path d="M31.975 34.4001C32.8587 34.4001 33.575 33.3256 33.575 32.0001C33.575 30.6746 32.8587 29.6001 31.975 29.6001C31.0913 29.6001 30.375 30.6746 30.375 32.0001C30.375 33.3256 31.0913 34.4001 31.975 34.4001Z" fill="white"/>
<path d="M32.375 34.3203C32.375 34.3203 33.975 37.5203 33.975 42.7203C33.975 47.9203 32.375 51.1203 32.375 51.1203V34.3203Z" fill="white"/>
<path d="M32 60C16.536 60 4 47.464 4 32H-4C-4 51.8823 12.1177 68 32 68V60ZM60 32C60 47.464 47.464 60 32 60V68C51.8823 68 68 51.8823 68 32H60ZM32 4C47.464 4 60 16.536 60 32H68C68 12.1177 51.8823 -4 32 -4V4ZM32 -4C12.1177 -4 -4 12.1177 -4 32H4C4 16.536 16.536 4 32 4V-4Z" fill="white"/>
</svg>
