<svg width="64" height="64" viewBox="0 0 64 64" fill="none" xmlns="http://www.w3.org/2000/svg">
<path fill-rule="evenodd" clip-rule="evenodd" d="M0 0H64V64H0V0Z" fill="#E30A17"/>
<path fill-rule="evenodd" clip-rule="evenodd" d="M43.5992 33.0002C43.5992 41.8252 36.3117 48.9877 27.3367 48.9877C18.3617 48.9877 11.0742 41.8252 11.0742 32.9877C11.0742 24.1502 18.3492 17.0127 27.3242 17.0127C36.2992 17.0127 43.6117 24.1627 43.6117 33.0002H43.5992Z" fill="white"/>
<path fill-rule="evenodd" clip-rule="evenodd" d="M44.4129 32.9999C44.4129 40.0624 38.5879 45.7874 31.4004 45.7874C24.2129 45.7874 18.4004 40.0624 18.4004 32.9999C18.4004 25.9374 24.2129 20.2124 31.4004 20.2124C38.5879 20.2124 44.4004 25.9374 44.4004 32.9999H44.4129Z" fill="#E30A17"/>
<path fill-rule="evenodd" clip-rule="evenodd" d="M46.7633 25.5249L46.6383 31.4374L41.1133 32.9374L46.5508 34.8749L46.4258 40.2874L49.9633 36.0624L55.3258 37.9124L52.2258 33.3749L56.0008 28.8624L50.2008 30.4624L46.7633 25.5249Z" fill="white"/>
<path d="M32 60C16.536 60 4 47.464 4 32H-4C-4 51.8823 12.1177 68 32 68V60ZM60 32C60 47.464 47.464 60 32 60V68C51.8823 68 68 51.8823 68 32H60ZM32 4C47.464 4 60 16.536 60 32H68C68 12.1177 51.8823 -4 32 -4V4ZM32 -4C12.1177 -4 -4 12.1177 -4 32H4C4 16.536 16.536 4 32 4V-4Z" fill="white"/>
</svg>
