<svg width="64" height="64" viewBox="0 0 64 64" fill="none" xmlns="http://www.w3.org/2000/svg">
<g clip-path="url(#clip0)">
<path d="M-32 0H96V64H-32V0Z" fill="#012169"/>
<path d="M-32 0V7.1552L81.6896 64H96V56.8448L-17.6896 0.0128H-32V0ZM96 0V7.1552L-17.6896 64H-32V56.8448L81.6896 0H96Z" fill="white"/>
<path d="M21.3376 0V64H42.6624V0H21.3376ZM-32 21.3376V42.6624H96V21.3376H-32Z" fill="white"/>
<path d="M-32 25.6V38.4H96V25.6H-32ZM25.6 0V64H38.4V0H25.6ZM-32 64L10.6624 42.6624H20.224L-22.464 64H-32ZM-32 0L10.6624 21.3376H1.1264L-32 4.7744V0ZM43.7888 21.3376L86.464 0H96L53.3376 21.3376H43.776H43.7888ZM96.0128 64L53.3248 42.6624H62.8608L96 59.2256V64H96.0128Z" fill="#C8102E"/>
</g>
<path d="M32 60C16.536 60 4 47.464 4 32H-4C-4 51.8823 12.1177 68 32 68V60ZM60 32C60 47.464 47.464 60 32 60V68C51.8823 68 68 51.8823 68 32H60ZM32 4C47.464 4 60 16.536 60 32H68C68 12.1177 51.8823 -4 32 -4V4ZM32 -4C12.1177 -4 -4 12.1177 -4 32H4C4 16.536 16.536 4 32 4V-4Z" fill="white"/>
<defs>
<clipPath id="clip0">
<path d="M0 32C0 14.3269 14.3269 0 32 0V0C49.6731 0 64 14.3269 64 32V32C64 49.6731 49.6731 64 32 64V64C14.3269 64 0 49.6731 0 32V32Z" fill="white"/>
</clipPath>
</defs>
</svg>
