<svg width="64" height="64" viewBox="0 0 64 64" fill="none" xmlns="http://www.w3.org/2000/svg">
<g clip-path="url(#clip0)">
<path fill-rule="evenodd" clip-rule="evenodd" d="M0 0H121.601V4.92312H0V0ZM0 9.84625H121.601V14.7694H0V9.84625ZM0 19.6925H121.601V24.6156H0V19.6925ZM0 29.5387H121.601V34.4619H0V29.5387ZM0 39.385H121.601V44.3081H0V39.385ZM0 49.2313H121.601V54.1544H0V49.2313ZM0 59.0775H121.601V64.0006H0V59.0775Z" fill="#BD3D44"/>
<path fill-rule="evenodd" clip-rule="evenodd" d="M0 4.92334H121.601V9.84646H0V4.92334ZM0 14.7696H121.601V19.6927H0V14.7696ZM0 24.6158H121.601V29.539H0V24.6158ZM0 34.4621H121.601V39.3852H0V34.4621ZM0 44.3083H121.601V49.2315H0V44.3083ZM0 54.1546H121.601V59.0777H0V54.1546Z" fill="white"/>
<path fill-rule="evenodd" clip-rule="evenodd" d="M0 0H48.6405V34.4619H0V0Z" fill="#192F5D"/>
<path fill-rule="evenodd" clip-rule="evenodd" d="M4.0364 1.47705L4.52871 2.85553H5.90719L4.77487 3.69246L5.21795 5.0217L4.0364 4.18477L2.95331 5.0217L3.39639 3.69246L2.21484 2.85553H3.69178L4.0364 1.47705ZM12.1596 1.47705L12.6026 2.85553H14.0303L12.8488 3.69246L13.3411 5.0217L12.1596 4.18477L10.978 5.0217L11.4703 3.69246L10.2888 2.85553H11.7165L12.1596 1.47705ZM20.2827 1.47705L20.7258 2.85553H22.1535L20.972 3.69246L21.4643 5.0217L20.2827 4.18477L19.1012 5.0217L19.5935 3.69246L18.4119 2.85553H19.8396L20.2827 1.47705ZM28.3566 1.47705L28.849 2.85553H30.2274L29.0951 3.69246L29.5382 5.0217L28.3566 4.18477L27.2243 5.0217L27.6674 3.69246L26.4859 2.85553H27.9628L28.3566 1.47705ZM36.4798 1.47705L36.9229 2.85553H38.3506L37.169 3.69246L37.6614 5.0217L36.4306 4.18477L35.2983 5.0217L35.7413 3.69246L34.5598 2.85553H35.9875L36.4798 1.47705ZM44.603 1.47705L45.046 2.85553H46.4738L45.2922 3.69246L45.7845 5.0217L44.603 4.18477L43.4214 5.0217L43.9137 3.69246L42.7322 2.85553H44.1599L44.603 1.47705ZM8.1226 4.92324L8.56568 6.30171H9.99338L8.81183 7.13864L9.30415 8.46789L8.1226 7.63096L6.94105 8.46789L7.43336 7.13864L6.25181 6.30171H7.67951L8.1226 4.92324ZM16.1965 4.92324L16.6888 6.30171H18.0673L16.935 7.13864L17.3781 8.46789L16.1965 7.63096L15.0642 8.46789L15.5073 7.13864L14.3257 6.30171H15.8027L16.1965 4.92324ZM24.3197 4.92324L24.7628 6.30171H26.1905L25.0089 7.13864L25.5012 8.46789L24.3197 7.63096L23.1381 8.46789L23.6304 7.13864L22.4489 6.30171H23.8766L24.3197 4.92324ZM32.4428 4.92324L32.8859 6.30171H34.3136L33.1321 7.13864L33.6244 8.46789L32.4428 7.63096L31.2613 8.46789L31.7536 7.13864L30.5721 6.30171H31.9998L32.4428 4.92324ZM40.5168 4.92324L41.0091 6.30171H42.3383L41.206 7.13864L41.6491 8.46789L40.4675 7.63096L39.3352 8.46789L39.7783 7.13864L38.5967 6.30171H40.0737L40.5168 4.92324ZM4.08563 8.36942L4.47948 9.7479H5.95642L4.77487 10.5848L5.21795 11.9141L4.0364 11.0771L2.95331 11.9141L3.39639 10.5848L2.21484 9.7479H3.69178L4.08563 8.36942ZM12.1596 8.36942L12.6026 9.7479H14.0303L12.898 10.5848L13.3411 11.9141L12.1596 11.0771L11.0272 11.9141L11.4703 10.5848L10.2888 9.7479H11.7165L12.1596 8.36942ZM20.2827 8.36942L20.7258 9.7479H22.1535L20.972 10.5848L21.4643 11.9141L20.2827 11.0771L19.1012 11.9141L19.5935 10.5848L18.4119 9.7479H19.8396L20.2827 8.36942ZM28.3566 8.36942L28.849 9.7479H30.2274L29.0951 10.5848L29.5382 11.9141L28.3566 11.0771L27.2243 11.9141L27.6674 10.5848L26.4859 9.7479H27.9628L28.3566 8.36942ZM36.4798 8.36942L36.9229 9.7479H38.3506L37.2183 10.5848L37.6614 11.9141L36.4798 11.0771L35.3475 11.9141L35.7906 10.5848L34.609 9.7479H36.0367L36.4798 8.36942ZM44.603 8.36942L45.046 9.7479H46.4738L45.2922 10.5848L45.7845 11.9141L44.603 11.0771L43.4214 11.9141L43.9137 10.5848L42.7322 9.7479H44.1599L44.603 8.36942ZM8.1226 11.8156L8.56568 13.1941H9.99338L8.81183 14.031L9.30415 15.3603L8.1226 14.5233L6.94105 15.3603L7.43336 14.031L6.25181 13.1941H7.67951L8.1226 11.8156ZM16.1965 11.8156L16.6888 13.1941H18.0673L16.935 14.031L17.3781 15.3603L16.1965 14.5233L15.0642 15.3603L15.5073 14.031L14.3257 13.1941H15.8027L16.1965 11.8156ZM24.3197 11.8156L24.7628 13.1941H26.1905L25.0582 14.031L25.5012 15.3603L24.3197 14.5233L23.1874 15.3603L23.6304 14.031L22.4489 13.1941H23.8766L24.3197 11.8156ZM32.4428 11.8156L32.8859 13.1941H34.3136L33.1321 14.031L33.6244 15.3603L32.4428 14.5233L31.2613 15.3603L31.7536 14.031L30.5721 13.1941H31.9998L32.4428 11.8156ZM40.5168 11.8156L41.0091 13.1941H42.3383L41.206 14.031L41.6491 15.3603L40.4675 14.5233L39.3352 15.3603L39.7783 14.031L38.5967 13.1941H40.0737L40.5168 11.8156ZM4.08563 15.2618L4.47948 16.6403H5.95642L4.77487 17.4772L5.21795 18.8064L4.0364 17.9695L2.95331 18.8064L3.39639 17.4772L2.21484 16.6403H3.69178L4.08563 15.2618ZM12.1596 15.2618L12.6026 16.6403H14.0303L12.898 17.4772L13.3411 18.8064L12.1596 17.9695L11.0272 18.8064L11.4703 17.4772L10.2888 16.6403H11.7165L12.1596 15.2618ZM20.2827 15.2618L20.7258 16.6403H22.1535L20.972 17.4772L21.4643 18.8064L20.2827 17.9695L19.1012 18.8064L19.5935 17.4772L18.4119 16.6403H19.8396L20.2827 15.2618ZM28.3566 15.2618L28.849 16.6403H30.2274L29.0951 17.4772L29.5382 18.8064L28.3566 17.9695L27.2243 18.8064L27.6674 17.4772L26.4859 16.6403H27.9628L28.3566 15.2618ZM36.4798 15.2618L36.9229 16.6403H38.3506L37.2183 17.4772L37.6614 18.8064L36.4798 17.9695L35.3475 18.8064L35.7906 17.4772L34.609 16.6403H36.0367L36.4798 15.2618ZM44.603 15.2618L45.046 16.6403H46.4738L45.2922 17.4772L45.7845 18.8064L44.603 17.9695L43.4214 18.8064L43.9137 17.4772L42.7322 16.6403H44.1599L44.603 15.2618ZM8.1226 18.708L8.56568 20.0865H9.99338L8.81183 20.9234L9.30415 22.2526L8.1226 21.4157L6.94105 22.2526L7.43336 20.9234L6.25181 20.0865H7.67951L8.1226 18.708ZM16.1965 18.708L16.6888 20.0865H18.0673L16.935 20.9234L17.3781 22.2526L16.1965 21.4157L15.0642 22.2526L15.5073 20.9234L14.3257 20.0865H15.8027L16.1965 18.708ZM24.3197 18.708L24.7628 20.0865H26.1905L25.0582 20.9234L25.5012 22.2526L24.3197 21.4157L23.1874 22.2526L23.6304 20.9234L22.4489 20.0865H23.8766L24.3197 18.708ZM32.4428 18.708L32.8859 20.0865H34.3136L33.1321 20.9234L33.6244 22.2526L32.4428 21.4157L31.2613 22.2526L31.7536 20.9234L30.5721 20.0865H31.9998L32.4428 18.708ZM40.5168 18.708L41.0091 20.0865H42.3383L41.206 20.9234L41.6491 22.2526L40.4675 21.4157L39.3352 22.2526L39.7783 20.9234L38.5967 20.0865H40.0737L40.5168 18.708ZM4.08563 22.1542L4.47948 23.5326H5.95642L4.77487 24.3696L5.21795 25.6988L4.0364 24.8619L2.95331 25.6988L3.39639 24.3696L2.21484 23.5326H3.69178L4.08563 22.1542ZM12.1596 22.1542L12.6026 23.5326H14.0303L12.898 24.3696L13.3411 25.6988L12.1596 24.8619L11.0272 25.6988L11.4703 24.3696L10.2888 23.5326H11.7165L12.1596 22.1542ZM20.2827 22.1542L20.7258 23.5326H22.1535L20.972 24.3696L21.4643 25.6988L20.2827 24.8619L19.1012 25.6988L19.5935 24.3696L18.4119 23.5326H19.8396L20.2827 22.1542ZM28.3566 22.1542L28.849 23.5326H30.2274L29.0951 24.3696L29.5382 25.6988L28.3566 24.8619L27.2243 25.6988L27.6674 24.3696L26.4859 23.5326H27.9628L28.3566 22.1542ZM36.4798 22.1542L36.9229 23.5326H38.3506L37.2183 24.3696L37.6614 25.6988L36.4798 24.8619L35.3475 25.6988L35.7906 24.3696L34.609 23.5326H36.0367L36.4798 22.1542ZM44.603 22.1542L45.046 23.5326H46.4738L45.2922 24.3696L45.7845 25.6988L44.603 24.8619L43.4214 25.6988L43.9137 24.3696L42.7322 23.5326H44.1599L44.603 22.1542ZM8.1226 25.6004L8.56568 26.9788H9.99338L8.81183 27.8158L9.30415 29.145L8.1226 28.3081L6.94105 29.145L7.43336 27.8158L6.25181 26.9788H7.67951L8.1226 25.6004ZM16.1965 25.6004L16.6888 26.9788H18.0673L16.935 27.8158L17.3781 29.145L16.1965 28.3081L15.0642 29.145L15.5073 27.8158L14.3257 26.9788H15.8027L16.1965 25.6004ZM24.3197 25.6004L24.7628 26.9788H26.1905L25.0582 27.8158L25.5012 29.145L24.3197 28.3081L23.1874 29.145L23.6304 27.8158L22.4489 26.9788H23.8766L24.3197 25.6004ZM32.4428 25.6004L32.8859 26.9788H34.3136L33.1321 27.8158L33.6244 29.145L32.4428 28.3081L31.2613 29.145L31.7536 27.8158L30.5721 26.9788H31.9998L32.4428 25.6004ZM40.5168 25.6004L41.0091 26.9788H42.3383L41.206 27.8158L41.6491 29.145L40.4675 28.3081L39.3352 29.145L39.7783 27.8158L38.5967 26.9788H40.0737L40.5168 25.6004ZM4.08563 29.0465L4.47948 30.425H5.95642L4.77487 31.262L5.21795 32.5912L4.0364 31.7543L2.95331 32.5912L3.39639 31.262L2.21484 30.425H3.69178L4.08563 29.0465ZM12.1596 29.0465L12.6026 30.425H14.0303L12.898 31.262L13.3411 32.5912L12.1596 31.7543L11.0272 32.5912L11.4703 31.262L10.2888 30.425H11.7165L12.1596 29.0465ZM20.2827 29.0465L20.7258 30.425H22.1535L20.972 31.262L21.4643 32.5912L20.2827 31.7543L19.1012 32.5912L19.5935 31.262L18.4119 30.425H19.8396L20.2827 29.0465ZM28.3566 29.0465L28.849 30.425H30.2274L29.0951 31.262L29.5382 32.5912L28.3566 31.7543L27.2243 32.5912L27.6674 31.262L26.4859 30.425H27.9628L28.3566 29.0465ZM36.4798 29.0465L36.9229 30.425H38.3506L37.2183 31.262L37.6614 32.5912L36.4798 31.7543L35.3475 32.5912L35.7906 31.262L34.609 30.425H36.0367L36.4798 29.0465ZM44.603 29.0465L45.046 30.425H46.4738L45.2922 31.262L45.7845 32.5912L44.603 31.7543L43.4214 32.5912L43.9137 31.262L42.7322 30.425H44.1599L44.603 29.0465Z" fill="white"/>
</g>
<defs>
<clipPath id="clip0">
<path d="M0 32C0 14.3269 14.3269 0 32 0V0C49.6731 0 64 14.3269 64 32V32C64 49.6731 49.6731 64 32 64V64C14.3269 64 0 49.6731 0 32V32Z" fill="white"/>
</clipPath>
</defs>
</svg>
