<svg width="64" height="64" viewBox="0 0 64 64" fill="none" xmlns="http://www.w3.org/2000/svg">
<g clip-path="url(#clip0)">
<path fill-rule="evenodd" clip-rule="evenodd" d="M0 0H64V64H0V0Z" fill="#000099"/>
<path fill-rule="evenodd" clip-rule="evenodd" d="M9.625 0L64.25 54.625V0H9.625Z" fill="#FFCC00"/>
<path fill-rule="evenodd" clip-rule="evenodd" d="M57.6742 58.7999L54.4117 56.4124L51.0492 58.7874L52.3242 54.8874L49.0242 52.4874H53.1117L54.3867 48.6124L55.6367 52.4999L59.7367 52.5124L56.4617 54.9374L57.6742 58.7999ZM67.2617 60.0999H63.1742L61.9242 56.1999L60.6492 60.0874H56.5492L59.8492 62.4874L58.5867 66.3874L61.9367 64.0124L65.2117 66.3874L63.9867 62.5249L67.2617 60.0999ZM48.9742 47.4499L52.2492 45.0249H48.1617L46.8992 41.1249L45.6242 44.9999H41.5367L44.8367 47.4124L43.5742 51.2999L46.9242 48.9249L50.1867 51.3124L48.9742 47.4374V47.4499ZM41.4367 39.8999L44.7117 37.4749L40.6117 37.4624L39.3617 33.5624L38.0867 37.4624L33.9992 37.4499L37.2992 39.8499L36.0242 43.7499L39.3867 41.3749L42.6492 43.7624L41.4367 39.8874V39.8999ZM33.9742 32.4374L37.2492 30.0124H33.1617L31.8992 26.1124L30.6242 29.9999H26.5367L29.8367 32.3999L28.5742 36.2999L31.9242 33.9249L35.1867 36.2999L33.9742 32.4374ZM26.4242 24.8999L29.6992 22.4874L25.5992 22.4749L24.3492 18.5749L23.0742 22.4749L18.9867 22.4624L22.2867 24.8624L21.0117 28.7624L24.3742 26.3874L27.6367 28.7624L26.4242 24.9124V24.8999ZM18.9617 17.4124L22.2492 14.9999L18.1617 14.9874L16.9117 11.0874L15.6242 14.9749H11.5242L14.8242 17.3749L13.5617 21.2749L16.9117 18.8999L20.1742 21.2749L18.9617 17.4124ZM11.4617 9.9124L14.7492 7.4999L10.6617 7.4874L9.41172 3.5874L8.12422 7.4749H4.02422L7.32422 9.8749L6.06172 13.7749L9.41172 11.3999L12.6867 13.7749L11.4617 9.9124ZM3.96172 2.4124L7.24922 -9.87053e-05L3.14922 -0.0125988L1.89922 -3.9126L0.59922 -0.0250988H-3.48828L-0.17578 2.3749L-1.43828 6.2749L1.91172 3.8999L5.17422 6.2749L3.96172 2.4124Z" fill="white"/>
</g>
<defs>
<clipPath id="clip0">
<path d="M0 32C0 14.3269 14.3269 0 32 0V0C49.6731 0 64 14.3269 64 32V32C64 49.6731 49.6731 64 32 64V64C14.3269 64 0 49.6731 0 32V32Z" fill="white"/>
</clipPath>
</defs>
</svg>
