<svg width="64" height="64" viewBox="0 0 64 64" fill="none" xmlns="http://www.w3.org/2000/svg">
<path d="M0 0H64V64H0V0Z" fill="#DE2910"/>
<path d="M25.6004 13.1199L9.28039 23.6799L16.0004 6.3999L21.7604 23.6799L6.40039 13.1199H25.6004Z" fill="#FFDE00"/>
<path d="M29.572 4.13104L35.3871 6.97917L29.3003 8.02503L33.246 3.41577L32.866 9.61321L29.572 4.13104Z" fill="#FFDE00"/>
<path d="M36.9839 9.77596L41.2352 14.6657L35.2171 13.2597L40.6491 10.5472L37.8856 16.1121L36.9839 9.77596Z" fill="#FFDE00"/>
<path d="M38.3217 19.0664L40.2069 25.2692L35.2849 21.5263L41.3542 21.2682L36.5567 25.2218L38.3217 19.0664Z" fill="#FFDE00"/>
<path d="M33.2511 25.7039L32.5967 32.1471L29.5039 26.7999L35.1967 28.9023L29.2511 30.6959L33.2511 25.7039Z" fill="#FFDE00"/>
</svg>
