<svg width="64" height="64" viewBox="0 0 64 64" fill="none" xmlns="http://www.w3.org/2000/svg">
<path fill-rule="evenodd" clip-rule="evenodd" d="M0 0H64V64H0V0Z" fill="black"/>
<path fill-rule="evenodd" clip-rule="evenodd" d="M42.6621 0H63.9996V64H42.6621V0Z" fill="#009900"/>
<path fill-rule="evenodd" clip-rule="evenodd" d="M21.3379 0H42.6629V64H21.3379V0Z" fill="#BF0000"/>
<path fill-rule="evenodd" clip-rule="evenodd" d="M34.067 34.7314H34.9448C34.9448 35.0699 35.1563 35.4295 35.4207 35.6304H33.7285C33.9929 35.3978 34.067 35.1016 34.067 34.7314Z" fill="white" stroke="#BD6B00" stroke-width="0.423055"/>
<path fill-rule="evenodd" clip-rule="evenodd" d="M28.4824 29.7288L28.9689 30.2577L34.9975 30.2788L35.484 29.75L33.9398 29.7183L33.1995 29.1895H30.7669L30.0689 29.7288H28.4824Z" fill="white"/>
<path fill-rule="evenodd" clip-rule="evenodd" d="M30.9457 29.1155H33.0293C33.3043 28.9674 33.3994 28.4915 33.3994 28.2271C33.3994 27.4444 32.8389 27.0637 32.2889 27.0425C32.2043 27.0425 32.1091 26.9791 32.088 26.905C32.0351 26.7358 32.0457 26.6195 31.9822 26.6301C31.9399 26.6301 31.9505 26.7358 31.9082 26.8839C31.8764 26.9685 31.7918 27.0425 31.6966 27.0531C31.0198 27.0848 30.5755 27.5819 30.5861 28.2271C30.5967 28.6502 30.6496 28.904 30.9457 29.1155Z" fill="white" stroke="#BD6B00" stroke-width="0.423055"/>
<path fill-rule="evenodd" clip-rule="evenodd" d="M27.5301 36.5294H36.446L35.6528 35.8843H28.3128L27.5195 36.5294H27.5301Z" fill="white"/>
<path fill-rule="evenodd" clip-rule="evenodd" d="M31.622 34.0867L31.7806 34.5732H32.1508L31.8547 34.0867H31.622ZM31.4105 34.5732L31.5162 35.0597H31.9393L31.7806 34.5732H31.4105ZM32.1508 34.5732L32.4469 35.0597H33.0709L32.5844 34.5732H32.1508ZM28.502 35.6731C28.8298 35.3664 29.0413 35.1126 29.0413 34.7424H29.8452C29.8452 34.9539 29.9192 35.0703 30.0355 35.0597H30.8499V34.5838H30.2576V31.9714C30.2365 31.0407 31.3787 30.5119 31.8441 30.5119H29.0625V30.4272H34.9112V30.5119H32.1085C32.944 30.5119 33.7478 31.3051 33.7584 31.9714V32.7117H33.6526L33.6421 31.982C33.6421 31.2522 32.7219 30.5753 31.9816 30.5965C31.347 30.607 30.3528 31.2205 30.3634 31.9714V32.2041L31.8758 32.2147L31.8652 32.4791L32.0979 32.6271L32.5739 32.7752V33.1771L32.9123 33.2723V33.6636L33.3142 33.8434V34.2453L33.5786 34.404L33.568 34.8164L33.9171 35.0597H33.0921L33.6103 35.6414H32.8383L32.4575 35.0597H31.9604L32.1825 35.6308H31.6537L31.5162 35.0597H30.8605V35.6731H28.5125H28.502ZM30.8499 34.0867V34.5732H31.4105L31.3047 34.0867H30.8393H30.8499Z" fill="white" stroke="#BD6B00" stroke-width="0.423055"/>
<path fill-rule="evenodd" clip-rule="evenodd" d="M30.8828 33.2402H31.2318V34.044H30.8828V33.2402Z" stroke="#BD6B00" stroke-width="0.423055"/>
<path fill-rule="evenodd" clip-rule="evenodd" d="M30.3848 34.0972H30.7232V33.5049C30.7232 33.2511 30.9559 32.9867 31.0617 32.9761C31.1886 32.9761 31.3684 33.2194 31.3789 33.4838V34.0972H31.7385V32.5742H30.3848V34.0972V34.0972ZM33.0923 34.4462H33.5154V34.7847H33.0923V34.4462ZM32.8385 33.8857H33.2615V34.2135H32.8385V33.8857ZM32.426 33.3146H32.8491V33.6424H32.426V33.3146ZM32.077 32.8386H32.5V33.1665H32.077V32.8386Z" stroke="#BD6B00" stroke-width="0.423055"/>
<path fill-rule="evenodd" clip-rule="evenodd" d="M31.793 34.0969L32.2372 34.1181L33.0092 34.7949V34.393L32.7448 34.2027V33.8854L32.3641 33.6738V33.3248L31.9939 33.1979V32.7431L31.8141 32.5845L31.8035 34.1075L31.793 34.0969Z" stroke="#BD6B00" stroke-width="0.423055"/>
<path fill-rule="evenodd" clip-rule="evenodd" d="M33.6328 33.0923H33.7386V33.8432H33.6328V33.0923Z" fill="white" stroke="#BD6B00" stroke-width="0.423055"/>
<path fill-rule="evenodd" clip-rule="evenodd" d="M27.4866 30.5752C27.3597 30.3637 27.2011 30.8714 26.6617 31.2415C26.4184 31.4107 26.2386 31.8655 26.2386 32.1617C26.2386 32.3732 26.2598 32.5741 26.2386 32.7751C26.228 32.8914 26.0905 33.177 26.1857 33.251C26.4184 33.4203 26.7251 33.8222 26.8626 33.9596C26.9895 34.0654 27.0953 33.3991 27.1799 33.1135C27.2857 32.7962 27.2434 32.4049 27.5184 32.1194C27.7087 31.9078 28.1952 31.7175 28.1529 31.6328L27.4866 30.5752Z" fill="white" stroke="#BD6B00" stroke-width="0.423055"/>
<path fill-rule="evenodd" clip-rule="evenodd" d="M27.4551 32.2036C27.4131 32.1039 27.356 32.0111 27.2858 31.9287C27.2184 31.8451 27.1312 31.7796 27.032 31.7383C26.9346 31.7094 26.8468 31.6546 26.7782 31.5796C26.7377 31.5343 26.7087 31.4799 26.6936 31.421C26.6815 31.351 26.6815 31.2795 26.6936 31.2095L26.6618 31.2412C26.4186 31.4104 26.2388 31.8652 26.2388 32.1613C26.2355 32.2424 26.2355 32.3235 26.2388 32.4046C26.2599 32.4575 26.2705 32.5104 26.3022 32.5421L26.4186 32.6267L26.7041 32.7007C26.8111 32.7488 26.9052 32.8213 26.9791 32.9123C27.0561 32.9938 27.1203 33.0865 27.1695 33.1872L27.1907 33.1026C27.2753 32.8171 27.2647 32.4786 27.4656 32.2036H27.4551Z" fill="#BF0000" stroke="#BD6B00" stroke-width="0.423055"/>
<path d="M26.2188 32.3626C26.3034 32.6799 26.5149 32.6376 26.7053 32.7011C26.8956 32.7751 27.0966 33.0184 27.1812 33.2087M26.6947 31.1992C26.6418 31.5482 26.8428 31.6752 27.0331 31.7386C27.2235 31.8127 27.3821 32.0136 27.4562 32.204L26.6947 31.1992Z" stroke="#BD6B00" stroke-width="0.423055"/>
<path fill-rule="evenodd" clip-rule="evenodd" d="M27.3086 30.3638L27.4144 30.3003L29.2864 33.4626L29.1806 33.5261L27.3086 30.3532V30.3638Z" fill="white" stroke="#BD6B00" stroke-width="0.423055"/>
<path fill-rule="evenodd" clip-rule="evenodd" d="M27.509 30.2368C27.509 30.2929 27.4867 30.3467 27.447 30.3864C27.4074 30.4261 27.3536 30.4484 27.2975 30.4484C27.2414 30.4484 27.1876 30.4261 27.1479 30.3864C27.1082 30.3467 27.0859 30.2929 27.0859 30.2368C27.0859 30.1807 27.1082 30.1269 27.1479 30.0873C27.1876 30.0476 27.2414 30.0253 27.2975 30.0253C27.3536 30.0253 27.4074 30.0476 27.447 30.0873C27.4867 30.1269 27.509 30.1807 27.509 30.2368ZM29.1166 27.6985H29.8781V27.8677H29.1166V27.6985ZM29.1166 28.0264H29.8781V29.4859H29.1166V28.0264ZM29.0743 27.4976H29.9204C29.9416 27.212 29.656 26.9053 29.4974 26.9053C29.3281 26.9158 29.0637 27.2226 29.0743 27.4976Z" fill="white" stroke="#BD6B00" stroke-width="0.423055"/>
<path fill-rule="evenodd" clip-rule="evenodd" d="M31.2213 27.3282C31.0627 27.3917 30.9357 27.5715 30.8617 27.783C30.7877 27.9946 30.7559 28.2378 30.7982 28.4282C30.7982 28.5022 30.83 28.5445 30.8511 28.5868C30.8723 28.6186 30.8934 28.6397 30.9146 28.6397C30.9463 28.6397 30.978 28.6397 30.9886 28.608L31.0098 28.5234C30.9992 28.3118 30.9992 28.1215 31.0415 27.9522C31.0885 27.7643 31.201 27.5993 31.3588 27.4869C31.3905 27.4657 31.4011 27.434 31.4117 27.4129C31.4113 27.385 31.3999 27.3583 31.3799 27.3388C31.3376 27.3071 31.2742 27.2965 31.2213 27.3282ZM31.2424 27.3705C31.2848 27.3494 31.3271 27.3705 31.3482 27.3811L31.3588 27.4023C31.3588 27.4129 31.3588 27.4234 31.3271 27.4446C31.1646 27.5637 31.0486 27.7358 30.9992 27.9311C30.9553 28.1253 30.9446 28.3256 30.9675 28.5234C30.9675 28.5463 30.96 28.5685 30.9463 28.5868C30.9463 28.5868 30.9463 28.5974 30.9252 28.5868C30.9252 28.5868 30.904 28.5868 30.8829 28.5551C30.8619 28.5154 30.8477 28.4725 30.8405 28.4282C30.8088 28.2378 30.8406 28.0051 30.9146 27.7936C30.9886 27.6032 31.105 27.434 31.2319 27.3705H31.2424Z" fill="#BD6B00"/>
<path fill-rule="evenodd" clip-rule="evenodd" d="M31.4963 27.5291C31.3376 27.6031 31.2318 27.7723 31.179 27.9733C31.1228 28.1764 31.112 28.3895 31.1472 28.5973C31.1684 28.7348 31.253 28.8088 31.3165 28.8088C31.3482 28.8194 31.3799 28.8088 31.4011 28.7771C31.4222 28.7453 31.4328 28.7136 31.4222 28.6713C31.3799 28.5021 31.3693 28.3117 31.3905 28.1319C31.4222 27.9521 31.4963 27.7935 31.6232 27.6983C31.6549 27.6666 31.6761 27.6454 31.6761 27.6137C31.677 27.6022 31.6757 27.5907 31.672 27.5798C31.6684 27.5689 31.6626 27.5588 31.6549 27.5502C31.6126 27.5185 31.5491 27.5079 31.4963 27.5291ZM31.5174 27.582C31.5597 27.5608 31.602 27.5714 31.6232 27.582L31.6337 27.6137L31.602 27.656C31.531 27.7129 31.472 27.7833 31.4284 27.8632C31.3849 27.9431 31.3576 28.0308 31.3482 28.1213C31.3165 28.3117 31.3376 28.5127 31.3693 28.6713C31.3799 28.7136 31.3693 28.7348 31.3693 28.7559L31.3165 28.7665C31.2847 28.7665 31.2107 28.7136 31.1895 28.5867C31.1578 28.4069 31.1684 28.1742 31.2213 27.9839C31.2742 27.7935 31.3799 27.6348 31.5174 27.582Z" fill="#BD6B00"/>
<path fill-rule="evenodd" clip-rule="evenodd" d="M29.0736 30.6704H29.9197V31.8338H29.0736V30.6704ZM29.1264 32.5107H29.9408V32.7645H29.1264V32.5107ZM29.1053 32.9443H29.9514V33.8645H29.1053V32.9443ZM29.0418 34.0549H29.962V34.5731H29.0418V34.0549ZM29.1582 32.2992H29.8985L30.0466 32.0453H29.0312L29.1582 32.2992ZM30.1523 31.3896L30.1629 30.755H30.6706C30.4524 30.9249 30.2752 31.1418 30.1523 31.3896Z" fill="white" stroke="#BD6B00" stroke-width="0.423055"/>
<path fill-rule="evenodd" clip-rule="evenodd" d="M29.2109 31.6541C29.2109 31.7916 29.3696 31.7387 29.3696 31.6647V31.0724C29.3696 30.9666 29.6234 30.9878 29.6234 31.0618V31.6964C29.6234 31.8022 29.8032 31.7916 29.7926 31.6964V30.956C29.7926 30.7234 29.2109 30.7339 29.2109 30.9455V31.6541ZM29.2109 33.0607H29.8138V33.8011H29.2109V33.0607Z" stroke="#BD6B00" stroke-width="0.423055"/>
<path fill-rule="evenodd" clip-rule="evenodd" d="M29.5914 33.3778H29.8029V33.4836H29.5914V33.3778ZM29.2212 33.3778H29.4328V33.4836H29.2212V33.3778ZM29.4328 33.0606H29.5914V33.3778H29.4328V33.0606ZM29.4328 33.4836H29.5914V33.8115H29.4328V33.4836ZM26.0801 25.5513C26.1224 26.133 25.932 26.4609 25.6253 26.408C25.5407 26.0907 25.731 25.8686 26.0801 25.5513ZM25.3926 26.8522C25.1176 26.7147 25.3186 25.6359 25.4243 25.1812C25.4984 25.7629 25.6359 26.5878 25.3926 26.8522Z" fill="white" stroke="#BD6B00" stroke-width="0.423055"/>
<path fill-rule="evenodd" clip-rule="evenodd" d="M25.4877 26.9053C25.953 27.0639 26.3338 26.5668 26.4501 25.9851C26.0694 26.5139 25.4454 26.5139 25.4983 26.9053H25.4877ZM25.1387 27.4447C24.7791 27.3495 24.9906 26.2072 25.0646 25.7524C25.1387 26.2284 25.3925 27.286 25.1387 27.4447ZM25.2656 27.4129C25.2867 27.0216 25.6781 27.1274 25.953 26.9158C25.9002 27.1274 25.7415 27.4658 25.2656 27.4129ZM24.8214 27.9418C24.4618 27.836 24.6733 26.6091 24.6522 26.1015C24.7579 26.5457 25.0964 27.8254 24.8214 27.9418ZM24.9906 27.8889C25.2867 27.9841 25.6781 27.7831 25.7098 27.4341C25.4454 27.6139 25.0435 27.4764 24.9906 27.8889Z" fill="white" stroke="#BD6B00" stroke-width="0.423055"/>
<path fill-rule="evenodd" clip-rule="evenodd" d="M24.5468 28.481C24.2084 28.5128 24.3565 27.4657 24.3565 26.4927C24.4834 27.4022 24.8324 28.2378 24.5468 28.481Z" fill="white" stroke="#BD6B00" stroke-width="0.423055"/>
<path fill-rule="evenodd" clip-rule="evenodd" d="M24.6738 28.4388C24.9065 28.5445 25.319 28.3647 25.4353 27.9734C25.0123 28.1532 24.7373 27.9734 24.6738 28.4388ZM27.3814 26.0908C27.3179 26.6091 27.1064 26.9052 26.7997 26.8523C26.7151 26.535 26.9689 26.3235 27.3814 26.0908ZM26.5564 27.4023C27.0747 27.4763 27.2545 27.085 27.6141 26.5668C27.117 26.9264 26.5353 26.9898 26.5564 27.4129V27.4023Z" fill="white" stroke="#BD6B00" stroke-width="0.423055"/>
<path fill-rule="evenodd" clip-rule="evenodd" d="M26.3976 27.3494C26.1226 27.011 26.3976 26.5774 26.6091 26.2178C26.5668 26.7572 26.7466 27.0639 26.3976 27.3494ZM26.2918 27.91C26.2495 27.5716 26.8206 27.4975 27.0745 27.3177C26.9793 27.5081 26.863 28.0263 26.2812 27.91H26.2918Z" fill="white" stroke="#BD6B00" stroke-width="0.423055"/>
<path fill-rule="evenodd" clip-rule="evenodd" d="M26.165 27.91C25.7737 27.8677 25.9324 27.2014 26.2179 26.8418C26.1016 27.3495 26.4294 27.6985 26.165 27.91Z" fill="white" stroke="#BD6B00" stroke-width="0.423055"/>
<path fill-rule="evenodd" clip-rule="evenodd" d="M25.8685 28.4702C25.4242 28.2587 25.7098 27.7087 25.8685 27.3809C25.805 27.8145 26.1646 28.1424 25.8685 28.4596V28.4702Z" fill="white" stroke="#BD6B00" stroke-width="0.423055"/>
<path fill-rule="evenodd" clip-rule="evenodd" d="M25.9537 28.4069C26.1864 28.7242 26.6412 28.3223 26.7364 27.8569C26.345 28.1848 26.0489 28.1319 25.9537 28.4175V28.4069ZM24.9384 30.5539C24.8961 30.0991 25.2345 29.2847 24.9913 28.8405C24.9595 28.7771 25.0653 28.6184 25.1393 28.7136C25.2451 28.8723 25.3508 29.3165 25.4037 29.1473C25.446 28.9675 25.4566 28.6607 25.6153 28.5973C25.721 28.5656 25.8585 28.5338 25.8162 28.703C25.7739 28.8511 25.6893 29.0626 25.7845 29.0732C25.8374 29.0732 25.996 28.8617 26.1335 28.7559C26.2393 28.6713 26.4085 28.8194 26.2393 28.9463C25.7316 29.3694 25.2345 29.5703 24.9384 30.5539ZM24.0182 37.3757C23.9548 37.3757 23.8807 37.3439 23.9548 37.4391C24.5576 38.1795 24.7268 38.391 25.6047 38.2852C26.4825 38.1689 26.694 37.9256 27.3181 37.5766C27.4987 37.4816 27.6964 37.4233 27.8997 37.4051C28.1031 37.387 28.308 37.4093 28.5026 37.4709C28.6718 37.5237 28.7776 37.5237 28.6507 37.3968C28.5238 37.2805 28.3863 37.1113 28.2276 36.9949C27.8331 36.731 27.3522 36.6288 26.8844 36.7094C26.2498 36.8151 25.7104 37.2276 25.0653 37.3862C24.7198 37.456 24.3638 37.456 24.0182 37.3862V37.3757ZM29.0737 38.6977C29.1795 38.7189 29.2535 38.9304 29.317 38.7929C29.4016 38.5496 29.3381 38.3698 29.2324 38.3804C29.1055 38.4122 28.9045 38.6977 29.0737 38.6977Z" fill="white" stroke="#BD6B00" stroke-width="0.423055"/>
<path fill-rule="evenodd" clip-rule="evenodd" d="M23.6067 30.2049C23.4798 30.0568 23.5115 30.0145 23.7125 30.0039C23.8606 30.0039 24.1567 30.1097 24.273 30.0145C24.3788 29.9405 24.3259 29.6232 24.3788 29.4857C24.4 29.3905 24.4528 29.2742 24.5903 29.4645C24.9711 30.078 25.4365 30.8183 25.648 31.5375C25.7537 31.9394 25.648 32.574 25.2884 32.997C25.2884 32.6375 25.1615 32.3942 25.0028 32.0875C24.7913 31.6962 24.0404 30.6068 23.6067 30.1943V30.2049Z" fill="white"/>
<path fill-rule="evenodd" clip-rule="evenodd" d="M25.1817 33.4204C25.6047 33.4204 25.6788 32.8598 25.6788 32.7012C25.4672 32.7435 25.1076 33.0925 25.1817 33.4204ZM28.8305 38.9095C29.1267 38.973 29.1161 38.2538 28.8094 37.9471C28.9469 38.4124 28.5978 38.8355 28.8199 38.8989L28.8305 38.9095ZM28.7036 38.8989C28.7248 39.2374 27.8575 38.8566 27.646 38.5816C28.1536 38.8038 28.6825 38.624 28.7036 38.8989ZM28.3334 38.4124C28.3652 38.7403 27.5931 38.4442 27.3498 38.1903C27.8681 38.3595 28.3017 38.1374 28.3334 38.4018V38.4124ZM28.4709 38.4547C28.7776 38.5288 28.7248 37.7778 28.4286 37.524C28.5767 38.0211 28.2382 38.3807 28.4709 38.4547ZM28.1536 37.9999C28.4604 38.074 28.2806 37.4288 28.0584 37.175C28.1008 37.6403 27.9527 37.9682 28.1642 37.9999H28.1536ZM27.995 37.9999C28.0267 38.3384 27.4239 38.0846 27.1912 37.7567C27.6989 37.9153 27.9633 37.725 27.995 37.9999ZM27.8363 37.7355C28.0267 37.598 27.8258 37.2279 27.445 37.249C27.4873 37.4711 27.6142 37.873 27.8363 37.7355ZM29.317 39.2903C29.3276 39.6287 28.4709 39.4595 28.1959 39.0999C28.7459 39.2057 29.2853 39.0153 29.3065 39.2903H29.317ZM25.8903 38.6768C25.922 39.0153 24.9807 38.6345 24.748 38.3172C25.2451 38.4865 25.8586 38.4018 25.8903 38.6768ZM26.4614 38.8143C26.6624 38.6768 26.2605 38.3172 25.9326 38.2326C25.9749 38.4547 26.2499 38.9518 26.4614 38.8249V38.8143ZM26.5249 39.0576C26.546 39.3643 25.5201 39.1951 25.2557 38.9095C26.1336 39.0682 26.4931 38.7932 26.5249 39.0576Z" fill="white" stroke="#BD6B00" stroke-width="0.423055"/>
<path fill-rule="evenodd" clip-rule="evenodd" d="M27.012 39.2581C27.1178 39.5436 26.1342 39.4696 25.7852 39.3109C26.3457 39.3109 26.9274 39.0571 27.012 39.2581Z" fill="white" stroke="#BD6B00" stroke-width="0.423055"/>
<path fill-rule="evenodd" clip-rule="evenodd" d="M27.4668 39.4697C27.5725 39.7235 26.663 39.7235 26.2188 39.5755C26.811 39.5755 27.361 39.2159 27.4668 39.4697ZM28.1331 39.6072C28.3023 39.9139 27.3293 39.9351 27.0226 39.787C27.5725 39.713 27.9956 39.3639 28.1331 39.6072ZM27.0014 39.089C26.6947 39.2793 26.7158 38.7082 26.4726 38.3169C26.8533 38.6659 27.2129 38.9092 27.0014 39.089Z" fill="white" stroke="#BD6B00" stroke-width="0.423055"/>
<path fill-rule="evenodd" clip-rule="evenodd" d="M27.5516 39.3006C27.2977 39.5227 27.0862 38.7401 26.8535 38.2959C27.2343 38.7189 27.7842 39.1103 27.5516 39.2901V39.3006ZM28.2708 39.5122C28.0592 39.766 27.4247 38.7718 27.192 38.243C27.541 38.6555 28.44 39.3006 28.2708 39.5122ZM27.6573 40.2737C27.5516 40.6544 25.944 39.9141 25.7536 39.5227C26.6843 40.0093 27.6785 39.9035 27.6573 40.2631V40.2737ZM22.5066 32.4683C22.4643 32.4154 22.3586 32.4683 22.3797 32.5846C22.4114 32.7433 22.6441 33.5577 23.046 33.8327C23.3316 34.0442 24.844 34.3721 25.5209 34.5201C25.9017 34.5942 26.2084 34.7845 26.4622 35.0807C26.3753 34.7297 26.2694 34.3837 26.1449 34.0442C26.018 33.7269 25.6795 33.3884 25.32 33.3779C24.6748 33.3461 23.8287 33.2933 23.2047 33.0288C22.922 32.9097 22.6771 32.7159 22.4961 32.4683H22.5066Z" fill="white" stroke="#BD6B00" stroke-width="0.423055"/>
<path fill-rule="evenodd" clip-rule="evenodd" d="M26.24 35.6942C26.4515 35.8423 26.6736 35.3029 26.4198 34.7847C26.4092 35.2818 26.0179 35.451 26.24 35.6942Z" fill="white" stroke="#BD6B00" stroke-width="0.423055"/>
<path fill-rule="evenodd" clip-rule="evenodd" d="M26.4404 36.1912C26.7259 36.2758 26.8105 35.7681 26.6307 35.3662C26.6625 35.7998 26.1759 36.0643 26.4404 36.1912Z" fill="white" stroke="#BD6B00" stroke-width="0.423055"/>
<path fill-rule="evenodd" clip-rule="evenodd" d="M26.6621 36.5932C26.9371 36.7307 27.0323 36.2125 26.8419 35.8423C26.863 36.3182 26.4506 36.4663 26.6621 36.5826V36.5932Z" fill="white" stroke="#BD6B00" stroke-width="0.423055"/>
<path fill-rule="evenodd" clip-rule="evenodd" d="M26.5453 36.6247C26.4396 36.942 25.805 36.3391 25.6992 36.0112C26.0905 36.4026 26.6194 36.3497 26.5453 36.6141V36.6247Z" fill="white" stroke="#BD6B00" stroke-width="0.423055"/>
<path fill-rule="evenodd" clip-rule="evenodd" d="M26.2601 36.1277C26.1332 36.4449 25.34 35.5988 25.1602 35.2075C25.5515 35.5988 26.3447 35.895 26.2601 36.1171V36.1277Z" fill="white" stroke="#BD6B00" stroke-width="0.423055"/>
<path fill-rule="evenodd" clip-rule="evenodd" d="M26.1027 35.6304C25.9758 36.0006 25.1191 35.017 24.8652 34.6679C25.2883 35.0487 26.1979 35.366 26.1027 35.6304ZM26.0709 35.2708C26.3882 35.2073 26.0604 34.9535 25.6796 34.541C25.669 34.9746 25.7325 35.2814 26.0709 35.2708Z" fill="white" stroke="#BD6B00" stroke-width="0.423055"/>
<path fill-rule="evenodd" clip-rule="evenodd" d="M25.5515 35.0171C25.689 34.8796 25.4351 34.8162 25.1179 34.4566C25.065 34.6998 25.414 35.144 25.5621 35.0171H25.5515ZM27.0322 36.6247C27.2014 36.7305 27.3072 36.3815 27.1062 36.0748C27.0533 36.4132 26.8841 36.4978 27.0322 36.6247ZM23.4151 34.4777C23.066 34.6893 22.5055 33.8432 22.3574 33.4941C22.6641 33.896 23.4785 34.2556 23.4151 34.4777Z" fill="white" stroke="#BD6B00" stroke-width="0.423055"/>
<path fill-rule="evenodd" clip-rule="evenodd" d="M23.7232 34.9642C23.5222 35.1757 22.9088 34.594 22.6973 34.2979C23.0146 34.5834 23.8078 34.6151 23.7232 34.9642Z" fill="white" stroke="#BD6B00" stroke-width="0.423055"/>
<path fill-rule="evenodd" clip-rule="evenodd" d="M24.0501 35.4087C23.9867 35.7048 23.0982 35.0385 22.8867 34.7212C23.2675 35.0914 24.1136 35.0596 24.0501 35.4087Z" fill="white" stroke="#BD6B00" stroke-width="0.423055"/>
<path fill-rule="evenodd" clip-rule="evenodd" d="M23.9123 35.7366C23.7748 36.001 23.045 35.3347 22.8652 34.9962C23.32 35.377 24.0286 35.4722 23.9229 35.7366H23.9123ZM23.5421 34.4357C23.7642 34.1924 23.669 34.0761 23.4998 33.6953C23.4152 34.0866 23.2777 34.2453 23.5421 34.4357ZM23.8488 34.8904C24.2719 34.9116 23.8488 34.4039 23.7431 33.9703C23.7854 34.4568 23.6373 34.8481 23.8488 34.8904Z" fill="white" stroke="#BD6B00" stroke-width="0.423055"/>
<path fill-rule="evenodd" clip-rule="evenodd" d="M24.1146 35.2924C24.4001 35.2289 24.3261 34.8164 24.0934 34.3193C24.1463 34.8587 23.8502 35.1654 24.1146 35.2924ZM24.0088 36.1067C23.903 36.424 23.0781 35.6837 22.9512 35.3875C23.3742 35.7471 24.0828 35.8635 24.0088 36.1067Z" fill="white" stroke="#BD6B00" stroke-width="0.423055"/>
<path fill-rule="evenodd" clip-rule="evenodd" d="M24.5058 36.6141C24.3895 36.9314 23.5222 36.2756 23.2578 35.916C23.7761 36.3391 24.5693 36.2968 24.5058 36.6141Z" fill="white" stroke="#BD6B00" stroke-width="0.423055"/>
<path fill-rule="evenodd" clip-rule="evenodd" d="M25.0126 37.1325C24.8751 37.5873 23.9656 36.8575 23.7012 36.4979C24.2723 36.9421 25.0761 36.8152 25.0126 37.1325ZM24.1665 35.9691C24.4098 36.0854 24.505 35.398 24.3675 34.9009C24.3675 35.4297 23.8704 35.8316 24.156 35.9585L24.1665 35.9691Z" fill="white" stroke="#BD6B00" stroke-width="0.423055"/>
<path fill-rule="evenodd" clip-rule="evenodd" d="M24.5784 36.5188C24.8745 36.6034 24.7899 35.8525 24.5255 35.3554C24.4938 35.8525 24.2822 36.3073 24.5784 36.5188ZM25.1072 37.0371C25.4245 37.0476 25.213 36.3919 24.938 36.0217C24.9803 36.4977 24.8322 36.9736 25.1072 37.0371ZM24.5255 37.312C24.4197 37.4813 24.1871 37.1745 23.7852 36.9419C24.1448 37.0476 24.5678 37.1534 24.5255 37.312ZM24.3351 31.7383C24.6524 31.5056 24.4092 31.0826 24.3351 30.6807C24.2294 31.0614 23.9755 31.5691 24.3351 31.7383ZM24.3351 32.2988C23.8592 32.246 23.9332 31.6537 23.9121 31.2729C24.0601 31.7912 24.4409 31.8758 24.3351 32.3094V32.2988ZM24.3986 32.2248C24.7899 32.2037 24.7688 31.7595 24.7899 31.3152C24.589 31.7277 24.3669 31.7912 24.3986 32.2248Z" fill="white" stroke="#BD6B00" stroke-width="0.423055"/>
<path fill-rule="evenodd" clip-rule="evenodd" d="M24.3882 32.775C24.0709 32.8067 23.9228 32.5 23.8594 32.0347C24.1449 32.4683 24.3988 32.3308 24.3882 32.775ZM24.494 32.7433C24.8853 32.7962 24.8112 32.3414 24.8112 32.0029C24.6843 32.3202 24.367 32.426 24.494 32.7433Z" fill="white" stroke="#BD6B00" stroke-width="0.423055"/>
<path fill-rule="evenodd" clip-rule="evenodd" d="M23.8809 32.5527C23.9126 32.8489 24.103 33.3565 24.4097 33.2402C24.526 32.8806 24.1347 32.8066 23.8809 32.5527Z" fill="white" stroke="#BD6B00" stroke-width="0.423055"/>
<path fill-rule="evenodd" clip-rule="evenodd" d="M24.4946 33.2721C24.3677 33.0182 24.8119 32.8808 24.8965 32.5423C24.9494 33.0288 24.9071 33.3461 24.4946 33.2827V33.2721ZM23.236 30.1838C23.4793 29.9299 23.2677 29.5069 23.1937 29.105C23.0879 29.4857 22.9293 29.9934 23.236 30.1838ZM23.236 30.6703C22.8129 30.7232 22.7072 29.8559 22.6543 29.4752C22.8024 29.9934 23.2889 30.2155 23.236 30.6809V30.6703ZM23.3206 30.6703C23.6167 30.5116 23.5533 30.1732 23.6379 29.9299C23.4475 30.2367 23.2571 30.279 23.3206 30.6703Z" fill="white" stroke="#BD6B00" stroke-width="0.423055"/>
<path fill-rule="evenodd" clip-rule="evenodd" d="M23.2251 31.2417C22.7914 31.2734 22.527 30.3109 22.5059 29.9302C22.6434 30.4484 23.2885 30.7234 23.2356 31.2417H23.2251ZM23.3202 31.2205C23.7433 31.1253 23.6904 30.8503 23.627 30.4167C23.4895 30.8609 23.2568 30.7657 23.3202 31.2205Z" fill="white" stroke="#BD6B00" stroke-width="0.423055"/>
<path fill-rule="evenodd" clip-rule="evenodd" d="M23.225 31.7913C22.7385 31.8759 22.7702 31.0933 22.3789 30.5327C22.7174 30.9558 23.3308 31.4846 23.225 31.7913ZM23.3308 31.7596C23.7115 31.7807 23.7538 31.2202 23.7327 30.9875C23.6375 31.2202 23.2039 31.4317 23.3414 31.7702L23.3308 31.7596Z" fill="white" stroke="#BD6B00" stroke-width="0.423055"/>
<path fill-rule="evenodd" clip-rule="evenodd" d="M22.4629 31.1885C22.6427 31.7913 22.9071 32.3942 23.2244 32.3519C23.383 32.0029 22.9177 31.9606 22.4629 31.1885Z" fill="white" stroke="#BD6B00" stroke-width="0.423055"/>
<path fill-rule="evenodd" clip-rule="evenodd" d="M23.3408 32.2566C23.2138 31.9922 23.6581 31.8653 23.7427 31.5269C23.7955 32.0134 23.7532 32.3307 23.3408 32.2566ZM22.5898 31.8759C22.8543 32.4153 22.9706 33.0393 23.3302 32.9441C23.4677 32.521 22.9283 32.4364 22.5898 31.8759Z" fill="white" stroke="#BD6B00" stroke-width="0.423055"/>
<path fill-rule="evenodd" clip-rule="evenodd" d="M23.4051 32.8491C23.2464 32.553 23.6906 32.4578 23.807 32.0665C23.8599 32.5741 23.807 32.9443 23.4051 32.8385V32.8491ZM24.1666 29.2003C24.4204 29.2637 24.6954 28.9782 24.6002 28.5445C24.3041 28.608 24.1772 28.883 24.1666 29.2003ZM23.3311 28.9782C23.3522 29.1051 23.5109 29.1156 23.458 28.9358C23.4185 28.8192 23.4185 28.6929 23.458 28.5762C23.5089 28.4181 23.5089 28.2479 23.458 28.0897C23.4157 27.984 23.2676 28.0474 23.3311 28.132C23.3945 28.2272 23.4051 28.4282 23.3522 28.5234C23.2887 28.6609 23.3099 28.8407 23.3311 28.9782ZM25.753 30.6704C25.6473 30.8079 25.4463 30.7127 25.605 30.5117C25.7319 30.3531 25.9223 30.2156 25.9223 30.0464C25.9434 29.8348 26.0598 29.5175 26.1761 29.4012C26.2924 29.2849 26.4299 29.4435 26.303 29.5281C26.1655 29.6127 26.0703 29.9935 26.0809 30.1416C26.0703 30.3531 25.8694 30.5117 25.753 30.6704ZM25.4358 30.4271C25.33 30.5752 25.1819 30.48 25.2665 30.2473C25.3406 30.0887 25.3511 29.8771 25.4358 29.7608C25.5627 29.581 25.753 29.4329 25.8694 29.3166C25.9963 29.2108 26.0809 29.3166 25.9751 29.4224C25.8455 29.5519 25.7286 29.6935 25.6261 29.8454C25.4781 30.0781 25.5415 30.2685 25.4358 30.4271ZM23.7753 29.6656C23.7647 29.8771 23.9339 29.9194 23.9233 29.6233C23.9233 29.306 23.6906 29.0099 23.8176 28.5339C23.9022 28.3013 23.9022 27.8676 23.8599 27.6455C23.8176 27.4128 23.6483 27.5609 23.7224 27.7407C23.7858 27.9522 23.7118 28.333 23.6589 28.5339C23.5003 29.1051 23.7858 29.3801 23.7647 29.6656H23.7753ZM24.23 28.5022C24.2089 28.7032 24.0397 28.7137 24.0926 28.4493C24.1349 28.2378 24.1349 28.0686 24.0926 27.8888C24.0291 27.6667 24.0502 27.2859 24.0926 27.1273C24.1454 26.9581 24.3041 27.0533 24.2406 27.1802C24.1668 27.3801 24.1557 27.5978 24.2089 27.8042C24.2724 28.0157 24.2618 28.3118 24.23 28.5128V28.5022ZM22.5801 32.426C22.6647 32.5212 22.7917 32.4578 22.6859 32.3203C22.5801 32.2145 22.6119 32.1934 22.5484 32.0665C22.4849 31.9184 22.4955 31.8443 22.4215 31.7492C22.3474 31.6434 22.2523 31.7492 22.3157 31.8232C22.4003 31.929 22.3792 31.9924 22.4215 32.0876C22.5272 32.2462 22.4955 32.3309 22.5801 32.426ZM24.7377 35.0278C24.867 35.0993 24.9769 35.2011 25.058 35.3246C25.1391 35.4481 25.1889 35.5894 25.2031 35.7365C25.2141 35.9998 25.2866 36.257 25.4146 36.4874C25.2031 36.4345 25.0973 36.096 25.0656 35.7682C25.0338 35.4297 24.8541 35.2922 24.7483 35.0278H24.7377ZM25.2771 35.6518C25.4569 35.9797 25.7002 36.1066 25.7213 36.3499C25.7425 36.6354 25.7636 36.646 25.8377 36.921C25.6261 36.8681 25.5732 36.847 25.5204 36.4239C25.4886 36.1278 25.2454 35.9268 25.2771 35.6518Z" fill="white" stroke="#BD6B00" stroke-width="0.423055"/>
<path fill-rule="evenodd" clip-rule="evenodd" d="M30.8406 38.6977C30.9463 38.8881 31.0521 39.1736 31.2636 39.1208C31.2636 38.9833 31.0415 38.8775 30.8406 38.6977ZM31.1579 38.7612C31.5492 38.9304 31.8982 38.8881 31.9511 39.1419C31.5704 39.1842 31.4223 39.0362 31.1473 38.7612H31.1579ZM29.4551 37.418C29.7179 37.6223 29.9042 37.9092 29.9839 38.2323C30.0692 38.5247 30.1975 38.8027 30.3646 39.0573C30.0896 38.8725 29.8905 38.5946 29.8041 38.2747C29.7301 37.9574 29.6349 37.7141 29.4551 37.4285V37.418ZM29.7829 37.418C30.0791 37.6506 30.3541 37.9256 30.4387 38.2535C30.5233 38.5602 30.5762 38.7929 30.7771 39.0996C30.4598 38.8987 30.3435 38.6025 30.2483 38.2747C30.1743 37.9574 29.9839 37.7247 29.7829 37.4285V37.418ZM30.756 38.19C30.7518 38.1636 30.7569 38.1365 30.7704 38.1134C30.7839 38.0903 30.805 38.0725 30.83 38.0631C30.9205 38.0312 31.0122 38.003 31.105 37.9785C31.2108 37.9468 31.2742 38.0208 31.2742 38.0737V38.2852C31.2742 38.3593 31.2531 38.3698 31.2002 38.3804C31.1261 38.391 31.0204 38.4016 30.9463 38.4545C30.8829 38.4968 30.8194 38.465 30.7877 38.4016L30.756 38.19ZM31.8771 38.19C31.8771 38.1266 31.8559 38.0737 31.8136 38.0631C31.7333 38.0299 31.6465 38.0154 31.5598 38.0208C31.454 38.0208 31.4434 38.042 31.4434 38.0843V38.3064C31.4434 38.391 31.4434 38.391 31.4857 38.4121C31.5598 38.4121 31.6761 38.4121 31.7502 38.4756C31.803 38.5073 31.8559 38.4756 31.8665 38.4121L31.8771 38.19Z" fill="white"/>
<path fill-rule="evenodd" clip-rule="evenodd" d="M35.0163 41.1622C35.0163 41.2891 35.0374 41.3948 35.1221 41.49C34.6382 41.3439 34.1171 41.3854 33.6625 41.6064C33.4721 41.691 33.2395 41.5006 33.4616 41.3208C33.7789 41.0775 34.4875 41.215 35.0163 41.1622ZM28.9349 41.1622C28.9441 41.2697 28.9296 41.378 28.8926 41.4795C29.3579 41.2997 29.855 41.4583 30.331 41.6487C30.6483 41.7862 30.68 41.5429 30.6271 41.4689C30.5686 41.3804 30.4904 41.3067 30.3987 41.2535C30.3069 41.2003 30.2041 41.169 30.0983 41.1622H28.9349ZM29.3368 38.8671C29.1993 38.8142 29.0512 38.8671 28.9137 39.0151C28.4589 39.4594 27.9195 39.893 27.4859 40.242C27.3273 40.3795 27.1686 40.6333 27.8455 40.8766C27.8772 40.8977 28.3743 41.0881 28.6916 41.0881C28.8291 41.0881 28.8291 41.2785 28.7974 41.3314C28.7445 41.4371 28.7868 41.4795 28.681 41.5746C28.5647 41.6804 28.681 41.7967 28.7868 41.7121C29.1676 41.3737 29.8021 41.5958 30.405 41.7862C30.5531 41.8285 30.8069 41.8179 30.8069 41.6169C30.8069 41.4054 30.9655 41.2573 31.0607 41.2468C31.3146 41.2891 32.5414 41.2997 32.9116 41.2573C33.1231 41.2256 33.1443 41.5641 33.2606 41.6804C33.3452 41.7756 33.6519 41.7967 33.874 41.7016C34.2971 41.5112 34.9317 41.5112 35.1961 41.7016C35.3019 41.7756 35.397 41.7016 35.3336 41.6275C35.249 41.5218 35.2595 41.4583 35.2172 41.3737C35.1115 41.1622 35.1961 41.1199 35.3019 41.1093C36.4653 40.9506 36.846 40.5593 36.4864 40.2314C36.021 39.8295 35.5134 39.417 35.0692 38.9411C34.9423 38.8142 34.8576 38.7613 34.6144 38.8671C33.7721 39.249 32.8629 39.461 31.9386 39.4911C31.0431 39.4333 30.1637 39.2259 29.3368 38.8777V38.8671Z" fill="white"/>
<path fill-rule="evenodd" clip-rule="evenodd" d="M34.817 38.9307L34.6478 38.973C33.6959 39.3114 32.8287 39.5441 31.9297 39.5441C31.0518 39.5441 30.1317 39.2903 29.2962 38.9518C29.2448 38.9341 29.1889 38.9341 29.1375 38.9518C29.0846 38.9624 29.0318 38.9941 29 39.0259C28.6092 39.4168 28.1922 39.7808 27.752 40.1152C27.678 40.1681 27.6886 40.3056 27.8049 40.3479C28.6827 40.6652 29.5394 41.2469 31.9931 41.2257C34.4786 41.2046 35.3564 40.6335 36.1391 40.3691C36.192 40.3479 36.2448 40.3162 36.2766 40.2633C36.2841 40.2507 36.2889 40.2367 36.2908 40.2221C36.2926 40.2075 36.2914 40.1927 36.2872 40.1787C36.2735 40.1456 36.2517 40.1164 36.2237 40.0941C35.7689 39.7239 35.293 39.4278 34.9757 38.9941C34.944 38.9412 34.8805 38.9307 34.817 38.9412V38.9307ZM34.817 38.9835C34.8699 38.9835 34.9228 38.9835 34.9334 39.0153C35.2507 39.4701 35.7478 39.7556 36.192 40.1258L36.2343 40.1998C36.2372 40.2065 36.2387 40.2137 36.2387 40.221C36.2387 40.2283 36.2372 40.2355 36.2343 40.2421C36.2237 40.2739 36.1708 40.3056 36.1285 40.3162C35.3247 40.5912 34.468 41.1623 32.0037 41.1834C29.55 41.2046 28.7039 40.6229 27.8261 40.3056C27.7414 40.2633 27.752 40.1787 27.7838 40.1575C28.228 39.8191 28.651 39.4383 29.0318 39.0576C29.0645 39.0269 29.1046 39.0051 29.1481 38.9941H29.275C30.1109 39.3573 31.0082 39.5583 31.9191 39.5864C32.8393 39.5864 33.7171 39.3537 34.669 39.0259C34.72 39.0056 34.7733 38.9915 34.8276 38.9835H34.817Z" fill="#BD6B00"/>
<path fill-rule="evenodd" clip-rule="evenodd" d="M28.7974 22.9707C28.7974 22.8226 29.009 22.812 28.9878 23.013C28.9561 23.2562 29.4637 23.8908 29.506 24.2821C29.5378 24.5466 29.3474 24.7687 29.1676 24.9167C29.0639 24.9902 28.9421 25.0339 28.8154 25.0432C28.6886 25.0526 28.5617 25.0271 28.4484 24.9696C28.3532 24.885 28.2686 24.6206 28.3426 24.5148C28.3638 24.4831 28.4801 24.9062 28.734 24.9062C29.083 24.9062 29.3686 24.6417 29.3686 24.4091C29.3897 24.0072 28.808 23.3726 28.7974 22.9707ZM29.8022 23.9649C29.8656 23.9226 29.9503 24.1023 29.8868 24.1447C29.8339 24.1764 29.7281 24.0072 29.8022 23.9543V23.9649ZM29.9608 23.5947C29.9291 23.6158 29.8762 23.5947 29.8868 23.5735C29.9884 23.4323 30.118 23.3135 30.2675 23.2245C30.3098 23.2034 30.3733 23.2668 30.3522 23.2985C30.2443 23.424 30.1108 23.5249 29.9608 23.5947ZM31.2934 22.537C31.3252 22.4736 31.5156 22.3996 31.5684 22.3572C31.6107 22.3044 31.6319 22.3996 31.6107 22.4313C31.579 22.5053 31.4098 22.6111 31.3358 22.6217C31.304 22.6217 31.2723 22.5794 31.2934 22.5476V22.537ZM31.7482 22.5688C31.8039 22.4281 31.895 22.3043 32.0126 22.2092C32.0655 22.1774 32.1501 22.2092 32.129 22.2515C32.0571 22.3914 31.9518 22.5113 31.8223 22.6005C31.7905 22.6322 31.7377 22.6005 31.7482 22.5688ZM31.3569 22.8543C31.3252 22.8755 31.3463 22.9284 31.3675 22.9389C31.4309 22.9601 31.5261 22.9601 31.579 22.9389C31.6425 22.8966 31.6107 22.6322 31.5261 22.7697C31.4627 22.8543 31.4204 22.8332 31.3569 22.8543ZM30.5848 23.4466C30.4473 23.3409 30.6271 23.1928 30.7646 23.2985C31.0502 23.5101 30.3416 24.335 29.9608 24.7158C29.8868 24.7898 29.8233 24.61 29.9185 24.5148C30.1939 24.2841 30.4328 24.0131 30.6271 23.711C30.6694 23.6581 30.7012 23.5418 30.5848 23.4466ZM32.203 22.7486C32.2136 22.6428 32.0338 22.7486 32.0338 22.6111C32.0338 22.537 32.2347 22.4842 32.3194 22.5688C32.4569 22.7168 32.3511 22.9601 32.1078 22.9813C31.9175 22.9813 31.579 23.2668 31.6319 23.3197C31.6848 23.3937 32.203 23.436 32.5097 23.3937C32.7001 23.362 32.6578 23.5312 32.4674 23.5524C32.2771 23.5735 32.129 23.5524 31.9598 23.6158C31.7482 23.6687 31.6636 23.9331 31.5473 24.0389C31.5261 24.06 31.4627 23.9543 31.4838 23.912C31.5684 23.7851 31.6954 23.5947 31.8434 23.5312C31.928 23.4995 31.5896 23.4889 31.4838 23.4572C31.3992 23.436 31.4204 23.3197 31.4521 23.2562C31.4944 23.1716 31.8117 22.8438 31.9492 22.8543C32.0655 22.8543 32.1924 22.8226 32.203 22.7486ZM32.7318 22.7697C32.7953 22.7168 32.8376 22.6322 32.8905 22.5794C32.9222 22.5476 32.9857 22.5794 32.9751 22.664C32.9645 22.738 32.8693 22.7909 32.8164 22.8438C32.7636 22.8755 32.7107 22.8015 32.7424 22.7697H32.7318ZM33.4193 22.5265C33.5145 22.5265 33.5251 22.6957 33.4405 22.7168C33.377 22.738 33.3347 22.537 33.4193 22.5265ZM33.1972 23.0553C33.1972 23.2139 33.2712 23.2034 33.4087 23.1928C33.5462 23.1928 33.6626 23.1928 33.6626 23.0659C33.6626 22.9284 33.5885 22.8015 33.5568 22.8966C33.5462 22.9813 33.5251 23.1293 33.4722 23.0659C33.4299 23.013 33.451 23.0024 33.3664 23.087C33.3135 23.1399 33.3135 23.0659 33.2818 23.0236C33.2607 22.9918 33.1972 23.0447 33.1972 23.0659V23.0553ZM32.2242 23.8168C32.1924 24.0177 32.2242 24.2927 32.3194 24.2927C32.4463 24.2927 32.7001 23.8697 32.827 23.637C32.9011 23.5101 33.0174 23.4889 32.9645 23.6264C32.8905 23.8274 32.9011 24.261 32.9645 24.3879C33.0068 24.4514 33.2818 24.3245 33.3241 24.2293C33.4087 24.0495 33.3347 23.7216 33.3664 23.5206C33.377 23.3937 33.5039 23.362 33.4933 23.4889C33.4767 23.753 33.4732 24.0177 33.4828 24.2821C33.4828 24.3879 33.7895 24.536 33.8318 24.2187C33.8529 24.0283 33.9587 23.8274 33.8318 23.6158C33.7472 23.4783 33.9481 23.4889 34.0539 23.6793C34.1279 23.8062 33.9904 24.0177 34.001 24.1764C34.001 24.4302 33.8106 24.5783 33.6731 24.5783C33.5462 24.5783 33.4616 24.4196 33.3558 24.4196C33.2501 24.4196 33.1232 24.5994 33.0385 24.5889C32.6578 24.5677 32.8588 24.0283 32.7424 24.0177C32.6155 24.0177 32.478 24.5466 32.3194 24.536C32.1713 24.5148 32.0021 24.0918 32.0761 23.9226C32.129 23.7533 32.2347 23.711 32.2242 23.8168ZM34.0116 22.9707C33.8318 22.8649 34.0116 22.5794 34.1068 22.6745C34.276 22.8861 34.4452 23.362 34.5721 23.4043C34.6462 23.4255 34.6356 23.0447 34.6885 22.8755C34.7308 22.738 34.8788 22.7803 34.8577 22.9495C34.8471 23.0024 34.6462 23.6264 34.6673 23.6476C34.8082 23.9115 34.925 24.1876 35.0163 24.4725C35.0481 24.5994 34.9 24.5148 34.8788 24.4937C34.7837 24.3456 34.625 23.8062 34.625 23.8379L34.4452 24.6523C34.4241 24.7581 34.2654 24.7369 34.3077 24.5466C34.3394 24.3985 34.551 23.6687 34.5404 23.637C34.4193 23.3762 34.238 23.1479 34.0116 22.9707Z" fill="white"/>
<path fill-rule="evenodd" clip-rule="evenodd" d="M34.3294 24.7265C34.2871 24.7265 34.2025 24.8322 34.4563 24.8851C34.7842 24.9486 35.1544 24.8322 35.2601 24.5043C35.3976 24.113 35.4717 23.7428 35.5457 23.6054C35.6303 23.4467 35.7361 23.4573 35.6515 23.2246C35.5986 23.0448 35.4928 23.0977 35.4717 23.1929C35.4188 23.4361 35.1967 24.2505 35.1227 24.388C34.9957 24.663 34.7313 24.7688 34.3294 24.7265Z" fill="white"/>
<path fill-rule="evenodd" clip-rule="evenodd" d="M35.0056 23.4361C34.9633 23.3621 34.8787 23.4361 34.8998 23.5101C34.9049 23.54 34.9204 23.5671 34.9437 23.5865C34.967 23.6059 34.9964 23.6163 35.0267 23.6159C35.1008 23.6159 35.2594 23.6265 35.2594 23.5101C35.2594 23.4255 35.1854 23.3515 35.1431 23.4467C35.0902 23.5313 35.0373 23.5207 35.0056 23.4467V23.4361ZM35.0796 23.1188C35.0585 23.14 35.0796 23.2351 35.1114 23.2246C35.2329 23.2254 35.3527 23.1964 35.4604 23.14C35.4815 23.1188 35.4709 23.0659 35.4392 23.0659C35.3335 23.0659 35.1642 23.0659 35.0796 23.1188ZM36.0103 23.3621C36.095 23.2351 36.3065 23.2246 36.2219 23.4044C36.0047 23.8405 35.7825 24.2741 35.5556 24.7053C35.471 24.8533 35.4075 24.7793 35.4709 24.663C35.545 24.5149 35.9892 23.3938 36.0103 23.3621Z" fill="white"/>
<path fill-rule="evenodd" clip-rule="evenodd" d="M35.1963 24.9165C35.1752 24.8319 35.0377 24.705 35.0588 24.9377C35.08 25.3396 35.6405 25.2126 35.7992 25.0751C35.9578 24.9377 35.8309 25.5299 36.0319 25.5934C36.1376 25.6251 36.3492 25.477 36.4549 25.3396C36.7405 24.9694 36.9309 24.43 37.1953 24.0704C37.3011 23.9223 37.1424 23.8166 37.0895 23.9329C36.8357 24.3348 36.5395 25.1598 36.2117 25.3713C35.9473 25.5405 36.0319 25.1598 36.0213 25.0328C36.0107 24.9482 35.905 24.8213 35.7675 24.9377C35.6568 25.0262 35.5177 25.0713 35.3761 25.0646C35.3021 25.0646 35.2281 25.0646 35.1963 24.9165Z" fill="white"/>
<path fill-rule="evenodd" clip-rule="evenodd" d="M36.191 24.1762C36.191 24.1445 36.0747 24.1339 36.0853 24.2503C36.0853 24.3349 36.191 24.356 36.2016 24.356C36.3603 24.2291 36.1699 24.2926 36.191 24.1656V24.1762ZM35.9478 24.6416C35.9161 24.6416 35.8843 24.7473 35.9689 24.7579L36.3814 24.7368C36.4237 24.7368 36.4449 24.6416 36.3391 24.6522C36.2122 24.6522 36.0536 24.6204 35.9478 24.6522V24.6416ZM29.3904 22.8859C29.4433 22.8859 29.5597 23.034 29.5491 23.0868C29.5491 23.108 29.4222 23.0868 29.3904 23.0551C29.3587 23.0234 29.3693 22.8859 29.3904 22.8859ZM28.8299 23.9858C28.7241 24.0493 28.851 24.1656 28.9357 24.1128C29.2318 23.9118 29.676 23.7109 29.7818 23.3195C29.8135 23.1926 29.9298 22.9917 30.0462 22.9494C30.1519 22.8965 30.3212 23.1503 30.4269 22.9494C30.4904 22.8436 30.7125 23.0234 30.7654 22.907C30.8288 22.7696 30.7971 22.6955 30.7971 22.5475C30.7971 22.4628 30.7231 22.4417 30.6702 22.5792C30.649 22.6426 30.6702 22.7061 30.6596 22.7484C30.6384 22.7696 30.5961 22.7907 30.5538 22.7696C30.5327 22.7484 30.5538 22.6955 30.4904 22.6638C30.4692 22.6638 30.4269 22.6532 30.4058 22.6849C30.3317 22.8224 30.3 22.9494 30.1837 22.7907C30.0885 22.6849 30.0356 22.4628 29.9721 22.759C29.951 22.8647 29.7923 23.0128 29.6972 23.0128C29.5808 23.0128 29.6125 22.6955 29.3587 22.7484C29.2212 22.7801 29.2318 23.034 29.2529 23.1186C29.2847 23.2561 29.676 23.1609 29.6443 23.2455C29.5808 23.5311 29.1789 23.8166 28.8299 23.9858ZM26.4291 25.3819C26.4185 25.4348 26.4819 25.5617 26.5454 25.5723C26.6088 25.5723 26.6512 25.4348 26.63 25.3819C26.6088 25.3502 26.4396 25.3502 26.4291 25.3819ZM26.7781 25.9002C26.7358 25.8579 26.6088 25.9742 26.7146 26.0588C26.7675 26.1117 26.979 26.1752 27.0319 26.08C27.1165 25.953 26.9579 25.4983 27.0319 25.4454C27.0848 25.3925 27.328 25.7415 27.455 25.7627C27.7405 25.805 27.6665 25.2762 27.9838 25.3185C28.1847 25.3396 28.2059 25.0858 28.1742 24.9166C28.153 24.7579 27.8992 24.5358 27.7828 24.43C27.6348 24.3031 27.5607 24.5358 27.6559 24.5993C27.7828 24.705 28.0049 24.906 28.0367 25.0329C28.0472 25.0964 27.8886 25.2233 27.8251 25.1916C27.6771 25.1069 27.5501 24.7685 27.4232 24.6945C27.3809 24.6733 27.2752 24.7262 27.3175 24.832C27.3809 24.9483 27.6348 25.1175 27.6453 25.2444C27.6559 25.3502 27.5396 25.5829 27.455 25.5829C27.3598 25.5829 27.1377 25.2973 27.0636 25.1598C27.0213 25.1069 26.905 25.1069 26.8838 25.2021C26.877 25.3975 26.8947 25.5929 26.9367 25.7838C26.9579 25.953 26.8415 25.9636 26.7781 25.9002ZM26.355 24.9906C26.3127 25.0329 26.4396 25.1175 26.4608 25.0964C26.5031 25.0541 26.6829 24.8531 26.6512 24.7791C26.6194 24.7156 26.3762 24.5675 26.3339 24.6416C26.2598 24.7579 26.5665 24.8214 26.5137 24.8531C26.4545 24.8912 26.4011 24.9375 26.355 24.9906ZM26.7886 24.1022C26.7886 24.1022 26.8733 24.3666 26.9367 24.2503C26.979 24.1762 26.7886 24.1022 26.7886 24.1022ZM26.9156 24.5252C26.8944 24.5252 26.8098 24.5993 26.8627 24.631C26.9473 24.6733 27.1694 24.7156 27.1165 24.557C27.0848 24.4618 27.455 24.557 27.3598 24.3031C27.3215 24.2249 27.2582 24.1616 27.18 24.1233C27.1377 24.1233 27.0213 24.1762 27.0954 24.2185C27.1482 24.2397 27.3069 24.3349 27.254 24.3983C27.18 24.4618 27.1377 24.3666 27.0531 24.3877C27.0108 24.3877 27.0425 24.5147 27.0108 24.5464C27.0108 24.5675 26.9367 24.5041 26.9156 24.5147V24.5252ZM27.4973 23.5205C27.432 23.5744 27.3872 23.6491 27.3703 23.732C27.3703 23.7532 27.4021 23.7955 27.4232 23.7849C27.4884 23.7355 27.5335 23.6641 27.5501 23.5839C27.5501 23.5522 27.529 23.4993 27.4973 23.5205ZM27.7934 23.4888C27.7088 23.383 27.8992 23.2138 27.9732 23.4359C28.0261 23.5734 28.5549 24.2714 28.6607 24.5041C28.7453 24.6627 28.6607 24.7262 28.5655 24.6098C28.3011 24.2714 28.079 23.8483 27.7934 23.4888ZM28.3434 23.4993C28.4386 23.3936 28.6289 23.182 28.5761 23.0763C28.5338 22.9705 28.4174 22.9705 28.3963 23.0022C28.2905 23.1397 28.4809 23.108 28.4491 23.1503C28.3963 23.2561 28.3434 23.3195 28.3116 23.4253C28.3011 23.457 28.3222 23.5205 28.3434 23.4993ZM36.5718 23.8378C36.4978 23.7849 36.6353 23.5205 36.7304 23.6262C36.9737 23.9118 37.09 24.8531 37.1641 25.5617C37.1641 25.5617 37.0583 25.6569 37.0583 25.6358C37.0583 25.2656 36.8997 24.1128 36.5718 23.8378ZM30.9557 22.9282C30.8711 22.7378 31.0721 22.6744 31.1038 22.8013C31.2413 23.4147 31.5797 23.8801 31.8442 24.2926C31.9182 24.4195 31.8442 24.5041 31.6644 24.3772C31.5374 24.2926 31.3999 23.9647 31.3471 23.9541C31.2201 23.933 30.9452 24.4829 30.3846 24.3243C30.2365 24.282 30.2471 23.8483 30.2365 23.658C30.2365 23.5628 30.3423 23.5522 30.3423 23.658C30.3423 23.8378 30.3423 24.2079 30.5644 24.2291C30.7548 24.2291 31.1567 23.9753 31.2413 23.7637C31.3259 23.5522 31.0404 23.1397 30.9557 22.9176V22.9282Z" fill="white"/>
<path fill-rule="evenodd" clip-rule="evenodd" d="M36.7207 25.4877C36.763 25.3608 37.3659 24.3455 37.4505 24.1234C37.4928 24.0176 37.662 24.3138 37.4928 24.4724C37.3447 24.5993 36.9111 25.3185 36.8265 25.5723C36.7842 25.6781 36.6784 25.6252 36.7207 25.4877Z" fill="white"/>
<path fill-rule="evenodd" clip-rule="evenodd" d="M37.7451 24.5254C37.8508 24.1023 38.1258 24.5889 37.8826 24.8215C37.523 25.1811 37.4066 25.8686 36.8249 25.9744C36.6769 26.0061 36.4019 25.9003 36.3173 25.8369C36.2855 25.8157 36.3384 25.6676 36.4336 25.7417C36.5711 25.8474 36.8672 25.8792 37.0259 25.7523C37.3715 25.4153 37.6199 24.9915 37.7451 24.5254ZM31.7165 25.8686C31.6848 25.9003 31.6108 25.9003 31.6002 25.9426C31.5685 26.0907 31.6002 26.1753 31.5685 26.3234C31.5367 26.4715 31.431 26.4715 31.4415 26.3551C31.4415 26.207 31.579 25.9849 31.4839 25.9744C31.4204 25.9638 31.3781 25.8792 31.4415 25.8369C31.5579 25.7628 31.6213 25.7734 31.6954 25.7946C31.7271 25.8051 31.7377 25.8474 31.7165 25.8686Z" fill="white"/>
<path fill-rule="evenodd" clip-rule="evenodd" d="M31.6334 25.6571C31.4853 25.8051 31.3372 25.858 31.1997 26.0272C31.1363 26.0907 31.1469 26.1859 31.1046 26.2811C31.0728 26.3763 30.9565 26.3868 30.9248 26.3763C30.8719 26.334 30.8825 26.1647 30.819 26.2494C30.7555 26.3445 30.7238 26.4609 30.6392 26.4609C30.5652 26.4609 30.4277 26.3022 30.5017 26.3022C30.745 26.2705 30.7344 26.0907 30.819 26.0696C30.9248 26.059 30.9248 26.2282 30.9988 26.1965C31.0411 26.1753 31.0728 25.9744 31.1257 25.9215C31.2844 25.7523 31.4113 25.6677 31.5805 25.5407C31.6545 25.4773 31.718 25.5936 31.6334 25.6677V25.6571ZM32.1939 26.1859C32.067 26.207 32.0882 26.3657 32.1305 26.3763C32.1834 26.408 32.2785 26.4186 32.3103 26.2388C32.3314 26.1647 32.342 26.6089 32.5006 26.4397C32.6064 26.334 32.8285 26.4609 32.9237 26.334C32.9977 26.2388 33.0295 26.1753 32.966 26.0484C32.9449 26.0167 32.8602 26.0272 32.8602 26.1224C32.8602 26.207 32.8074 26.3022 32.7228 26.2917C32.6804 26.2811 32.7439 26.0907 32.7016 26.0378C32.6917 26.0281 32.6784 26.0227 32.6646 26.0227C32.6507 26.0227 32.6374 26.0281 32.6276 26.0378C32.5958 26.0801 32.6593 26.2705 32.5641 26.2917C32.4372 26.3128 32.5006 26.1647 32.4583 26.1436C32.2785 26.059 32.268 26.1647 32.1939 26.1753V26.1859ZM33.1458 25.8686C33.241 25.8475 33.2093 25.8475 33.3573 25.7311C33.4102 25.6888 33.4208 25.8157 33.4102 25.8686C33.4102 25.9426 33.3045 25.8898 33.2727 25.9638C33.2304 26.059 33.2516 26.2811 33.2304 26.3657C33.2304 26.408 33.1458 26.408 33.1458 26.3657C33.1247 26.2599 33.1564 26.1542 33.1458 26.0167C33.1458 25.9744 33.0929 25.9003 33.1458 25.8792V25.8686ZM32.617 25.6042C32.5958 25.6994 32.5958 25.7734 32.5958 25.8475C32.5958 25.9003 32.7016 25.8686 32.7016 25.858C32.7016 25.7734 32.7228 25.6465 32.7016 25.6148C32.6804 25.6042 32.6276 25.583 32.617 25.6042Z" fill="white"/>
<path fill-rule="evenodd" clip-rule="evenodd" d="M31.95 24.6206L31.802 25.2129L31.5904 24.811V25.2235L31.1251 24.6735L31.2837 25.2658L30.8607 24.9062L31.0933 25.3081L30.353 24.8321L30.8184 25.3821L30.2261 25.086L30.6491 25.4456L29.6973 25.086L30.6174 25.5407C31.0354 25.3505 31.4908 25.2565 31.95 25.2658C32.4683 25.2658 32.9336 25.3715 33.2721 25.5407L34.2028 25.086L33.2509 25.4456L33.674 25.086L33.0923 25.3821L33.5471 24.8321L32.8067 25.3081L33.0394 24.9062L32.6163 25.2552L32.775 24.6735L32.3202 25.2235V24.811L32.1087 25.2129L31.95 24.6206Z" fill="white"/>
<path d="M31.1246 37.4624L31.1121 37.7374H31.0621V37.5499C31.0505 37.4943 31.0337 37.4399 31.0121 37.3874C30.9954 37.3438 30.9744 37.302 30.9496 37.2624C30.9191 37.2146 30.8857 37.1687 30.8496 37.1249L30.9371 36.8999C31.0006 36.9723 31.0475 37.0576 31.0746 37.1499C31.1131 37.2497 31.1343 37.3554 31.1371 37.4624H31.1246ZM31.8246 37.0374C31.8246 37.1124 31.8121 37.1624 31.7871 37.1874C31.7621 37.2249 31.7121 37.2499 31.6621 37.2624L31.6871 37.3999C31.6985 37.4703 31.6985 37.542 31.6871 37.6124V37.7374H31.6371V37.6124C31.6319 37.5784 31.6236 37.5449 31.6121 37.5124C31.6001 37.4789 31.5876 37.4455 31.5746 37.4124C31.5536 37.3605 31.5286 37.3103 31.4996 37.2624L31.3996 37.0999L31.4621 36.8999L31.5621 37.0124L31.6496 37.0374C31.7371 37.0374 31.7746 36.9999 31.7746 36.9124H31.8121C31.8115 36.9332 31.8115 36.9541 31.8121 36.9749V37.0374H31.8246ZM32.4496 37.5249L32.3996 37.7374L32.3246 37.6624C32.3059 37.6228 32.2933 37.5807 32.2871 37.5374C32.283 37.4791 32.283 37.4207 32.2871 37.3624C32.2505 37.3722 32.2125 37.3765 32.1746 37.3749C32.1246 37.3749 32.0871 37.3749 32.0496 37.3374C32.0341 37.3258 32.0215 37.3107 32.0128 37.2933C32.0041 37.2759 31.9996 37.2568 31.9996 37.2374C31.9996 37.1499 32.0246 37.0749 32.0746 37.0124C32.1121 36.9374 32.1621 36.8999 32.2246 36.8999C32.2621 36.8999 32.2996 36.9124 32.3121 36.9374L32.3496 37.0374V37.2374C32.3496 37.3249 32.3496 37.3874 32.3746 37.4124C32.3746 37.4499 32.4121 37.4749 32.4496 37.5249ZM32.2621 37.1624C32.2621 37.1124 32.2246 37.0874 32.1746 37.0874C32.1571 37.0871 32.1399 37.0914 32.1246 37.0999C32.0996 37.1124 32.0996 37.1249 32.0996 37.1374C32.0996 37.1624 32.1246 37.1749 32.1996 37.1749C32.2204 37.1773 32.2413 37.1773 32.2621 37.1749V37.1624ZM33.1246 37.4624L33.0996 37.7249C33.0496 37.6874 32.9996 37.6249 32.9621 37.5374C32.9044 37.4042 32.8584 37.2661 32.8246 37.1249C32.796 37.2511 32.7626 37.3762 32.7246 37.4999L32.6496 37.6624C32.6303 37.6925 32.6047 37.7181 32.5746 37.7374V37.4874L32.6746 37.3374C32.7069 37.2825 32.7321 37.2237 32.7496 37.1624C32.7674 37.0799 32.7799 36.9964 32.7871 36.9124H32.8371L32.9246 37.1624C32.9687 37.2757 33.037 37.3781 33.1246 37.4624Z" fill="white"/>
<path d="M35.0625 39.9C35.1 39.9375 35.125 39.975 35.1375 40.025L35.1625 40.175H35.0875C35.0632 40.1262 35.0339 40.0801 35 40.0375C34.9603 39.9939 34.9186 39.9522 34.875 39.9125L34.7125 39.7625C34.6479 39.7058 34.5812 39.6516 34.5125 39.6L34.45 39.55L34.425 39.475C34.4169 39.4212 34.4127 39.3669 34.4125 39.3125L34.675 39.525C34.7612 39.5968 34.8446 39.6719 34.925 39.75L35.0625 39.9ZM34.1125 39.325L34.1 39.525L33.7875 39.5125L33.8125 39.3125H34.1125V39.325ZM34.95 40.2L34.2 40.4375L34.05 40.2375L34.7 40.05C34.6812 40.0194 34.6603 39.9902 34.6375 39.9625L34.55 39.9C34.5491 39.9192 34.5442 39.9381 34.5356 39.9553C34.527 39.9725 34.5149 39.9878 34.5 40C34.4721 40.0285 34.4378 40.0499 34.4 40.0625C34.3427 40.0779 34.2823 40.0779 34.225 40.0625C34.1625 40.0625 34.125 40.025 34.1 39.9875C34.0589 39.9243 34.0372 39.8504 34.0375 39.775C34.0375 39.675 34.0625 39.6125 34.1125 39.5875C34.1875 39.5625 34.2875 39.5875 34.425 39.65C34.5438 39.7077 34.6468 39.7935 34.725 39.9L34.95 40.2ZM34.3625 39.8C34.3384 39.7891 34.3133 39.7808 34.2875 39.775C34.2671 39.7691 34.2454 39.7691 34.225 39.775C34.2141 39.7763 34.2038 39.7805 34.195 39.7871C34.1862 39.7936 34.1793 39.8024 34.175 39.8125C34.1706 39.8201 34.1683 39.8287 34.1683 39.8375C34.1683 39.8463 34.1706 39.8549 34.175 39.8625L34.225 39.8875H34.2875C34.3028 39.8782 34.3157 39.8653 34.325 39.85L34.3625 39.8ZM33.5625 39.65L33.5125 39.85L33.2 39.8125L33.25 39.625L33.5625 39.65ZM34.3125 40.4L34.1375 40.45C34.0796 40.4598 34.0204 40.4598 33.9625 40.45C33.9103 40.4488 33.8591 40.436 33.8125 40.4125C33.7875 40.4625 33.7375 40.5 33.675 40.5375C33.6229 40.5604 33.5684 40.5772 33.5125 40.5875L33.3875 40.625L33.2875 40.425L33.4125 40.4L33.5375 40.3625L33.6125 40.3125C33.5848 40.2934 33.5555 40.2766 33.525 40.2625C33.5019 40.2506 33.4757 40.2463 33.45 40.25C33.4419 40.2471 33.4331 40.2471 33.425 40.25C33.4212 40.2622 33.4212 40.2753 33.425 40.2875H33.3625C33.3125 40.2 33.3 40.1375 33.325 40.0875C33.3625 40.0375 33.425 40 33.525 39.975C33.625 39.95 33.7125 39.95 33.7875 39.975C33.8625 39.975 33.9125 40.0125 33.9375 40.05C33.95 40.075 33.9625 40.1 33.95 40.125C33.95 40.15 33.95 40.1875 33.9125 40.25C33.9531 40.2634 33.9969 40.2634 34.0375 40.25L34.2 40.2125L34.3 40.4125L34.3125 40.4ZM33.5 40.6L33.3375 40.625C33.25 40.625 33.175 40.625 33.1125 40.575C33.0358 40.5087 32.9795 40.422 32.95 40.325L32.875 40.1125C32.863 40.0643 32.8369 40.0208 32.8 39.9875L32.7 39.95L32.7625 39.7375L32.9 39.85L33 40.0125L33.05 40.1625C33.0771 40.2409 33.1196 40.3132 33.175 40.375C33.2 40.4125 33.225 40.425 33.2625 40.4125L33.425 40.3875L33.5 40.6ZM32.8125 39.85L32.7 40.0375L32.4125 39.9625L32.5125 39.775L32.8125 39.85ZM32.9875 40.6875L32.2375 40.75L32.2 40.55L32.825 40.4875C32.8076 40.4526 32.7818 40.4226 32.75 40.4C32.7184 40.3766 32.6849 40.3557 32.65 40.3375L32.7125 40.15C32.775 40.1875 32.8375 40.225 32.8625 40.275C32.8875 40.325 32.925 40.4 32.9375 40.4875L32.9875 40.6875ZM32.3875 40.7875C32.312 40.7844 32.2368 40.7761 32.1625 40.7625C32.1071 40.7503 32.0527 40.7336 32 40.7125C31.9599 40.7298 31.918 40.7424 31.875 40.75H31.5C31.4375 40.75 31.4 40.75 31.375 40.725L31.3 40.625C31.2531 40.6661 31.1976 40.696 31.1375 40.7125C31.0851 40.7297 31.0302 40.7382 30.975 40.7375H30.8L30.825 40.5125L30.9875 40.525C31.075 40.525 31.15 40.525 31.2 40.4875C31.275 40.45 31.325 40.3875 31.325 40.3125H31.4C31.3949 40.3541 31.3908 40.3957 31.3875 40.4375C31.3875 40.475 31.3875 40.5 31.425 40.5125L31.5125 40.5375H31.875C31.925 40.5125 31.95 40.475 31.9625 40.4125L31.975 40.375C31.9909 40.3652 32.0076 40.3569 32.025 40.35L32.075 40.3375V40.4125L32.0375 40.5125C32.1057 40.5388 32.1772 40.5556 32.25 40.5625C32.25 40.55 32.25 40.525 32.225 40.5C32.225 40.4625 32.2 40.45 32.2 40.4375C32.2017 40.4281 32.206 40.4195 32.2125 40.4125L32.25 40.3875L32.35 40.3L32.3875 40.3875C32.3875 40.4125 32.4 40.45 32.3875 40.4875L32.375 40.7875H32.3875ZM31.25 39.9125L31.0625 40.0375L30.925 39.9625L30.7875 40.0625L30.6 39.95L30.775 39.825L30.925 39.9125L31.0625 39.8L31.25 39.925V39.9125ZM30.95 40.725L30.225 40.6L30.3125 40.4L30.9125 40.5C30.923 40.4675 30.923 40.4325 30.9125 40.4C30.8942 40.373 30.8732 40.3479 30.85 40.325L31.0125 40.1625C31.05 40.2125 31.075 40.2625 31.075 40.3125C31.075 40.3625 31.075 40.4375 31.025 40.525L30.95 40.725ZM30.3375 40.625L30.1875 40.5875C30.1 40.575 30.05 40.5375 30.0375 40.475C30.025 40.4125 30.05 40.325 30.125 40.2L30.25 39.9875L30.275 39.875L30.2375 39.8L30.4625 39.65L30.4875 39.7875C30.4875 39.8375 30.4625 39.9 30.4125 39.9625L30.3375 40.1125C30.2922 40.1756 30.2623 40.2483 30.25 40.325C30.25 40.3625 30.2625 40.3875 30.3 40.3875L30.45 40.425L30.3375 40.625ZM29.9625 39.8375L29.7125 39.95L29.5375 39.775L29.7875 39.675L29.975 39.8375H29.9625ZM29.8625 40.5C29.8225 40.5556 29.7714 40.6024 29.7125 40.6375C29.6625 40.675 29.6 40.6875 29.5375 40.7C29.4587 40.7108 29.3788 40.7108 29.3 40.7C29.2061 40.6839 29.114 40.6588 29.025 40.625C28.8967 40.5895 28.7803 40.5204 28.6875 40.425C28.625 40.35 28.625 40.275 28.6875 40.2C28.7398 40.1351 28.8033 40.0801 28.875 40.0375C28.9955 39.9768 29.1209 39.9266 29.25 39.8875L29.3 39.9375C29.175 39.9875 29.075 40.025 29.025 40.0625C28.9783 40.0836 28.9359 40.1133 28.9 40.15C28.8625 40.2 28.8625 40.25 28.9125 40.3125C29.091 40.4532 29.3103 40.5321 29.5375 40.5375C29.6625 40.5375 29.7375 40.5 29.775 40.4625L29.825 40.375L29.8375 40.2L30.0875 40.05L30.075 40.2C30.0625 40.25 30.025 40.3 29.975 40.3625L29.8625 40.5Z" fill="#BF0000"/>
</svg>
