<svg width="64" height="64" viewBox="0 0 64 64" fill="none" xmlns="http://www.w3.org/2000/svg">
<g clip-path="url(#clip0)">
<path fill-rule="evenodd" clip-rule="evenodd" d="M-16 0H80.0009V64.0036H-16V0Z" fill="white"/>
<path d="M32.0008 51.9001C42.9876 51.9001 51.8942 42.9935 51.8942 32.0067C51.8942 21.0199 42.9876 12.1133 32.0008 12.1133C21.014 12.1133 12.1074 21.0199 12.1074 32.0067C12.1074 42.9935 21.014 51.9001 32.0008 51.9001Z" fill="#D30000"/>
</g>
<defs>
<clipPath id="clip0">
<path d="M0 32C0 14.3269 14.3269 0 32 0V0C49.6731 0 64 14.3269 64 32V32C64 49.6731 49.6731 64 32 64V64C14.3269 64 0 49.6731 0 32V32Z" fill="white"/>
</clipPath>
</defs>
</svg>
