<svg width="64" height="64" viewBox="0 0 64 64" fill="none" xmlns="http://www.w3.org/2000/svg">
<path d="M0 0H64V64H0V0Z" fill="#D20000"/>
<path d="M0 0H10.85L32 30.8625L53.15 0H64L0 64H10.85L32 33.1375L53.15 64H64L0 0ZM64 25.6V38.4L0 25.6V38.4L64 25.6ZM25.6 0L32 27.425L38.4 0H25.6ZM25.6 64L32 36.575L38.4 64H25.6Z" fill="#FFE600"/>
<path d="M32.0004 42.2874C37.682 42.2874 42.2879 37.6815 42.2879 31.9999C42.2879 26.3183 37.682 21.7124 32.0004 21.7124C26.3188 21.7124 21.7129 26.3183 21.7129 31.9999C21.7129 37.6815 26.3188 42.2874 32.0004 42.2874Z" fill="#FFE600" stroke="#D20000" stroke-width="18.3"/>
</svg>
