<svg width="64" height="64" viewBox="0 0 64 64" fill="none" xmlns="http://www.w3.org/2000/svg">
<g clip-path="url(#clip0)">
<path d="M25.6004 0H64.0004V64H25.5879L25.6004 0Z" fill="#FF0000"/>
<path d="M0.000781253 0H25.6008V64H-0.0117188L0.000781253 0Z" fill="#006600"/>
<path fill-rule="evenodd" clip-rule="evenodd" d="M36.7246 40.825C32.4246 40.7 12.7246 28.4 12.5996 26.4375L13.6746 24.625C15.6246 27.4625 35.7746 39.425 37.7496 39L36.7246 40.825Z" fill="#FFFF00" stroke="black" stroke-width="0.7" stroke-linecap="round" stroke-linejoin="round"/>
<path fill-rule="evenodd" clip-rule="evenodd" d="M13.4486 24.3751C13.0611 25.4126 18.5861 28.8251 25.2361 32.8751C31.8861 36.9126 37.6111 39.4126 38.0486 39.0626L38.2361 38.7001C38.1611 38.8251 37.9611 38.8626 37.6611 38.7751C35.8611 38.2501 31.1736 36.1001 25.3736 32.5876C19.5736 29.0751 14.5236 25.8251 13.7486 24.4501C13.6848 24.3223 13.6546 24.1803 13.6611 24.0376H13.6361L13.4736 24.3251L13.4486 24.3751ZM36.8236 40.8751C36.7486 41.0126 36.6111 41.0126 36.3611 41.0001C34.7486 40.8126 29.8611 38.4376 24.1111 34.9876C17.3861 30.9626 11.8361 27.3001 12.4486 26.3501L12.6111 26.0501L12.6361 26.0626C12.0986 27.6876 23.5861 34.2501 24.2611 34.6751C30.8986 38.8001 36.5111 41.2001 37.0111 40.5751L36.8236 40.8751Z" fill="#FFFF00" stroke="black" stroke-width="0.7" stroke-linecap="round" stroke-linejoin="round"/>
<path fill-rule="evenodd" clip-rule="evenodd" d="M25.6234 27.6251C29.9109 27.5876 35.2234 27.0376 38.2734 25.8251L37.6234 24.7501C35.8109 25.7501 30.4859 26.4126 25.5859 26.5001C19.7859 26.4501 15.6984 25.9126 13.6484 24.5376L13.0234 25.6751C16.7984 27.2626 20.6484 27.6126 25.6234 27.6251Z" fill="#FFFF00" stroke="black" stroke-width="0.7" stroke-linecap="round" stroke-linejoin="round"/>
<path fill-rule="evenodd" clip-rule="evenodd" d="M38.4613 25.8499C38.3488 26.0124 36.3613 26.6999 33.4238 27.1999C30.8337 27.5884 28.2179 27.7806 25.5988 27.7749C23.091 27.7861 20.5852 27.6274 18.0988 27.2999C15.0363 26.8124 13.4363 26.1374 12.8488 25.8999L12.9988 25.6124C14.6611 26.2676 16.3934 26.729 18.1613 26.9874C20.6271 27.31 23.112 27.4645 25.5988 27.4499C28.197 27.4516 30.7917 27.2594 33.3613 26.8749C36.3613 26.3874 38.0113 25.7624 38.2363 25.4749L38.4613 25.8499ZM37.8738 24.7499C37.5488 24.9999 35.9238 25.5874 33.0738 26.0374C30.6105 26.391 28.1249 26.5665 25.6363 26.5624C23.2367 26.5806 20.8388 26.4261 18.4613 26.0999C15.5488 25.7249 14.0113 25.0374 13.4613 24.8374L13.6238 24.5499C14.0488 24.7749 15.5488 25.3749 18.4988 25.7999C20.8654 26.1066 23.25 26.2528 25.6363 26.2374C28.1041 26.2408 30.5689 26.0653 33.0113 25.7124C35.8863 25.3124 37.4363 24.5874 37.6738 24.3999L37.8738 24.7499ZM11.4988 32.7999C14.1488 34.2249 20.0113 34.9499 25.5738 34.9999C30.6363 34.9999 37.2363 34.2124 39.6988 32.8999L39.6238 31.4749C38.8613 32.6874 31.7988 33.8499 25.5238 33.7999C19.2488 33.7499 13.4238 32.7749 11.4863 31.5249V32.7999" fill="#FFFF00"/>
<path d="M11.4988 32.7999C14.1488 34.2249 20.0113 34.9499 25.5738 34.9999C30.6363 34.9999 37.2363 34.2124 39.6988 32.8999L39.6238 31.4749C38.8613 32.6874 31.7988 33.8499 25.5238 33.7999C19.2488 33.7499 13.4238 32.7749 11.4863 31.5249V32.7999M38.4613 25.8499C38.3488 26.0124 36.3613 26.6999 33.4238 27.1999C30.8337 27.5884 28.2179 27.7806 25.5988 27.7749C23.091 27.7861 20.5852 27.6274 18.0988 27.2999C15.0363 26.8124 13.4363 26.1374 12.8488 25.8999L12.9988 25.6124C14.6611 26.2676 16.3934 26.729 18.1613 26.9874C20.6271 27.31 23.112 27.4645 25.5988 27.4499C28.197 27.4516 30.7917 27.2594 33.3613 26.8749C36.3613 26.3874 38.0113 25.7624 38.2363 25.4749L38.4613 25.8499ZM37.8738 24.7499C37.5488 24.9999 35.9238 25.5874 33.0738 26.0374C30.6105 26.391 28.1249 26.5665 25.6363 26.5624C23.2367 26.5806 20.8388 26.4261 18.4613 26.0999C15.5488 25.7249 14.0113 25.0374 13.4613 24.8374L13.6238 24.5499C14.0488 24.7749 15.5488 25.3749 18.4988 25.7999C20.8654 26.1066 23.25 26.2528 25.6363 26.2374C28.1041 26.2408 30.5689 26.0653 33.0113 25.7124C35.8863 25.3124 37.4363 24.5874 37.6738 24.3999L37.8738 24.7499V24.7499Z" stroke="black" stroke-width="0.7" stroke-linecap="round" stroke-linejoin="round"/>
<path fill-rule="evenodd" clip-rule="evenodd" d="M39.8367 32.6001V32.9376C39.4617 33.3876 37.1367 34.0626 34.2242 34.5251C31.3393 34.9441 28.4268 35.1447 25.5117 35.1251C22.0867 35.1251 19.3617 34.8751 17.2367 34.5501C15.1978 34.3184 13.205 33.7833 11.3242 32.9626V32.5626C12.6242 33.4251 16.1117 34.0501 17.2867 34.2376C19.3867 34.5626 22.0992 34.8001 25.5117 34.8001C29.0992 34.8001 31.9742 34.5501 34.1742 34.2126C36.2742 33.9126 39.2492 33.1251 39.8367 32.6001ZM39.8367 31.3876V31.7376C39.4617 32.1751 37.1367 32.8501 34.2242 33.3126C31.3393 33.7316 28.4268 33.9322 25.5117 33.9126C22.0867 33.9126 19.3617 33.6626 17.2492 33.3501C15.2055 33.1152 13.2084 32.5759 11.3242 31.7501V31.3501C12.6242 32.2126 16.1117 32.8501 17.2867 33.0251C19.3992 33.3501 22.1117 33.6001 25.5117 33.6001C29.0992 33.6001 31.9742 33.3501 34.1742 33.0001C36.2742 32.7001 39.2492 31.9126 39.8367 31.3876ZM25.5617 40.5751C19.4867 40.5376 14.2742 38.9251 13.1742 38.6501L13.9742 39.9001C15.9117 40.7251 20.9992 41.9501 25.6242 41.8126C30.2492 41.6751 34.2867 41.3126 37.1242 39.9376L37.9492 38.6251C36.0117 39.5376 29.4117 40.5751 25.5742 40.5751" fill="#FFFF00"/>
<path d="M25.5617 40.5751C19.4867 40.5376 14.2742 38.9251 13.1742 38.6501L13.9742 39.9001C15.9117 40.7251 20.9992 41.9501 25.6242 41.8126C30.2492 41.6751 34.2867 41.3126 37.1242 39.9376L37.9492 38.6251C36.0117 39.5376 29.4117 40.5751 25.5742 40.5751M39.8367 32.6001V32.9376C39.4617 33.3876 37.1367 34.0626 34.2242 34.5251C31.3393 34.9441 28.4268 35.1447 25.5117 35.1251C22.0867 35.1251 19.3617 34.8751 17.2367 34.5501C15.1978 34.3184 13.205 33.7833 11.3242 32.9626V32.5626C12.6242 33.4251 16.1117 34.0501 17.2867 34.2376C19.3867 34.5626 22.0992 34.8001 25.5117 34.8001C29.0992 34.8001 31.9742 34.5501 34.1742 34.2126C36.2742 33.9126 39.2492 33.1251 39.8367 32.6001V32.6001ZM39.8367 31.3876V31.7376C39.4617 32.1751 37.1367 32.8501 34.2242 33.3126C31.3393 33.7316 28.4268 33.9322 25.5117 33.9126C22.0867 33.9126 19.3617 33.6626 17.2492 33.3501C15.2055 33.1152 13.2084 32.5759 11.3242 31.7501V31.3501C12.6242 32.2126 16.1117 32.8501 17.2867 33.0251C19.3992 33.3501 22.1117 33.6001 25.5117 33.6001C29.0992 33.6001 31.9742 33.3501 34.1742 33.0001C36.2742 32.7001 39.2492 31.9126 39.8367 31.3876V31.3876Z" stroke="black" stroke-width="0.7" stroke-linecap="round" stroke-linejoin="round"/>
<path fill-rule="evenodd" clip-rule="evenodd" d="M37.4363 39.6374C37.3145 39.8229 37.1895 40.0063 37.0613 40.1874C35.6429 40.6579 34.1936 41.0297 32.7238 41.2999C30.3653 41.7339 27.972 41.9514 25.5738 41.9499C20.1863 41.8749 15.7738 40.8249 13.6988 39.9249L13.5238 39.6374L13.5613 39.5874L13.8363 39.6999C17.6316 40.9575 21.6007 41.6113 25.5988 41.6374C28.0988 41.6499 30.5988 41.3499 32.6113 40.9999C35.7113 40.3749 36.9613 39.9124 37.3488 39.6999L37.4363 39.6374ZM38.1488 38.4624H38.1613C38.0708 38.6214 37.9792 38.7797 37.8863 38.9374C37.1738 39.1874 35.2238 39.7624 32.3863 40.1624C30.5113 40.4124 29.3488 40.6624 25.6363 40.7374C21.3827 40.6915 17.1555 40.0606 13.0738 38.8624L12.9238 38.5499C17.0697 39.6877 21.3385 40.3173 25.6363 40.4249C29.0363 40.3499 30.4863 40.0999 32.3363 39.8374C35.6488 39.3374 37.3113 38.7874 37.8113 38.6249C37.8075 38.6164 37.8033 38.6081 37.7988 38.5999L38.1488 38.4624Z" fill="#FFFF00" stroke="black" stroke-width="0.6" stroke-linecap="round" stroke-linejoin="round"/>
<path fill-rule="evenodd" clip-rule="evenodd" d="M38.2246 31.6751C38.2496 35.6751 36.1996 39.2751 34.5496 40.8626C32.1259 43.2199 28.8927 44.5614 25.5121 44.6126C21.4746 44.6876 17.6746 42.0501 16.6496 40.9001C14.6496 38.6376 13.0246 35.7751 12.9746 31.9001C13.2246 27.5251 14.9371 24.4876 17.4246 22.4001C19.8316 20.4202 22.858 19.3495 25.9746 19.3751C29.1496 19.4626 32.8746 21.0251 35.4371 24.1251C37.1121 26.1501 37.8496 28.3501 38.2246 31.6876V31.6751ZM25.5496 17.9751C33.2996 17.9751 39.6746 24.2876 39.6746 32.0126C39.6515 35.7436 38.1531 39.3139 35.5067 41.944C32.8602 44.574 29.2807 46.0502 25.5496 46.0501C17.7996 46.0501 11.4746 39.7501 11.4746 32.0126C11.4746 24.2751 17.7996 17.9751 25.5496 17.9751Z" fill="#FFFF00"/>
<path d="M25.5496 17.9751C33.2996 17.9751 39.6746 24.2876 39.6746 32.0126C39.6515 35.7436 38.1531 39.3139 35.5067 41.944C32.8602 44.574 29.2807 46.0502 25.5496 46.0501C17.7996 46.0501 11.4746 39.7501 11.4746 32.0126C11.4746 24.2751 17.7996 17.9751 25.5496 17.9751M38.2246 31.6751C38.2496 35.6751 36.1996 39.2751 34.5496 40.8626C32.1259 43.2199 28.8927 44.5614 25.5121 44.6126C21.4746 44.6876 17.6746 42.0501 16.6496 40.9001C14.6496 38.6376 13.0246 35.7751 12.9746 31.9001C13.2246 27.5251 14.9371 24.4876 17.4246 22.4001C19.8316 20.4202 22.858 19.3495 25.9746 19.3751C29.1496 19.4626 32.8746 21.0251 35.4371 24.1251C37.1121 26.1501 37.8496 28.3501 38.2246 31.6876V31.6751Z" stroke="black" stroke-width="0.7" stroke-linecap="round" stroke-linejoin="round"/>
<path fill-rule="evenodd" clip-rule="evenodd" d="M25.5875 17.9251C33.3375 17.9251 39.6625 24.2626 39.6625 32.0126C39.6625 39.7626 33.3375 46.1001 25.5875 46.1001C21.8521 46.0902 18.2728 44.6011 15.6327 41.9586C12.9925 39.3161 11.5066 35.7355 11.5 32.0001C11.5099 28.2669 12.9973 24.6894 15.6371 22.0497C18.2768 19.4099 21.8543 17.9225 25.5875 17.9126V17.9251ZM11.8125 32.0126C11.8125 39.5876 18.0375 45.7876 25.5875 45.7876C33.1375 45.7876 39.35 39.5876 39.35 32.0126C39.35 24.4376 33.1375 18.2501 25.5875 18.2501C21.9404 18.2633 18.4462 19.7171 15.866 22.2948C13.2859 24.8726 11.829 28.3655 11.8125 32.0126Z" fill="#FFFF00" stroke="black" stroke-width="0.7" stroke-linecap="round" stroke-linejoin="round"/>
<path fill-rule="evenodd" clip-rule="evenodd" d="M25.6 19.1001C32.6625 19.1001 38.4875 24.9126 38.4875 32.0001C38.4875 39.1001 32.6625 44.9001 25.6 44.9001C22.1806 44.8902 18.9039 43.5283 16.4848 41.1116C14.0657 38.6949 12.7007 35.4195 12.6875 32.0001C12.6875 24.9126 18.5125 19.1001 25.5875 19.1001H25.6ZM13 32.0001C13 38.9251 18.6875 44.5876 25.6 44.5876C32.5 44.5876 38.1875 38.9251 38.1875 32.0001C38.1875 25.0751 32.5 19.4126 25.5875 19.4126C18.675 19.4126 13 25.0751 13 32.0001Z" fill="#FFFF00" stroke="black" stroke-width="0.7" stroke-linecap="round" stroke-linejoin="round"/>
<path fill-rule="evenodd" clip-rule="evenodd" d="M26.1617 17.875H24.9492V46.175H26.1617V17.875Z" fill="#FFFF00" stroke="black" stroke-width="0.7" stroke-linecap="round" stroke-linejoin="round"/>
<path fill-rule="evenodd" clip-rule="evenodd" d="M26.0359 17.7124H26.3484V46.3374H26.0359V17.7124ZM24.8359 17.7124H25.1484V46.3374H24.8359V17.7124Z" fill="#FFFF00" stroke="black" stroke-width="0.7" stroke-linecap="round" stroke-linejoin="round"/>
<path fill-rule="evenodd" clip-rule="evenodd" d="M39.6742 32.5624V31.4999L38.8242 30.7124L33.9867 29.4249L27.0117 28.7124L18.6367 29.1374L12.6492 30.5624L11.4492 31.4624V32.4999L14.4992 31.1249L21.7492 29.9999H28.7242L33.8492 30.5624L37.3992 31.4249L39.6742 32.5624Z" fill="#FFFF00" stroke="black" stroke-width="0.7" stroke-linecap="round" stroke-linejoin="round"/>
<path fill-rule="evenodd" clip-rule="evenodd" d="M25.5867 29.8375C28.6428 29.825 31.6935 30.097 34.6992 30.65C37.3367 31.175 39.1992 31.8375 39.8242 32.575V32.95C39.0742 32.025 36.5742 31.35 34.6367 30.95C32.0992 30.4625 28.8867 30.15 25.5867 30.15C22.0867 30.15 18.8367 30.4875 16.3367 30.975C14.3367 31.375 11.6617 32.1625 11.3242 32.95V32.575C11.5117 32.025 13.4992 31.2125 16.2992 30.65C19.3635 30.0941 22.4725 29.8221 25.5867 29.8375ZM25.5867 28.625C28.647 28.6132 31.7017 28.8852 34.7117 29.4375C37.3367 29.9625 39.2117 30.625 39.8367 31.375V31.7375C39.0742 30.8125 36.5617 30.1375 34.6367 29.75C32.0992 29.25 28.8867 28.9375 25.5867 28.9375C22.4929 28.9279 19.4048 29.2041 16.3617 29.7625C14.4242 30.1375 11.6367 30.9625 11.3242 31.7375V31.3625C11.5117 30.825 13.5492 29.9875 16.2992 29.45C19.3631 28.8899 22.4721 28.6137 25.5867 28.625ZM25.5242 22.4625C30.7617 22.4375 35.3367 23.2 37.4242 24.275L38.1867 25.5875C36.3742 24.6125 31.4367 23.5875 25.5242 23.75C20.7117 23.775 15.5742 24.275 12.9867 25.65L13.8992 24.125C16.0242 23.025 21.0242 22.475 25.5242 22.4625Z" fill="#FFFF00" stroke="black" stroke-width="0.7" stroke-linecap="round" stroke-linejoin="round"/>
<path fill-rule="evenodd" clip-rule="evenodd" d="M25.5859 23.55C28.5859 23.55 31.4609 23.7125 33.7609 24.125C35.8984 24.525 37.9484 25.125 38.2359 25.45L38.4609 25.85C37.7484 25.3875 35.9859 24.8625 33.7109 24.4375C31.0246 24.0096 28.3056 23.8214 25.5859 23.875C22.2109 23.875 19.5859 24.0375 17.3359 24.4375C14.9609 24.875 13.3109 25.5125 12.8984 25.8125L13.1234 25.4C13.9109 24.9875 15.1734 24.5 17.2859 24.125C19.6109 23.7 22.2484 23.575 25.5859 23.55ZM25.5859 22.35C28.226 22.3084 30.8647 22.4924 33.4734 22.9C35.2109 23.2375 36.9234 23.7625 37.5609 24.225L37.8859 24.75C37.3234 24.125 35.2109 23.5375 33.3359 23.2125C31.1609 22.8375 28.4484 22.6875 25.5859 22.6625C22.5859 22.6625 19.8109 22.85 17.6609 23.2375C15.6109 23.6375 14.2859 24.1 13.7234 24.4625L14.0109 24.0125C14.7859 23.6125 16.0359 23.2375 17.6109 22.925C19.7734 22.5375 22.5734 22.35 25.5859 22.35ZM32.5859 37.8625C30.2748 37.464 27.9307 37.2882 25.5859 37.3375C16.8484 37.4375 14.0359 39.125 13.6859 39.6375L13.0359 38.575C15.2484 36.9625 19.9984 36.0625 25.6234 36.15C28.5359 36.2 31.0484 36.4 33.1734 36.8L32.5734 37.8625" fill="#FFFF00"/>
<path d="M32.5859 37.8625C30.2748 37.464 27.9307 37.2882 25.5859 37.3375C16.8484 37.4375 14.0359 39.125 13.6859 39.6375L13.0359 38.575C15.2484 36.9625 19.9984 36.0625 25.6234 36.15C28.5359 36.2 31.0484 36.4 33.1734 36.8L32.5734 37.8625M25.5859 23.55C28.5859 23.55 31.4609 23.7125 33.7609 24.125C35.8984 24.525 37.9484 25.125 38.2359 25.45L38.4609 25.85C37.7484 25.3875 35.9859 24.8625 33.7109 24.4375C31.0246 24.0096 28.3056 23.8214 25.5859 23.875C22.2109 23.875 19.5859 24.0375 17.3359 24.4375C14.9609 24.875 13.3109 25.5125 12.8984 25.8125L13.1234 25.4C13.9109 24.9875 15.1734 24.5 17.2859 24.125C19.6109 23.7 22.2484 23.575 25.5859 23.55V23.55ZM25.5859 22.35C28.226 22.3084 30.8647 22.4924 33.4734 22.9C35.2109 23.2375 36.9234 23.7625 37.5609 24.225L37.8859 24.75C37.3234 24.125 35.2109 23.5375 33.3359 23.2125C31.1609 22.8375 28.4484 22.6875 25.5859 22.6625C22.5859 22.6625 19.8109 22.85 17.6609 23.2375C15.6109 23.6375 14.2859 24.1 13.7234 24.4625L14.0109 24.0125C14.7859 23.6125 16.0359 23.2375 17.6109 22.925C19.7734 22.5375 22.5734 22.35 25.5859 22.35V22.35Z" stroke="black" stroke-width="0.7" stroke-linecap="round" stroke-linejoin="round"/>
<path fill-rule="evenodd" clip-rule="evenodd" d="M25.5371 37.1876C27.9621 37.2251 30.3496 37.3126 32.6621 37.7501L32.4871 38.0501C30.1965 37.6546 27.8738 37.4746 25.5496 37.5126C22.3246 37.4876 19.0496 37.7876 16.2246 38.6001C15.3246 38.8501 13.8496 39.4251 13.6871 39.9001L13.5246 39.6251C13.5746 39.3501 14.4746 38.7626 16.1496 38.3001C19.3996 37.3626 22.4371 37.2126 25.5246 37.1751L25.5371 37.1876ZM25.6496 35.9626C28.2099 35.9602 30.7655 36.1819 33.2871 36.6251L33.1121 36.9376C30.6546 36.488 28.1603 36.2704 25.6621 36.2876C22.4246 36.2876 18.9996 36.5251 15.8746 37.4251C14.8746 37.7251 13.1246 38.3501 13.0746 38.8501L12.9121 38.5626C12.9496 38.1126 14.4496 37.5126 15.8121 37.1126C19.0217 36.2731 22.3329 35.886 25.6496 35.9626Z" fill="#FFFF00" stroke="black" stroke-width="0.6" stroke-linecap="round" stroke-linejoin="round"/>
<path fill-rule="evenodd" clip-rule="evenodd" d="M38.0492 38.7376L36.9992 40.3626L33.9867 37.6876L26.1617 32.4376L17.3492 27.5876L12.7617 26.0251L13.7367 24.2126L14.0742 24.0376L16.9242 24.7501L26.2992 29.5876L31.7117 33.0001L36.2492 36.2501L38.0992 38.3876L38.0492 38.7376Z" fill="#FFFF00" stroke="black" stroke-width="0.7" stroke-linecap="round" stroke-linejoin="round"/>
<path fill-rule="evenodd" clip-rule="evenodd" d="M12.5988 26.0624C13.4113 25.5249 19.3113 28.1499 25.4738 31.8749C31.6363 35.6124 37.5238 39.8249 36.9988 40.6249L36.8238 40.8874L36.7363 40.9499C36.7613 40.9499 36.8488 40.8249 36.7363 40.5374C36.4613 39.6749 32.2988 36.3499 25.3613 32.1624C18.6113 28.1374 12.9863 25.7124 12.4238 26.4124L12.5988 26.0624ZM38.2613 38.7124C38.7613 37.7124 33.2988 33.5874 26.5113 29.5749C19.5738 25.6374 14.5613 23.3249 13.6488 24.0124L13.4488 24.3874C13.4488 24.3999 13.4488 24.3624 13.4988 24.3249C13.6613 24.1874 13.9363 24.1999 14.0613 24.1999C15.6363 24.2124 20.1363 26.2749 26.4363 29.8999C29.1988 31.4999 38.1113 37.2249 38.0738 38.8249C38.0738 38.9624 38.0863 38.9874 38.0363 39.0624L38.2613 38.7124Z" fill="#FFFF00" stroke="black" stroke-width="0.7" stroke-linecap="round" stroke-linejoin="round"/>
<path d="M17.1484 33.559C17.1505 34.663 17.3716 35.7556 17.7988 36.7737C18.226 37.7917 18.8509 38.7148 19.6373 39.4897C20.4141 40.2784 21.3393 40.9057 22.3596 41.3353C23.3799 41.7649 24.4752 41.9884 25.5822 41.9928C27.8227 41.9926 29.9714 41.1025 31.5556 39.5181C32.3392 38.739 32.9612 37.8127 33.3859 36.7925C33.8105 35.7723 34.0295 34.6783 34.0302 33.5732V22.3092L17.1484 22.2808V33.559Z" fill="white" stroke="black" stroke-width="0.796446"/>
<path d="M17.4609 33.5731C17.4639 34.6321 17.6766 35.6801 18.0867 36.6565C18.4968 37.6329 19.0962 38.5184 19.8503 39.262C21.3645 40.7841 23.4206 41.6434 25.5676 41.6513C27.7108 41.6525 29.767 40.8034 31.285 39.2904C32.0365 38.5457 32.6332 37.6596 33.0409 36.6833C33.4485 35.7069 33.6589 34.6596 33.6601 33.6015V22.6504H17.4894V33.5731H17.4609ZM30.4316 25.9357V32.8904L30.4174 33.6157C30.4222 34.2511 30.2987 34.8809 30.0543 35.4674C29.8099 36.0539 29.4497 36.5851 28.9952 37.0291C28.0907 37.9367 26.8631 38.4482 25.5818 38.4513C24.2449 38.4513 23.0645 37.8824 22.1827 37.0006C21.2752 36.0962 20.7636 34.8686 20.7605 33.5873V25.9073L30.4316 25.9357Z" fill="#FF0000" stroke="black" stroke-width="0.56889"/>
<path d="M18.5137 25.5091C18.5279 24.7269 19.0826 24.542 19.0826 24.542C19.0968 24.542 19.6941 24.7411 19.6941 25.5233H18.5137" fill="#FFFF00"/>
<path d="M18.0303 24.5562L17.9307 25.4522H18.5281C18.5281 24.7127 19.097 24.5989 19.097 24.5989C19.1112 24.5989 19.6658 24.7553 19.6801 25.4522H20.2774L20.1636 24.542H18.0303V24.5562ZM17.8881 25.4664H20.3058C20.3485 25.4664 20.3912 25.5091 20.3912 25.566C20.3912 25.6371 20.3485 25.6798 20.3058 25.6798H17.8881C17.8454 25.6798 17.8027 25.6371 17.8027 25.566C17.8027 25.5091 17.8454 25.4664 17.9023 25.4664H17.8881Z" fill="#FFFF00" stroke="black" stroke-width="0.56889"/>
<path d="M18.7696 25.4522C18.7696 24.9829 19.0967 24.8549 19.0967 24.8549C19.0967 24.8549 19.4238 24.9971 19.4238 25.4522H18.7696ZM17.9447 24.1722H20.2629C20.3056 24.1722 20.3483 24.2291 20.3483 24.286C20.3483 24.3287 20.3056 24.3713 20.2629 24.3713H17.9447C17.902 24.3713 17.8594 24.3287 17.8594 24.2718C17.8594 24.2291 17.902 24.1864 17.9447 24.1864V24.1722ZM18.0016 24.3855H20.1918C20.2345 24.3855 20.2772 24.4282 20.2772 24.4851C20.2772 24.542 20.2345 24.5847 20.1918 24.5847H17.9874C17.9305 24.5847 17.902 24.542 17.902 24.4851C17.902 24.4282 17.9305 24.3855 17.9874 24.3855H18.0016ZM18.7127 22.878H18.8834V22.9918H19.0114V22.878H19.1963V23.006H19.3243V22.8638H19.4949V23.1482C19.4949 23.2051 19.4665 23.2335 19.4238 23.2335H18.798C18.7554 23.2335 18.7127 23.2051 18.7127 23.1624V22.878ZM19.3669 23.262L19.4096 24.1722H18.798L18.8407 23.2478H19.3669" fill="#FFFF00"/>
<path d="M19.3669 23.262L19.4096 24.1722H18.798L18.8407 23.2478H19.3669M18.7696 25.4522C18.7696 24.9829 19.0967 24.8549 19.0967 24.8549C19.0967 24.8549 19.4238 24.9971 19.4238 25.4522H18.7696ZM17.9447 24.1722H20.2629C20.3056 24.1722 20.3483 24.2291 20.3483 24.286C20.3483 24.3287 20.3056 24.3713 20.2629 24.3713H17.9447C17.902 24.3713 17.8594 24.3287 17.8594 24.2718C17.8594 24.2291 17.902 24.1864 17.9447 24.1864V24.1722ZM18.0016 24.3855H20.1918C20.2345 24.3855 20.2772 24.4282 20.2772 24.4851C20.2772 24.542 20.2345 24.5847 20.1918 24.5847H17.9874C17.9305 24.5847 17.902 24.542 17.902 24.4851C17.902 24.4282 17.9305 24.3855 17.9874 24.3855H18.0016ZM18.7127 22.878H18.8834V22.9918H19.0114V22.878H19.1963V23.006H19.3243V22.8638H19.4949V23.1482C19.4949 23.2051 19.4665 23.2335 19.4238 23.2335H18.798C18.7554 23.2335 18.7127 23.2051 18.7127 23.1624V22.878Z" stroke="black" stroke-width="0.56889"/>
<path d="M18.6275 23.6885V24.172H18.0586V23.6885H18.6275Z" fill="#FFFF00" stroke="black" stroke-width="0.56889"/>
<path d="M17.959 23.3188H18.1297V23.4611H18.2577V23.3188H18.4283V23.4611H18.5563V23.3188H18.727V23.6033C18.727 23.6602 18.6985 23.6886 18.6559 23.6886H18.0443C18.0217 23.6886 18 23.6796 17.984 23.6636C17.968 23.6476 17.959 23.6259 17.959 23.6033V23.3188Z" fill="#FFFF00" stroke="black" stroke-width="0.56889"/>
<path d="M19.041 23.5464C19.041 23.4611 19.169 23.4611 19.169 23.5464V23.774H19.041V23.5464Z" fill="black"/>
<path d="M18.2871 23.8594C18.2871 23.7741 18.4009 23.7741 18.4009 23.8594V24.0301H18.2871V23.8594Z" fill="black"/>
<path d="M24.545 32.3358C24.5424 32.636 24.6543 32.9259 24.8579 33.1465C24.9528 33.2527 25.0689 33.3379 25.1987 33.3967C25.3285 33.4555 25.4692 33.4865 25.6116 33.4878C25.9103 33.4878 26.1805 33.3456 26.3654 33.1465C26.569 32.9259 26.6809 32.636 26.6783 32.3358V30.7998H24.545V32.3358Z" fill="#003399"/>
<path d="M25.0434 31.5961C25.1612 31.5961 25.2567 31.5006 25.2567 31.3828C25.2567 31.2649 25.1612 31.1694 25.0434 31.1694C24.9256 31.1694 24.8301 31.2649 24.8301 31.3828C24.8301 31.5006 24.9256 31.5961 25.0434 31.5961Z" fill="white"/>
<path d="M26.2231 31.5961C26.3409 31.5961 26.4364 31.5006 26.4364 31.3828C26.4364 31.2649 26.3409 31.1694 26.2231 31.1694C26.1053 31.1694 26.0098 31.2649 26.0098 31.3828C26.0098 31.5006 26.1053 31.5961 26.2231 31.5961Z" fill="white"/>
<path d="M25.6254 32.165C25.7433 32.165 25.8388 32.0694 25.8388 31.9516C25.8388 31.8338 25.7433 31.7383 25.6254 31.7383C25.5076 31.7383 25.4121 31.8338 25.4121 31.9516C25.4121 32.0694 25.5076 32.165 25.6254 32.165Z" fill="white"/>
<path d="M25.0434 32.7626C25.1612 32.7626 25.2567 32.6671 25.2567 32.5493C25.2567 32.4315 25.1612 32.3359 25.0434 32.3359C24.9256 32.3359 24.8301 32.4315 24.8301 32.5493C24.8301 32.6671 24.9256 32.7626 25.0434 32.7626Z" fill="white"/>
<path d="M26.2231 32.7626C26.3409 32.7626 26.4364 32.6671 26.4364 32.5493C26.4364 32.4315 26.3409 32.3359 26.2231 32.3359C26.1053 32.3359 26.0098 32.4315 26.0098 32.5493C26.0098 32.6671 26.1053 32.7626 26.2231 32.7626Z" fill="white"/>
</g>
<defs>
<clipPath id="clip0">
<path d="M0 32C0 14.3269 14.3269 0 32 0V0C49.6731 0 64 14.3269 64 32V32C64 49.6731 49.6731 64 32 64V64C14.3269 64 0 49.6731 0 32V32Z" fill="white"/>
</clipPath>
</defs>
</svg>
