<svg width="64" height="64" viewBox="0 0 64 64" fill="none" xmlns="http://www.w3.org/2000/svg">
<path d="M0 0H64V21.3375H0V0Z" fill="#FF9933"/>
<path d="M0 21.3374H64V42.6624H0V21.3374Z" fill="white"/>
<path d="M0 42.6626H64V64.0001H0V42.6626Z" fill="#128807"/>
<path d="M32.0001 40.5334C36.7129 40.5334 40.5334 36.7129 40.5334 32.0001C40.5334 27.2873 36.7129 23.4668 32.0001 23.4668C27.2873 23.4668 23.4668 27.2873 23.4668 32.0001C23.4668 36.7129 27.2873 40.5334 32.0001 40.5334Z" fill="#000088"/>
<path d="M31.9999 39.467C36.1236 39.467 39.4665 36.1241 39.4665 32.0004C39.4665 27.8766 36.1236 24.5337 31.9999 24.5337C27.8761 24.5337 24.5332 27.8766 24.5332 32.0004C24.5332 36.1241 27.8761 39.467 31.9999 39.467Z" fill="white"/>
<path d="M31.9992 33.4935C32.8239 33.4935 33.4925 32.8249 33.4925 32.0002C33.4925 31.1754 32.8239 30.5068 31.9992 30.5068C31.1744 30.5068 30.5059 31.1754 30.5059 32.0002C30.5059 32.8249 31.1744 33.4935 31.9992 33.4935Z" fill="#000088"/>
<path d="M39.3527 33.3584C39.563 33.3861 39.7559 33.2381 39.7836 33.0278C39.8113 32.8176 39.6632 32.6247 39.453 32.597C39.2427 32.5693 39.0498 32.7173 39.0221 32.9276C38.9945 33.1379 39.1425 33.3308 39.3527 33.3584Z" fill="#000088"/>
<path d="M32.0001 39.4668L32.2561 34.9868L32.0001 32.8535L31.7441 34.9868L32.0001 39.4668Z" fill="#000088"/>
</svg>
