<svg width="64" height="64" viewBox="0 0 64 64" fill="none" xmlns="http://www.w3.org/2000/svg">
<g clip-path="url(#clip0)">
<path fill-rule="evenodd" clip-rule="evenodd" d="M-16 0H80.0009V64.0036H-16V0Z" fill="#40A6FF"/>
<path fill-rule="evenodd" clip-rule="evenodd" d="M42.0707 47.6482L31.7481 40.9651L21.4888 47.7204L25.3089 36.7476L15.0586 29.9743L27.7383 29.884L31.6668 18.9473L35.6857 29.8569L48.3563 29.8659L38.1602 36.7025L42.0707 47.6482Z" fill="white"/>
</g>
<defs>
<clipPath id="clip0">
<path d="M0 32C0 14.3269 14.3269 0 32 0V0C49.6731 0 64 14.3269 64 32V32C64 49.6731 49.6731 64 32 64V64C14.3269 64 0 49.6731 0 32V32Z" fill="white"/>
</clipPath>
</defs>
</svg>
