<svg width="64" height="64" viewBox="0 0 64 64" fill="none" xmlns="http://www.w3.org/2000/svg">
<path d="M0 0H64V64H0V0Z" fill="white"/>
<path d="M0 0H64V19.2H0V0Z" fill="black"/>
<path d="M0 44.7998H64V63.9998H0V44.7998Z" fill="#006600"/>
<path d="M20.5352 51.0001L21.2552 51.4001L39.9352 19.0001C41.0152 18.7601 41.6152 17.7201 42.2152 16.6801C42.6152 15.9601 44.2152 13.2001 44.8952 9.6001C42.9975 11.2865 41.3894 13.2729 40.1352 15.4801C39.5352 16.5201 38.9352 17.5601 39.2152 18.6401L20.5352 51.0001Z" fill="black" stroke="black" stroke-width="3.2"/>
<path d="M20.5352 51.0001L21.2552 51.4001L39.9352 19.0001C41.0152 18.7601 41.6152 17.7201 42.2152 16.6801C42.6152 15.9601 44.2152 13.2001 44.8952 9.6001C42.9975 11.2865 41.3894 13.2729 40.1352 15.4801C39.5352 16.5201 38.9352 17.5601 39.2152 18.6401L20.5352 51.0001Z" fill="white"/>
<path d="M31.975 12.7998C29.575 12.7998 25.575 19.1998 24.375 22.3998H0V41.5998H24.375C25.5875 44.7998 29.5875 51.1998 31.9875 51.1998C34.3875 51.1998 38.3875 44.7998 39.5875 41.5998H64V22.3998H39.575C38.375 19.1998 34.375 12.7998 31.975 12.7998Z" fill="#BB0000"/>
<path d="M39.5742 41.5999C40.8106 38.5456 41.4881 35.2939 41.5742 31.9999C41.4881 28.7059 40.8106 25.4542 39.5742 22.3999C38.3378 25.4542 37.6604 28.7059 37.5742 31.9999C37.6604 35.2939 38.3378 38.5456 39.5742 41.5999Z" fill="black"/>
<path d="M31.975 34.4001C32.8587 34.4001 33.575 33.3256 33.575 32.0001C33.575 30.6746 32.8587 29.6001 31.975 29.6001C31.0913 29.6001 30.375 30.6746 30.375 32.0001C30.375 33.3256 31.0913 34.4001 31.975 34.4001Z" fill="white"/>
<path d="M32.375 34.3203C32.375 34.3203 33.975 37.5203 33.975 42.7203C33.975 47.9203 32.375 51.1203 32.375 51.1203V34.3203Z" fill="white"/>
</svg>
