<svg width="64" height="64" viewBox="0 0 64 64" fill="none" xmlns="http://www.w3.org/2000/svg">
<path d="M0 0H64V64H0V0Z" fill="#FFB700"/>
<path d="M2.66211 32.0001L11.4246 2.6626H20.1871V61.3376H11.4371L2.66211 32.0001Z" fill="#FF5B00"/>
<path d="M2.66211 2.6626H11.4246V61.3376H2.67461L2.66211 2.6626Z" fill="#005641"/>
<path d="M22.8379 2.6626H61.3379V61.3376H22.8379V2.6626Z" fill="#8D2029"/>
<path d="M57.9258 56.8623C57.9258 56.8623 58.2883 57.5998 58.6883 57.8998C59.2883 58.3373 60.5008 58.3123 61.0133 58.8248C61.6383 59.4498 60.9633 60.2498 60.9758 60.3248L61.0133 60.7498C61.0133 60.7498 60.5883 60.7498 60.4133 60.7873C60.1508 60.8248 60.0383 61.0373 59.5508 61.0123C58.3133 60.9248 58.3633 59.8123 58.3008 58.8623C58.2383 58.4873 58.0883 58.0248 58.0133 57.6623C57.9383 57.3498 57.9258 56.8623 57.9258 56.8623V56.8623Z" fill="#FFB700"/>
<path fill-rule="evenodd" clip-rule="evenodd" d="M57.9245 56.8627L57.4746 56.8743L57.4747 56.8766L57.4748 56.8818L57.4754 56.9C57.476 56.9155 57.4768 56.9374 57.4781 56.9646C57.4806 57.0187 57.4847 57.0942 57.4914 57.1804C57.5042 57.3443 57.5277 57.5698 57.5727 57.7606C57.6076 57.9278 57.6567 58.1133 57.7028 58.2878C57.7104 58.3164 57.7179 58.3447 57.7252 58.3725C57.7778 58.5726 57.824 58.7557 57.8519 58.9152C57.8557 58.9753 57.8591 59.0391 57.8626 59.1055C57.884 59.5066 57.9105 60.0061 58.0615 60.4165C58.1576 60.6777 58.312 60.9337 58.5659 61.1297C58.8206 61.3262 59.1396 61.4349 59.5177 61.4616L59.5264 61.4621C59.851 61.4788 60.0718 61.4139 60.2493 61.3342C60.2885 61.3166 60.3242 61.2989 60.3517 61.2853C60.3815 61.2706 60.4011 61.2609 60.4198 61.2525C60.4533 61.2374 60.4669 61.2344 60.4756 61.2332L60.491 61.231L60.5062 61.2277C60.5493 61.2185 60.6606 61.2095 60.794 61.2046C60.8538 61.2024 60.9088 61.2013 60.949 61.2008L60.9961 61.2003L61.0084 61.2002L61.0114 61.2002L61.5034 61.2002L61.4334 60.4073C61.4401 60.3953 61.4482 60.3807 61.4584 60.3618C61.5152 60.2571 61.5952 60.1003 61.6527 59.9146C61.7706 59.5341 61.803 58.9798 61.3301 58.507C61.1404 58.3172 60.9046 58.1947 60.6812 58.1071C60.457 58.0191 60.2138 57.9546 59.9932 57.8985C59.9593 57.8898 59.9259 57.8814 59.893 57.8731C59.7031 57.8251 59.531 57.7817 59.3708 57.7294C59.1847 57.6687 59.0488 57.6064 58.9546 57.5384C58.8247 57.44 58.6714 57.242 58.5358 57.0281C58.472 56.9274 58.4192 56.8347 58.3825 56.7673C58.3642 56.7337 58.3501 56.7069 58.3408 56.6889L58.3307 56.6689L58.3285 56.6646C58.3285 56.6646 58.3283 56.6642 57.9245 56.8627ZM58.664 58.4115C58.8045 58.4836 58.9512 58.5392 59.0918 58.5851C59.2837 58.6476 59.4897 58.6996 59.6779 58.7471C59.7096 58.7551 59.7408 58.7629 59.7713 58.7707C59.9929 58.8271 60.1864 58.8797 60.3525 58.9449C60.5193 59.0104 60.6273 59.0769 60.6937 59.1434C60.8459 59.2956 60.8533 59.4538 60.793 59.6483C60.7615 59.7501 60.7141 59.8464 60.6675 59.9323C60.6612 59.944 60.6512 59.9619 60.6407 59.9808C60.6255 60.0083 60.6091 60.038 60.6005 60.0542C60.591 60.0721 60.5757 60.1015 60.5626 60.1339C60.556 60.1502 60.5457 60.1776 60.5375 60.2115C60.5332 60.2298 60.5247 60.2684 60.5243 60.3191C60.4574 60.325 60.3906 60.3332 60.333 60.3445C60.2175 60.3629 60.1237 60.3988 60.0502 60.4319C60.0159 60.4473 59.9829 60.4637 59.9573 60.4763L59.9527 60.4786C59.9242 60.4927 59.9026 60.5033 59.8808 60.5131C59.8152 60.5426 59.7368 60.5712 59.5768 60.5635C59.3388 60.546 59.2012 60.4832 59.1158 60.4172C59.0291 60.3503 58.9601 60.2525 58.9062 60.1058C58.8064 59.8347 58.7875 59.5021 58.7645 59.0989C58.7596 59.0135 58.7545 58.925 58.7485 58.8332L58.747 58.8108L58.7433 58.7887C58.7229 58.6663 58.6947 58.5381 58.664 58.4115Z" fill="black"/>
<path d="M36.3491 41.9798L36.5791 41.8398L36.6791 41.9798C36.8091 42.1598 37.1791 42.1498 37.4191 41.9798L37.6091 41.8298L37.7691 41.9698C37.9691 42.1598 38.3491 42.1598 38.5991 41.9698C38.7691 41.8498 38.7991 41.8398 38.8991 41.9398C38.9691 41.9998 39.1691 42.0598 39.3391 42.0898C39.6591 42.1298 39.6591 42.1298 39.8391 41.8498C39.9991 41.6198 40.0191 41.5298 39.9891 41.2998C39.9612 41.1241 39.9412 40.9472 39.9291 40.7698C39.9091 40.5098 39.9191 40.5098 40.2891 40.3698C40.4728 40.3134 40.6531 40.2466 40.8291 40.1698C40.9791 40.0798 41.3991 39.5898 41.3991 39.4898C41.3991 39.4698 41.2391 39.4298 41.0391 39.4098C40.2391 39.3098 40.1091 38.8898 40.6291 38.1098C41.4591 36.8098 41.9691 35.5598 41.9691 34.7698C41.9691 34.4098 41.9991 34.2898 42.0391 34.3698C42.2291 34.6798 41.8891 36.0098 41.3891 36.9698L41.1891 37.3498L41.3791 37.3098C41.4791 37.2798 42.1191 37.0098 42.7791 36.7098C44.5991 35.8898 45.2191 35.7298 46.3991 35.7798C47.3891 35.8198 47.7991 36.0098 48.4991 36.7398C48.8691 37.1398 49.2291 37.4098 49.8791 37.8198C51.2591 38.6798 51.3192 38.7598 51.3892 39.7798C51.4592 40.8098 51.4192 40.8698 50.6392 41.0398C49.9692 41.1898 49.5491 41.4998 49.4391 41.9398C49.3791 42.1598 49.5091 42.1698 49.8391 41.9498L50.0891 41.7898L50.1992 41.9498C50.3492 42.1598 50.6492 42.1598 50.8992 41.9498L51.0992 41.7998L51.2992 41.9498C51.5992 42.1998 51.9992 42.1398 52.1192 41.8298C52.1392 41.7798 52.1992 41.7898 52.3192 41.8998C52.5492 42.0998 53.1192 42.1798 53.1792 42.0198C53.1992 41.9598 53.1592 41.8198 53.0792 41.6998C52.7492 41.1998 52.6392 40.9698 52.6392 40.6998C52.6392 40.3198 52.7392 40.1298 53.1792 39.8298C53.6992 39.4498 53.8592 38.9698 53.4592 38.9698C53.2192 38.9698 52.9691 38.7498 52.8091 38.3998C52.4891 37.6798 52.5592 36.8798 53.0392 35.5398C53.4072 34.7513 53.5918 33.8898 53.5792 33.0198C53.5792 32.2798 53.5592 32.1598 53.3992 31.7498C53.274 31.4647 53.1199 31.1933 52.9392 30.9398L52.6591 30.5698L53.0091 30.2698C54.0892 29.3798 53.8692 27.9198 52.5692 27.3598C52.1692 27.1798 52.0692 27.1698 51.3692 27.1698C50.9692 27.1698 50.3192 27.2298 49.9692 27.2998C49.4993 27.3741 49.0248 27.4142 48.5491 27.4198C47.8691 27.4198 47.7491 27.3998 47.4891 27.2598C47.2191 27.1198 47.1691 27.0498 47.1191 26.7098C47.1143 26.6777 47.1018 26.6473 47.0826 26.6212C47.0635 26.5951 47.0383 26.574 47.0091 26.5598C46.9091 26.5298 46.4891 26.8998 46.4291 27.0598C46.3891 27.1498 46.3691 27.1398 46.2791 27.0298C46.1943 26.9208 46.1269 26.7994 46.0791 26.6698C45.9791 26.3398 46.1091 26.0998 46.4991 25.9098L46.7991 25.7698L46.6191 25.6598C46.2591 25.4298 45.6391 25.5898 45.4191 25.9598C45.3491 26.0598 45.2791 26.1598 45.2591 26.1598C45.2391 26.1598 45.1191 26.0598 44.9991 25.9298C44.5291 25.4698 44.6891 24.7898 45.3191 24.5898C45.6491 24.4798 45.9491 24.5598 46.0091 24.7898C46.1091 25.1198 46.3891 24.6798 46.3391 24.2698C46.3091 23.9998 46.3091 23.9898 46.4991 23.9898C46.7591 23.9898 47.2991 24.3298 47.4791 24.5898C47.6791 24.8998 47.6591 25.3898 47.4391 25.7498L47.2691 26.0298L47.4991 25.9898C47.8191 25.9198 48.1391 25.7198 48.2991 25.4698C48.3835 25.3105 48.4308 25.1344 48.4378 24.9543C48.4447 24.7743 48.411 24.595 48.3391 24.4298C48.1891 24.1598 48.2091 24.1198 48.4291 24.2098C48.7891 24.3598 48.9891 24.5298 49.1291 24.8198C49.2691 25.0798 49.2792 25.1398 49.2092 25.4198C49.1613 25.5902 49.087 25.7522 48.9891 25.8998C48.8691 26.0598 48.8592 26.0898 48.9592 26.0898C49.1392 26.0898 49.4991 25.9198 49.6291 25.7898C49.6991 25.7098 49.7991 25.5398 49.8491 25.3898L49.9492 25.1398L50.0492 25.3398C50.1992 25.6098 50.4992 25.8598 50.8592 26.0198C51.2492 26.1798 51.4091 26.1898 51.2091 26.0398C51.0691 25.9398 50.8092 25.1898 50.8992 25.1198C51.3307 25.3614 51.7249 25.6646 52.0692 26.0198C52.6392 26.5298 52.9992 26.6998 53.5192 26.6998C54.1892 26.6998 54.5792 26.1198 54.2792 25.5698C54.1092 25.2498 53.7192 25.1998 53.4792 25.4698C53.3792 25.5998 53.3492 25.6998 53.3792 25.8398C53.4192 25.9998 53.4091 26.0198 53.2591 26.0198C53.0591 26.0198 52.6792 25.7698 51.9992 25.1998C51.0526 24.3852 49.9646 23.7514 48.7891 23.3298C47.9928 23.1457 47.1706 23.1017 46.3591 23.1998C45.7191 23.3198 44.9591 23.6898 44.5391 24.0798C43.8091 24.7798 43.7991 25.7098 44.5091 26.5598L44.7091 26.7998L44.5791 27.0198C44.4814 27.1773 44.4329 27.3606 44.44 27.5459C44.4472 27.7312 44.5095 27.9102 44.6191 28.0598C44.7191 28.1998 44.8191 28.3098 44.8491 28.3098C44.8691 28.3098 44.8891 28.2198 44.8991 28.1098C44.9191 27.8398 45.0391 27.6598 45.2391 27.5898C45.4191 27.5198 45.5391 27.5598 46.3591 27.8898C47.2291 28.2298 48.6591 28.2498 50.1791 27.9498C50.838 27.7976 51.5235 27.8045 52.1791 27.9698C52.8992 28.2698 53.0592 29.0398 52.5392 29.6198C52.3092 29.8798 52.0992 29.9798 51.3692 30.1798C50.7336 30.3474 50.0729 30.3982 49.4192 30.3298C48.3392 30.3198 47.9492 30.3398 47.5191 30.4298C47.0291 30.5298 46.7391 30.5398 45.3391 30.5098L43.7091 30.4698L43.8891 30.6098C43.9855 30.6954 44.0893 30.7723 44.1991 30.8398C44.3291 30.9098 44.3191 30.9198 44.1391 30.9898C44.0391 31.0298 43.7991 31.0598 43.6091 31.0598H43.2791L43.2391 31.3398C43.2122 31.4717 43.2122 31.6078 43.2391 31.7398C43.2791 31.8398 43.2591 31.8598 43.1591 31.8198C43.0891 31.7898 42.8991 31.7398 42.7291 31.7098C42.5576 31.673 42.3901 31.6194 42.2291 31.5498C42.0391 31.4498 42.0191 31.4498 41.9491 31.5798C41.8891 31.6798 41.3291 32.0998 41.2491 32.0998C41.213 31.8403 41.1389 31.5876 41.0291 31.3498C40.9291 31.1398 40.8391 30.8998 40.8091 30.8298C40.7791 30.7198 40.7591 30.7098 40.7091 30.7998C40.6791 30.8498 40.6391 30.9998 40.6091 31.1198C40.5741 31.2817 40.5133 31.437 40.4291 31.5798L40.2791 31.7998L40.1791 31.6098C40.0791 31.4098 39.9191 31.1898 39.8591 31.1898C39.8391 31.1898 39.8091 31.2498 39.7891 31.3398C39.7391 31.4998 39.3491 31.9698 39.2491 31.9698C39.2191 31.9698 39.1891 31.8398 39.1891 31.6698C39.1891 31.5198 39.1591 31.3798 39.1191 31.3798C39.0791 31.3798 39.0491 31.4298 39.0491 31.4798C39.0491 31.5998 38.7191 31.9798 38.5991 31.9798C38.5591 31.9798 38.4791 32.0198 38.4291 32.0798C38.3091 32.2098 38.2091 32.1898 38.2591 32.0398C38.2732 31.9117 38.2595 31.7821 38.2191 31.6598L38.1191 31.3398C38.0991 31.2898 37.9791 31.3098 37.7191 31.3898C37.3191 31.5198 37.1791 31.4898 37.3891 31.3298C37.4691 31.2698 37.5891 31.0598 37.6491 30.8698C37.7191 30.6698 37.8191 30.4998 37.8691 30.4798C37.9391 30.4598 37.9391 30.4798 37.8491 30.5998C37.7913 30.6758 37.7534 30.7652 37.7391 30.8598C37.7391 30.9098 37.6891 31.0398 37.6391 31.1498C37.5791 31.2498 37.5391 31.3498 37.5491 31.3598C37.5591 31.3698 37.7191 31.3098 37.8991 31.2298L38.2191 31.0698V31.2098C38.2191 31.2898 38.2591 31.4898 38.3091 31.6598L38.3991 31.9598L38.6191 31.8598C38.8391 31.7598 39.0491 31.3998 39.0491 31.1098C39.0491 30.9698 39.1291 30.9898 39.1691 31.1398C39.1691 31.1798 39.2291 31.3498 39.2691 31.5098L39.3691 31.7898L39.5191 31.6098C39.6091 31.5098 39.7091 31.3098 39.7491 31.1798C39.8291 30.9398 39.9491 30.8298 39.9491 31.0098C39.9491 31.1298 40.2891 31.5898 40.3491 31.5498C40.3891 31.5298 40.4491 31.3598 40.4991 31.1698C40.5991 30.7698 40.7491 30.5098 40.8491 30.5698C40.8891 30.5898 40.8991 30.6298 40.8791 30.6698C40.8591 30.6898 40.9391 30.9498 41.0591 31.2298C41.1461 31.4396 41.2328 31.6496 41.3191 31.8598C41.3591 31.9598 41.3991 31.9598 41.6491 31.7298C41.7991 31.5898 41.9491 31.4398 41.9591 31.3898C41.9891 31.3098 42.0191 31.3198 42.1591 31.4098C42.454 31.5655 42.777 31.6607 43.1091 31.6898C43.1291 31.6698 43.1491 31.4898 43.1491 31.2898L43.1591 30.9198L43.3591 30.9598C43.4591 30.9898 43.6891 30.9898 43.8591 30.9598L44.1591 30.9198L43.8891 30.7198C43.7391 30.6198 43.5891 30.4898 43.5491 30.4298C43.5191 30.3698 43.3791 30.3098 43.2291 30.2998C42.8191 30.2598 42.0891 29.8598 42.0891 29.6598C42.0891 29.6198 42.1891 29.6898 42.3091 29.7998C42.5891 30.0498 42.9691 30.1998 43.3091 30.1998H43.5491L43.3991 29.9998C43.2923 29.8447 43.2237 29.6665 43.1991 29.4798C43.1791 29.1798 43.1491 29.1398 42.8391 28.9298C42.6594 28.8024 42.492 28.6584 42.3391 28.4998L42.1691 28.3098L42.0791 28.5398C42.0291 28.6698 41.9791 28.7698 41.9491 28.7698C41.9291 28.7698 41.8291 28.6898 41.7491 28.5998C41.6929 28.5346 41.6251 28.4803 41.5491 28.4398C41.5191 28.4398 41.4491 28.5598 41.3691 28.7098L41.2291 28.9798L41.1291 28.8298C41.0402 28.7071 40.9397 28.5933 40.8291 28.4898C40.7091 28.3898 40.6591 28.3098 40.6991 28.3098C40.7391 28.3098 40.8691 28.4098 40.9991 28.5398L41.2191 28.7698L41.3191 28.5998C41.3769 28.482 41.3945 28.3485 41.3691 28.2198C41.3291 28.0398 41.3391 28.0298 41.3991 28.1498C41.4854 28.2626 41.5863 28.3635 41.6991 28.4498L41.9191 28.6298L42.0691 28.3598C42.2191 28.0798 42.2191 28.0798 42.2791 28.2498C42.3791 28.4598 43.0291 28.9998 43.5791 29.3098C43.6791 29.3598 43.6391 29.1998 43.4791 28.8098C43.4311 28.6816 43.4041 28.5465 43.3991 28.4098C43.3991 28.2298 43.3491 28.1498 43.1191 27.9698C42.9762 27.8783 42.8565 27.7548 42.7697 27.609C42.6829 27.4631 42.6313 27.299 42.6191 27.1298C42.5891 26.9598 42.5291 26.7798 42.4791 26.7198C42.4191 26.6198 42.3991 26.6798 42.4191 26.9798C42.4391 27.1898 42.4091 27.4498 42.3591 27.5598L42.2791 27.7598L42.2191 27.5898C42.1791 27.4998 42.0191 27.3398 41.8691 27.2398C41.7191 27.1398 41.6091 27.0398 41.6291 27.0198C41.6491 26.9998 41.8091 27.0898 41.9791 27.2198C42.2491 27.4298 42.2991 27.4498 42.3391 27.3598C42.3791 27.2598 42.3391 26.7998 42.2591 26.4798C42.2191 26.3198 42.2191 26.3198 42.4191 26.5198C42.5591 26.6598 42.6391 26.8398 42.7091 27.1398C42.7891 27.5198 42.8291 27.5898 43.1791 27.8998C43.3891 28.0898 43.5791 28.2298 43.5891 28.2198C43.6091 28.1998 43.6291 27.7198 43.6491 27.1398C43.6891 26.0298 43.6491 25.7598 43.3791 25.4198L43.2391 25.2398L43.4591 25.0098C43.7056 24.774 43.8703 24.4657 43.9291 24.1298L43.9691 23.8598L43.7291 24.0898C43.5291 24.2798 43.4291 24.3198 43.1991 24.3198C42.9691 24.3198 42.8791 24.2798 42.7291 24.1198C42.4955 23.8948 42.2106 23.7301 41.8991 23.6398C41.7791 23.5998 41.7391 23.6198 41.7391 23.6998C41.7391 23.7598 41.6791 23.9198 41.5991 24.0698L41.4591 24.3298L41.1591 24.0298C40.9691 23.8598 40.7591 23.7098 40.5891 23.6698C40.1791 23.5698 40.1591 23.5698 40.1591 23.8798C40.1591 24.3498 39.9591 24.4398 39.5991 24.1298C39.3191 23.8898 39.0991 23.8298 38.5691 23.8998L38.1691 23.9398L38.2391 24.1198C38.2991 24.2698 38.2891 24.3398 38.1591 24.5098C37.9491 24.7898 37.6791 24.9098 37.2591 24.9098C37.0591 24.9098 36.8191 24.9498 36.7191 24.9998C36.6191 25.0498 36.3591 25.0998 36.1491 25.1198C35.9491 25.1398 35.7191 25.1798 35.6491 25.1998C35.5491 25.2398 35.5491 25.1998 35.5791 24.9798C35.6291 24.6398 35.3791 24.3798 35.0091 24.3798C34.5191 24.3798 34.2991 24.8198 34.4891 25.3998C34.528 25.5249 34.5614 25.6517 34.5891 25.7798C34.7205 26.0298 34.8968 26.2536 35.1091 26.4398C35.3691 26.6998 35.6091 26.9698 35.6491 27.0398C35.7296 27.1441 35.832 27.2294 35.9491 27.2898L36.1691 27.4098L36.1391 27.1698C36.1091 26.9098 36.1591 26.8698 36.2991 27.0598C36.3491 27.1198 36.4791 27.2298 36.5791 27.2898C36.7491 27.3898 36.7791 27.3898 36.7791 27.3098C36.7791 27.2498 36.8091 27.1198 36.8491 27.0198L36.9191 26.8398L37.0491 27.0898C37.1191 27.2298 37.3491 27.5398 37.5591 27.7898C37.9691 28.2598 38.2291 28.7898 38.0991 28.9098C38.0391 28.9598 37.8991 28.9598 37.5991 28.8998C37.3791 28.8598 37.0991 28.8298 36.9791 28.8498C36.7491 28.8798 36.7291 28.8498 36.8791 28.6698C37.0291 28.4698 36.9991 28.4398 36.6991 28.4398C36.3491 28.4398 35.4791 28.2698 35.1391 28.1398C34.8191 28.0098 34.7391 28.0398 34.6391 28.3498L34.4691 28.9098L34.3691 29.2098L34.7291 29.1798C34.9147 29.1603 35.0986 29.1269 35.2791 29.0798C35.35 29.0562 35.4246 29.046 35.4991 29.0498C35.5191 29.0598 35.4691 29.1798 35.3991 29.3198L35.2591 29.5598L35.4791 29.5198C35.5991 29.4898 35.7791 29.4298 35.8791 29.3798C36.0591 29.2998 36.0791 29.2998 36.2191 29.5298C36.3891 29.7998 36.5191 29.7898 36.5491 29.4998C36.5791 29.1998 36.6791 29.2398 36.8691 29.6398C37.0491 30.0198 37.2291 30.1598 37.2691 29.9398C37.2791 29.8598 37.3691 29.7398 37.4791 29.6598C37.6991 29.5098 37.8591 29.5598 37.9491 29.7898C38.0491 30.0398 37.8291 30.2898 37.2091 30.6698C36.635 30.9868 36.1409 31.4309 35.7648 31.9682C35.3887 32.5055 35.1405 33.1218 35.0391 33.7698C34.8491 34.9498 35.4391 36.1698 36.5991 37.0598C37.1591 37.4798 38.0491 37.9198 37.9891 37.7598C37.7491 37.0298 37.7591 35.6598 37.9991 35.4298C38.0391 35.3898 38.0291 35.5298 37.9691 35.7398C37.7691 36.5298 37.8691 37.1498 38.3691 38.6098C38.8091 39.9298 38.7491 40.4998 38.1091 40.8698C37.9091 40.9898 37.7791 41.0098 37.2291 40.9998C36.6291 40.9998 36.5591 40.9998 36.3691 41.1598C36.1394 41.3944 35.989 41.6952 35.9391 42.0198C35.9391 42.1498 36.0791 42.1298 36.3391 41.9798H36.3491Z" fill="#FFB700"/>
<path d="M46.0498 41.9499L46.2998 41.7899L46.4698 41.9499C46.6898 42.1599 46.9598 42.1499 47.1698 41.9399C47.2698 41.8399 47.3498 41.7799 47.3598 41.7899L47.4498 41.9499C47.4998 42.0399 47.6098 42.0799 47.8098 42.0999C48.0398 42.1099 48.1098 42.0999 48.2098 41.9599L48.3098 41.7899L48.5598 41.9499C49.2398 42.3899 49.5998 41.9299 49.2898 41.0199C49.1398 40.5599 49.2298 40.2999 49.7198 39.7199C49.9298 39.4699 50.0998 39.1999 50.0998 39.1199C50.0998 39.0099 50.0598 38.9899 49.7798 38.9999C49.5198 38.9999 49.4398 38.9699 49.2998 38.8199C49.0698 38.5699 49.0898 38.2799 49.3398 37.9599L49.5398 37.7099L49.1798 37.4699C48.8925 37.2576 48.6247 37.02 48.3798 36.7599C48.1616 36.5023 47.8947 36.2902 47.5944 36.1358C47.2941 35.9813 46.9664 35.8876 46.6298 35.8599L46.1598 35.8099V36.1699C46.1598 36.6199 46.3798 37.0599 46.9598 37.7999C47.6198 38.6399 47.6598 38.7699 47.6898 39.8699L47.7198 40.7999L47.5198 40.9799C47.3498 41.1399 47.2798 41.1699 46.7198 41.1999C46.1898 41.2299 46.0698 41.2599 45.9198 41.3999C45.7443 41.5279 45.623 41.717 45.5798 41.9299C45.5498 42.0799 45.5598 42.1099 45.6698 42.1099C45.7398 42.1099 45.9098 42.0399 46.0498 41.9499V41.9499ZM31.8298 39.5499C31.8903 39.4611 31.9249 39.3572 31.9298 39.2499C31.9298 39.1499 31.9898 39.1099 32.2498 39.0699L32.5598 39.0299L32.3598 38.8599C32.1098 38.6599 32.0798 38.5099 32.2998 38.5099C32.5198 38.5099 32.8798 38.2899 32.9398 38.1199C32.9698 38.0399 32.9398 37.9399 32.8998 37.8899C32.7798 37.7499 32.5498 37.7699 32.5098 37.9299C32.4598 38.0899 32.3898 38.0899 32.2098 37.9299C31.9598 37.6799 31.9498 37.1699 32.2098 36.8699C32.3198 36.7299 32.3198 36.7299 32.1698 36.5799C32.0098 36.4199 31.8898 36.1199 31.9698 36.0399C31.9898 36.0199 32.1198 36.0399 32.2498 36.0899C32.4498 36.1499 32.5198 36.1499 32.5998 36.0899C32.8298 35.8999 32.5798 35.6599 32.1998 35.7199C32.0398 35.7399 31.9798 35.7199 31.9598 35.6399C31.9398 35.5799 31.8098 35.4999 31.6598 35.4599C31.3898 35.3899 31.3898 35.3899 31.3898 35.5799C31.3898 35.7799 31.2698 35.8199 31.0498 35.6899C30.8698 35.5899 30.6998 35.6699 30.6998 35.8599C30.6998 36.0399 30.8698 36.1199 31.1998 36.0999C31.4398 36.0899 31.4498 36.2699 31.2198 36.5299L31.0498 36.7299L31.1798 36.9199C31.3798 37.1999 31.3598 37.6699 31.1498 37.9099L30.9798 38.0899L30.8698 37.9399C30.7098 37.7399 30.4998 37.7499 30.4398 37.9699C30.4098 38.1099 30.4398 38.1699 30.6198 38.3299C30.7398 38.4299 30.9198 38.5099 31.0098 38.5099C31.2398 38.5099 31.2298 38.6999 30.9898 38.8799L30.7898 39.0299L31.0898 39.0699C31.2498 39.0999 31.3898 39.1399 31.3898 39.1699C31.3898 39.2999 31.5898 39.6899 31.6498 39.6899C31.6898 39.6899 31.7698 39.6199 31.8298 39.5399V39.5499Z" fill="#FFB700"/>
<path d="M35.6497 37.8896C35.9197 37.7896 36.4997 37.2896 36.4997 37.1796C36.4997 37.1396 36.3397 36.9596 36.1397 36.7796C35.7397 36.4196 35.2897 35.7896 35.1697 35.4296C35.1097 35.2296 34.8197 34.9096 33.9997 34.1096L32.9097 33.0596L32.5997 33.1396C32.4197 33.1796 32.2097 33.2196 32.1297 33.2196C31.9797 33.2196 31.9797 33.2196 32.1797 33.3796L32.3797 33.5396L32.6797 33.3796C32.9497 33.2196 32.9597 33.2196 32.9897 33.3496C33.0097 33.4196 32.9697 33.5496 32.8897 33.6396C32.8197 33.7296 32.7797 33.8396 32.7897 33.8696C32.8197 33.8996 32.7497 33.9696 32.6397 34.0296C32.4397 34.1296 32.2897 34.4596 32.4497 34.4596C32.5997 34.4596 32.9197 34.0596 32.8797 33.9296C32.8597 33.8596 32.8797 33.7896 32.8997 33.7696C33.0297 33.6996 33.0197 34.0096 32.8997 34.1696C32.8197 34.2496 32.7797 34.3496 32.7997 34.3896C32.8197 34.4196 32.7497 34.4896 32.6397 34.5496C32.4397 34.6496 32.2897 34.9796 32.4497 34.9796C32.6097 34.9796 32.9197 34.5996 32.8897 34.4596C32.8697 34.3896 32.8697 34.3096 32.8997 34.2896C32.9897 34.2496 33.0297 34.4896 32.9597 34.6096C32.9413 34.6433 32.9317 34.6811 32.9317 34.7196C32.9317 34.758 32.9413 34.7958 32.9597 34.8296C33.0297 34.9596 32.9597 35.1996 32.8297 35.2796C32.7797 35.3096 32.8097 35.3796 32.9497 35.4796C33.1497 35.6196 33.1497 35.6396 33.1497 36.2796C33.1497 36.8196 33.1697 36.9596 33.2697 37.0496C33.3697 37.1496 33.3897 37.1496 33.3897 37.0496C33.3897 36.9496 33.5897 36.8096 33.7397 36.8096C33.7897 36.8096 34.0797 37.0596 34.3897 37.3596C34.6997 37.6596 35.0297 37.9296 35.1197 37.9396L35.3397 37.9796C35.3697 37.9796 35.5097 37.9496 35.6497 37.8796V37.8896ZM32.3197 35.2796C32.3197 35.1096 31.9597 34.9196 31.5297 34.8796C31.1797 34.8296 31.1797 34.8396 31.1797 35.0096C31.1797 35.1496 31.2297 35.2096 31.4797 35.3096C31.8597 35.4796 32.3197 35.4596 32.3197 35.2796Z" fill="#FFB700"/>
<path d="M32.7099 35.2596C32.8899 35.0996 32.9699 34.9196 32.8599 34.9196C32.7399 34.9196 32.4199 35.1996 32.4199 35.3196C32.4199 35.4796 32.4799 35.4696 32.7199 35.2596H32.7099ZM32.3399 34.7496C32.3499 34.6496 32.2899 34.5896 32.1099 34.4996C31.7099 34.3296 31.2499 34.2396 31.1399 34.3296C30.9299 34.4996 31.0699 34.7196 31.3999 34.7596C31.5399 34.7696 31.7199 34.8096 31.8099 34.8496C32.0699 34.9496 32.3099 34.8996 32.3399 34.7496V34.7496ZM32.3399 34.2196C32.3599 34.0896 32.2699 34.0396 31.5399 33.7796C30.9899 33.5796 30.7499 33.6796 30.9299 34.0096C30.9899 34.1196 31.0899 34.1696 31.3199 34.2096C31.4899 34.2296 31.7199 34.2796 31.8299 34.3196C32.1299 34.4196 32.3099 34.3796 32.3299 34.2196H32.3399ZM32.6999 33.7296C32.8099 33.6196 32.8999 33.4896 32.8999 33.4296C32.8999 33.2796 32.4699 33.5596 32.4099 33.7596C32.3499 33.9896 32.4599 33.9796 32.7099 33.7296H32.6999ZM32.3399 33.6996C32.3599 33.5396 32.0999 33.3996 31.5799 33.2896C31.1899 33.1996 31.0199 33.2496 31.0499 33.4296C31.0699 33.5296 31.1999 33.5996 31.5499 33.7096C32.1399 33.8896 32.3099 33.8896 32.3399 33.6996V33.6996ZM32.8399 32.9596C33.5199 32.6596 33.5699 31.9096 32.9399 31.7096C32.6799 31.6296 32.5199 31.6796 32.4199 31.8496C32.3399 31.9896 32.3899 32.2296 32.4899 32.2296C32.5299 32.2296 32.5599 32.2796 32.5599 32.3296C32.5599 32.5996 31.5399 32.7096 31.1199 32.4996C30.9699 32.4296 30.9199 32.2296 31.0299 32.2296C31.1299 32.2296 31.1899 32.0296 31.1399 31.8996C31.0799 31.6996 30.8799 31.6396 30.6099 31.7196C29.9799 31.8796 29.9999 32.6196 30.6399 32.9196C31.3479 33.1795 32.1228 33.1936 32.8399 32.9596V32.9596Z" fill="#FFB700"/>
<path d="M32.4291 32.3798C32.4691 32.3398 32.4491 32.2798 32.3891 32.2398C32.2491 32.1298 32.2591 31.9598 32.4091 31.7698C32.5291 31.6298 32.5391 31.4098 32.5791 29.2598C32.6491 25.5498 32.9291 22.7598 33.2891 22.0798C33.4391 21.8198 33.4191 21.8198 33.0391 22.0798C32.5405 22.4271 32.138 22.895 31.8691 23.4398C31.2491 24.5898 31.0391 26.1398 31.0391 29.4598C31.0391 31.3398 31.0491 31.5898 31.1591 31.7598C31.2591 31.9398 31.2591 31.9998 31.1991 32.1798C31.1491 32.2898 31.1291 32.4098 31.1491 32.4298C31.2891 32.5598 32.2891 32.5298 32.4291 32.3798ZM38.0391 28.8398C38.0691 28.8098 38.0191 28.6398 37.9391 28.4798C37.8191 28.2198 37.7691 28.1798 37.5991 28.1798C36.7995 28.1103 36.0196 27.8933 35.2991 27.5398C34.7891 27.3098 34.5991 27.2598 34.5491 27.3198C34.3891 27.4698 34.6491 27.8198 35.0491 28.0098C35.6377 28.2219 36.2543 28.3465 36.8791 28.3798C37.1491 28.3798 37.1591 28.3798 36.9991 28.6098L36.8991 28.7698H37.1991L37.6991 28.8298C37.9991 28.8998 37.9991 28.8998 38.0391 28.8398V28.8398Z" fill="#FFB700"/>
<path d="M41.1992 30.5099C41.1992 30.4099 40.9092 30.1599 40.6292 29.9899C40.3992 29.8599 40.3592 29.8499 40.3592 29.9599C40.3592 30.1199 40.2192 30.5299 40.1592 30.5299C40.1292 30.5299 40.0792 30.4499 40.0592 30.3599C40.0292 30.2599 39.9192 30.0599 39.8092 29.9299L39.6092 29.6799L39.4692 29.9099C39.3292 30.1299 39.0792 30.3399 38.9692 30.3399C38.9492 30.3399 38.9392 30.2199 38.9692 30.0899C38.9792 29.9299 38.9692 29.8099 38.9192 29.7899C38.8792 29.7599 38.8392 29.7699 38.8392 29.8099C38.8392 29.8899 38.4992 30.2699 38.4392 30.2699C38.3992 30.2699 38.3592 30.1699 38.3392 30.0299L38.2592 29.5499C38.2392 29.4299 38.2892 29.5099 38.3592 29.7499L38.5192 30.1599L38.6792 29.9099C38.7516 29.8066 38.8057 29.6916 38.8392 29.5699C38.8392 29.5199 38.8692 29.4999 38.9092 29.5199C38.9492 29.5399 38.9992 29.7099 39.0192 29.8899L39.0692 30.2299L39.2492 30.0299C39.3434 29.9296 39.4303 29.8227 39.5092 29.7099C39.5792 29.5899 39.5892 29.5899 39.7392 29.7099C39.8192 29.7899 39.9492 29.9599 40.0292 30.0999C40.1092 30.2399 40.1792 30.3399 40.1892 30.3299L40.2492 30.0099L40.2892 29.7099C40.2992 29.6599 40.8292 30.0099 41.0292 30.1799C41.1492 30.2899 41.2692 30.3699 41.2892 30.3499C41.3092 30.3299 41.3292 30.1699 41.3292 29.9799C41.3292 29.6999 41.2992 29.6199 41.1292 29.4699C40.9292 29.2899 40.9292 29.2899 40.8492 29.4199C40.7492 29.5899 40.6392 29.5899 40.6392 29.4199C40.6392 29.2999 40.2592 28.8299 40.1692 28.8299C40.1392 28.8299 40.0592 28.9299 39.9892 29.0599C39.9192 29.1899 39.8392 29.2899 39.8192 29.2899C39.7192 29.2899 39.1892 28.6899 39.1892 28.5899C39.1892 28.5099 39.2292 28.5299 39.3192 28.6699C39.4086 28.8013 39.5126 28.922 39.6292 29.0299C39.8292 29.2099 39.9092 29.1699 39.9892 28.8199C40.0192 28.7199 40.0592 28.6399 40.0892 28.6399C40.1692 28.6399 40.6292 29.1299 40.6892 29.2899L40.7592 29.4499L40.8092 29.2699C40.8692 29.0499 40.9392 29.0499 41.0392 29.2499C41.0792 29.3299 41.2792 29.5099 41.4792 29.6299L41.8492 29.8699L41.9192 29.6299C41.9592 29.4999 42.0192 29.4299 42.0392 29.4699C42.0792 29.5199 41.9792 29.9199 41.9092 29.9999C41.9092 30.0099 41.7792 29.9399 41.6492 29.8499L41.3992 29.6699V29.9899C41.3992 30.1599 41.3792 30.3699 41.3592 30.4499C41.3092 30.6099 41.1892 30.6499 41.1892 30.5099H41.1992ZM39.3492 27.9699C38.9092 27.6099 38.8492 27.5299 38.8492 27.3499L38.8592 27.1699L38.8892 27.3399C38.9092 27.4399 39.0292 27.5999 39.1692 27.7199L39.4292 27.9199L39.5792 27.7399C39.6692 27.6399 39.7392 27.5199 39.7392 27.4799C39.7392 27.3599 39.7592 27.3699 40.0592 27.6299C40.3192 27.8599 40.3292 27.8599 40.3592 27.7099C40.3892 27.6299 40.3792 27.4699 40.3592 27.3599C40.2592 27.0599 40.2792 27.0199 40.4092 27.1999L40.6492 27.4799C40.7492 27.5899 40.7592 27.5899 40.7992 27.4499C40.8292 27.3599 40.8492 27.2099 40.8492 27.1099V26.9199L41.0792 27.1899C41.3092 27.4499 41.3292 27.4599 41.3892 27.3299C41.4392 27.2599 41.4692 27.0899 41.4692 26.9599C41.4692 26.7799 41.4892 26.7399 41.5292 26.7999C41.6092 26.9199 41.5592 27.2199 41.4192 27.4799L41.3192 27.6799L41.1892 27.4699C41.0192 27.2099 40.9592 27.2099 40.8592 27.4899C40.7592 27.7599 40.6892 27.7799 40.5892 27.5699C40.5292 27.4399 40.5092 27.4599 40.4692 27.7399L40.4192 28.0399L40.1192 27.8099L39.8192 27.5799L39.6692 27.7299C39.5992 27.8199 39.5392 27.9299 39.5392 27.9699C39.5392 28.0699 39.4592 28.0699 39.3492 27.9699V27.9699ZM43.2492 26.6099C43.0992 26.4699 42.9892 26.3299 43.0092 26.3099C43.0392 26.2799 43.0592 26.2699 43.0692 26.2899C43.166 26.3931 43.266 26.4931 43.3692 26.5899C43.7092 26.9499 43.6392 26.9599 43.2592 26.6099H43.2492ZM38.0492 26.0699C37.9092 25.8699 37.9192 25.7499 38.0992 25.5299C38.2192 25.3799 38.2792 25.3599 38.4992 25.3899C38.6492 25.3999 38.9592 25.5299 39.1892 25.6699C39.5216 25.8685 39.902 25.9722 40.2892 25.9699L40.1192 25.6899C39.8992 25.3599 39.8992 25.3199 40.1592 25.5199C40.4192 25.7299 40.7292 25.7899 41.4292 25.7699L41.7692 25.7599L41.5692 25.5599C41.2992 25.2899 41.3792 25.2599 41.6892 25.5299C41.9692 25.7799 41.9592 25.7999 41.3492 25.8599C41.0948 25.8856 40.838 25.8687 40.5892 25.8099C40.2492 25.7099 40.2292 25.7199 40.2992 25.8299C40.3392 25.8999 40.3992 25.9499 40.4292 25.9499C40.4692 25.9499 40.4992 25.9899 40.4992 26.0299C40.4992 26.1599 39.7592 26.0399 39.3992 25.8699C38.5992 25.4599 38.4992 25.4199 38.2992 25.4799C38.2459 25.5004 38.1973 25.5313 38.1561 25.5708C38.1149 25.6103 38.0819 25.6576 38.0592 25.7099C37.9292 26.0399 38.3992 26.2999 38.5892 26.0099C38.6492 25.9199 38.6392 25.8699 38.5392 25.7599C38.3992 25.6199 38.4192 25.5999 38.5992 25.6599C38.7292 25.7099 38.7392 26.0199 38.6192 26.1399C38.4892 26.2699 38.1692 26.2399 38.0492 26.0699Z" fill="black"/>
<path d="M41.2395 25.2598C41.1395 25.1598 41.2195 25.1398 41.6695 25.1298C42.2295 25.1198 42.5695 25.0297 42.9695 24.7698C43.2895 24.5698 43.3795 24.6098 43.0695 24.8198C42.7995 25.0197 42.3695 25.1597 41.9395 25.1997L41.4295 25.2697C41.3495 25.2897 41.2595 25.2798 41.2295 25.2598H41.2395Z" fill="black"/>
</svg>
